<?xml version="1.0" encoding="UTF-8" standalone="no"?>
<svg xmlns="http://www.w3.org/2000/svg" viewBox="0 0 100 100" width="200" height="200" version="1.1">
<path d="M 84.5,15.1 73.7,25.9 C 50.8,16.7 23.6,21.4 5.1,39.9 l 6.4,6.4 C 26.4,31.5 47.8,27 66.6,33 l -7.4,7.4 c -14.4,-3 -30,1.1 -41.2,12.4 l 6.4,6.4 c 7.3,-7.3 17,-10.9 26.7,-10.6 l -11,11 c -3.4,1.3 -6.5,3.3 -9.3,6.1 l 1.6,1.6 -11.6,11.4 3.5,3.5 L 88,18.6 84.5,15.1 Z" />
<path d="m 43.6,78.5 6.4,6.4 6.4,-6.4 c -3.5,-3.6 -9.3,-3.6 -12.8,0 z" />
<path d="m 46.6,67.1 c 5.7,-1.1 11.9,0.6 16.3,5 l 6.4,-6.4 C 65.4,61.8 60.5,59.3 55.5,58.3 l -8.9,8.8 z" />
<path d="m 62.8,50.9 c 4.7,1.8 9.1,4.5 12.9,8.3 l 6.4,-6.4 C 78.4,49.1 74.2,46.1 69.7,44 l -6.9,6.9 z" />
<path d="m 83.1,30.6 -6.6,6.6 c 4.3,2.4 8.4,5.4 12.1,9.1 L 95,39.9 C 91.3,36.3 87.3,33.2 83.1,30.6 Z" />
</svg>
