<?xml version="1.0" standalone="no"?><!DOCTYPE svg PUBLIC "-//W3C//DTD SVG 1.1//EN" "http://www.w3.org/Graphics/SVG/1.1/DTD/svg11.dtd" ><svg xmlns="http://www.w3.org/2000/svg"><metadata></metadata><defs><font id="DFPYuanW9-GB" horiz-adv-x="1000"><font-face font-family="DFPYuanW9-GB" font-weight="400" font-stretch="normal" units-per-em="1000" panose-1="2 15 9 0 0 0 0 0 0 0" ascent="860" descent="-140" x-height="0" bbox="15 -100 972 825" underline-thickness="50" underline-position="-110" unicode-range="U+0048-9971" /><missing-glyph horiz-adv-x="1000"  /><glyph glyph-name="" unicode="h" d="M666 31 q0 -66 -74 -66 q-32 0 -50 19 q-19 19 -19 48 l0 234 l-330 0 l0 -230 q0 -32 -20 -52 q-20 -19 -53 -19 q-70 0 -70 72 l0 549 q0 32 20 54 q19 21 54 21 q69 0 69 -75 l0 -192 l330 0 l0 195 q0 72 70 72 q73 0 73 -71 l0 -559 Z" /><glyph glyph-name="" unicode="o" d="M681 316 q0 -157 -76 -249 q-84 -102 -246 -102 q-160 0 -248 105 q-81 95 -81 246 q0 151 85 245 q88 100 241 100 q149 0 238 -100 q87 -95 87 -245 ZM540 310 q0 93 -40 152 q-48 70 -142 70 q-92 0 -142 -69 q-44 -60 -44 -153 q0 -90 44 -148 q50 -67 142 -67 q93 0 141 65 q41 58 41 150 Z" /><glyph glyph-name="" unicode="t" d="M646 577 q0 -24 -16 -42 q-19 -21 -47 -21 l-189 0 l0 -471 q0 -78 -67 -78 q-74 0 -74 79 l0 470 l-173 0 q-29 0 -47 20 q-18 20 -18 46 q0 27 17 45 q17 18 47 18 l504 0 q29 0 46 -20 q17 -20 17 -46 Z" /><glyph glyph-name="" unicode="&#x9971;" d="M148 818 q35 0 57 -19 q21 -11 21 -52 q0 -19 -6 -47 l155 0 q40 0 61 -15 q24 -22 24 -59 q0 -14 -1 -23 q10 21 19 43 q30 73 53 140 q8 29 43 32 q28 0 50 -12 q22 -14 24 -35 q0 -21 -8 -51 l192 0 q69 0 86 -29 q19 -22 19 -175 q0 -144 -7 -222 q-9 -62 -37 -85 q-31 -28 -85 -28 l-25 0 q-21 0 -32 6 q-19 -26 -56 -26 l-113 0 l0 -109 q0 -16 23 -16 l207 0 q20 0 23 17 q4 20 4 61 q4 20 18 30 q15 9 41 9 q28 0 42 -21 q17 -18 17 -72 q-4 -54 -25 -96 q-26 -45 -65 -45 l-297 0 q-106 0 -106 74 l0 422 q-21 0 -42 15 q-1 -2 -1 -3 q-8 -24 -25 -31 q-12 -8 -41 -8 q-22 0 -41 18 q-10 8 -10 37 q0 7 3 24 q21 85 21 97 q0 7 -12 7 l-126 0 q-22 -82 -46 -136 q-15 -28 -51 -28 q-25 0 -47 18 q-23 16 -23 45 q0 25 8 58 q39 103 70 250 q15 40 47 40 ZM563 521 l124 0 q78 0 78 -71 l0 -160 l8 0 q3 0 8 -1 q12 -3 19 -3 q4 0 7 9 q2 8 4 35 q1 68 1 257 q0 20 -23 20 l-188 0 q-19 -48 -38 -86 ZM378 110 q31 0 41 -16 q18 -16 18 -42 q0 -30 -20 -43 q-63 -58 -210 -82 q-58 2 -59 62 q1 27 12 40 l0 394 q0 33 14 47 q13 15 48 15 q38 0 51 -14 q16 -14 16 -48 l0 -349 q40 13 69 28 q11 7 20 8 ZM589 419 q-7 0 -7 -8 l0 -148 l58 0 q8 0 8 8 l0 140 q0 8 -8 8 l-51 0 Z" /><glyph glyph-name="" unicode="&#x6bd4;" d="M195 810 q38 0 51 -14 q15 -15 15 -49 l0 -164 l168 0 q37 0 49 -14 q14 -15 14 -52 q0 -33 -11 -49 q-15 -18 -52 -18 l-168 0 l0 -356 q77 23 156 44 q36 0 45 -17 q17 -21 18 -46 q0 -53 -31 -62 q-35 -20 -207 -70 q-43 -16 -75 -16 q-26 0 -42 22 q-16 21 -16 48 q0 30 19 49 l0 701 q0 33 16 48 q13 15 51 15 ZM886 626 q30 0 47 -26 q16 -13 16 -56 q0 -28 -28 -47 q-65 -37 -146 -66 q-54 -19 -108 -32 l0 -304 q0 -24 24 -24 l86 0 q20 0 28 26 q10 40 15 111 q11 27 58 31 q32 -1 55 -17 q18 -15 20 -45 q0 -98 -30 -163 q-30 -69 -115 -79 l-195 0 q-43 0 -62 29 q-16 23 -16 80 l0 715 q0 24 16 44 q17 15 50 15 q28 0 47 -15 q19 -15 19 -44 l0 -228 q86 31 184 83 q17 12 35 12 Z" /><glyph glyph-name="" unicode="&#x7b54;" d="M493 574 q2 13 7 27 q39 73 70 177 q14 40 43 40 q32 0 53 -17 q21 -9 21 -46 q0 -7 -2 -16 l213 0 q32 0 42 -11 q13 -13 13 -43 q0 -30 -10 -43 q-13 -16 -45 -16 l-80 0 q41 -62 41 -94 q0 -25 -19 -34 q-15 -16 -51 -16 q-29 0 -43 31 q-33 62 -64 112 q-1 1 -1 1 l-29 0 q-20 -58 -41 -95 q117 -73 299 -151 q36 -10 39 -55 q0 -28 -13 -42 q-15 -28 -58 -28 q-22 0 -54 14 q-31 16 -64 35 q-2 -10 -6 -15 q-11 -14 -36 -14 l-426 0 q-19 0 -30 11 q-7 6 -10 17 q-29 -15 -54 -27 q-52 -25 -73 -25 q-41 0 -58 23 q-17 21 -17 40 q0 43 35 58 q125 56 230 119 q-10 8 -15 18 q-18 59 -37 106 q-2 4 -3 7 l-31 0 q-28 -69 -58 -113 q-13 -27 -46 -27 q-26 0 -47 16 q-24 15 -24 42 q0 20 11 45 q51 80 91 193 q12 36 39 36 q33 0 54 -16 q20 -10 20 -47 q0 -8 -2 -16 l182 0 q32 0 42 -11 q12 -12 12 -43 q0 -29 -9 -43 q-13 -16 -45 -16 l-68 0 q24 -50 28 -77 q51 25 84 29 ZM363 368 l288 0 q-43 26 -88 55 q-43 27 -60 27 q-16 0 -29 -9 q-59 -40 -111 -73 ZM207 220 l589 0 q79 0 79 -78 l0 -141 q0 -78 -79 -78 l-589 0 q-79 0 -79 78 l0 141 q0 78 79 78 ZM722 28 q20 0 20 20 l0 47 q0 19 -20 19 l-441 0 q-20 0 -20 -19 l0 -47 q0 -20 20 -20 l441 0 Z" /><glyph glyph-name="" unicode="&#x96d5;" d="M621 818 q29 0 48 -14 q22 -8 22 -41 q0 -17 -5 -33 q-6 -27 -12 -53 l83 0 q-20 34 -39 62 q-8 11 -8 24 q0 26 26 43 q19 12 45 12 q20 0 31 -16 q14 -10 33 -37 q40 -57 41 -80 q0 -5 -1 -8 l25 0 q29 0 39 -12 q11 -12 11 -43 q0 -27 -8 -39 q-13 -15 -42 -15 l-55 0 l0 -110 l39 0 q30 0 40 -11 q11 -11 11 -40 q0 -27 -9 -39 q-12 -15 -42 -15 l-39 0 l0 -110 l39 0 q30 0 40 -10 q11 -12 11 -40 q0 -28 -9 -40 q-12 -15 -42 -15 l-39 0 l0 -121 l55 0 q50 0 50 -51 q0 -55 -50 -55 l-266 0 q-94 0 -94 94 l0 401 q-8 -3 -19 -3 q-19 0 -31 6 l0 -396 q0 -61 -28 -77 q-25 -29 -86 -29 q-39 1 -86 12 q-19 7 -29 24 q-10 14 -10 39 q2 23 12 37 q11 12 31 13 q7 0 14 -2 q32 -5 57 -5 q23 0 23 19 l0 299 q-9 -6 -23 -6 l-180 0 q-12 0 -20 4 l0 -82 q0 -194 -35 -313 q-6 -17 -19 -27 q-10 -12 -32 -12 q-30 0 -40 12 q-14 11 -14 35 q0 8 3 19 q23 79 29 160 q3 69 3 126 l0 434 q0 82 86 82 l261 0 q83 0 83 -86 l0 -151 q49 105 82 244 q9 36 39 36 ZM175 420 q9 3 20 3 l43 0 l0 78 l-12 0 q-18 0 -28 10 q-11 9 -11 33 q0 24 11 32 q8 7 28 7 l12 0 l0 31 q0 21 9 31 q10 12 38 12 q27 0 38 -9 q9 -9 9 -34 l0 -31 l15 0 q20 0 29 -8 q10 -6 10 -31 q0 -21 -6 -29 q-10 -14 -33 -14 l-15 0 l0 -78 l43 0 q17 0 23 -5 l0 224 q0 35 -27 35 l-172 0 q-24 0 -24 -20 l0 -237 ZM742 17 l0 121 l-82 0 l0 -102 q0 -19 15 -19 l67 0 ZM742 243 l0 110 l-82 0 l0 -110 l82 0 ZM742 458 l0 110 l-82 0 l0 -110 l82 0 ZM242 306 l82 0 q51 0 51 -47 l0 -145 q0 -50 -43 -50 l-94 0 q-47 0 -47 50 l0 145 q0 47 51 47 ZM265 146 l20 0 q19 0 19 7 l0 59 q0 12 -19 12 l-20 0 q-4 0 -4 -12 l0 -59 q0 -7 4 -7 Z" /><glyph glyph-name="" unicode="&#x591a;" d="M419 645 q-15 -6 -30 -11 q46 -44 92 -116 q94 29 159 72 q39 22 39 36 q0 8 -23 8 l-203 0 q-22 1 -34 11 ZM255 601 q-27 -6 -55 -10 q-18 -4 -44 -4 q-38 0 -54 22 q-13 17 -13 44 q4 44 51 47 q193 20 278 70 q36 18 46 28 q20 12 36 12 q27 0 50 -12 q28 -17 28 -43 q0 -5 -1 -8 l161 0 q62 0 91 -15 q30 -22 30 -63 q-6 -59 -84 -124 q-50 -43 -111 -75 q21 -2 40 -11 q26 -16 26 -40 q0 -19 -14 -34 q-2 -3 -4 -5 l116 0 q60 0 88 -15 q29 -21 29 -59 q-7 -72 -94 -153 q-138 -130 -363 -193 q-191 -53 -344 -57 q-35 0 -52 16 q-18 18 -18 51 q0 53 54 58 q178 14 314 51 q-37 52 -91 114 q-2 2 -3 3 q-63 -16 -132 -28 q-25 -7 -60 -7 q-38 0 -54 22 q-13 17 -13 45 q4 43 51 47 q289 37 416 133 q25 16 39 28 q-67 -29 -144 -49 q-170 -43 -307 -46 q-33 0 -49 15 q-17 16 -17 47 q0 50 50 55 q123 8 221 27 q-35 47 -84 102 q-7 7 -10 14 ZM557 270 q-38 -19 -80 -34 q43 -46 85 -117 q95 38 162 90 q45 31 45 50 q0 8 -23 8 l-172 0 q-10 1 -17 3 Z" /><glyph glyph-name="" unicode="&#x80aa;" d="M175 778 l168 0 q90 0 90 -89 l0 -657 q65 84 93 173 q32 96 32 214 l0 145 l-55 0 q-28 0 -45 15 q-17 14 -17 51 q0 40 17 54 q14 12 45 12 l147 0 q-13 27 -32 60 q-1 3 -1 7 q0 10 5 23 q8 16 29 25 q15 7 28 7 q35 0 51 -20 q16 -13 37 -52 q14 -26 14 -42 q0 -5 -1 -8 l126 0 q31 0 46 -13 q16 -12 16 -53 q0 -33 -10 -46 q-16 -20 -52 -20 l-219 0 q0 -60 -1 -106 l149 0 q73 0 90 -30 q20 -22 20 -178 q0 -147 -9 -227 q-11 -63 -46 -87 q-38 -29 -105 -29 l-44 0 q-35 0 -58 9 q-27 6 -37 23 q-10 15 -10 39 q0 19 10 49 q13 14 29 21 l24 0 q9 0 22 -2 q33 -6 52 -6 q15 0 24 8 q10 7 15 32 q4 62 4 234 q0 23 -24 23 l-109 0 q-4 -62 -19 -127 q-38 -158 -133 -283 q-23 -24 -55 -24 q-39 0 -57 20 q-7 5 -10 10 q-33 -26 -93 -26 q-51 0 -74 17 q-20 15 -20 54 q0 37 13 54 q9 12 26 12 l43 0 q8 0 8 12 l0 156 l-107 0 q-11 -162 -45 -254 q-15 -47 -67 -47 q-58 4 -62 55 q0 29 19 77 q39 149 39 333 l0 313 q0 89 86 89 ZM210 329 l102 0 l0 102 l-102 0 l0 -102 ZM210 548 l102 0 l0 94 q0 15 -12 15 l-74 0 q-16 0 -16 -11 l0 -98 Z" /><glyph glyph-name="" unicode="&#x7ea2;" d="M539 747 l328 0 q31 0 46 -13 q16 -12 16 -53 q0 -33 -10 -46 q-16 -21 -52 -21 l-102 0 l0 -539 l125 0 q33 0 49 -13 q18 -12 18 -53 q0 -35 -11 -48 q-17 -22 -56 -22 l-363 0 q-30 0 -48 16 q-19 14 -19 54 q0 39 19 54 q14 12 48 12 l105 0 l0 539 l-93 0 q-29 0 -45 16 q-18 14 -18 51 q0 39 18 54 q13 12 45 12 ZM285 810 q30 0 51 -11 q27 -14 27 -48 q0 -10 -8 -25 q-34 -83 -129 -197 q23 3 42 6 q32 6 62 12 q23 34 41 63 q13 28 54 28 q18 0 42 -13 q21 -11 21 -46 q0 -11 -10 -24 q-61 -106 -201 -251 q66 15 129 33 q22 0 39 -18 q12 -15 12 -41 q0 -27 -15 -43 q-11 -14 -40 -19 q-183 -66 -285 -66 q-33 0 -46 15 q-12 13 -13 43 q0 32 16 47 q6 8 21 10 q75 77 131 146 q-9 -2 -18 -4 q-39 -8 -83 -14 q-12 -1 -28 -1 q-28 0 -45 26 q-13 20 -13 44 q0 30 27 44 q126 156 164 253 q19 51 55 51 ZM402 146 q33 0 44 -17 q18 -18 18 -46 q0 -30 -19 -43 q-104 -82 -344 -117 q-61 2 -62 62 q1 51 43 59 q182 42 286 89 q17 10 34 13 Z" /><glyph glyph-name="" unicode="&#x952e;" d="M179 818 q28 0 50 -10 q24 -12 24 -41 q0 -23 -6 -49 l0 -2 l69 0 q21 0 32 -5 q4 16 12 24 q13 8 34 8 l98 0 q58 0 58 -47 q0 -42 -70 -191 q0 -12 8 -12 q47 0 56 -12 q18 -10 18 -50 q0 -96 -36 -237 q-8 -29 -16 -54 q23 -27 47 -47 q44 -35 120 -51 q-6 12 -6 26 l0 62 l-82 0 q-19 0 -30 11 q-13 10 -13 36 q0 28 13 38 q8 9 30 9 l82 0 l0 43 l-70 0 q-18 0 -28 10 q-11 9 -11 33 q0 26 11 35 q8 8 28 8 l70 0 l0 39 l-50 0 q-43 0 -43 47 q0 43 27 43 l66 0 l0 46 l-93 0 q-20 0 -31 12 q-12 9 -12 35 q0 28 12 38 q9 9 31 9 l93 0 l0 43 l-62 0 q-26 0 -27 39 q0 47 31 47 l58 0 l0 8 q0 28 17 43 q14 16 42 16 q26 0 42 -16 q17 -15 17 -43 l0 -8 l86 0 q70 -1 70 -74 l0 -57 q10 -2 15 -8 q12 -7 12 -37 q0 -23 -7 -32 q-8 -10 -20 -13 l0 -80 q0 -58 -74 -58 l-82 0 l0 -39 l113 0 q19 0 29 -9 q10 -7 10 -34 q0 -22 -6 -30 q-10 -13 -33 -13 l-113 0 l0 -43 l113 0 q21 0 31 -10 q12 -8 12 -37 q0 -24 -7 -32 q-11 -15 -36 -15 l-113 0 l0 -62 q0 -23 -12 -39 q-1 -1 -1 -1 q33 -3 67 -3 q16 0 42 2 q23 1 32 1 q22 0 37 -13 q18 -16 18 -41 q0 -27 -13 -43 q-14 -20 -81 -20 q-185 0 -253 20 q-82 18 -157 90 q-21 -50 -43 -82 q-20 -28 -50 -28 q-21 0 -40 14 q-11 10 -14 25 q-40 -15 -99 -23 q-61 2 -62 62 q0 21 7 33 l0 186 l-58 0 q-25 0 -40 14 q-15 12 -15 45 q0 35 15 48 q12 10 40 10 l58 0 l0 86 l-24 0 q-9 -18 -18 -31 q-14 -23 -43 -23 q-29 0 -43 17 q-16 13 -16 37 q0 19 10 38 q50 99 67 156 q22 64 44 181 q10 32 35 32 ZM362 55 q15 34 27 66 q-27 44 -48 93 q-13 -6 -29 -6 l-35 0 l0 -144 q15 4 27 8 q6 3 12 3 q33 0 44 -17 q2 -2 2 -3 ZM327 324 q2 3 5 6 q14 14 31 15 q26 0 39 -24 q15 -33 30 -62 q21 89 21 133 q0 15 -8 15 l-47 0 q-39 0 -39 39 q0 19 70 192 q0 8 -11 8 l-24 0 q-11 0 -19 2 q-2 -24 -11 -36 q-14 -17 -48 -17 l-98 0 q-9 -30 -20 -59 q-1 -3 -2 -4 l96 0 q35 0 46 -12 q13 -13 13 -46 q0 -31 -10 -46 q-14 -17 -49 -17 l-15 0 l0 -86 l35 0 q8 0 15 -1 ZM789 665 l0 -43 l46 0 l0 35 q0 8 -11 8 l-35 0 ZM789 528 l0 -46 l39 0 q7 0 7 3 l0 43 l-46 0 Z" /><glyph glyph-name="" unicode="&#x89e3;" d="M234 821 q28 0 49 -13 q21 -17 21 -37 q0 -12 -5 -24 l91 0 q86 0 86 -62 q0 -27 -47 -106 l8 0 q69 0 70 -59 q2 4 4 6 q38 44 52 70 q15 26 30 69 l-47 0 q-37 3 -39 55 q2 48 39 51 l301 0 q60 0 70 -19 q24 -16 24 -67 q0 -133 -20 -161 q-8 -33 -39 -41 q-17 -9 -58 -9 l-33 0 q-16 0 -43 4 q-28 4 -40 14 q-9 17 -9 36 q0 19 5 34 q12 14 29 20 q26 1 44 1 l19 0 q24 0 24 67 q0 15 -16 15 l-101 0 l0 -4 q0 -10 -5 -23 q-12 -48 -35 -89 q-27 -47 -54 -75 q-2 -3 -3 -5 q2 1 3 1 q28 0 44 -11 q18 -12 18 -40 q0 -13 -6 -35 l34 0 l0 19 q0 30 18 46 q14 17 44 17 q29 0 45 -17 q18 -16 18 -46 l0 -19 l58 0 q30 0 40 -12 q11 -12 11 -43 q0 -27 -9 -39 q-12 -15 -42 -15 l-58 0 l0 -79 l74 0 q32 0 46 -12 q13 -10 13 -42 q0 -27 -11 -40 q-16 -19 -48 -19 l-74 0 l0 -109 q0 -25 -12 -41 q-16 -22 -51 -22 q-32 0 -48 22 q-14 16 -14 41 l0 109 l-125 0 q-30 0 -45 14 q-14 12 -14 45 q0 31 14 43 q14 11 45 11 l125 0 l0 79 l-69 0 q-10 -24 -17 -36 q-7 -23 -43 -23 q-26 0 -40 15 q-15 10 -15 40 q0 7 5 22 q37 70 58 150 q2 7 4 9 q-8 -2 -16 -2 q-30 0 -46 18 q-10 8 -13 19 l0 -482 q0 -50 -14 -67 q-19 -27 -76 -27 l-29 0 q-19 0 -38 9 q-16 3 -22 22 q0 1 0 2 q-12 -9 -32 -9 q-23 0 -35 12 q-11 10 -11 35 l0 156 l-64 0 q-8 -110 -30 -188 q-7 -19 -21 -30 q-10 -13 -34 -13 q-35 0 -46 13 q-16 14 -16 42 q1 7 3 20 q32 79 41 161 q2 70 2 128 l0 222 q0 52 31 72 q-6 -1 -11 -1 q-29 0 -49 24 q-17 19 -17 38 q0 15 15 27 q91 81 141 153 q20 15 39 15 ZM343 138 l0 -100 q10 5 19 6 l24 0 q16 0 16 20 l0 74 l-59 0 ZM191 239 l59 0 l0 71 l-59 0 l0 -71 ZM343 310 l0 -71 l59 0 l0 71 l-59 0 ZM191 403 l59 0 l0 75 l-36 0 q-23 0 -23 -20 l0 -55 ZM343 478 l0 -75 l59 0 l0 63 q0 12 -4 12 l-55 0 ZM141 576 q14 3 30 3 l121 0 q40 54 40 63 q0 4 -24 4 l-88 0 q-36 -38 -79 -70 Z" /><glyph glyph-name="" unicode="&#x8138;" d="M171 778 l145 0 q86 0 86 -82 l0 -675 q0 -63 -11 -84 q-16 -26 -48 -26 q-67 0 -98 16 q-27 15 -27 51 q0 34 13 51 q9 11 26 11 l24 0 q8 0 8 12 l0 137 l-92 0 q-10 -148 -37 -235 q-14 -43 -63 -43 q-55 4 -58 51 q0 30 16 79 q34 153 34 343 l0 309 q0 85 82 85 ZM202 302 l87 0 l0 125 l-86 0 l0 -43 q0 -43 -1 -82 ZM203 540 l86 0 l0 106 q0 15 -12 15 l-63 0 q-11 0 -11 -11 l0 -110 ZM695 814 q31 0 68 -45 q53 -62 162 -159 q24 -13 24 -39 q0 -33 -17 -53 q-17 -21 -46 -21 q-16 0 -42 20 q-61 47 -140 144 q-6 8 -9 8 q-8 0 -17 -9 q-55 -72 -96 -120 l187 0 q23 0 34 -10 q13 -9 13 -41 q0 -25 -7 -34 q-13 -16 -40 -16 l-187 0 q-22 0 -34 11 q-13 11 -13 39 q-12 -13 -22 -22 q-21 -17 -33 -17 q-32 0 -57 26 q-13 21 -13 52 q2 23 23 36 q113 109 200 216 q28 34 62 34 ZM867 427 q25 0 46 -14 q20 -11 20 -41 q-3 -38 -16 -88 q-35 -138 -67 -220 l44 0 q34 0 49 -15 q14 -11 14 -48 q0 -29 -12 -42 q-16 -20 -51 -20 l-414 0 q-31 0 -47 14 q-16 13 -16 48 q0 36 16 49 q14 14 47 14 l251 0 q2 23 13 50 q44 118 76 278 q9 35 47 35 ZM484 380 q22 0 35 -12 q23 -29 61 -108 q41 -88 41 -118 q0 -20 -8 -27 q-23 -24 -55 -24 q-26 0 -35 19 q-38 101 -86 198 q-8 16 -8 29 q0 23 19 34 q16 9 36 9 ZM644 419 q22 0 35 -12 q19 -26 50 -97 q32 -78 32 -106 q0 -20 -7 -26 q-21 -25 -51 -25 q-26 0 -36 20 q-31 90 -71 177 q-7 14 -7 26 q0 24 19 34 q17 9 36 9 Z" /><glyph glyph-name="" unicode="&#x6ee1;" d="M367 763 l82 0 q0 26 11 38 q13 17 47 17 q37 0 51 -13 q12 -11 12 -42 l121 0 q0 26 12 38 q12 17 47 17 q37 0 50 -13 q12 -11 12 -42 l86 0 q27 0 39 -11 q12 -10 12 -40 q0 -23 -10 -35 q-13 -16 -41 -16 l-86 0 q0 -28 -14 -40 q-15 -14 -48 -14 q-32 0 -46 14 q-13 11 -13 40 l-121 0 q-1 -25 -14 -36 q-15 -15 -49 -15 q-31 0 -45 15 q-12 10 -13 36 l-82 0 q-26 0 -39 12 q-12 11 -12 39 q0 29 12 40 q12 11 39 11 ZM375 591 l519 0 q30 0 43 -11 q12 -10 12 -40 q0 -25 -11 -37 q-14 -18 -44 -18 l-109 0 q-1 -24 -4 -54 l66 0 q86 0 86 -102 l0 -332 q0 -53 -29 -70 q-32 -20 -96 -20 q-47 1 -94 12 q-35 16 -35 51 q4 61 47 66 l15 0 q25 -8 59 -8 q16 0 16 32 l0 50 q-10 -3 -20 -3 q-23 0 -31 15 q-20 29 -42 55 q-27 -68 -76 -119 q-18 -18 -34 -18 q-25 0 -40 16 q-14 16 -15 31 q1 21 20 31 q7 9 12 17 q-3 4 -5 7 q-14 20 -29 38 q-32 -66 -87 -117 q-10 -10 -20 -14 l0 -91 q0 -32 -16 -43 q-14 -12 -43 -12 q-32 0 -45 15 q-13 15 -13 40 l0 371 q0 102 82 102 l104 0 q3 26 4 54 l-147 0 q-28 0 -42 13 q-13 12 -13 42 q0 29 13 40 q13 11 42 11 ZM753 262 q15 -3 24 -11 q16 -13 39 -44 l0 103 q0 19 -12 19 l-36 0 q-6 -36 -15 -67 ZM635 225 q10 25 16 51 q6 25 10 53 l-54 0 q-7 -33 -16 -60 q6 -2 10 -6 q14 -11 34 -38 ZM672 431 q2 27 2 54 l-47 0 q-1 -26 -4 -54 l49 0 ZM449 180 q28 45 43 98 q7 24 12 51 l-36 0 q-19 0 -19 -19 l0 -130 ZM132 798 q15 0 31 -7 q61 -30 114 -75 q23 -18 23 -43 q0 -27 -14 -47 q-18 -30 -52 -31 q-14 0 -25 6 q-10 4 -20 12 q-43 35 -94 68 q-8 3 -10 8 q-19 12 -19 39 q0 28 20 49 q15 21 46 21 ZM105 552 q15 0 31 -6 q63 -29 117 -72 q24 -18 24 -43 q0 -27 -14 -47 q-19 -30 -53 -31 q-14 0 -25 6 q-10 3 -20 11 q-44 33 -98 65 q-7 4 -9 8 q-19 12 -19 39 q0 27 20 49 q15 21 46 21 ZM238 294 q28 0 48 -11 q26 -15 26 -51 q0 -22 -15 -47 q-39 -85 -68 -140 q-28 -55 -46 -79 q-16 -49 -66 -51 q-28 4 -49 22 q-17 17 -18 48 q18 43 111 212 q15 32 30 54 q14 43 47 43 Z" /><glyph glyph-name="" unicode="&#x4e48;" d="M681 128 q-25 33 -53 68 q-15 17 -15 36 q0 32 22 47 q17 11 60 11 q27 -1 43 -19 q89 -75 178 -223 q21 -33 21 -63 q0 -40 -19 -51 q-15 -23 -59 -23 q-35 0 -51 32 q-18 30 -39 61 q-92 -23 -206 -38 q-201 -31 -438 -31 q-39 0 -58 16 q-20 21 -21 58 q0 36 20 54 q15 14 53 15 q287 237 431 450 q29 28 55 28 q32 0 51 -19 q31 -17 31 -48 q0 -37 -23 -62 q-140 -184 -333 -343 q201 11 350 44 ZM496 794 q17 0 36 -16 q26 -15 26 -54 q0 -19 -9 -34 q-26 -63 -95 -145 q-153 -188 -255 -259 q-16 -15 -51 -15 q-30 0 -53 27 q-17 19 -17 47 q0 23 19 39 q132 112 214 207 q79 83 130 180 q15 23 55 23 Z" /><glyph glyph-name="" unicode="&#x95e8;" d="M132 626 q31 0 48 -16 q19 -17 19 -46 l0 -586 q0 -25 -13 -41 q-17 -22 -54 -22 q-31 0 -48 22 q-14 16 -14 41 l0 586 q0 29 18 46 q14 16 44 16 ZM195 814 q22 0 35 -16 q17 -11 40 -41 q48 -62 50 -88 q0 -32 -24 -47 q-19 -18 -62 -19 q-26 2 -39 27 q-38 54 -72 96 q-10 11 -10 25 q0 30 30 49 q22 14 52 14 ZM390 786 l426 0 q109 0 109 -109 l0 -633 q0 -79 -30 -100 q-30 -37 -99 -37 q-56 1 -125 16 q-20 7 -32 25 q-11 16 -11 41 q2 25 14 40 q11 14 33 15 q9 0 18 -3 q38 -9 68 -9 q31 0 31 24 l0 558 q0 47 -35 47 l-367 0 q-56 4 -58 63 q2 59 58 62 Z" /><glyph glyph-name="" unicode="&#x5973;" d="M445 806 q38 0 54 -10 q32 -15 32 -53 q0 -31 -33 -99 q-7 -16 -14 -30 l410 0 q36 0 52 -14 q14 -11 14 -48 q0 -30 -12 -45 q-17 -22 -54 -22 l-75 0 q-5 -48 -29 -114 q-40 -119 -126 -205 q152 -72 257 -141 q24 -20 24 -55 q0 -17 -16 -36 q-14 -23 -51 -23 q-41 0 -70 17 q-132 81 -257 141 q-106 -76 -279 -134 q-69 -24 -136 -24 q-36 0 -59 24 q-22 24 -23 47 q1 33 28 50 q187 47 309 106 q-51 20 -100 36 q-108 35 -108 93 q0 21 19 58 q37 82 71 160 l-160 0 q-33 0 -51 16 q-16 14 -16 51 q0 36 16 49 q16 13 51 13 l215 0 q33 79 62 153 q5 17 26 32 q17 7 29 7 ZM679 485 l-254 0 q-74 -162 -74 -175 q0 -18 31 -22 q79 -31 149 -62 q1 1 2 2 q117 100 146 257 Z" /><glyph glyph-name="" unicode="&#x70ed;" d="M621 818 q31 -2 45 -14 q13 -14 13 -41 q0 -25 0 -47 l106 0 q70 -3 74 -70 l0 -317 q0 -8 4 -8 q36 24 62 24 q17 0 31 -22 q12 -22 12 -52 q0 -29 -23 -43 q-53 -43 -86 -43 q-51 0 -86 27 q-31 25 -31 70 l0 305 q0 12 -16 12 l-49 0 q1 -72 -18 -150 q36 -29 55 -53 q12 -14 12 -36 q0 -20 -17 -39 q-18 -23 -45 -23 q-21 0 -32 11 q-11 9 -20 17 q-37 -74 -93 -137 q-21 -20 -51 -20 q-33 0 -49 17 q-17 14 -17 42 q1 21 12 35 q69 69 103 143 q-30 24 -56 44 q-8 5 -12 12 q-8 10 -8 27 q0 19 20 39 q19 16 39 16 q20 0 34 -9 q10 -6 20 -12 q6 37 7 76 l-54 0 q-30 0 -45 19 q-9 19 -9 39 q0 28 14 45 q10 14 40 14 l55 0 l0 47 q0 26 16 43 q16 10 43 12 ZM109 708 l82 0 l0 59 q1 49 59 51 q59 0 62 -51 l0 -59 l70 0 q28 0 40 -11 q15 -9 15 -44 q0 -29 -9 -40 q-13 -18 -46 -18 l-70 0 l0 -70 l55 11 q30 0 46 -15 q16 -16 16 -43 q0 -24 -11 -37 q-15 -16 -40 -18 l-66 -13 l0 -147 q0 -90 -148 -90 q-49 2 -67 18 q-19 15 -19 41 q0 31 21 47 q28 11 72 11 q20 0 20 12 l0 83 l-82 -17 q-31 2 -45 18 q-13 12 -14 41 q2 33 18 45 q13 13 37 13 l86 17 l0 93 l-82 0 q-25 0 -40 14 q-15 12 -15 44 q0 33 15 45 q12 10 40 10 ZM164 157 q32 0 53 -16 q21 -10 21 -46 q0 -14 -9 -39 q-25 -80 -54 -125 q-15 -28 -50 -28 q-27 0 -50 18 q-25 16 -25 45 q0 13 8 29 q35 51 63 123 q14 39 43 39 ZM355 146 q32 0 47 -20 q18 -23 43 -94 q15 -46 15 -74 q0 -24 -14 -35 q-17 -19 -48 -20 q-28 0 -42 10 q-10 6 -13 18 q-16 59 -45 150 q-2 7 -2 14 q0 9 5 21 q8 15 28 24 q13 6 26 6 ZM574 153 q32 0 47 -19 q21 -24 48 -98 q18 -48 18 -78 q0 -24 -15 -35 q-16 -19 -47 -20 q-29 0 -42 10 q-10 6 -13 18 q-19 62 -53 157 q-2 7 -2 15 q0 8 5 21 q7 15 27 24 q14 5 27 5 ZM792 177 q35 0 51 -20 q30 -27 69 -110 q25 -55 25 -89 q0 -24 -15 -35 q-16 -19 -47 -20 q-29 0 -42 10 q-10 6 -13 18 q-30 69 -88 175 q-2 7 -2 16 q0 10 5 24 q8 15 30 25 q14 6 27 6 Z" /><glyph glyph-name="" unicode="&#x5c11;" d="M238 739 q27 0 49 -15 q21 -12 21 -47 q-4 -42 -21 -94 q-57 -181 -108 -273 q-12 -35 -66 -35 q-24 0 -48 23 q-19 14 -19 47 q0 27 21 61 q68 125 116 294 q10 39 55 39 ZM730 739 q34 0 47 -23 q77 -99 153 -267 q16 -35 19 -57 q0 -34 -22 -50 q-25 -19 -52 -21 q-45 0 -59 39 q-66 152 -142 278 q-18 26 -18 43 q0 26 24 44 q23 14 50 14 ZM773 345 q30 0 53 -23 q21 -17 21 -51 q0 -23 -20 -41 q-65 -77 -243 -177 q-166 -84 -338 -130 q-91 -23 -121 -23 q-38 0 -50 21 q-17 18 -17 57 q0 51 39 62 q238 51 373 114 q135 62 256 167 q25 24 47 24 ZM488 825 q33 0 53 -19 q21 -20 21 -55 l0 -457 q0 -29 -15 -48 q-18 -26 -59 -26 q-38 0 -58 26 q-16 19 -16 48 l0 457 q0 35 21 55 q17 19 53 19 Z" /><glyph glyph-name="" unicode="&#x4ec0;" d="M410 501 l168 0 l0 231 q0 33 20 51 q16 19 50 19 q32 0 51 -19 q19 -18 19 -51 l0 -231 l168 0 q38 0 55 -15 q16 -12 16 -51 q0 -33 -13 -48 q-19 -23 -58 -23 l-168 0 l0 -382 q0 -28 -13 -46 q-18 -25 -57 -25 q-36 0 -55 25 q-15 18 -15 46 l0 382 l-168 0 q-35 0 -54 17 q-17 15 -17 54 q0 38 17 51 q17 15 54 15 ZM285 810 q34 0 56 -16 q26 -9 26 -47 q0 -21 -9 -40 q-20 -70 -50 -137 l0 -592 q0 -36 -19 -51 q-16 -16 -51 -16 q-33 0 -48 16 q-19 15 -19 51 l0 365 q-6 -7 -11 -14 q-14 -19 -47 -19 q-38 0 -58 20 q-20 16 -20 46 q0 19 16 44 q118 145 191 351 q10 39 43 39 Z" /><glyph glyph-name="" unicode="&#x672f;" d="M117 591 l308 0 l0 160 q0 34 20 52 q16 18 51 18 q31 0 50 -18 q20 -18 20 -52 l0 -160 l320 0 q34 0 49 -14 q14 -12 14 -49 q0 -28 -12 -42 q-16 -20 -51 -20 l-275 0 q143 -178 314 -332 q24 -22 24 -43 q0 -25 -23 -46 q-20 -20 -63 -20 q-19 0 -39 19 q-36 12 -198 204 q-34 42 -60 76 l0 -350 q0 -28 -14 -46 q-17 -25 -56 -25 q-37 0 -55 25 q-16 18 -16 46 l0 377 q-84 -151 -226 -291 q-36 -32 -74 -32 q-34 4 -56 24 q-19 19 -19 47 q0 13 12 39 q196 177 281 328 l-226 0 q-32 0 -48 15 q-15 13 -15 47 q0 37 15 49 q15 14 48 14 ZM726 790 q15 0 31 -5 q63 -23 118 -57 q19 -17 19 -39 q0 -23 -12 -40 q-15 -26 -43 -27 q-14 0 -25 5 q-10 3 -20 8 q-44 24 -98 48 q-7 3 -9 6 q-20 12 -20 39 q0 25 18 44 q14 18 41 18 Z" /><glyph glyph-name="" unicode="&#x9898;" d="M148 786 l254 0 q70 0 70 -70 l0 -227 q0 -70 -70 -70 l-254 0 q-70 0 -70 70 l0 227 q0 70 70 70 ZM335 509 q16 0 16 16 l0 35 l-152 0 l0 -35 q0 -16 15 -16 l121 0 ZM199 646 l152 0 l0 35 q0 15 -16 15 l-121 0 q-15 0 -15 -15 l0 -35 ZM89 388 l364 0 q29 0 42 -11 q12 -10 12 -40 q0 -25 -10 -37 q-14 -18 -44 -18 l-82 0 l0 -47 l78 0 q30 0 39 -10 q12 -11 12 -40 q0 -28 -9 -40 q-12 -15 -42 -15 l-78 0 l0 -69 q75 -17 218 -17 q73 0 189 5 q93 7 120 7 q28 0 43 -15 q14 -16 16 -40 q-2 -35 -17 -53 q-19 -20 -62 -21 l-293 0 q-121 0 -199 16 q-86 21 -157 74 q-26 21 -50 47 q-26 -83 -54 -133 q-12 -20 -43 -20 q-20 0 -41 18 q-14 13 -14 37 q0 4 4 16 q27 52 48 127 q20 66 34 126 q6 25 35 28 q25 0 44 -11 q21 -13 22 -32 q0 -20 -6 -49 q23 -26 45 -45 l0 156 l-164 0 q-27 0 -41 13 q-13 12 -13 42 q0 29 13 40 q13 11 41 11 ZM609 626 l34 0 l12 55 l-109 0 q-25 0 -38 12 q-12 10 -12 39 q0 29 12 39 q12 11 38 11 l356 0 q27 0 39 -11 q12 -10 12 -39 q0 -23 -10 -35 q-13 -16 -41 -16 l-114 0 l-12 -55 l67 0 q90 0 90 -98 l0 -246 q0 -23 -16 -31 q-15 -12 -42 -12 q-32 0 -46 11 q-9 8 -9 25 l0 242 q0 11 -20 11 l-152 0 q-12 0 -12 -11 l0 -250 q0 -21 -12 -27 q-14 -8 -46 -8 q-28 0 -41 10 q-14 12 -14 33 l0 253 q0 98 86 98 ZM726 509 q27 -1 43 -11 q16 -13 16 -36 l0 -102 q0 -53 -11 -83 q-12 -57 -45 -102 q-48 -69 -124 -115 q-16 -8 -39 -8 q-24 1 -39 19 q-9 12 -12 28 q0 19 12 35 q32 25 66 56 q43 38 59 73 q19 46 19 97 l0 102 q1 19 13 32 q12 12 42 15 ZM824 232 q17 0 27 -12 q19 -8 44 -32 q52 -49 54 -70 q0 -24 -18 -36 q-15 -13 -49 -14 q-21 1 -31 19 q-39 44 -75 78 q-11 8 -11 20 q0 22 22 36 q15 11 37 11 Z" /><glyph glyph-name="" unicode="&#x4f53;" d="M367 642 l191 0 l0 105 q0 30 18 46 q14 17 45 17 q30 0 47 -17 q19 -16 19 -46 l0 -105 l203 0 q34 0 49 -14 q14 -12 14 -49 q0 -29 -12 -42 q-16 -20 -51 -20 l-96 0 q57 -193 163 -336 q15 -21 15 -39 q0 -24 -18 -43 q-15 -20 -48 -20 q-33 0 -55 24 q-9 12 -16 23 q-1 -23 -8 -32 q-14 -19 -46 -19 l-94 0 l0 -105 q0 -25 -13 -41 q-16 -22 -53 -22 q-32 0 -49 22 q-14 16 -14 41 l0 105 l-86 0 q-25 0 -39 14 q-16 12 -16 45 q0 8 1 14 q-22 -33 -43 -57 q-15 -23 -47 -23 q-33 0 -47 17 l0 -115 q0 -34 -18 -47 q-15 -16 -49 -16 q-30 0 -45 16 q-17 13 -17 47 l0 365 q-2 -3 -4 -6 q-12 -19 -43 -19 q-34 0 -52 18 q-18 16 -18 44 q0 19 13 44 q98 146 159 355 q10 39 43 39 q34 0 56 -16 q26 -9 26 -47 q0 -21 -8 -40 q-18 -69 -43 -133 l0 -396 q79 107 107 170 q31 62 62 169 l-83 0 q-32 0 -48 14 q-15 14 -15 48 q0 36 15 49 q15 14 48 14 ZM443 188 q12 5 29 5 l86 0 l0 272 q-26 -107 -72 -196 q-22 -46 -43 -81 ZM687 193 l94 0 q8 0 14 -1 q-27 49 -52 106 q-35 95 -54 184 q-1 5 -2 10 l0 -299 Z" /><glyph glyph-name="" unicode="&#x4e3a;" d="M144 579 l253 0 q12 88 17 188 q2 30 20 44 q15 12 46 14 q38 -1 58 -19 q16 -11 16 -43 q0 -73 -15 -184 l250 0 q80 0 106 -33 q26 -40 26 -178 q0 -294 -25 -351 q-22 -57 -78 -82 q-49 -24 -123 -24 q-88 8 -117 32 q-32 22 -32 62 q1 29 17 46 q20 17 42 17 q10 -1 18 -4 q32 -12 72 -16 q70 0 78 34 q16 18 16 298 q0 50 -11 64 q-8 6 -28 6 l-233 0 q-30 -143 -82 -247 q-64 -155 -197 -269 q-40 -34 -78 -34 q-34 0 -54 20 q-20 22 -21 42 q1 31 28 47 q159 127 225 311 q22 59 37 130 l-231 0 q-31 0 -45 17 q-17 16 -17 50 q0 32 17 49 q14 13 45 13 ZM191 802 q13 0 27 -6 q55 -29 102 -72 q23 -18 23 -43 q0 -26 -13 -45 q-18 -28 -49 -29 q-13 0 -22 6 q-9 3 -18 11 q-38 33 -85 65 q-6 4 -8 7 q-20 13 -20 39 q0 27 19 47 q15 20 44 20 ZM585 368 q14 0 29 -6 q58 -28 108 -72 q24 -18 24 -43 q0 -25 -14 -44 q-17 -29 -49 -30 q-13 0 -23 6 q-10 4 -19 12 q-40 32 -90 65 q-7 3 -9 7 q-19 12 -19 39 q0 26 19 47 q14 19 43 19 Z" /><glyph glyph-name="" unicode="&#x95ee;" d="M132 646 q31 0 48 -17 q19 -16 19 -46 l0 -605 q0 -25 -13 -41 q-17 -22 -54 -22 q-31 0 -48 22 q-14 16 -14 41 l0 605 q0 30 18 46 q14 17 44 17 ZM195 814 q22 0 35 -16 q17 -9 40 -35 q48 -52 50 -74 q0 -32 -24 -48 q-19 -17 -62 -19 q-26 3 -39 28 q-38 45 -72 80 q-10 9 -10 21 q0 30 30 49 q22 14 52 14 ZM390 786 l426 0 q109 0 109 -109 l0 -633 q0 -79 -28 -100 q-26 -37 -89 -37 q-66 2 -144 20 q-21 7 -33 25 q-10 15 -10 41 q2 25 13 40 q11 14 33 15 q10 0 20 -4 q42 -12 74 -12 q31 0 31 24 l0 558 q0 47 -35 47 l-367 0 q-56 4 -58 63 q2 59 58 62 ZM371 540 l242 0 q78 0 78 -78 l0 -293 q0 -78 -78 -78 l-242 0 q-79 0 -79 78 l0 293 q0 78 79 78 ZM554 204 q12 0 12 12 l0 199 q0 12 -12 12 l-125 0 q-12 0 -12 -12 l0 -199 q0 -12 12 -12 l125 0 Z" /><glyph glyph-name="" unicode="&#x5fc3;" d="M382 571 q30 0 50 -16 q21 -16 21 -46 l0 -414 q0 -35 35 -35 l164 0 q20 0 28 25 q10 41 15 111 q12 28 62 32 q34 -2 57 -18 q20 -17 21 -49 q0 -96 -31 -159 q-31 -69 -121 -79 l-246 0 q-67 0 -98 38 q-27 29 -27 103 l0 445 q0 26 18 46 q17 16 52 16 ZM351 802 q29 0 66 -16 q141 -66 227 -121 q33 -22 35 -55 q0 -32 -14 -49 q-19 -33 -56 -33 q-25 0 -52 16 q-112 68 -237 129 q-43 17 -43 51 q0 40 21 59 q19 19 53 19 ZM781 556 q36 0 51 -28 q63 -84 125 -228 q13 -30 15 -49 q0 -32 -20 -47 q-24 -18 -50 -19 q-45 0 -59 39 q-57 127 -125 234 q-15 21 -15 35 q0 28 25 47 q24 16 53 16 ZM191 509 q28 0 52 -16 q22 -12 22 -47 q-3 -41 -17 -94 q-49 -181 -92 -273 q-11 -31 -63 -31 q-22 0 -44 22 q-18 13 -18 44 q0 27 16 62 q52 125 89 294 q10 39 55 39 Z" /><glyph glyph-name="" unicode="&#x9009;" d="M105 505 l82 0 q86 0 86 -82 l0 -344 q0 -21 41 -30 q67 -17 184 -17 q130 0 242 4 q97 4 166 4 q28 0 41 -12 q17 -14 17 -46 q0 -38 -14 -52 q-13 -17 -48 -19 l-373 0 q-208 0 -294 41 q-10 10 -21 10 q-6 0 -16 -9 q-23 -20 -57 -37 q-19 -11 -36 -13 q-13 0 -24 8 q-21 19 -39 51 q-7 17 -7 31 q0 13 14 24 q48 25 81 51 q10 7 10 15 l0 281 q0 12 -12 12 l-23 0 q-36 0 -48 19 q-15 12 -15 48 q0 31 16 47 q14 15 47 15 ZM128 790 q15 0 32 -7 q63 -31 117 -79 q23 -18 23 -43 q0 -25 -13 -44 q-17 -29 -49 -30 q-14 0 -25 7 q-10 4 -20 13 q-43 37 -94 73 q-8 4 -10 9 q-19 12 -19 39 q0 25 17 44 q14 18 41 18 ZM441 798 q29 0 52 -13 q25 -14 26 -38 q0 -16 -7 -43 l73 0 l0 55 q0 33 16 47 q13 15 51 15 q38 0 51 -14 q15 -14 15 -48 l0 -55 l125 0 q34 0 46 -12 q13 -13 13 -46 q0 -32 -10 -46 q-15 -17 -49 -17 l-125 0 l0 -94 l157 0 q34 0 48 -13 q14 -11 14 -45 q0 -29 -11 -43 q-17 -20 -51 -20 l-102 0 l0 -164 q0 -11 12 -11 l11 0 q6 0 19 8 q13 11 13 46 q2 21 17 32 q12 11 33 11 q31 0 50 -15 q23 -17 25 -55 q0 -68 -23 -101 q-31 -45 -87 -48 l-90 0 q-113 0 -113 118 l0 179 l-50 0 q-9 -77 -37 -147 q-39 -93 -116 -148 q-13 -13 -35 -13 q-39 0 -54 18 q-20 20 -20 40 q0 28 19 47 q58 49 86 112 q16 36 21 91 l-72 0 q-31 0 -47 15 q-15 13 -15 48 q0 34 15 46 q15 12 47 12 l203 0 l0 94 l-116 0 q-12 -27 -24 -47 q-14 -23 -51 -23 q-25 0 -52 21 q-18 16 -18 45 q0 7 8 24 q22 33 39 80 q15 42 27 80 q8 32 43 35 Z" /><glyph glyph-name="" unicode="&#x4e00;" d="M128 435 l743 0 q42 0 61 -17 q17 -14 17 -58 q0 -34 -14 -50 q-21 -24 -64 -24 l-743 0 q-39 0 -59 18 q-19 15 -19 56 q0 43 19 59 q18 16 59 16 Z" /><glyph glyph-name="" unicode="&#x79fb;" d="M101 548 l86 0 l0 78 q-35 -5 -74 -8 q-61 2 -63 63 q2 51 43 58 q154 19 241 41 q15 5 29 6 q34 0 46 -18 q20 -18 20 -48 q0 -33 -23 -47 q-39 -17 -98 -29 l0 -96 l70 0 q30 0 43 -13 q16 -11 16 -50 q0 -31 -9 -42 q-15 -20 -50 -20 l-70 0 l0 -51 q1 1 1 1 q15 7 34 7 q10 0 16 -8 q20 -17 43 -55 q28 -48 42 -81 q34 18 60 36 q94 60 162 114 q-51 -26 -104 -46 q-70 -26 -94 -26 q-28 0 -47 25 q-11 15 -11 33 q0 31 19 43 q87 32 152 61 q-33 38 -61 68 q-9 -7 -17 -12 q-15 -11 -35 -11 q-29 0 -49 24 q-17 19 -17 38 q0 15 15 27 q119 99 184 188 q23 20 43 20 q31 0 54 -17 q24 -19 24 -42 q0 -12 -7 -24 l128 0 q94 0 94 -85 q0 -72 -104 -164 q-29 -21 -60 -40 q15 -2 29 -12 q18 -15 18 -31 q0 -13 -8 -23 q-9 -11 -16 -20 l79 0 q93 0 93 -85 q0 -80 -118 -182 q-135 -97 -308 -160 q-78 -30 -105 -30 q-28 0 -47 25 q-12 16 -12 34 q0 34 20 47 q114 39 196 76 q-35 33 -64 58 q-23 -9 -50 -9 q-24 0 -43 16 q-12 -8 -35 -8 q-24 0 -35 23 q-30 71 -59 129 l0 -324 q0 -31 -16 -44 q-15 -15 -46 -15 q-30 0 -44 15 q-15 13 -15 44 l0 256 q-35 -98 -59 -123 q-13 -20 -43 -20 q-25 0 -41 20 q-17 21 -17 50 q0 19 11 41 q64 96 121 229 l-58 0 q-26 0 -42 15 q-17 12 -17 47 q0 38 17 51 q12 12 42 12 ZM625 203 q46 -38 71 -69 q14 7 25 14 q91 52 91 84 q0 11 -20 11 l-115 0 q-25 -21 -52 -40 ZM597 604 q50 -45 79 -80 q15 8 28 16 q77 47 77 74 q0 12 -20 12 l-140 0 q-12 -12 -24 -22 Z" /><glyph glyph-name="" unicode="&#x827a;" d="M109 739 l144 0 l0 12 q0 32 15 47 q14 20 56 20 q44 0 60 -16 q14 -13 14 -51 l0 -12 l219 0 l0 12 q0 32 14 47 q14 20 56 20 q44 0 61 -16 q13 -13 13 -51 l0 -12 l133 0 q32 0 46 -13 q13 -11 13 -45 q0 -27 -11 -40 q-16 -19 -48 -19 l-133 0 l0 -12 q0 -33 -16 -48 q-18 -18 -58 -18 q-37 0 -55 18 q-15 13 -15 48 l0 12 l-219 0 l0 -12 q0 -33 -17 -48 q-18 -18 -57 -18 q-37 0 -55 18 q-16 13 -16 48 l0 12 l-144 0 q-29 0 -45 14 q-14 12 -14 45 q0 34 14 46 q14 12 45 12 ZM148 528 l598 0 q35 0 55 -13 q27 -22 27 -53 q0 -37 -82 -59 q-303 -133 -388 -297 q-3 -15 -3 -19 q0 -21 12 -23 l261 0 q141 0 157 14 q13 9 15 52 q3 26 16 35 q12 12 47 12 q27 -1 44 -9 q30 -14 30 -46 q-5 -71 -17 -105 q-16 -63 -64 -77 q-35 -17 -157 -17 l-340 0 q-92 0 -127 24 q-38 29 -45 81 q0 47 14 90 q56 144 236 262 q0 8 -8 12 l-281 0 q-56 4 -59 70 q3 64 59 66 Z" /><glyph glyph-name="" unicode="&#x4f59;" d="M503 818 q59 0 128 -51 q99 -71 302 -180 q24 -14 24 -39 q0 -35 -18 -56 q-19 -22 -49 -22 q-27 0 -63 15 q-3 -16 -10 -24 q-16 -18 -48 -18 l-187 0 l0 -83 l285 0 q34 0 49 -13 q13 -11 13 -45 q0 -29 -11 -43 q-17 -20 -51 -20 l-285 0 l0 -218 q0 -48 -36 -77 q-37 -33 -101 -33 q-67 0 -125 20 q-35 18 -35 58 q0 61 47 67 q6 0 13 -3 q36 -11 69 -13 q31 0 31 28 l0 171 l-313 0 q-31 0 -47 15 q-15 13 -15 48 q0 34 15 46 q15 12 47 12 l313 0 l0 83 l-203 0 q-30 0 -45 13 q-11 10 -13 32 q-5 -3 -9 -5 q-36 -17 -58 -17 q-34 0 -60 27 q-15 22 -15 55 q2 23 24 35 q189 103 335 204 q46 31 102 31 ZM295 556 l403 0 q-82 52 -175 125 q-14 12 -20 12 q-13 0 -30 -10 q-100 -75 -178 -127 ZM234 204 q29 -1 50 -15 q20 -16 20 -39 q0 -14 -8 -24 q-24 -71 -119 -169 q-25 -26 -49 -26 q-36 0 -59 25 q-15 15 -15 49 q0 9 20 27 q59 63 115 149 q20 23 45 23 ZM742 193 q27 -1 43 -16 q57 -46 115 -137 q14 -21 14 -39 q0 -38 -18 -49 q-15 -21 -57 -21 q-32 0 -47 31 q-39 61 -109 141 q-16 16 -16 35 q0 30 20 44 q16 11 55 11 Z" /><glyph glyph-name="" unicode="&#x8102;" d="M191 778 l164 0 q86 0 86 -85 l0 -668 q0 -66 -20 -87 q-26 -27 -82 -27 q-61 0 -89 16 q-24 15 -24 51 q0 34 13 51 q9 11 26 11 l55 0 q4 0 4 12 l0 168 l-109 0 q-15 -170 -59 -266 q-14 -43 -63 -43 q-58 4 -62 51 q0 31 25 82 q49 159 49 356 l0 293 q0 85 86 85 ZM221 341 l103 0 l0 98 l-102 0 l0 -39 q0 -31 -1 -59 ZM222 560 l102 0 l0 86 q0 15 -12 15 l-78 0 q-12 0 -12 -11 l0 -90 ZM878 778 q26 0 41 -21 q14 -10 14 -45 q0 -25 -23 -43 q-71 -31 -160 -55 q-61 -16 -122 -28 l0 -65 q0 -24 24 -24 l133 0 q18 0 25 12 q9 20 14 55 q10 24 54 27 q30 -1 52 -16 q17 -14 19 -43 q0 -60 -28 -99 q-28 -42 -109 -49 l-168 0 q-78 0 -114 23 q-30 18 -30 63 l0 273 q0 25 15 44 q16 15 47 15 q28 0 47 -15 q19 -15 19 -44 l0 -42 q98 25 211 68 q19 9 39 9 ZM562 341 l305 0 q66 0 66 -66 l0 -286 q0 -66 -66 -66 l-305 0 q-66 0 -66 66 l0 286 q0 66 66 66 ZM789 17 q19 0 19 19 l0 51 l-187 0 l0 -51 q0 -19 19 -19 l149 0 ZM621 185 l187 0 l0 43 q0 19 -19 19 l-149 0 q-19 0 -19 -19 l0 -43 Z" /><glyph glyph-name="" unicode="&#x690d;" d="M429 739 l153 0 l0 8 q0 27 20 49 q15 14 50 14 q37 0 53 -15 q21 -18 21 -48 l0 -8 l160 0 q30 0 43 -12 q12 -10 12 -42 q0 -25 -10 -37 q-15 -18 -45 -18 l-160 0 l0 -59 l98 0 q86 0 86 -78 l0 -457 q27 -1 38 -12 q12 -10 12 -42 q0 -25 -10 -38 q-14 -17 -44 -17 l-516 0 q-27 0 -41 13 q-14 11 -14 42 q0 31 14 43 q12 11 41 11 l8 0 l0 198 q-2 -2 -3 -2 q-12 -12 -40 -12 q-23 0 -35 23 q-18 61 -35 113 l0 -398 q0 -22 -13 -38 q-15 -20 -50 -20 q-30 0 -45 20 q-13 15 -13 38 l0 283 q-18 -76 -32 -99 q-13 -20 -43 -20 q-26 0 -41 20 q-17 21 -17 51 q0 21 10 49 q58 119 109 286 l-57 0 q-26 0 -42 15 q-16 13 -16 48 q0 37 16 51 q12 11 42 11 l71 0 l0 106 q0 28 16 43 q14 16 42 16 q28 0 45 -16 q18 -15 18 -43 l0 -106 l50 0 q30 0 43 -13 q16 -10 16 -49 q0 -31 -9 -43 q-15 -20 -50 -20 l-50 0 l0 -71 q2 1 2 1 q16 8 37 8 q9 0 15 -8 q15 -18 32 -57 q18 -44 27 -76 l0 168 q0 78 82 78 l102 0 l0 59 l-153 0 q-27 0 -41 13 q-13 11 -13 42 q0 31 13 43 q12 11 41 11 ZM789 36 l0 51 l-270 0 l0 -51 l270 0 ZM519 349 l0 -51 l270 0 l0 51 l-270 0 ZM789 427 l0 39 q0 12 -20 12 l-234 0 q-16 0 -16 -12 l0 -39 l270 0 ZM789 165 l0 55 l-270 0 l0 -55 l270 0 Z" /><glyph glyph-name="" unicode="&#x5986;" d="M269 814 q32 0 51 -18 q19 -17 19 -49 l0 -769 q0 -26 -13 -43 q-17 -24 -57 -24 q-34 0 -52 23 q-14 17 -14 44 l0 168 q-39 -39 -59 -47 q-14 -12 -39 -12 q-29 2 -56 32 q-21 25 -22 50 q0 24 15 43 q43 47 138 142 q11 11 23 17 l0 77 q-25 -25 -59 -25 q-29 0 -39 23 q-31 81 -72 161 q-6 12 -6 23 q0 32 25 47 q23 12 49 12 q29 0 47 -16 q15 -25 39 -92 q10 -28 16 -47 l0 213 q0 32 19 49 q15 18 47 18 ZM605 814 q39 0 54 -10 q32 -15 32 -53 q0 -30 -24 -95 q-3 -9 -6 -18 l233 0 q36 0 52 -14 q14 -12 14 -49 q0 -30 -12 -45 q-17 -21 -54 -21 l-13 0 q-3 -49 -18 -116 q-28 -130 -87 -223 q78 -65 134 -126 q27 -23 27 -62 q0 -21 -19 -43 q-16 -28 -59 -28 q-26 0 -45 19 q-65 69 -126 124 q-68 -70 -169 -126 q-46 -25 -90 -25 q-32 0 -51 21 q-18 21 -19 42 q1 28 23 43 q126 57 203 129 q-48 35 -95 62 q-69 38 -69 102 q0 20 12 56 q23 77 44 151 l-44 0 q-33 0 -51 16 q-15 14 -15 50 q0 36 15 49 q16 14 51 14 l80 0 q20 70 37 137 q5 17 26 32 q17 7 29 7 ZM750 509 l-134 0 q-54 -159 -54 -172 q0 -18 19 -22 q49 -33 93 -66 q60 106 76 260 Z" /><glyph glyph-name="" unicode="&#x81ea;" d="M484 825 q32 0 50 -10 q22 -13 24 -40 q0 -13 -17 -63 l263 0 q98 0 98 -98 l0 -570 q0 -98 -98 -98 l-605 0 q-98 0 -98 98 l0 570 q0 98 98 98 l188 0 q10 33 23 74 q17 38 74 39 ZM746 75 q19 0 19 20 l0 78 l-527 0 l0 -78 q0 -20 19 -20 l489 0 ZM238 290 l527 0 l0 90 l-527 0 l0 -90 ZM238 497 l527 0 l0 67 q0 19 -19 19 l-489 0 q-19 0 -19 -19 l0 -67 Z" /><glyph glyph-name="" unicode="&#x505a;" d="M359 661 l39 0 l0 98 q0 21 17 40 q12 11 42 11 q29 0 41 -12 q17 -14 17 -39 l0 -98 l55 0 q31 0 46 -13 q14 -9 15 -36 q24 74 44 159 q9 35 47 35 q26 0 47 -14 q20 -11 20 -41 q-3 -26 -10 -55 l123 0 q36 0 49 -13 q13 -14 13 -49 q0 -33 -10 -48 q-11 -12 -30 -16 q-7 -182 -56 -345 q-9 -28 -19 -53 q42 -87 92 -163 q16 -21 16 -39 q0 -22 -18 -40 q-14 -19 -45 -19 q-33 0 -55 24 q-29 42 -59 100 q-36 -55 -80 -98 q-20 -26 -52 -26 q-35 0 -48 17 q-16 17 -17 33 q-18 -11 -44 -11 l-157 0 q-78 0 -78 71 l0 285 q0 78 82 78 l12 0 l0 148 l-39 0 q-28 0 -45 16 q-18 14 -18 51 q0 37 18 51 q13 11 45 11 ZM609 18 q66 70 111 151 q-3 7 -6 14 q-37 109 -58 210 q-12 -5 -31 -5 q-19 0 -37 18 q-14 11 -14 37 q0 24 15 56 q9 20 17 41 q-16 -8 -36 -8 l-55 0 l0 -148 l12 0 q82 0 82 -78 l0 -288 ZM720 515 q14 -8 18 -26 q20 -82 47 -157 q22 96 26 236 l-72 0 q-10 -29 -19 -53 ZM429 68 l33 0 q34 0 34 11 l0 172 q0 16 -34 16 l-33 0 q-12 0 -12 -16 l0 -172 q0 -11 12 -11 ZM234 810 q29 0 48 -14 q22 -8 22 -41 q0 -21 -7 -41 q-15 -67 -36 -130 l0 -618 q0 -32 -17 -44 q-14 -15 -45 -15 q-29 0 -42 15 q-17 12 -17 44 l0 359 q-11 -15 -39 -15 q-32 0 -49 17 q-17 15 -17 41 q0 19 12 45 q92 149 148 362 q10 35 39 35 Z" /></font>
</defs>
</svg>
