<?xml version="1.0" standalone="no"?><!DOCTYPE svg PUBLIC "-//W3C//DTD SVG 1.1//EN" "http://www.w3.org/Graphics/SVG/1.1/DTD/svg11.dtd" ><svg xmlns="http://www.w3.org/2000/svg"><metadata></metadata><defs><font id="DFPYuanW5-GB" horiz-adv-x="1024"><font-face font-family="DFPYuanW5-GB" font-weight="400" font-stretch="normal" units-per-em="1024" panose-1="2 15 5 0 0 0 0 0 0 0" ascent="880" descent="-144" x-height="0" bbox="10 -117 1004 871" underline-thickness="50" underline-position="-110" unicode-range="U+002c-ff1f" /><missing-glyph horiz-adv-x="1024"  /><glyph glyph-name="" unicode="," d="M189 69 q0 -60 -57 -134 q-35 -45 -50 -45 q-20 0 -20 20 q0 3 22 36 q20 34 20 44 q0 12 -26 32 q-27 20 -27 47 q0 31 21 51 q19 20 51 20 q28 0 47 -22 q19 -21 19 -49 Z" /><glyph glyph-name="" unicode="0" d="M492 335 q0 -195 -68 -271 q-58 -65 -140 -65 q-93 0 -151 72 q-57 71 -57 264 q0 145 33 221 q49 115 175 115 q91 0 149 -59 q59 -60 59 -277 ZM420 335 q0 178 -38 223 q-38 46 -98 46 q-86 0 -118 -96 q-19 -58 -19 -173 q0 -112 19 -172 q32 -96 118 -96 q50 0 87 49 q49 68 49 219 Z" /><glyph glyph-name="" unicode="1" d="M347 39 q0 -40 -36 -40 q-32 0 -32 40 l0 519 q-56 -35 -89 -35 q-35 0 -35 33 q0 21 32 29 q8 1 21 4 q39 13 75 59 q19 24 29 24 q35 0 35 -37 l0 -596 Z" /><glyph glyph-name="" unicode="a" d="M647 31 q0 -12 -9 -21 q-9 -11 -22 -11 q-28 0 -39 25 l-81 172 l-330 0 l-80 -173 q-11 -24 -39 -24 q-32 0 -32 32 q0 21 8 37 l276 578 q12 26 32 26 q20 0 33 -26 l275 -578 q8 -16 8 -37 ZM462 270 l-131 282 l-130 -282 l261 0 Z" /><glyph glyph-name="" unicode="c" d="M582 189 q0 -36 -50 -90 q-90 -100 -213 -100 q-131 0 -207 99 q-71 89 -71 221 q0 153 75 250 q80 104 225 104 q136 0 204 -93 q34 -46 34 -81 q0 -41 -43 -41 q-20 0 -27 24 q-17 57 -65 88 q-46 30 -103 30 q-109 0 -168 -86 q-54 -77 -54 -195 q0 -103 51 -171 q55 -75 153 -75 q60 0 111 37 q51 38 76 96 q9 23 29 23 q43 0 43 -40 Z" /><glyph glyph-name="" unicode="d" d="M603 336 q0 -97 -43 -175 q-46 -82 -132 -121 q-59 -26 -125 -26 l-193 0 q-49 0 -49 43 l0 559 q0 43 49 43 l193 0 q300 0 300 -323 ZM525 336 q0 250 -222 250 l-153 0 q-16 0 -16 -16 l0 -468 q0 -16 16 -16 l153 0 q50 0 99 28 q123 67 123 222 Z" /><glyph glyph-name="" unicode="f" d="M497 621 q0 -36 -43 -36 l-304 0 q-16 0 -16 -16 l0 -187 l279 0 q43 0 43 -37 q0 -36 -43 -36 l-279 0 l0 -267 q0 -43 -37 -43 q-36 0 -36 43 l0 573 q0 43 49 43 l344 0 q43 0 43 -37 Z" /><glyph glyph-name="" unicode="l" d="M528 50 q0 -36 -43 -36 l-379 0 q-45 0 -45 43 l0 573 q0 42 36 42 q37 0 37 -42 l0 -528 q0 -16 16 -16 l335 0 q43 0 43 -36 Z" /><glyph glyph-name="" unicode="m" d="M764 42 q0 -43 -37 -43 q-37 0 -37 43 l0 447 l-241 -466 q-13 -24 -37 -24 q-23 0 -35 24 l-243 466 l0 -447 q0 -43 -37 -43 q-36 0 -36 43 l0 588 q0 42 40 42 q27 0 38 -22 l273 -537 l273 537 q11 22 39 22 q40 0 40 -42 l0 -588 Z" /><glyph glyph-name="" unicode="p" d="M543 484 q0 -79 -53 -139 q-52 -58 -130 -58 l-226 0 l0 -246 q0 -43 -33 -43 q-40 0 -40 43 l0 574 q0 43 40 43 l281 0 q72 0 118 -51 q43 -51 43 -123 ZM465 484 q0 37 -28 68 q-27 33 -67 33 l-219 0 q-17 0 -17 -16 l0 -209 l213 0 q47 0 83 38 q35 38 35 86 Z" /><glyph glyph-name="" unicode="s" d="M545 188 q0 -88 -74 -141 q-70 -48 -178 -48 q-143 0 -223 110 q-29 40 -29 87 q0 15 11 27 q11 11 29 11 q25 0 38 -41 q16 -58 66 -91 q46 -30 105 -30 q74 0 123 29 q54 31 54 87 q0 48 -56 78 q-68 27 -136 55 q-100 42 -137 69 q-69 50 -69 121 q0 161 237 161 q151 0 212 -89 q27 -39 27 -68 q0 -44 -44 -44 q-20 0 -30 24 q-45 105 -165 105 q-58 0 -99 -15 q-57 -21 -57 -70 q0 -41 48 -70 q22 -14 118 -51 q113 -45 151 -71 q78 -54 78 -135 Z" /><glyph glyph-name="" unicode="t" d="M569 621 q0 -36 -43 -36 l-194 0 l0 -544 q0 -43 -37 -43 q-37 0 -37 43 l0 544 l-195 0 q-43 0 -43 36 q0 37 43 37 l463 0 q43 0 43 -37 Z" /><glyph glyph-name="" unicode="a" d="M432 39 q0 -43 -36 -43 q-36 0 -36 43 l0 37 q-35 -33 -86 -54 q-50 -23 -95 -23 q-61 0 -101 30 q-47 35 -47 100 q0 83 79 127 q63 35 154 35 l96 0 q-6 102 -116 102 q-38 0 -74 -15 q-40 -15 -58 -43 q-13 -19 -24 -19 q-41 0 -41 42 q0 15 21 38 q63 69 176 69 q101 0 146 -53 q42 -51 42 -118 l0 -255 ZM360 166 l0 54 l-62 0 q-190 0 -190 -91 q0 -26 21 -42 q22 -15 50 -15 q49 0 103 28 q53 26 78 66 Z" /><glyph glyph-name="" unicode="c" d="M447 151 q0 -13 -24 -51 q-66 -102 -176 -102 q-93 0 -156 71 q-60 67 -60 162 q0 95 61 165 q61 69 155 69 q80 0 138 -45 q55 -42 55 -87 q0 -41 -41 -41 q-18 0 -28 21 q-19 39 -50 58 q-37 22 -77 22 q-64 0 -102 -51 q-34 -46 -34 -111 q0 -66 37 -111 q41 -49 105 -49 q69 0 120 92 q15 29 36 29 q41 0 41 -41 Z" /><glyph glyph-name="" unicode="d" d="M466 42 q0 -43 -36 -43 q-37 0 -37 43 l0 37 q-21 -37 -65 -59 q-40 -21 -82 -21 q-102 0 -160 68 q-55 63 -55 164 q0 94 61 164 q63 70 154 70 q48 0 88 -21 q40 -21 59 -52 l0 238 q0 42 37 42 q36 0 36 -42 l0 -588 ZM393 236 q0 62 -38 107 q-43 49 -109 49 q-62 0 -101 -49 q-37 -48 -37 -112 q0 -69 32 -111 q37 -48 106 -48 q63 0 107 52 q40 49 40 112 Z" /><glyph glyph-name="" unicode="e" d="M447 253 q0 -37 -45 -37 l-294 0 q5 -63 40 -102 q37 -42 96 -42 q47 0 79 29 q19 17 44 61 q10 18 32 18 q14 0 25 -13 q12 -12 12 -29 q0 -28 -38 -73 q-56 -66 -156 -66 q-99 0 -157 71 q-54 66 -54 167 q0 91 60 160 q61 68 151 68 q92 0 150 -66 q55 -63 55 -146 ZM371 283 q0 39 -37 78 q-31 32 -92 32 q-48 0 -82 -31 q-35 -30 -47 -79 l253 0 q6 -1 5 0 Z" /><glyph glyph-name="" unicode="f" d="M355 428 q0 -36 -42 -36 l-82 0 l0 -350 q0 -43 -35 -43 q-36 0 -36 43 l0 350 l-89 0 q-42 0 -42 36 q0 36 42 36 l89 0 l0 107 q0 87 89 87 l59 0 q42 0 42 -37 q0 -36 -42 -36 l-51 0 q-26 0 -26 -30 l0 -91 l82 0 q42 0 42 -36 Z" /><glyph glyph-name="" unicode="g" d="M469 429 q0 -23 -30 -30 q-18 -5 -40 -19 q20 -34 20 -66 q0 -66 -60 -108 q-53 -37 -119 -37 q-27 0 -58 9 q-16 -12 -16 -22 q0 -7 27 -16 q56 -12 162 -41 q87 -30 87 -100 q0 -60 -72 -92 q-56 -24 -124 -24 q-85 0 -143 24 q-72 31 -72 92 q0 66 101 98 q-43 18 -43 59 q0 27 27 52 q-58 45 -58 104 q0 72 58 115 q51 38 124 38 q63 0 111 -31 q43 31 83 31 q35 0 35 -36 ZM341 312 q0 34 -32 58 q-33 23 -69 23 q-43 0 -72 -20 q-33 -21 -33 -61 q0 -33 38 -54 q32 -16 71 -16 q31 0 62 20 q35 22 35 50 ZM365 -1 q0 38 -109 66 q-148 -22 -148 -66 q0 -47 138 -47 q38 0 71 9 q48 13 48 38 Z" /><glyph glyph-name="" unicode="h" d="M456 42 q0 -43 -36 -43 q-37 0 -37 43 l0 256 q0 40 -31 67 q-29 27 -69 27 q-120 0 -164 -125 q-2 -4 -5 -28 l0 -197 q0 -43 -30 -43 q-43 0 -43 43 l0 588 q0 42 43 42 q30 0 30 -42 l0 -246 q66 81 169 81 q67 0 120 -45 q53 -45 53 -111 l0 -267 Z" /><glyph glyph-name="" unicode="i" d="M215 622 q0 -22 -15 -37 q-16 -14 -36 -14 q-22 0 -37 14 q-15 15 -15 37 q0 21 15 37 q15 14 37 14 q20 0 36 -14 q15 -16 15 -37 ZM200 41 q0 -44 -36 -44 q-37 0 -37 44 l0 381 q0 43 37 43 q36 0 36 -43 l0 -381 Z" /><glyph glyph-name="" unicode="l" d="M200 41 q0 -43 -36 -43 q-37 0 -37 43 l0 589 q0 42 37 42 q36 0 36 -42 l0 -589 Z" /><glyph glyph-name="" unicode="m" d="M666 43 q0 -43 -36 -43 q-37 0 -37 43 l0 277 q0 29 -28 54 q-20 20 -54 20 q-46 0 -75 -25 q-41 -34 -41 -61 l0 -265 q0 -43 -37 -43 q-36 0 -36 43 l0 265 q0 25 -32 59 q-26 27 -60 27 q-46 0 -78 -33 q-38 -38 -38 -65 l0 -253 q0 -43 -35 -43 q-38 0 -38 43 l0 380 q0 43 36 43 q39 0 38 -52 l0 -6 q47 58 115 58 q86 0 128 -71 q56 71 153 71 q60 0 107 -43 q48 -43 48 -103 l0 -277 Z" /><glyph glyph-name="" unicode="n" d="M455 42 q0 -43 -36 -43 q-36 0 -36 43 l0 245 q0 46 -35 77 q-35 30 -82 30 q-62 0 -110 -41 q-43 -37 -43 -76 l0 -235 q0 -43 -31 -43 q-41 0 -41 43 l0 381 q0 43 36 43 q36 0 36 -43 l0 -30 q60 73 153 73 q79 0 133 -51 q56 -50 56 -128 l0 -245 Z" /><glyph glyph-name="" unicode="o" d="M505 234 q0 -99 -68 -167 q-67 -68 -168 -68 q-103 0 -171 66 q-67 66 -67 169 q0 105 66 169 q67 63 172 63 q104 0 169 -64 q67 -65 67 -168 ZM427 234 q0 73 -42 116 q-43 44 -116 44 q-73 0 -117 -43 q-44 -43 -44 -117 q0 -70 46 -116 q46 -46 115 -46 q69 0 114 46 q44 47 44 116 Z" /><glyph glyph-name="" unicode="p" d="M474 237 q0 -96 -61 -165 q-65 -72 -163 -72 q-39 0 -79 20 q-40 18 -57 49 l0 -142 q0 -43 -37 -43 q-36 0 -36 43 l0 496 q0 43 36 43 q37 0 37 -43 l0 -31 q52 74 147 74 q94 0 154 -67 q59 -67 59 -162 ZM397 237 q0 66 -35 109 q-37 47 -101 47 q-65 0 -106 -47 q-41 -46 -41 -112 q0 -69 32 -113 q37 -48 104 -48 q65 0 106 49 q41 49 41 115 Z" /><glyph glyph-name="" unicode="r" d="M312 410 q0 -24 -26 -28 q-57 -8 -93 -36 q-23 -17 -45 -49 q-26 -40 -26 -71 l0 -184 q0 -43 -32 -43 q-39 0 -39 43 l0 380 q0 43 38 43 q33 0 33 -43 l0 -58 q57 87 150 87 q40 0 40 -41 Z" /><glyph glyph-name="" unicode="s" d="M415 128 q0 -65 -65 -100 q-53 -28 -131 -28 q-81 0 -140 42 q-59 42 -59 80 q0 40 43 40 q13 0 25 -18 q44 -71 128 -71 q121 0 121 55 q0 29 -54 54 q-21 8 -83 26 q-77 23 -109 41 q-60 35 -60 89 q0 64 54 98 q48 30 130 30 q55 0 113 -28 q68 -34 68 -83 q0 -40 -41 -40 q-13 0 -30 30 q-30 53 -106 53 q-110 0 -110 -60 q0 -19 32 -33 q13 -6 81 -26 q88 -27 124 -48 q69 -41 69 -103 Z" /><glyph glyph-name="" unicode="t" d="M306 50 q0 -36 -42 -36 q-13 0 -40 0 q-26 1 -40 1 q-73 0 -73 108 l0 256 l-54 0 q-42 0 -42 37 q0 37 42 37 l54 0 l0 79 q0 43 34 43 q37 0 37 -43 l0 -79 l76 0 q42 0 42 -37 q0 -37 -42 -37 l-76 0 l0 -253 q0 -40 15 -40 l67 0 q42 0 42 -36 Z" /><glyph glyph-name="" unicode="u" d="M458 41 q0 -43 -36 -43 q-35 0 -35 43 l0 33 q-27 -32 -72 -54 q-44 -22 -86 -22 q-82 0 -135 55 q-53 53 -53 136 l0 233 q0 43 36 43 q36 0 36 -43 l0 -238 q0 -54 29 -83 q30 -30 83 -30 q46 0 98 33 q64 41 64 86 l0 232 q0 43 35 43 q36 0 36 -43 l0 -381 Z" /><glyph glyph-name="" unicode="v" d="M460 429 q0 -11 -8 -28 l-190 -381 q-10 -21 -24 -21 q-18 0 -26 18 l-181 367 q-21 41 -21 45 q0 37 33 37 q23 0 35 -25 l160 -331 l156 334 q10 22 34 22 q32 0 32 -37 Z" /><glyph glyph-name="" unicode="w" d="M713 433 q0 -8 -5 -20 l-154 -387 q-10 -26 -34 -26 q-19 0 -30 26 l-125 314 l-129 -314 q-11 -26 -30 -26 q-23 0 -34 26 l-157 387 q-5 12 -5 20 q0 33 40 33 q21 0 30 -23 l126 -317 l129 314 q10 26 30 26 q19 0 30 -26 l125 -314 l123 317 q9 23 30 23 q40 0 40 -33 Z" /><glyph glyph-name="" unicode="y" d="M434 431 q0 -9 -5 -21 l-243 -508 q-10 -19 -26 -19 q-39 0 -39 32 q0 19 19 54 l48 90 l-176 351 q-2 4 -2 21 q0 34 27 34 q23 0 35 -22 l155 -303 l147 303 q10 22 34 22 q26 0 26 -34 Z" /><glyph glyph-name="" unicode="&#x3001;" d="M388 39 q0 -40 -40 -40 q-19 0 -31 23 q-60 124 -174 202 q-18 12 -18 28 q0 38 38 38 q13 0 52 -32 q97 -80 149 -164 q24 -41 24 -55 Z" /><glyph glyph-name="" unicode="&#x3002;" d="M412 159 q0 -60 -48 -110 q-49 -50 -108 -50 q-63 0 -110 48 q-46 49 -46 112 q0 66 45 111 q45 45 111 45 q62 0 109 -47 q47 -46 47 -109 ZM358 159 q0 41 -30 72 q-31 31 -72 31 q-45 0 -74 -29 q-28 -29 -28 -74 q0 -43 29 -75 q30 -31 73 -31 q40 0 72 32 q30 34 30 74 Z" /><glyph glyph-name="" unicode="&#x201c;" d="M932 692 q0 -31 -21 -51 q-20 -19 -51 -19 q-26 0 -47 21 q-19 22 -19 49 q0 61 57 135 q34 44 50 44 q20 0 20 -21 q0 -4 -23 -39 q-19 -29 -19 -41 q0 -15 15 -24 q38 -23 38 -54 ZM743 692 q0 -31 -20 -51 q-21 -19 -51 -19 q-27 0 -47 21 q-20 22 -20 49 q0 61 58 135 q33 44 50 44 q19 0 19 -21 q0 -4 -22 -39 q-20 -29 -20 -41 q0 -15 16 -24 q37 -23 37 -54 Z" /><glyph glyph-name="" unicode="&#x201d;" d="M420 781 q0 -62 -58 -135 q-34 -45 -50 -45 q-19 0 -19 21 q0 4 22 39 q20 30 20 41 q0 15 -16 24 q-37 23 -37 55 q0 30 19 50 q21 19 52 19 q26 0 46 -21 q21 -22 21 -48 ZM231 781 q0 -62 -57 -135 q-35 -45 -50 -45 q-20 0 -20 21 q0 4 23 39 q19 30 19 41 q0 15 -15 24 q-38 23 -38 55 q0 30 20 50 q20 19 52 19 q25 0 46 -21 q20 -22 20 -48 Z" /><glyph glyph-name="" unicode="&#xff0c;" d="M326 74 q0 -60 -60 -132 q-28 -35 -48 -35 q-19 0 -19 20 q0 5 21 33 q22 30 22 38 q0 13 -17 22 q-38 22 -38 54 q0 30 20 48 q20 18 51 18 q27 0 47 -20 q21 -19 21 -46 Z" /><glyph glyph-name="" unicode="&#xff1a;" d="M326 444 q0 -29 -21 -49 q-20 -21 -49 -21 q-29 0 -49 21 q-21 20 -21 49 q0 28 21 49 q20 20 49 20 q29 0 49 -20 q21 -21 21 -49 ZM326 69 q0 -29 -21 -49 q-20 -21 -49 -21 q-29 0 -49 21 q-21 20 -21 49 q0 29 21 49 q20 21 49 21 q29 0 49 -21 q21 -20 21 -49 Z" /><glyph glyph-name="" unicode="&#xff1f;" d="M481 583 q0 -60 -48 -115 q-47 -43 -94 -87 q-27 -25 -34 -72 q-4 -34 -8 -69 q-7 -31 -35 -31 q-36 0 -36 42 q0 84 16 120 q14 33 94 101 q67 60 67 111 q0 51 -46 81 q-40 27 -95 27 q-69 0 -112 -35 q-47 -37 -52 -103 q-3 -42 -27 -42 q-39 0 -39 47 q0 94 69 151 q65 54 161 54 q88 0 151 -46 q68 -50 68 -134 ZM334 69 q0 -27 -22 -48 q-21 -22 -48 -22 q-28 0 -49 21 q-20 20 -20 49 q0 31 19 50 q19 20 50 20 q29 0 49 -21 q21 -20 21 -49 Z" /><glyph glyph-name="" unicode="&#x6848;" d="M120 781 l345 0 q-7 6 -13 12 q-9 14 -9 19 q0 36 40 36 q10 0 21 -11 q22 -22 44 -48 q2 -5 2 -8 l370 0 q48 0 48 -65 q0 -25 -4 -59 q-7 -25 -40 -25 q-28 0 -28 25 l0 36 q0 27 -25 27 l-719 0 q-24 0 -24 -31 l0 -21 q0 -36 -37 -36 q-36 0 -36 36 l0 48 q0 65 65 65 ZM475 697 q38 -2 40 -32 q0 -8 -8 -23 q-12 -20 -27 -37 l448 0 q31 0 31 -32 q0 -33 -31 -33 l-177 0 q-5 -11 -15 -26 q-41 -56 -97 -97 q-8 -6 -14 -9 q129 -27 303 -64 q26 -9 27 -31 q-2 -38 -35 -40 q-9 0 -24 4 q-177 47 -347 87 q-48 -23 -102 -38 q-83 -27 -188 -41 q-93 -12 -160 -12 q-40 1 -40 36 q0 28 28 31 q183 10 296 35 q28 7 53 16 q-65 14 -129 27 q-59 13 -59 46 q0 21 25 39 q28 20 50 37 l-228 0 q-32 0 -32 33 q0 32 32 32 l298 0 q28 31 50 71 q10 20 32 21 ZM669 540 l-249 0 q-33 -28 -77 -57 q-7 -5 -7 -11 q0 -5 13 -9 q57 -10 179 -36 q21 11 39 22 q57 35 102 91 ZM947 221 q33 0 33 -32 q0 -36 -33 -36 l-390 0 q83 -47 176 -81 q138 -50 243 -76 q23 -10 23 -36 q0 -13 -9 -25 q-9 -14 -26 -14 q-22 0 -43 7 q-99 32 -189 70 q-93 40 -180 90 l0 -155 q0 -36 -40 -36 q-37 0 -37 36 l0 160 q-62 -39 -127 -70 q-88 -43 -249 -94 q-22 -4 -27 -4 q-36 0 -36 40 q0 26 23 35 q170 46 267 89 q69 29 123 64 l-362 0 q-32 0 -32 36 q0 32 32 32 l388 0 l0 48 q0 36 37 36 q40 0 40 -36 l0 -48 l395 0 Z" /><glyph glyph-name="" unicode="&#x51f9;" d="M147 793 l204 0 q65 0 65 -65 l0 -264 q0 -23 23 -23 l149 0 q23 0 23 23 l0 264 q0 65 65 65 l208 0 q63 0 63 -65 l0 -707 q0 -73 -71 -73 l-720 0 q-72 0 -72 73 l0 707 q0 65 63 65 ZM156 561 l0 -508 q0 -32 31 -32 l657 0 q32 0 32 32 l0 644 q0 23 -24 23 l-144 0 q-25 0 -25 -23 l0 -264 q0 -65 -63 -65 l-212 0 q-65 0 -65 65 l0 264 q0 23 -24 23 l-140 0 q-23 0 -23 -23 l0 -136 Z" /><glyph glyph-name="" unicode="&#x5df4;" d="M343 785 l493 0 q67 0 67 -61 l0 -336 q0 -63 -67 -63 l-661 0 l0 -256 q0 -45 53 -56 q76 -13 272 -13 q206 0 294 12 q53 5 69 29 q25 22 25 156 q1 34 36 36 q37 -2 40 -48 q0 -59 -15 -117 q-14 -82 -88 -114 q-63 -29 -334 -29 q-262 0 -343 20 q-85 30 -85 108 l0 675 q0 57 61 57 l183 0 ZM175 565 l0 -172 l293 0 l0 323 l-268 0 q-25 0 -25 -27 l0 -124 ZM544 716 l0 -323 l252 0 q31 0 31 35 l0 256 q0 32 -31 32 l-252 0 Z" /><glyph glyph-name="" unicode="&#x822c;" d="M563 428 l313 0 q48 0 48 -52 q0 -36 -29 -95 q-46 -101 -112 -179 q-1 -1 -1 -1 q4 -3 8 -6 q47 -50 174 -126 q14 -10 16 -28 q-4 -33 -33 -37 q-13 0 -32 8 q-123 83 -179 137 q-78 -78 -181 -132 q-25 -13 -36 -13 q-40 0 -40 40 q0 23 29 37 q108 60 175 124 q-34 42 -58 91 q-37 67 -59 161 l-3 0 q-40 0 -40 36 q0 35 40 35 ZM629 357 q20 -71 54 -133 q22 -36 47 -68 q51 61 101 153 q13 25 13 40 q0 8 -8 8 l-207 0 ZM299 837 q14 0 26 -11 q11 -11 11 -26 q0 -12 -8 -23 q-7 -22 -15 -40 l78 0 q61 0 61 -61 l0 -684 q0 -80 -76 -80 q-57 0 -109 17 q-23 8 -23 36 q0 35 27 35 l93 -19 q20 0 20 28 l0 319 l-201 0 l0 -40 q0 -110 -16 -204 q-12 -81 -36 -151 q-9 -29 -44 -29 q-36 0 -36 33 q0 1 5 15 q29 77 41 149 q19 85 19 187 l0 40 l-21 0 q-36 0 -36 37 q0 36 36 36 l21 0 l0 275 q0 61 59 61 l61 0 q4 6 6 12 q14 35 25 72 q12 16 32 16 ZM183 401 l201 0 l0 248 q0 23 -16 23 l-172 0 q-13 0 -13 -23 l0 -248 ZM252 628 q12 0 23 -15 q33 -59 57 -132 q4 -13 4 -25 q0 -28 -40 -28 q-16 0 -25 25 q-22 83 -48 131 q-4 10 -4 16 q0 28 33 28 ZM263 296 q13 0 25 -15 q33 -59 55 -132 q4 -13 4 -25 q0 -27 -40 -27 q-15 0 -23 23 q-23 84 -48 132 q-5 11 -5 17 q0 27 32 27 ZM771 596 l0 124 q0 29 -23 29 l-120 0 q-17 0 -17 -16 l0 -120 q0 -47 -12 -85 q-13 -39 -55 -79 q-15 -8 -29 -8 q-27 8 -32 31 q0 20 13 32 q32 28 41 51 q11 26 11 58 l0 155 q0 44 44 44 l191 0 q61 0 61 -56 l0 -183 q0 -29 27 -29 l76 0 q36 0 36 -36 q0 -36 -36 -36 l-103 0 q-73 0 -73 72 l0 52 Z" /><glyph glyph-name="" unicode="&#x80de;" d="M143 825 l145 0 q55 0 55 -57 l0 -787 q0 -73 -91 -73 q-26 0 -48 8 q-29 10 -29 40 q0 36 33 36 l36 -8 q27 0 27 16 l0 229 l-112 0 q-2 -72 -7 -134 q-6 -86 -17 -162 q-9 -33 -44 -33 q-40 0 -40 37 q0 1 3 16 q16 82 23 159 q10 90 10 201 l0 455 q0 57 56 57 ZM160 296 l111 0 l0 197 l-111 0 l0 -197 ZM160 561 l111 0 l0 167 q0 28 -12 28 l-95 0 q-4 0 -4 -28 l0 -167 ZM508 829 q12 0 21 -8 q11 -9 11 -25 q0 -7 -4 -19 q-6 -23 -12 -40 l331 0 q73 0 73 -72 l0 -373 q0 -151 -141 -151 q-64 0 -140 19 q-32 8 -32 37 q0 36 32 36 q89 -21 140 -21 q68 0 68 113 l0 315 q0 32 -24 32 l-332 0 q-15 -31 -33 -56 q-20 -30 -46 -51 q-10 -9 -21 -9 q-13 0 -22 12 q-9 11 -9 24 q0 13 8 21 q21 20 38 46 q19 30 33 65 q15 34 24 80 q8 25 37 25 ZM651 500 l-132 0 q-19 0 -19 -23 l0 -137 l172 0 q19 0 19 21 l0 120 q0 19 -19 19 l-21 0 ZM500 277 l0 -224 q0 -43 27 -53 q41 -12 145 -12 q125 0 178 7 q33 3 43 18 q14 13 14 92 q2 30 32 32 q35 -2 37 -44 q0 -40 -9 -79 q-11 -56 -58 -77 q-40 -21 -214 -21 q-161 0 -211 21 q-53 28 -53 103 l0 464 q0 61 61 61 l211 0 q57 0 57 -53 l0 -184 q0 -51 -57 -51 l-203 0 Z" /><glyph glyph-name="" unicode="&#x5305;" d="M252 848 q13 0 24 -8 q12 -8 12 -23 q0 -10 -4 -24 q-8 -24 -15 -44 l583 0 q72 0 72 -84 q0 -178 -12 -325 q-12 -130 -48 -170 q-39 -42 -112 -42 q-64 0 -141 17 q-27 13 -27 36 q0 44 40 44 q79 -21 124 -21 q46 0 65 36 q20 36 27 133 q8 110 8 263 q0 40 -37 40 l-563 0 q-7 0 -10 1 q-2 -3 -4 -5 q-29 -53 -68 -98 q-34 -40 -79 -70 q-11 -8 -24 -8 q-14 0 -25 12 q-10 13 -10 29 q0 13 12 24 q40 28 70 63 q35 42 61 90 q27 47 44 111 q8 23 37 23 ZM143 229 l0 283 q0 69 69 69 l376 0 q67 0 67 -69 l0 -184 q0 -68 -67 -68 l-373 0 l0 -207 q0 -43 58 -53 q84 -12 298 -12 q181 0 258 9 q47 5 61 26 q21 17 21 130 q2 34 36 36 q34 -2 36 -44 q0 -52 -12 -103 q-14 -71 -78 -100 q-57 -26 -297 -26 q-278 0 -363 21 q-90 28 -90 103 l0 189 ZM215 332 l340 0 q29 0 29 29 l0 120 q0 27 -29 27 l-307 0 q-33 0 -33 -31 l0 -145 Z" /><glyph glyph-name="" unicode="&#x8584;" d="M376 529 l195 0 l0 36 l-268 0 q-28 0 -28 31 q0 28 28 28 l268 0 l0 29 q0 31 32 31 q37 0 37 -31 l0 -29 l187 0 q-6 7 -11 12 q-9 11 -20 21 q-9 10 -9 19 q0 29 28 29 q8 0 21 -4 q13 -11 24 -22 q17 -14 32 -35 q7 -13 7 -20 l25 0 q27 0 27 -28 q0 -31 -27 -31 l-284 0 l0 -36 l215 0 q60 0 60 -52 l0 -252 q0 -36 -35 -36 q-36 0 -36 36 l0 52 l-204 0 l0 -73 q0 -32 -37 -32 q-32 0 -32 32 l0 73 l-184 0 l0 -52 q0 -36 -36 -36 q-36 0 -36 36 l0 252 q0 52 61 52 ZM387 328 l184 0 l0 44 l-184 0 l0 -44 ZM640 372 l0 -44 l204 0 l0 44 l-204 0 ZM387 424 l184 0 l0 44 l-163 0 q-21 0 -21 -23 l0 -21 ZM640 468 l0 -44 l204 0 l0 21 q0 23 -21 23 l-183 0 ZM943 777 q33 0 33 -32 q0 -33 -33 -33 l-219 0 l0 -11 q0 -36 -37 -36 q-36 0 -36 36 l0 11 l-300 0 l0 -11 q0 -36 -36 -36 q-35 0 -35 36 l0 11 l-204 0 q-33 0 -33 33 q0 32 33 32 l204 0 l0 31 q0 36 35 36 q36 0 36 -36 l0 -31 l300 0 l0 31 q0 36 36 36 q37 0 37 -36 l0 -31 l219 0 ZM124 636 q9 0 23 -8 q26 -20 48 -40 q32 -26 61 -63 q11 -14 11 -21 q0 -32 -31 -32 q-19 0 -32 13 q-35 34 -59 54 q-20 16 -46 34 q-12 13 -12 27 q0 36 37 36 ZM80 464 q9 0 23 -8 q25 -21 45 -41 q32 -29 60 -66 q11 -14 11 -21 q0 -32 -32 -32 q-18 0 -31 13 q-32 37 -55 59 q-18 17 -42 37 q-12 13 -12 28 q0 31 33 31 ZM223 260 q36 0 36 -35 q0 -10 -7 -30 q-41 -109 -83 -176 q-39 -65 -68 -94 q-14 -13 -25 -13 q-40 0 -40 36 q0 11 9 25 q41 49 66 93 q40 66 80 174 q11 20 32 20 ZM932 141 q32 0 32 -32 q0 -33 -32 -33 l-117 0 l0 -107 q0 -61 -67 -61 q-46 0 -120 25 q-29 9 -29 36 q1 34 29 35 q5 0 16 -3 q64 -20 83 -20 q16 0 16 19 l0 76 l-285 0 q22 -37 38 -80 q4 -12 4 -23 q0 -32 -40 -32 q-19 0 -29 24 q-16 60 -36 96 q-6 9 -7 15 l-96 0 q-33 0 -33 33 q0 32 33 32 l451 0 l0 31 q0 36 36 36 q36 0 36 -36 l0 -31 l117 0 Z" /><glyph glyph-name="" unicode="&#x9971;" d="M196 512 q35 0 35 -31 l0 -445 q0 -15 13 -15 q8 0 34 17 q32 20 70 52 q13 11 24 11 q34 -2 36 -36 q0 -14 -17 -33 q-49 -44 -112 -81 q-31 -17 -60 -18 q-55 0 -55 67 l0 481 q0 31 32 31 ZM175 837 q33 0 33 -37 q-7 -51 -19 -99 l143 0 q63 0 63 -65 q0 -4 -2 -12 q14 18 24 36 q17 31 29 67 q13 34 22 81 q7 25 36 25 q12 0 21 -8 q11 -8 11 -25 q0 -7 -5 -19 q-5 -25 -10 -44 l334 0 q73 0 73 -72 l0 -373 q0 -151 -141 -151 q-64 0 -140 19 q-32 8 -32 37 q0 36 32 36 q89 -21 140 -21 q68 0 68 113 l0 315 q0 32 -24 32 l-333 0 q-13 -31 -29 -56 q-18 -30 -42 -51 q-9 -9 -19 -9 q-14 0 -24 12 q-5 7 -6 13 q-10 -24 -24 -46 q-17 -31 -43 -54 q-11 -12 -23 -13 q-36 8 -36 32 q0 7 3 10 q19 18 33 37 q16 27 31 64 q5 8 5 10 q0 15 -17 15 l-134 0 q-1 -3 -2 -6 q-26 -85 -68 -166 q-11 -19 -31 -19 q-36 0 -36 32 q0 4 7 16 q50 99 63 149 q24 75 41 175 q5 20 28 20 ZM651 500 l-132 0 q-19 0 -19 -23 l0 -137 l180 0 q19 0 19 21 l0 120 q0 19 -19 19 l-29 0 ZM500 277 l0 -224 q0 -43 27 -53 q41 -12 145 -12 q125 0 178 7 q33 3 43 18 q14 13 14 92 q2 30 32 32 q35 -2 37 -44 q0 -40 -9 -79 q-11 -56 -58 -77 q-40 -21 -214 -21 q-161 0 -211 21 q-53 28 -53 103 l0 464 q0 61 61 61 l220 0 q56 0 56 -53 l0 -184 q0 -51 -56 -51 l-212 0 Z" /><glyph glyph-name="" unicode="&#x5b9d;" d="M143 733 l358 0 q-18 26 -37 52 q-8 14 -8 19 q0 36 40 36 q9 0 19 -11 q35 -37 65 -84 q4 -7 6 -12 l285 0 q101 0 101 -109 q0 -40 -21 -91 q-15 -24 -44 -25 q-27 6 -31 36 q0 6 3 11 q9 20 15 42 q5 25 5 39 q0 32 -19 32 l-709 0 q-32 0 -32 -32 l0 -88 q0 -36 -36 -36 q-35 0 -35 36 l0 109 q0 76 75 76 ZM804 540 q34 -1 36 -36 q-2 -34 -36 -36 l-256 0 l0 -176 l271 0 q34 -1 36 -36 q-2 -33 -36 -35 l-271 0 l0 -225 l367 0 q34 -1 36 -36 q-2 -33 -36 -35 l-799 0 q-35 2 -36 35 q1 35 36 36 l359 0 l0 225 l-279 0 q-35 2 -36 35 q1 35 36 36 l279 0 l0 176 l-263 0 q-35 2 -37 36 q2 35 37 36 l592 0 ZM687 197 q14 0 29 -8 q30 -29 51 -50 q20 -25 44 -59 q4 -11 4 -23 q-3 -26 -32 -29 q-15 0 -23 8 q-23 32 -43 56 q-19 20 -49 49 q-9 16 -9 27 q6 24 28 29 Z" /><glyph glyph-name="" unicode="&#x5907;" d="M270 668 q-21 -24 -44 -43 q-44 -35 -95 -64 q-15 -9 -28 -9 q-14 0 -25 14 q-10 13 -10 30 q0 19 23 32 q50 30 88 61 q34 27 62 63 q24 30 58 85 q9 15 25 15 q15 0 27 -10 q13 -11 13 -25 q0 -20 -9 -32 q-1 -2 -2 -4 l439 0 q71 0 71 -57 q0 -17 -36 -54 q-77 -73 -177 -130 q-25 -15 -54 -30 q59 -20 144 -40 q70 -18 188 -37 q27 -11 27 -36 q0 -40 -40 -40 q-8 0 -25 3 q-142 30 -227 56 q-90 26 -154 55 q-30 -12 -59 -22 q-151 -52 -282 -77 q-54 -11 -73 -11 q-44 0 -44 40 q0 25 33 32 q143 23 225 46 q64 16 119 34 q-38 24 -72 55 q-53 48 -86 100 ZM514 545 q16 7 32 13 q99 46 185 116 q25 22 25 27 q0 8 -17 8 l-415 0 q3 -5 4 -8 q49 -66 104 -108 q36 -26 82 -48 ZM256 368 l536 0 q71 0 71 -68 l0 -312 q0 -67 -71 -67 l-536 0 q-69 0 -69 67 l0 312 q0 68 69 68 ZM760 -8 q27 0 27 29 l0 88 l-235 0 l0 -117 l208 0 ZM479 -8 l0 117 l-216 0 l0 -88 q0 -29 25 -29 l191 0 ZM263 177 l216 0 l0 119 l-191 0 q-25 0 -25 -27 l0 -92 ZM552 296 l0 -119 l235 0 l0 92 q0 27 -27 27 l-208 0 Z" /><glyph glyph-name="" unicode="&#x9f3b;" d="M496 840 q14 0 24 -10 q11 -11 11 -26 q0 -14 -8 -27 q-2 -6 -4 -9 l296 0 q56 0 56 -44 l0 -228 q0 -43 -56 -43 l-611 0 q-57 0 -57 43 l0 228 q0 44 57 44 l231 0 q4 7 6 11 q13 21 23 46 q11 15 32 15 ZM796 500 q4 0 4 16 l0 28 l-581 0 l0 -28 q0 -16 4 -16 l573 0 ZM219 588 l581 0 l0 44 l-581 0 l0 -44 ZM219 676 l581 0 l0 29 q0 15 -4 15 l-573 0 q-4 0 -4 -15 l0 -29 ZM152 405 l715 0 q53 0 53 -40 l0 -144 q0 -44 -53 -44 l-715 0 q-53 0 -53 44 l0 144 q0 40 53 40 ZM840 229 q8 0 8 19 l0 21 l-300 0 l0 -40 l292 0 ZM475 229 l0 40 l-304 0 l0 -21 q0 -19 8 -19 l296 0 ZM171 313 l304 0 l0 40 l-296 0 q-8 0 -8 -17 l0 -23 ZM548 353 l0 -40 l300 0 l0 23 q0 17 -8 17 l-292 0 ZM951 132 q29 0 29 -27 q0 -33 -29 -33 l-203 0 l0 -135 q0 -37 -36 -37 q-36 0 -36 37 l0 135 l-317 0 l0 -23 q0 -66 -40 -97 q-40 -36 -191 -48 q-37 0 -37 37 q0 25 29 32 q111 7 141 24 q31 18 31 52 l0 23 l-205 0 q-28 0 -28 33 q0 27 28 27 l864 0 Z" /><glyph glyph-name="" unicode="&#x6bd4;" d="M208 477 l0 -449 q0 -15 11 -15 q14 0 57 20 q57 25 120 63 q23 13 39 13 q38 -2 40 -40 q0 -15 -15 -37 q-76 -48 -174 -87 q-47 -19 -90 -20 q-65 0 -65 67 l0 808 q0 37 37 37 q40 0 40 -37 l0 -252 l231 0 q36 0 36 -36 q0 -35 -36 -35 l-231 0 ZM571 833 q40 0 40 -37 l0 -268 q58 21 102 44 q46 23 86 53 q32 25 81 72 q9 12 23 12 q15 0 26 -9 q10 -10 10 -24 q0 -16 -7 -27 q-50 -51 -86 -76 q-42 -33 -90 -58 q-60 -29 -128 -55 q-11 -5 -17 -6 l0 -418 q0 -26 21 -37 q22 -11 103 -11 q113 0 134 19 q27 21 27 54 l0 124 q1 42 36 44 q37 -3 40 -52 q0 -161 -19 -189 q-10 -34 -54 -53 q-40 -19 -164 -19 q-127 0 -164 25 q-35 23 -35 84 l0 771 q0 37 35 37 Z" /><glyph glyph-name="" unicode="&#x853d;" d="M959 793 q32 0 32 -33 q0 -32 -32 -32 l-191 0 l0 -31 q0 -36 -37 -36 q-36 0 -36 36 l0 31 l-363 0 l0 -27 q0 -36 -36 -36 q-37 0 -37 36 l0 27 l-187 0 q-32 0 -32 32 q0 33 32 33 l187 0 l0 15 q0 36 37 36 q36 0 36 -36 l0 -15 l363 0 l0 15 q0 36 36 36 q37 0 37 -36 l0 -15 l191 0 ZM124 624 q9 0 23 -7 q18 -19 32 -36 q22 -24 40 -56 q8 -14 8 -21 q0 -32 -27 -32 q-19 0 -32 9 q-22 32 -37 52 q-12 15 -28 32 q-12 14 -12 27 q0 32 33 32 ZM496 621 q31 0 31 -33 q0 -15 -15 -36 q-32 -48 -60 -75 q-13 -9 -25 -9 q-32 0 -32 28 q0 12 8 25 q40 38 68 84 q9 16 25 16 ZM152 445 l128 0 l0 176 q0 32 31 32 q36 0 36 -32 l0 -176 l117 0 q63 0 63 -61 l0 -375 q0 -105 -75 -105 q-27 0 -65 8 q-19 9 -19 29 q0 36 23 36 q5 0 13 -2 q25 -6 39 -6 q17 0 17 35 l0 357 q0 23 -17 23 l-96 0 l0 -69 q8 6 21 6 q10 0 19 -12 q34 -68 56 -153 q4 -10 4 -19 q0 -28 -35 -28 q-17 0 -25 19 q-18 89 -40 143 l0 -338 q0 -33 -36 -33 q-31 0 -31 33 l0 308 q-31 -99 -68 -176 q-11 -12 -25 -12 q-35 0 -35 27 q0 13 4 17 q41 81 84 208 q4 16 19 16 q12 0 21 -5 l0 68 l-116 0 q-12 0 -12 -23 l0 -424 q0 -33 -36 -33 q-32 0 -32 33 l0 447 q0 61 68 61 ZM683 649 q13 0 23 -8 q10 -7 10 -20 q0 -8 -4 -21 q-4 -27 -10 -52 l237 0 q33 0 33 -32 q0 -35 -33 -35 l-24 0 q-2 -48 -13 -118 q-13 -93 -44 -176 q-20 -46 -43 -83 q12 -16 25 -29 q29 -34 109 -96 q19 -13 19 -31 q0 -38 -36 -40 q-28 0 -60 29 q-60 51 -104 102 q-7 -8 -13 -14 q-70 -70 -157 -114 q-15 -7 -23 -7 q-39 0 -39 37 q0 18 16 28 q97 54 155 116 q7 9 13 17 q-18 26 -31 51 q-35 62 -57 168 q-17 -35 -36 -61 q-12 -8 -25 -8 q-13 0 -22 12 q-9 11 -9 24 q0 14 12 25 q22 35 39 75 q20 51 36 108 q14 56 24 132 q7 21 32 21 ZM675 434 q10 -99 54 -198 q13 -33 37 -68 q16 30 30 63 q34 92 47 250 l-155 0 q-3 -13 -6 -23 q-3 -13 -7 -24 Z" /><glyph glyph-name="" unicode="&#x907f;" d="M483 733 l-88 0 q-23 0 -23 -24 l0 -117 l140 0 q19 0 19 21 l0 99 q0 21 -19 21 l-29 0 ZM372 529 l0 -8 q0 -97 -11 -186 q-8 -64 -26 -135 q-14 -48 -28 -80 q-11 -19 -32 -19 q-30 2 -31 36 q0 4 4 18 q15 40 25 78 q17 55 25 120 q9 74 9 168 l0 212 q0 63 65 63 l172 0 q52 0 52 -51 l0 -164 q0 -52 -52 -52 l-172 0 ZM443 449 l101 0 q55 0 55 -52 l0 -281 q0 -55 -55 -55 l-101 0 q-56 0 -56 55 l0 281 q0 52 56 52 ZM515 120 q21 0 21 25 l0 223 q0 20 -21 20 l-44 0 q-19 0 -19 -20 l0 -223 q0 -25 19 -25 l44 0 ZM920 749 q31 0 31 -33 q0 -32 -31 -32 l-256 0 q-32 0 -32 32 q0 33 32 33 l98 0 q-16 21 -31 40 q-7 14 -7 19 q0 36 40 36 q8 0 19 -11 q30 -30 57 -69 q5 -8 7 -15 l73 0 ZM683 661 q13 0 25 -17 q28 -62 48 -140 q4 -10 4 -19 l0 -4 l52 0 q1 6 3 8 q26 62 52 160 q6 16 25 16 q15 0 28 -8 q12 -9 12 -21 q0 -6 -4 -15 q-24 -78 -51 -140 l59 0 q32 0 32 -32 q0 -37 -32 -37 l-117 0 l0 -135 l113 0 q32 0 32 -33 q0 -32 -32 -32 l-113 0 l0 -151 q0 -36 -36 -36 q-35 0 -35 36 l0 151 l-93 0 q-31 0 -31 32 q0 33 31 33 l93 0 l0 135 l-101 0 q-32 0 -32 37 q0 32 32 32 l51 0 q-20 84 -43 132 q-8 12 -8 19 q0 29 36 29 ZM143 817 q11 0 25 -9 q38 -31 68 -63 q16 -15 16 -33 q0 -32 -33 -32 q-16 0 -28 9 q-27 31 -63 63 q-25 14 -25 29 q0 36 40 36 ZM72 552 l107 0 q52 0 52 -52 l0 -376 q0 -52 53 -87 q64 -41 173 -41 l486 0 q37 0 37 -36 q0 -35 -37 -35 l-454 0 q-83 0 -152 21 q-67 20 -116 62 l-13 9 q-5 0 -12 -10 q-35 -51 -80 -81 q-23 -18 -32 -18 q-39 2 -41 36 q0 24 25 33 q49 27 68 51 q24 26 24 96 l0 340 q0 17 -17 17 l-71 0 q-36 0 -36 35 q0 36 36 36 Z" /><glyph glyph-name="" unicode="&#x53d8;" d="M932 756 q30 -1 32 -32 q-2 -29 -32 -31 l-268 0 l0 -313 l111 0 q56 0 56 -55 q-9 -18 -43 -69 q-48 -70 -137 -139 q-25 -19 -53 -37 q64 -25 153 -49 q76 -23 204 -47 q28 -11 28 -40 q0 -44 -40 -44 q-8 0 -28 4 q-152 36 -244 68 q-90 28 -156 61 q-32 -15 -64 -30 q-123 -53 -326 -98 q-11 -3 -26 -8 q-42 2 -44 32 q1 33 29 48 q206 45 306 83 q25 9 45 17 q-51 34 -95 78 q-70 70 -109 150 l0 4 l-44 0 q-34 2 -35 35 q1 33 35 36 l168 0 l0 313 l-264 0 q-31 2 -32 31 q1 31 32 32 l408 0 q-12 14 -24 29 q-7 14 -7 19 q0 33 36 33 q8 0 19 -12 q22 -23 40 -53 q7 -10 7 -16 l362 0 ZM592 380 l0 313 l-165 0 l0 -313 l165 0 ZM519 116 q34 16 60 33 q85 60 136 122 q20 25 28 38 l-438 0 q52 -77 110 -126 q44 -37 104 -67 ZM259 624 q28 -3 33 -28 q-1 -20 -12 -35 q-77 -106 -177 -189 q-15 -7 -27 -7 q-30 3 -33 36 q0 11 8 23 q97 81 176 189 q13 11 32 11 ZM771 624 q10 0 25 -7 q40 -40 73 -78 q51 -52 95 -123 q12 -15 12 -23 q0 -36 -37 -36 q-18 0 -32 11 q-52 78 -88 121 q-31 37 -67 76 q-13 14 -13 27 q0 32 32 32 Z" /><glyph glyph-name="" unicode="&#x6807;" d="M399 653 q32 0 32 -32 q0 -37 -32 -37 l-111 0 l0 -57 l121 -188 q11 -17 11 -30 q0 -36 -40 -36 q-20 0 -29 20 l-63 122 l0 -474 q0 -37 -36 -37 q-37 0 -37 37 l0 453 q-28 -92 -49 -144 q-29 -79 -50 -113 q-13 -25 -32 -25 q-41 0 -41 37 q0 13 8 28 q79 149 112 246 q24 69 45 161 l-121 0 q-32 0 -32 37 q0 32 32 32 l128 0 l0 147 q0 37 37 37 q36 0 36 -37 l0 -147 l111 0 ZM903 793 q36 0 36 -37 q0 -36 -36 -36 l-411 0 q-36 0 -36 36 q0 37 36 37 l411 0 ZM936 544 q36 0 36 -36 q0 -40 -36 -40 l-205 0 l0 -476 q0 -84 -88 -84 q-46 0 -107 21 q-28 8 -28 31 q1 35 32 36 q74 -19 88 -19 q31 0 31 32 l0 459 l-207 0 q-36 0 -36 40 q0 36 36 36 l484 0 ZM527 376 q36 0 36 -27 q0 -11 -4 -24 q-30 -188 -84 -344 q-10 -21 -32 -21 q-35 0 -35 32 q0 12 8 25 q54 160 84 340 q4 19 27 19 ZM840 376 q14 0 27 -15 q63 -152 105 -340 q4 -15 4 -29 q0 -32 -44 -32 q-19 0 -29 28 q-43 212 -92 337 q-7 14 -7 24 q0 27 36 27 Z" /><glyph glyph-name="" unicode="&#x8868;" d="M911 777 q32 0 32 -32 q0 -36 -32 -36 l-359 0 l0 -85 l315 0 q32 0 32 -32 q0 -36 -32 -36 l-315 0 l0 -96 l399 0 q32 0 32 -32 q0 -35 -32 -35 l-390 0 q38 -109 89 -176 q115 62 186 115 q13 17 23 17 q40 0 40 -36 q0 -21 -15 -36 q-79 -57 -189 -113 q41 -42 95 -77 q63 -45 174 -91 q23 -12 23 -27 q0 -44 -44 -44 q-10 0 -41 11 q-94 41 -162 91 q-86 56 -151 143 q-55 76 -100 223 l-15 0 q0 -10 -3 -17 q-60 -83 -147 -141 q-9 -6 -17 -11 l0 -196 q0 -15 8 -15 q12 0 49 21 q48 25 102 65 q19 13 34 13 q37 -1 40 -40 q0 -13 -17 -32 q-66 -49 -152 -91 q-41 -19 -79 -20 q-56 0 -56 63 l0 191 q-57 -29 -127 -54 q-15 -5 -25 -5 q-41 0 -41 40 q0 19 25 33 q150 50 225 105 q48 33 99 91 l-316 0 q-33 0 -33 35 q0 32 33 32 l399 0 l0 96 l-332 0 q-31 0 -31 36 q0 32 31 32 l332 0 l0 85 l-367 0 q-32 0 -32 36 q0 32 32 32 l367 0 l0 40 q0 35 37 35 q40 0 40 -35 l0 -40 l359 0 Z" /><glyph glyph-name="" unicode="&#x5e76;" d="M280 581 l-152 0 q-37 0 -37 36 q0 36 37 36 l211 0 q-58 64 -124 124 q-7 14 -7 19 q0 41 40 41 q10 0 23 -12 q66 -55 124 -124 q8 -15 8 -25 q0 -15 -7 -23 l220 0 q23 24 42 49 q44 59 81 123 q12 15 32 15 q14 0 26 -10 q11 -11 11 -26 q0 -14 -8 -27 q-32 -50 -70 -95 q-13 -16 -27 -29 l193 0 q36 0 36 -36 q0 -36 -36 -36 l-153 0 l0 -228 l189 0 q36 0 36 -36 q0 -36 -36 -36 l-189 0 l0 -337 q0 -36 -40 -36 q-35 0 -35 36 l0 337 l-318 0 q-12 -88 -46 -168 q-43 -102 -121 -180 q-14 -21 -31 -21 q-42 3 -44 40 q0 12 12 25 q97 105 132 217 q14 44 20 87 l-181 0 q-36 0 -36 36 q0 36 36 36 l188 0 q1 8 1 15 l0 213 ZM668 353 l0 228 l-313 0 l0 -228 l313 0 Z" /><glyph glyph-name="" unicode="&#x4e0d;" d="M924 796 q35 0 35 -36 q0 -40 -35 -40 l-322 0 q-1 -10 -6 -19 q-43 -94 -95 -172 l7 0 q40 0 40 -33 l0 -555 q0 -33 -40 -33 q-40 0 -40 33 l0 541 q-33 -45 -69 -83 q-108 -123 -285 -224 q-21 -11 -34 -11 q-40 0 -40 40 q0 19 23 33 q205 116 307 242 q74 87 151 241 l-422 0 q-36 0 -36 40 q0 36 36 36 l825 0 ZM620 529 q11 0 27 -8 q76 -64 137 -124 q94 -84 175 -197 q13 -15 13 -23 q0 -40 -36 -40 q-22 0 -37 12 q-100 123 -171 193 q-59 60 -132 122 q-12 15 -12 29 q0 36 36 36 Z" /><glyph glyph-name="" unicode="&#x90e8;" d="M527 764 q32 0 32 -31 q0 -32 -32 -32 l-419 0 q-32 0 -32 32 q0 31 32 31 l173 0 q-9 13 -18 25 q-7 14 -7 19 q0 40 40 40 q10 0 23 -11 q18 -22 32 -48 q8 -14 8 -25 l168 0 ZM175 665 q23 0 33 -21 q20 -34 43 -113 q5 -16 5 -23 q0 -31 -37 -31 q-30 0 -32 31 q-16 70 -40 118 l-4 10 q0 29 32 29 ZM456 668 q15 0 27 -7 q13 -9 13 -21 q0 -8 -4 -19 q-29 -97 -63 -172 l119 0 q32 0 32 -33 q0 -36 -32 -36 l-457 0 q-32 0 -32 36 q0 33 32 33 l268 0 q1 8 5 11 q31 76 63 193 q7 15 29 15 ZM171 305 l293 0 q59 0 59 -57 l0 -244 q0 -56 -59 -56 l-293 0 q-59 0 -59 56 l0 244 q0 57 59 57 ZM431 13 q21 0 21 23 l0 180 q0 24 -21 24 l-227 0 q-21 0 -21 -24 l0 -180 q0 -23 21 -23 l227 0 ZM743 796 l160 0 q52 0 52 -47 q0 -16 -9 -45 l-70 -221 q-5 -17 -5 -34 q0 -19 16 -39 q57 -81 77 -130 q16 -49 16 -99 q0 -73 -29 -124 q-31 -61 -92 -61 q-51 0 -128 25 q-22 8 -23 32 q1 37 31 40 q5 0 16 -5 q72 -19 97 -19 q26 0 41 36 q14 35 14 80 q0 33 -12 73 q-15 50 -84 142 q-11 17 -11 37 q0 24 4 43 l72 236 q0 12 -17 12 l-160 0 q-19 0 -19 -19 l0 -776 q0 -36 -37 -36 q-36 0 -36 36 l0 791 q0 72 76 72 l60 0 Z" /><glyph glyph-name="" unicode="&#x6750;" d="M939 649 q37 0 37 -36 q0 -36 -37 -36 l-84 0 l0 -581 q0 -92 -131 -92 q-59 0 -157 40 q-27 10 -27 37 q1 38 31 40 q9 0 26 -5 q96 -35 127 -35 q55 0 55 36 l0 445 q-97 -163 -254 -331 q-27 -26 -42 -26 q-44 0 -44 36 q0 8 13 19 q138 138 212 241 q60 83 109 176 l-265 0 q-37 0 -37 36 q0 36 37 36 l271 0 l0 140 q0 36 36 36 q40 0 40 -36 l0 -140 l84 0 ZM424 644 q32 0 32 -31 q0 -36 -32 -36 l-125 0 l0 -47 l144 -191 q13 -17 13 -30 q0 -40 -40 -40 q-23 0 -34 20 l-83 134 l0 -482 q0 -37 -36 -37 q-36 0 -36 37 l0 464 q-1 -3 -2 -6 q-34 -97 -60 -152 q-33 -77 -57 -110 q-13 -25 -32 -25 q-40 0 -40 37 q0 13 7 28 q86 146 123 242 q27 68 49 158 l-131 0 q-33 0 -33 36 q0 31 33 31 l143 0 l0 149 q0 36 36 36 q36 0 36 -36 l0 -149 l125 0 Z" /><glyph glyph-name="" unicode="&#x91c7;" d="M884 833 q36 0 36 -40 q0 -30 -44 -37 q-141 -22 -380 -40 q-267 -19 -368 -19 q-44 0 -44 40 q0 31 36 31 q199 2 369 16 q212 14 395 49 ZM160 657 q9 0 23 -8 q28 -24 49 -45 q34 -30 64 -71 q11 -17 11 -25 q0 -36 -36 -36 q-18 0 -31 13 q-35 42 -59 66 q-20 20 -46 41 q-11 15 -11 29 q0 36 36 36 ZM468 689 q14 0 28 -17 q32 -40 56 -91 q3 -13 3 -25 q0 -31 -40 -31 q-18 0 -28 23 q-22 56 -48 88 q-8 16 -8 25 q0 28 37 28 ZM884 716 q40 0 40 -40 q0 -16 -17 -27 q-70 -95 -196 -172 q-15 -9 -20 -9 q-40 0 -40 40 q0 19 21 29 q111 71 187 172 q17 7 25 7 ZM936 412 q36 0 36 -36 q0 -36 -36 -36 l-384 0 q83 -97 176 -165 q129 -95 227 -143 q28 -11 28 -40 q0 -14 -9 -28 q-11 -16 -31 -16 q-20 0 -40 12 q-93 59 -179 125 q-90 72 -176 167 l0 -315 q0 -37 -36 -37 q-37 0 -37 37 l0 305 q-61 -69 -124 -122 q-86 -76 -245 -164 q-21 -8 -26 -8 q-40 0 -40 48 q0 30 32 40 q162 83 256 160 q82 66 141 144 l-393 0 q-36 0 -36 36 q0 36 36 36 l399 0 l0 48 q0 36 37 36 q36 0 36 -36 l0 -48 l388 0 Z" /><glyph glyph-name="" unicode="&#x64cd;" d="M296 657 q36 0 36 -36 q0 -37 -36 -37 l-60 0 l0 -180 q19 11 39 24 q12 5 13 5 q36 0 36 -40 q0 -11 -14 -23 q-29 -22 -74 -47 l0 -327 q0 -88 -93 -88 q-25 0 -67 13 q-29 9 -29 35 q1 35 29 36 q3 0 10 -1 q44 -10 57 -10 q21 0 21 32 l0 274 q-31 -13 -60 -22 q-10 -5 -17 -5 q-36 0 -36 36 q0 31 29 40 q51 17 84 31 l0 217 l-73 0 q-36 0 -36 37 q0 36 36 36 l73 0 l0 139 q0 37 36 37 q36 0 36 -37 l0 -139 l60 0 ZM464 817 l332 0 q59 0 59 -53 l0 -99 q0 -56 -59 -56 l-332 0 q-56 0 -56 56 l0 99 q0 53 56 53 ZM760 668 q27 0 27 33 l0 27 q0 28 -27 28 l-260 0 q-25 0 -25 -28 l0 -27 q0 -33 25 -33 l260 0 ZM391 552 l153 0 q52 0 52 -48 l0 -111 q0 -49 -52 -49 l-153 0 q-51 0 -51 49 l0 111 q0 48 51 48 ZM508 401 q23 0 23 27 l0 40 q0 28 -23 28 l-81 0 q-24 0 -24 -28 l0 -40 q0 -27 24 -27 l81 0 ZM712 552 l168 0 q52 0 52 -48 l0 -111 q0 -49 -52 -49 l-168 0 q-53 0 -53 49 l0 111 q0 48 53 48 ZM844 401 q23 0 23 27 l0 40 q0 28 -23 28 l-96 0 q-24 0 -24 -28 l0 -40 q0 -27 24 -27 l96 0 ZM911 269 q32 0 32 -32 q0 -37 -32 -37 l-242 0 q55 -51 115 -88 q96 -58 167 -87 q25 -11 25 -37 q0 -13 -9 -26 q-11 -14 -28 -14 q-14 0 -30 8 q-68 37 -132 79 q-59 41 -113 91 l0 -185 q0 -37 -36 -37 q-36 0 -36 37 l0 194 q-39 -40 -78 -71 q-60 -51 -172 -110 q-15 -6 -18 -6 q-36 0 -36 40 q0 27 23 37 q118 54 185 104 q44 33 78 71 l-227 0 q-32 0 -32 37 q0 32 32 32 l245 0 l0 40 q0 35 36 35 q36 0 36 -35 l0 -40 l247 0 Z" /><glyph glyph-name="" unicode="&#x6d4b;" d="M384 789 l175 0 q77 0 77 -77 l0 -575 q0 -36 -37 -36 q-36 0 -36 36 l0 543 q0 36 -36 36 l-111 0 q-36 0 -36 -36 l0 -543 q0 -36 -37 -36 q-36 0 -36 36 l0 575 q0 77 77 77 ZM515 128 q23 0 33 -16 q46 -46 92 -135 l0 -17 q0 -31 -37 -31 q-20 0 -32 23 q-42 82 -88 128 l0 21 q5 23 32 27 ZM471 680 q34 -1 37 -36 l0 -308 q0 -102 -35 -206 q-30 -98 -118 -197 q-17 -17 -31 -17 q-35 6 -40 32 q0 19 12 33 q76 76 104 151 q35 92 35 204 l0 308 q2 35 36 36 ZM752 760 q33 -1 35 -36 l0 -568 q-2 -34 -35 -36 q-35 2 -36 36 l0 568 q1 35 36 36 ZM915 821 q34 -1 36 -32 l0 -785 q0 -92 -99 -92 q-42 0 -109 17 q-13 16 -16 23 q1 43 33 44 l7 0 q45 -14 81 -15 q32 0 32 32 l0 776 q1 31 35 32 ZM160 829 q10 0 23 -12 q47 -42 88 -97 q9 -13 9 -23 q0 -36 -40 -36 q-13 0 -25 7 q-43 50 -91 96 q-8 18 -8 25 q0 40 44 40 ZM95 577 q11 0 25 -12 q50 -46 95 -105 q8 -13 8 -23 q0 -36 -40 -36 q-12 0 -23 8 q-45 55 -97 107 q-8 15 -8 21 q0 40 40 40 ZM200 317 q36 0 36 -40 q-10 -90 -31 -175 q-22 -87 -58 -169 q-13 -25 -35 -25 q-40 0 -40 36 q0 5 8 16 q42 103 53 154 q20 77 35 178 q5 25 32 25 Z" /><glyph glyph-name="" unicode="&#x957f;" d="M275 833 q36 0 36 -37 l0 -355 l617 0 q36 0 36 -36 q0 -40 -36 -40 l-356 0 q19 -57 49 -100 q42 -67 113 -131 q63 -61 209 -146 q23 -10 25 -40 q-7 -33 -40 -40 q-6 0 -40 8 q-128 75 -213 160 q-71 70 -114 142 q-40 66 -65 147 l-185 0 l0 -352 q0 -17 13 -17 q12 0 54 23 q52 26 112 67 q22 15 37 15 q38 -2 40 -40 q0 -14 -15 -33 q-73 -52 -166 -97 q-45 -21 -87 -23 q-59 0 -59 69 l0 388 l-153 0 q-36 0 -36 40 q0 36 36 36 l153 0 l0 355 q0 37 35 37 ZM808 821 q23 -3 28 -25 q-1 -13 -5 -28 q-73 -96 -186 -176 q-106 -73 -214 -115 q-18 -5 -28 -5 q-27 5 -31 28 q1 27 19 33 q132 57 218 120 q91 64 162 155 q14 13 37 13 Z" /><glyph glyph-name="" unicode="&#x7545;" d="M502 466 q4 3 5 4 q72 37 123 81 q63 58 122 140 q12 17 12 21 q0 16 -16 16 l-273 0 q-36 0 -36 36 q0 36 36 36 l312 0 q65 0 65 -63 q0 -16 -31 -65 q-40 -72 -106 -139 q-32 -32 -70 -61 l243 0 q71 0 71 -63 q0 -226 -19 -356 q-11 -85 -45 -117 q-35 -32 -99 -32 q-34 0 -93 21 q-27 8 -27 35 q0 40 36 40 q63 -19 84 -19 q37 0 54 21 q17 28 23 82 q15 81 15 296 q0 25 -25 25 l-24 0 q-1 -8 -3 -17 q-24 -106 -54 -174 q-29 -67 -65 -117 q-34 -45 -77 -84 q-46 -43 -121 -80 q-17 -8 -23 -8 q-15 0 -26 9 q-10 10 -10 22 q0 25 19 32 q69 37 112 78 q40 37 71 80 q33 47 60 112 q24 59 45 147 l-73 0 q-1 -6 -3 -12 q-37 -103 -91 -173 q-50 -71 -133 -128 q-9 -8 -15 -8 q-36 0 -36 36 q0 19 19 33 q88 63 132 132 q30 44 62 120 l-106 0 q-31 0 -31 36 q0 19 10 25 ZM112 668 l100 0 l0 128 q0 33 32 33 q36 0 36 -33 l0 -128 l104 0 q55 0 55 -55 l0 -325 q0 -55 -55 -55 l-104 0 l0 -281 q0 -31 -36 -31 q-32 0 -32 31 l0 281 l-100 0 q-57 0 -57 55 l0 325 q0 55 57 55 ZM355 296 q21 0 21 21 l0 103 l-96 0 l0 -124 l75 0 ZM212 296 l0 124 l-92 0 l0 -103 q0 -21 19 -21 l73 0 ZM120 481 l92 0 l0 124 l-73 0 q-19 0 -19 -21 l0 -103 ZM280 605 l0 -124 l96 0 l0 103 q0 21 -21 21 l-75 0 Z" /><glyph glyph-name="" unicode="&#x6c89;" d="M387 812 l468 0 q42 0 64 -29 q17 -24 17 -71 q0 -60 -12 -139 q-10 -29 -44 -29 q-36 0 -36 37 q15 101 15 128 q0 32 -32 32 l-407 0 q-33 0 -33 -32 l0 -136 q0 -36 -36 -36 q-36 0 -36 36 l0 168 q0 71 72 71 ZM160 829 q10 0 23 -12 q56 -42 105 -97 q8 -13 8 -23 q0 -36 -40 -36 q-12 0 -25 7 q-51 50 -107 96 q-8 18 -8 25 q0 40 44 40 ZM84 561 q10 0 24 -13 q59 -45 111 -103 q8 -15 8 -25 q0 -36 -40 -36 q-12 0 -23 9 q-53 56 -113 107 q-8 15 -8 21 q0 40 41 40 ZM215 313 q37 0 37 -40 q-14 -89 -43 -173 q-32 -86 -81 -167 q-13 -25 -37 -25 q-40 0 -40 36 q0 5 8 16 q61 102 76 152 q28 76 48 176 q6 25 32 25 ZM695 485 l-155 0 q-36 0 -36 -40 l0 -189 q0 -77 -20 -148 q-14 -51 -48 -108 q-24 -39 -49 -63 q-13 -25 -36 -25 q-34 3 -36 40 q0 4 8 15 q28 32 47 61 q29 44 44 95 q17 60 17 133 l0 229 q0 67 69 67 l227 0 q69 0 69 -67 l0 -449 q0 -29 7 -40 q8 -15 32 -15 l41 0 q25 0 34 25 q8 21 10 162 q2 32 35 32 q36 0 36 -44 q0 -88 -7 -138 q-12 -75 -44 -91 q-32 -15 -85 -15 l-39 0 q-49 0 -73 33 q-19 27 -19 68 l0 440 q0 32 -29 32 Z" /><glyph glyph-name="" unicode="&#x6210;" d="M932 709 q36 0 36 -37 q0 -36 -36 -36 l-334 0 q11 -93 27 -165 q27 -138 72 -238 q23 37 42 79 q36 78 65 200 q8 21 32 21 q14 0 24 -8 q11 -9 11 -21 q0 -12 -4 -27 q-29 -129 -67 -211 q-29 -65 -63 -115 q36 -63 83 -114 q43 -45 60 -45 q13 0 20 21 q9 22 15 140 q3 30 36 32 q38 -2 40 -40 q0 -42 -10 -113 q-13 -83 -38 -107 q-19 -21 -51 -21 q-38 0 -96 46 q-66 63 -110 136 q-31 -34 -65 -64 q-60 -52 -153 -97 q-21 -9 -29 -9 q-16 0 -28 12 q-12 11 -12 24 q0 28 21 36 q90 43 146 93 q45 39 81 81 q-42 85 -70 191 q-32 109 -55 275 q0 4 -1 8 l-302 0 q-40 0 -40 -40 l0 -100 l220 0 q72 0 72 -72 q0 -148 -15 -234 q-11 -56 -40 -77 q-29 -20 -84 -20 q-37 0 -101 23 q-27 9 -27 37 q0 40 36 40 q69 -25 92 -25 q27 0 40 14 q12 16 17 47 q10 47 10 172 q0 23 -23 23 l-197 0 l0 -56 q0 -160 -28 -265 q-22 -99 -56 -162 q-10 -25 -32 -25 q-37 2 -39 36 q0 9 14 39 q10 24 20 52 q16 49 27 97 q23 107 23 228 l0 268 q0 73 71 73 l335 0 q-6 62 -6 99 q0 36 40 36 q34 -1 36 -36 q3 -53 7 -99 l184 0 q-12 16 -21 26 q-12 12 -27 25 q-11 15 -11 29 q0 32 32 32 q9 0 23 -9 q17 -15 32 -28 q21 -21 41 -47 q11 -14 11 -21 q0 -4 0 -7 l77 0 Z" /><glyph glyph-name="" unicode="&#x5448;" d="M212 800 l603 0 q73 0 73 -67 l0 -189 q0 -67 -73 -67 l-603 0 q-69 0 -69 67 l0 189 q0 67 69 67 ZM783 548 q28 0 28 29 l0 124 q0 27 -28 27 l-539 0 q-25 0 -25 -27 l0 -124 q0 -29 25 -29 l539 0 ZM892 193 q36 0 36 -37 q0 -36 -36 -36 l-340 0 l0 -120 l399 0 q36 0 36 -35 q0 -40 -36 -40 l-875 0 q-36 0 -36 40 q0 35 36 35 l399 0 l0 120 l-351 0 q-37 0 -37 36 q0 37 37 37 l351 0 l0 124 l-376 0 q-36 0 -36 36 q0 35 36 35 l821 0 q35 0 35 -35 q0 -36 -35 -36 l-368 0 l0 -124 l340 0 Z" /><glyph glyph-name="" unicode="&#x7a0b;" d="M340 829 q36 0 36 -40 q0 -30 -44 -37 q-30 -9 -73 -17 l0 -162 l81 0 q36 0 36 -36 q0 -37 -36 -37 l-81 0 l0 -18 l107 -179 q10 -18 10 -30 q0 -33 -36 -33 q-17 0 -26 20 l-55 116 l0 -439 q0 -37 -36 -37 q-36 0 -36 37 l0 403 q-23 -72 -43 -114 q-25 -65 -45 -94 q-12 -20 -31 -20 q-36 0 -36 33 q0 13 8 27 q69 123 97 204 q22 54 38 124 l-84 0 q-36 0 -36 37 q0 36 36 36 l96 0 l0 150 q-53 -7 -75 -7 q-44 0 -44 40 q0 33 35 33 q62 1 114 9 q66 9 123 31 ZM471 800 l384 0 q56 0 56 -51 l0 -193 q0 -56 -56 -56 l-384 0 q-55 0 -55 56 l0 193 q0 51 55 51 ZM815 569 q25 0 25 27 l0 113 q0 24 -25 24 l-303 0 q-25 0 -25 -24 l0 -113 q0 -27 25 -27 l303 0 ZM899 216 q33 0 33 -31 q0 -36 -33 -36 l-204 0 l0 -145 l244 0 q37 0 37 -35 q0 -36 -37 -36 l-552 0 q-36 0 -36 36 q0 35 36 35 l233 0 l0 145 l-196 0 q-33 0 -33 36 q0 31 33 31 l196 0 l0 124 l-212 0 q-32 0 -32 36 q0 33 32 33 l503 0 q32 0 32 -33 q0 -36 -32 -36 l-216 0 l0 -124 l204 0 Z" /><glyph glyph-name="" unicode="&#x6301;" d="M347 640 q37 0 37 -35 q0 -36 -37 -36 l-80 0 l0 -182 q33 16 73 37 l15 4 q36 0 36 -40 q0 -11 -16 -24 q-40 -29 -108 -59 l0 -309 q0 -92 -107 -92 q-26 0 -69 12 q-28 10 -28 36 q2 35 28 36 q4 0 11 -1 q44 -10 58 -10 q36 0 36 40 l0 258 q-45 -19 -87 -30 q-12 -5 -22 -5 q-36 0 -36 41 q0 31 29 40 q70 18 116 36 l0 212 l-88 0 q-36 0 -36 36 q0 35 36 35 l88 0 l0 156 q0 37 35 37 q36 0 36 -37 l0 -156 l80 0 ZM899 724 q33 0 33 -31 q0 -36 -33 -36 l-191 0 l0 -109 l235 0 q33 0 33 -32 q0 -35 -33 -35 l-523 0 q-33 0 -33 35 q0 32 33 32 l212 0 l0 109 l-176 0 q-32 0 -32 36 q0 31 32 31 l176 0 l0 76 q0 37 36 37 q40 0 40 -37 l0 -76 l191 0 ZM943 357 q33 0 33 -32 q0 -37 -33 -37 l-103 0 l0 -275 q0 -105 -120 -105 q-54 0 -145 25 q-27 9 -27 36 q1 38 32 40 q7 0 21 -3 q84 -22 111 -22 q52 0 52 56 l0 248 l-365 0 q-31 0 -31 37 q0 32 31 32 l365 0 l0 76 q0 35 36 35 q40 0 40 -35 l0 -76 l103 0 ZM500 256 q9 0 19 -12 q38 -48 73 -112 q7 -14 7 -23 q0 -37 -40 -37 q-9 0 -19 8 q-34 63 -72 120 q-8 15 -8 21 q0 35 40 35 Z" /><glyph glyph-name="" unicode="&#x5145;" d="M936 733 q36 0 36 -36 q0 -36 -36 -36 l-484 0 l-215 -237 q134 6 217 12 q185 12 319 25 q-46 51 -93 100 q-8 14 -8 20 q0 40 40 40 q10 0 23 -12 q111 -102 208 -233 q8 -13 8 -23 q0 -36 -40 -36 q-10 0 -19 8 q-34 41 -68 80 q-74 -11 -177 -23 l0 -342 q0 -26 22 -37 q24 -11 110 -11 q84 0 101 16 q19 17 19 42 l0 99 q2 42 37 44 q37 -3 40 -52 q0 -137 -15 -160 q-9 -29 -46 -45 q-32 -15 -136 -15 q-132 0 -171 24 q-37 23 -37 83 l0 347 q-31 -3 -65 -6 q-49 -4 -103 -8 q-13 -117 -39 -198 q-34 -96 -99 -156 q-64 -59 -180 -101 q-9 -2 -9 -2 q-40 0 -40 44 q0 23 23 33 q102 33 160 90 q46 46 75 125 q22 59 33 160 q-89 -6 -192 -12 q-30 4 -32 40 q0 31 28 36 l10 0 l218 241 l-264 0 q-36 0 -36 36 q0 36 36 36 l399 0 q-20 26 -42 52 q-9 14 -9 19 q0 36 40 36 q10 0 21 -11 q31 -34 59 -77 q7 -11 7 -19 l366 0 Z" /><glyph glyph-name="" unicode="&#x521d;" d="M95 712 l123 0 q-18 36 -39 69 q-8 14 -8 19 q0 37 41 37 q8 0 19 -12 q28 -42 53 -97 q6 -11 7 -16 l96 0 q40 0 40 -40 q0 -40 -25 -92 q-40 -83 -117 -178 q-2 -2 -2 -3 q3 -1 5 -2 q41 -28 74 -55 q52 -36 98 -86 q11 -16 11 -23 q0 -36 -36 -36 q-18 0 -32 11 q-53 54 -90 84 q-19 17 -42 32 l0 -383 q0 -37 -35 -37 q-36 0 -36 37 l0 368 q-40 -38 -81 -69 q-17 -15 -32 -15 q-44 0 -44 40 q0 24 20 35 q90 67 135 116 q65 67 111 145 q38 58 38 75 q0 8 -7 8 l-245 0 q-32 0 -32 36 q0 32 32 32 ZM460 521 q36 0 36 -32 q0 -19 -17 -40 q-28 -43 -55 -69 q-12 -8 -25 -8 q-31 0 -31 29 q0 11 8 23 q35 37 59 80 q9 17 25 17 ZM496 777 l388 0 q71 0 71 -84 q0 -260 -12 -475 q-12 -190 -51 -248 q-41 -62 -121 -62 q-71 0 -156 33 q-27 13 -27 36 q0 44 40 44 q91 -37 140 -37 q52 0 73 56 q22 57 30 210 q9 173 9 415 q0 40 -36 40 l-157 0 q0 -202 -39 -378 q-56 -225 -209 -402 q-13 -17 -31 -17 q-40 0 -40 40 q0 5 8 25 q144 166 198 377 q37 166 37 355 l-115 0 q-36 0 -36 36 q0 36 36 36 Z" /><glyph glyph-name="" unicode="&#x51fa;" d="M152 777 q35 0 35 -36 l0 -220 q0 -40 40 -40 l252 0 l0 315 q0 37 36 37 q40 0 40 -37 l0 -315 l241 0 q40 0 40 40 l0 220 q0 36 35 36 q36 0 36 -36 l0 -252 q0 -84 -80 -84 l-272 0 l0 -384 l276 0 q40 0 40 40 l0 223 q0 37 36 37 q40 0 40 -37 l0 -259 q0 -81 -80 -81 l-707 0 q-76 0 -76 81 l0 259 q0 37 36 37 q40 0 40 -37 l0 -223 q0 -40 36 -40 l283 0 l0 384 l-283 0 q-80 0 -80 84 l0 252 q0 36 36 36 Z" /><glyph glyph-name="" unicode="&#x521b;" d="M223 493 l208 0 q69 0 69 -69 l0 -243 q0 -76 -88 -76 q-48 0 -113 15 q-28 11 -28 36 q0 44 32 44 q10 0 25 -3 q49 -12 75 -12 q24 0 24 48 l0 151 q0 36 -36 36 l-135 0 q-37 0 -37 -36 l0 -331 q0 -29 26 -40 q28 -13 131 -13 q97 0 117 10 q22 10 22 24 l0 59 q2 37 37 39 q34 -2 36 -48 q0 -99 -17 -115 q-9 -21 -49 -33 q-35 -11 -146 -11 q-145 0 -188 25 q-41 24 -41 86 l0 388 q0 69 76 69 ZM343 817 q28 0 61 -42 l192 -219 q15 -17 15 -35 q-2 -38 -40 -40 q-11 0 -27 8 l-170 211 q-12 16 -23 16 q-9 0 -18 -14 q-94 -130 -213 -242 q-21 -15 -36 -15 q-42 2 -44 44 q0 18 19 36 q147 128 223 241 q31 51 61 51 ZM703 728 q34 -1 36 -35 l0 -485 q-2 -34 -36 -36 q-38 2 -39 36 l0 485 q1 34 39 35 ZM907 821 q38 -2 40 -36 l0 -772 q0 -101 -103 -101 q-63 0 -161 17 q-16 19 -19 27 q1 43 35 44 l12 0 q67 -15 120 -16 q40 0 40 41 l0 760 q2 34 36 36 Z" /><glyph glyph-name="" unicode="&#x6625;" d="M884 768 q31 0 31 -31 q0 -36 -31 -36 l-370 0 q-8 -33 -19 -65 l360 0 q33 0 33 -31 q0 -32 -33 -32 l-386 0 q-11 -27 -24 -51 q-6 -12 -12 -22 l495 0 q31 0 31 -32 q0 -35 -31 -35 l-179 0 q33 -43 68 -76 q61 -55 147 -101 q19 -12 19 -27 q0 -44 -40 -44 q-19 0 -40 12 q-55 35 -95 68 l0 -284 q0 -69 -69 -69 l-432 0 q-67 0 -67 69 l0 284 q0 6 1 10 q-61 -48 -133 -94 q-11 -9 -28 -9 q-15 0 -26 13 q-11 12 -11 27 q0 18 12 28 q129 82 199 150 q21 21 40 43 l-195 0 q-31 0 -31 35 q0 32 31 32 l246 0 q17 27 32 55 q5 10 9 18 l-226 0 q-32 0 -32 32 q0 31 32 31 l254 0 q12 32 21 65 l-304 0 q-32 0 -32 36 q0 31 32 31 l321 0 q5 25 8 49 q3 23 32 23 q15 0 27 -8 q12 -10 12 -24 q0 -21 -4 -40 l357 0 ZM301 328 l442 0 q-3 3 -6 6 q-40 50 -67 99 l-280 0 q-33 -48 -74 -91 q-8 -8 -15 -14 ZM712 -19 q23 0 23 28 l0 92 l-424 0 l0 -92 q0 -28 25 -28 l376 0 ZM311 164 l424 0 l0 73 q0 23 -23 23 l-376 0 q-25 0 -25 -23 l0 -73 Z" /><glyph glyph-name="" unicode="&#x5507;" d="M924 812 q31 0 31 -31 q0 -36 -31 -36 l-720 0 q-25 0 -25 -25 l0 -103 q0 -37 -1 -69 l765 0 q33 0 33 -32 q0 -31 -33 -31 l-377 0 q36 -58 84 -95 q17 -13 34 -24 q89 37 152 87 q13 7 19 7 q37 0 37 -36 q0 -16 -16 -27 q-48 -35 -123 -66 q15 -6 29 -12 q61 -26 165 -50 q21 -13 21 -29 q0 -40 -40 -40 q-12 0 -40 7 q-90 25 -155 56 q-82 33 -144 86 q-54 47 -95 136 l-151 0 l0 -172 q0 -13 8 -13 q8 0 32 9 q31 9 67 23 q12 4 21 4 q38 -2 41 -40 q0 -13 -16 -31 q-49 -18 -111 -33 q-30 -7 -57 -7 q-57 0 -57 59 l0 201 l-94 0 q-5 -171 -22 -293 q-19 -158 -47 -259 q-11 -21 -32 -21 q-35 2 -36 32 q0 14 12 64 q8 36 17 84 q14 76 23 154 q20 174 20 371 l0 147 q0 48 48 48 l764 0 ZM863 676 q29 0 29 -27 q0 -32 -29 -32 l-592 0 q-27 0 -27 32 q0 27 27 27 l592 0 ZM263 189 l592 0 q77 0 77 -77 l0 -112 q0 -75 -77 -75 l-592 0 q-76 0 -76 75 l0 112 q0 77 76 77 ZM823 -4 q36 0 36 36 l0 48 q0 36 -36 36 l-527 0 q-37 0 -37 -36 l0 -48 q0 -36 37 -36 l527 0 Z" /><glyph glyph-name="" unicode="&#x7eaf;" d="M376 105 q30 -1 32 -29 q0 -22 -24 -36 q-53 -29 -140 -56 q-66 -22 -160 -40 q-31 3 -33 40 q0 32 29 37 q86 12 134 28 q85 23 145 52 q10 4 17 4 ZM359 269 q32 0 32 -32 q0 -23 -23 -33 q-41 -14 -100 -27 q-44 -11 -98 -17 q-61 -7 -71 -7 q-44 0 -44 44 q0 17 11 24 q1 2 2 4 q86 89 159 194 q-5 -1 -9 -2 q-34 -7 -76 -11 q-48 -5 -55 -5 q-40 0 -40 40 q0 14 9 20 q1 3 3 7 q105 134 185 309 q10 27 40 27 q26 -1 27 -32 q0 -4 -5 -22 q-67 -161 -151 -274 q19 2 33 4 q50 7 92 18 q23 38 44 75 q10 27 40 27 q26 -1 27 -31 q0 -5 -7 -26 q-92 -179 -208 -308 q33 3 57 7 q67 10 126 27 ZM899 693 q37 0 37 -36 q0 -36 -37 -36 l-200 0 l0 -392 l97 0 q27 0 27 27 l0 248 q0 36 36 36 q37 0 37 -36 l0 -275 q0 -73 -73 -73 l-124 0 l0 -112 q0 -28 16 -40 q16 -12 77 -12 q78 0 93 10 q18 12 18 29 l0 66 q2 42 36 44 q38 -3 41 -53 q0 -106 -14 -124 q-9 -22 -44 -35 q-31 -13 -130 -13 q-107 0 -139 26 q-29 24 -29 86 l0 128 l-120 0 q-73 0 -73 73 l0 275 q0 36 37 36 q36 0 36 -36 l0 -248 q0 -27 27 -27 l93 0 l0 392 l-200 0 q-37 0 -37 36 q0 36 37 36 l200 0 l0 100 q0 36 35 36 q40 0 40 -36 l0 -100 l200 0 Z" /><glyph glyph-name="" unicode="&#x6b21;" d="M500 661 q-4 -18 -8 -34 q-16 -57 -42 -109 q-26 -53 -66 -102 q-11 -7 -29 -7 q-14 0 -25 11 q-11 13 -11 29 q0 17 13 28 q37 47 56 87 q23 44 36 97 q17 62 23 151 q4 25 32 25 q16 0 29 -9 q11 -10 11 -24 q0 -16 -2 -29 q-1 -22 -4 -42 l367 0 q71 0 71 -72 q0 -34 -13 -83 q-23 -83 -67 -181 q-15 -21 -31 -21 q-44 0 -44 36 q0 6 4 12 q41 90 61 168 q10 30 10 48 q0 21 -23 21 l-348 0 ZM611 600 q40 0 40 -35 l0 -132 q0 -85 22 -152 q18 -64 65 -131 q41 -52 105 -101 q44 -33 116 -68 q21 -13 21 -37 q-2 -37 -37 -40 q-15 0 -36 8 q-89 44 -145 99 q-61 55 -96 110 q-38 66 -55 144 q-15 -87 -63 -159 q-48 -69 -121 -122 q-48 -36 -108 -68 q-20 -12 -31 -12 q-38 3 -40 40 q0 23 19 37 q116 52 173 109 q66 62 102 152 q33 78 33 191 l0 132 q0 35 36 35 ZM131 768 q11 0 25 -12 q61 -57 115 -132 q9 -13 9 -24 q0 -35 -40 -35 q-13 0 -25 8 q-54 70 -116 136 q-8 14 -8 19 q0 40 40 40 ZM240 401 q35 0 35 -40 q-13 -106 -44 -206 q-31 -102 -84 -199 q-13 -23 -35 -23 q-40 0 -40 36 q0 4 8 15 q61 122 78 181 q28 91 50 211 q5 25 32 25 Z" /><glyph glyph-name="" unicode="&#x5b58;" d="M932 724 q32 0 32 -31 q0 -36 -32 -36 l-555 0 q-16 -35 -33 -64 q-43 -81 -100 -148 l0 -508 q0 -37 -36 -37 q-37 0 -37 37 l0 430 q-35 -32 -76 -58 q-11 -9 -23 -9 q-15 0 -26 13 q-10 12 -10 27 q0 15 11 25 q73 50 126 109 q65 74 112 158 q7 12 13 25 l-211 0 q-32 0 -32 36 q0 31 32 31 l242 0 q19 48 35 101 q7 23 35 23 q13 0 23 -8 q9 -8 9 -23 q0 -8 -4 -21 q-11 -38 -23 -72 l528 0 ZM939 273 q33 0 33 -33 q0 -36 -33 -36 l-191 0 q4 -22 4 -44 q0 -137 -55 -196 q-45 -52 -134 -52 q-53 0 -107 25 q-28 8 -29 32 q2 42 41 44 q70 -25 95 -25 q58 0 81 39 q32 45 32 133 q0 24 -4 44 l-340 0 q-33 0 -33 36 q0 33 33 33 l309 0 q-18 26 -44 53 q-13 14 -13 27 q0 22 23 37 l161 103 q0 3 -16 3 l-357 0 q-36 0 -36 37 q0 36 36 36 l432 0 q69 0 69 -53 q0 -23 -32 -48 l-180 -115 q-8 -5 -8 -13 q0 -4 7 -12 q25 -28 40 -55 l216 0 Z" /><glyph glyph-name="" unicode="&#x6253;" d="M408 676 q35 0 35 -36 q0 -35 -35 -35 l-105 0 l0 -249 q50 27 117 68 l11 4 q37 0 37 -40 q0 -16 -23 -34 q-53 -40 -142 -84 l0 -274 q0 -92 -107 -92 q-45 0 -120 29 q-29 9 -29 36 q2 38 33 40 q6 0 18 -3 q74 -25 98 -25 q31 0 31 36 l0 219 q-68 -30 -132 -49 q-15 -6 -27 -6 q-36 0 -36 35 q0 31 27 40 q103 32 168 63 l0 286 l-140 0 q-36 0 -36 35 q0 36 36 36 l140 0 l0 120 q0 37 36 37 q40 0 40 -37 l0 -120 l105 0 ZM708 705 l-221 0 q-35 0 -35 36 q0 36 35 36 l468 0 q36 0 36 -36 q0 -36 -36 -36 l-172 0 l0 -673 q0 -120 -103 -120 q-60 0 -161 25 q-27 9 -27 36 q1 38 31 40 q9 0 28 -3 q104 -22 136 -22 q21 0 21 61 l0 656 Z" /><glyph glyph-name="" unicode="&#x5927;" d="M924 588 q35 0 35 -36 q0 -40 -35 -40 l-367 0 q6 -36 18 -78 q26 -85 85 -169 q54 -78 143 -157 q58 -55 165 -127 q15 -16 15 -33 q-2 -37 -40 -40 q-14 0 -36 17 q-114 78 -196 160 q-77 81 -121 151 q-51 78 -78 157 q-29 -79 -78 -153 q-47 -74 -124 -154 q-88 -92 -194 -165 q-17 -13 -29 -13 q-42 3 -44 48 q0 13 25 28 q94 65 173 143 q88 83 141 165 q48 78 69 150 q10 38 15 70 l-363 0 q-35 0 -35 40 q0 36 35 36 l368 0 l0 201 q0 40 41 40 q40 0 40 -40 l0 -201 l372 0 Z" /><glyph glyph-name="" unicode="&#x4f46;" d="M471 785 l356 0 q80 0 80 -76 l0 -501 q0 -76 -80 -76 l-356 0 q-76 0 -76 76 l0 501 q0 76 76 76 ZM804 204 q27 0 27 29 l0 204 l-360 0 l0 -204 q0 -29 25 -29 l308 0 ZM471 508 l360 0 l0 176 q0 28 -27 28 l-308 0 q-25 0 -25 -28 l0 -176 ZM943 13 q37 0 37 -36 q0 -40 -37 -40 l-592 0 q-36 0 -36 40 q0 36 36 36 l592 0 ZM275 829 q16 0 27 -9 q13 -12 13 -27 q0 -8 -4 -21 q-22 -90 -52 -164 l0 -671 q0 -37 -36 -37 q-36 0 -36 37 l0 525 q-34 -61 -75 -113 q-19 -17 -28 -17 q-41 0 -41 36 q0 11 8 20 q63 80 111 178 q51 102 86 238 q5 25 27 25 Z" /><glyph glyph-name="" unicode="&#x5230;" d="M563 804 q36 0 36 -36 q0 -35 -36 -35 l-284 0 l-107 -222 q161 10 292 39 q-22 42 -44 74 q-8 15 -8 25 q0 27 35 27 q16 0 28 -15 q67 -96 113 -216 q4 -12 4 -25 q0 -32 -40 -32 q-20 0 -29 24 q-14 40 -28 74 q-5 -1 -8 -1 q-64 -14 -126 -25 q7 -7 7 -19 l0 -153 l163 0 q36 0 36 -36 q0 -40 -36 -40 l-163 0 l0 -170 q109 18 191 38 q12 4 21 4 q29 -1 31 -31 q0 -23 -23 -36 q-88 -28 -233 -52 q-109 -20 -268 -36 q-34 2 -36 40 q0 34 33 40 q130 11 208 22 l0 181 l-172 0 q-36 0 -36 40 q0 36 36 36 l172 0 l0 153 q0 5 1 8 q-97 -15 -190 -25 q-35 0 -35 48 q0 29 22 34 l108 227 l-86 0 q-36 0 -36 35 q0 36 36 36 l451 0 ZM708 768 q35 0 35 -35 l0 -580 q0 -37 -35 -37 q-36 0 -36 37 l0 580 q0 35 36 35 ZM903 825 q40 0 40 -36 l0 -785 q0 -96 -112 -96 q-55 0 -148 29 q-28 9 -28 36 q2 38 32 40 q8 0 24 -4 q89 -25 116 -25 q40 0 40 44 l0 761 q0 36 36 36 Z" /><glyph glyph-name="" unicode="&#x5f97;" d="M743 332 l-352 0 q-32 0 -32 33 q0 32 32 32 l533 0 q31 0 31 -32 q0 -33 -31 -33 l-105 0 l0 -84 l124 0 q33 0 33 -32 q0 -35 -33 -35 l-124 0 l0 -200 q0 -69 -63 -69 q-61 0 -141 21 q-27 8 -27 32 q1 37 32 39 q98 -20 115 -20 q8 0 8 16 l0 181 l-403 0 q-33 0 -33 35 q0 32 33 32 l403 0 l0 84 ZM259 840 q14 0 25 -7 q12 -9 12 -25 q0 -9 -4 -23 q-18 -64 -42 -109 q-26 -49 -60 -90 q-28 -35 -66 -61 q-12 -9 -25 -9 q-14 0 -25 13 q-11 12 -11 27 q0 17 13 28 q34 26 58 56 q31 37 52 80 q22 40 37 97 q8 23 36 23 ZM284 556 q14 0 24 -8 q11 -8 11 -23 q0 -10 -4 -25 q-21 -61 -52 -104 q-15 -25 -32 -44 l0 -411 q0 -37 -35 -37 q-36 0 -36 37 l0 342 q-25 -19 -52 -35 q-12 -8 -24 -8 q-15 0 -26 12 q-11 13 -11 29 q0 16 12 28 q43 24 75 53 q38 36 67 77 q27 40 47 94 q7 23 36 23 ZM443 812 l405 0 q55 0 55 -52 l0 -244 q0 -52 -55 -52 l-405 0 q-56 0 -56 52 l0 244 q0 52 56 52 ZM811 529 q20 0 20 23 l0 57 l-371 0 l0 -57 q0 -23 19 -23 l332 0 ZM460 668 l371 0 l0 56 q0 25 -20 25 l-332 0 q-19 0 -19 -25 l0 -56 ZM456 156 q9 0 19 -11 q40 -44 77 -101 q7 -11 7 -19 q0 -33 -36 -33 q-8 0 -15 8 q-40 53 -84 101 q-8 14 -8 19 q0 36 40 36 Z" /><glyph glyph-name="" unicode="&#x7684;" d="M275 844 q15 0 25 -10 q11 -11 11 -26 q0 -14 -8 -27 q-17 -39 -39 -74 q-8 -14 -18 -27 l134 0 q67 0 67 -63 l0 -617 q0 -67 -67 -67 l-245 0 q-67 0 -67 67 l0 617 q0 63 67 63 l26 0 q18 24 30 47 q29 49 53 102 q11 15 31 15 ZM347 0 q29 0 29 32 l0 260 l-237 0 l0 -260 q0 -32 29 -32 l179 0 ZM139 361 l237 0 l0 223 q0 29 -29 29 l-179 0 q-29 0 -29 -29 l0 -223 ZM599 840 q37 0 37 -32 q-3 -55 -10 -99 l266 0 q72 0 72 -81 q0 -238 -15 -435 q-14 -174 -60 -228 q-49 -57 -141 -57 q-84 0 -185 44 q-27 14 -27 36 q0 44 39 44 q110 -48 168 -48 q68 0 95 51 q29 51 39 191 q11 156 11 374 q0 40 -36 40 l-239 0 q-22 -83 -58 -140 q-19 -19 -36 -19 q-44 0 -44 40 q0 6 12 19 q39 60 56 125 q15 58 20 143 q0 32 36 32 ZM632 493 q14 0 27 -16 q43 -109 72 -244 q4 -16 4 -29 q0 -36 -44 -36 q-21 0 -32 29 q-26 153 -56 244 q-7 14 -7 23 q0 29 36 29 Z" /><glyph glyph-name="" unicode="&#x7b49;" d="M739 317 q40 0 40 -36 l0 -52 l136 0 q32 0 32 -32 q0 -37 -32 -37 l-136 0 l0 -195 q0 -57 -84 -57 q-73 0 -195 33 q-29 9 -29 36 q2 38 33 40 q9 0 27 -4 q108 -29 141 -29 q31 0 31 16 l0 160 l-587 0 q-32 0 -32 37 q0 32 32 32 l587 0 l0 52 q0 36 36 36 ZM204 844 q13 0 24 -7 q12 -9 12 -25 q0 -9 -4 -23 q-4 -9 -7 -17 l235 0 q32 0 32 -31 q0 -32 -32 -32 l-117 0 q7 -24 14 -65 q3 -11 3 -16 q0 -32 -36 -32 q-34 0 -36 32 q-6 46 -16 78 l0 3 l-77 0 q-19 -29 -40 -51 q-22 -24 -51 -41 q-12 -8 -24 -8 q-13 0 -24 11 q-9 10 -9 24 q0 15 12 24 q24 17 41 37 q22 24 37 52 q16 27 27 64 q7 23 36 23 ZM643 844 q14 0 25 -7 q12 -9 12 -25 q0 -9 -4 -23 q-3 -9 -6 -17 l273 0 q33 0 33 -31 q0 -32 -33 -32 l-132 0 q17 -24 29 -48 q4 -15 4 -29 q0 -32 -44 -32 q-19 0 -29 28 q-11 41 -23 65 q-8 10 -8 16 l-110 0 q-10 -13 -22 -24 q-19 -18 -45 -32 q-11 -9 -23 -9 l-2 0 q2 -5 2 -12 l0 -67 l331 0 q32 0 32 -32 q0 -37 -32 -37 l-331 0 l0 -91 l407 0 q36 0 36 -37 q0 -36 -36 -36 l-863 0 q-37 0 -37 36 q0 37 37 37 l380 0 l0 91 l-308 0 q-32 0 -32 37 q0 32 32 32 l308 0 l0 67 q0 36 36 36 q6 0 10 -1 q-2 6 -2 13 q0 15 11 25 q21 12 35 28 q18 18 32 39 q12 21 21 49 q8 23 36 23 ZM256 132 q12 0 28 -8 q69 -42 124 -84 q16 -13 16 -31 q0 -32 -33 -32 q-16 0 -27 7 q-55 44 -124 88 q-21 14 -21 29 q0 31 37 31 Z" /><glyph glyph-name="" unicode="&#x4f4e;" d="M888 808 q36 0 36 -40 q0 -34 -40 -40 q-90 -10 -172 -17 q0 -113 7 -203 l184 0 q36 0 36 -36 q0 -35 -36 -35 l-177 0 q5 -41 11 -76 q19 -111 54 -194 q25 -61 62 -112 q18 -30 31 -30 q8 0 13 27 q10 56 10 112 q3 36 32 36 q37 -7 37 -44 q0 -83 -25 -163 q-19 -56 -59 -56 q-40 0 -82 48 q-47 61 -86 158 q-42 106 -66 261 q-2 17 -4 33 l-211 0 l0 -332 q0 -17 21 -17 q7 0 35 11 q33 12 72 31 q14 7 25 7 q37 -2 40 -40 q0 -14 -16 -32 q-52 -27 -119 -49 q-32 -10 -62 -12 q-67 0 -67 65 l0 624 q0 42 18 62 q16 16 57 17 q219 5 441 36 ZM647 508 q-7 93 -7 198 q-91 -5 -172 -5 q-25 0 -25 -29 l0 -164 l204 0 ZM267 833 q16 0 27 -9 q13 -12 13 -28 q0 -7 -4 -19 q-28 -115 -67 -204 l0 -632 q0 -37 -36 -37 q-36 0 -36 37 l0 494 q-27 -44 -56 -82 q-19 -17 -28 -17 q-40 0 -40 36 q0 11 7 21 q62 79 109 177 q51 102 84 238 q5 25 27 25 ZM599 36 q13 0 29 -8 q42 -24 75 -47 q17 -14 17 -33 q0 -36 -37 -36 q-16 0 -28 9 q-31 23 -71 48 q-25 15 -25 31 q0 36 40 36 Z" /><glyph glyph-name="" unicode="&#x70b9;" d="M431 840 q35 -1 37 -36 l0 -88 l416 0 q29 -1 31 -32 q-2 -29 -31 -31 l-416 0 l0 -132 l319 0 q80 0 80 -80 l0 -197 q0 -80 -80 -80 l-568 0 q-80 0 -80 80 l0 197 q0 80 80 80 l176 0 l0 283 q2 35 36 36 ZM760 229 q32 0 32 31 l0 164 q0 32 -32 32 l-512 0 q-33 0 -33 -32 l0 -164 q0 -31 33 -31 l512 0 ZM179 124 q36 -3 40 -36 q0 -7 -7 -19 q-22 -45 -43 -78 q-27 -44 -61 -87 q-15 -7 -28 -7 q-30 6 -37 32 q0 17 8 23 q63 79 96 149 q13 23 32 23 ZM387 112 q20 0 29 -19 q14 -52 20 -106 q3 -32 3 -43 q-2 -33 -31 -36 q-31 4 -32 36 q-4 42 -8 68 q-4 22 -13 53 l0 15 q3 30 32 32 ZM611 116 q23 0 32 -15 q27 -50 52 -145 l0 -15 q0 -33 -36 -33 q-20 0 -31 25 q-24 87 -48 136 l0 19 q4 24 31 28 ZM852 137 q16 0 32 -17 q36 -46 88 -164 l0 -27 q-4 -26 -36 -29 q-17 0 -29 21 q-41 103 -80 155 q-7 17 -8 25 q3 33 33 36 Z" /><glyph glyph-name="" unicode="&#x5e97;" d="M928 752 q36 0 36 -32 q0 -36 -36 -36 l-728 0 q-32 0 -32 -31 l0 -292 q0 -161 -21 -266 q-16 -99 -39 -162 q-11 -25 -32 -25 q-38 2 -40 36 q0 9 10 40 q7 23 14 51 q11 48 20 96 q15 108 15 230 l0 328 q0 63 69 63 l339 0 q-16 19 -32 37 q-7 14 -7 19 q0 36 40 36 q8 0 19 -11 q30 -30 57 -69 q4 -7 6 -12 l342 0 ZM571 453 l0 -128 l260 0 q84 0 84 -85 l0 -227 q0 -84 -84 -84 l-512 0 q-83 0 -83 84 l0 227 q0 85 83 85 l177 0 l0 292 q0 36 35 36 q40 0 40 -36 l0 -92 l353 0 q35 0 35 -36 q0 -36 -35 -36 l-353 0 ZM808 0 q36 0 36 36 l0 180 q0 36 -36 36 l-465 0 q-36 0 -36 -36 l0 -180 q0 -36 36 -36 l465 0 Z" /><glyph glyph-name="" unicode="&#x6dc0;" d="M387 749 l210 0 q-14 18 -30 36 q-8 14 -8 19 q0 36 40 36 q9 0 21 -11 q31 -30 60 -69 q4 -7 5 -11 l207 0 q41 0 62 -29 q18 -22 18 -67 q0 -44 -8 -101 q-10 -27 -44 -27 q-36 0 -36 36 q12 69 12 88 q0 31 -33 31 l-443 0 q-33 0 -33 -31 l0 -88 q0 -36 -36 -36 q-36 0 -36 36 l0 115 q0 73 72 73 ZM827 556 q32 0 32 -31 q0 -36 -32 -36 l-155 0 l0 -180 l208 0 q31 0 31 -32 q0 -37 -31 -37 l-208 0 l0 -231 q86 -17 271 -17 q37 -3 37 -40 q-3 -37 -41 -40 q-279 3 -359 42 q-65 31 -109 82 q-18 21 -34 51 q-43 -92 -122 -166 q-12 -17 -27 -17 q-40 0 -40 40 q0 4 8 21 q95 90 131 204 q25 89 25 192 q0 36 35 36 q40 0 40 -36 q0 -99 -20 -188 q20 -44 42 -68 q36 -47 90 -72 l0 456 l-156 0 q-31 0 -31 36 q0 31 31 31 l384 0 ZM147 812 q11 0 24 -12 q51 -45 96 -103 q8 -15 8 -25 q0 -36 -39 -36 q-13 0 -24 8 q-47 55 -100 105 q-9 16 -9 23 q0 40 44 40 ZM91 552 q11 0 25 -12 q59 -42 111 -95 q9 -15 9 -25 q0 -36 -40 -36 q-13 0 -25 9 q-52 52 -112 100 q-8 14 -8 19 q0 40 40 40 ZM204 288 q36 0 36 -40 q-12 -81 -36 -158 q-27 -79 -69 -153 q-12 -25 -36 -25 q-40 0 -40 36 q0 5 9 17 q50 93 62 138 q24 69 41 162 q6 23 33 23 Z" /><glyph glyph-name="" unicode="&#x8c03;" d="M548 800 l323 0 q68 0 68 -63 l0 -741 q0 -84 -108 -84 q-36 0 -79 13 q-32 7 -32 35 q0 36 32 36 q50 -12 79 -12 q36 0 36 33 l0 688 q0 28 -15 28 l-360 0 q-36 0 -36 -36 l0 -225 q0 -202 -21 -334 q-15 -125 -40 -205 q-10 -21 -31 -21 q-35 2 -36 32 q0 11 10 50 q5 21 10 44 q-25 -11 -54 -21 q-23 -7 -42 -8 q-56 0 -56 60 l0 391 q0 48 -49 48 l-60 0 q-36 0 -36 36 q0 37 36 37 l104 0 q76 0 76 -77 l0 -403 q0 -13 8 -13 q5 0 21 9 q19 9 42 23 q7 4 13 4 q7 0 11 -2 q6 31 10 60 q15 136 15 290 l0 265 q0 63 65 63 l96 0 ZM787 636 q32 0 32 -31 q0 -32 -32 -32 l-88 0 l0 -101 l112 0 q33 0 33 -31 q0 -32 -33 -32 l-288 0 q-31 0 -31 32 q0 31 31 31 l105 0 l0 101 l-80 0 q-33 0 -33 32 q0 31 33 31 l80 0 l0 44 q0 36 36 36 q35 0 35 -36 l0 -44 l88 0 ZM571 357 l189 0 q55 0 55 -52 l0 -212 q0 -53 -55 -53 l-189 0 q-52 0 -52 53 l0 212 q0 52 52 52 ZM724 105 q24 0 24 23 l0 141 q0 23 -24 23 l-117 0 q-19 0 -19 -23 l0 -141 q0 -23 19 -23 l117 0 ZM143 821 q23 0 32 -17 q44 -40 88 -115 l0 -17 q0 -32 -36 -32 q-20 0 -31 25 q-41 69 -84 107 l0 21 q4 24 31 28 Z" /><glyph glyph-name="" unicode="&#x5b9a;" d="M233 64 q-37 -73 -102 -135 q-13 -17 -32 -17 q-44 0 -44 44 q0 5 8 25 q99 87 136 198 q24 87 24 186 q0 32 36 32 q37 0 37 -36 q0 -112 -27 -209 q-4 -13 -8 -24 q35 -38 71 -57 q55 -34 143 -51 l0 465 l-235 0 q-36 0 -36 36 q0 35 36 35 l535 0 q36 0 36 -35 q0 -36 -36 -36 l-227 0 l0 -180 l292 0 q36 0 36 -36 q0 -36 -36 -36 l-292 0 l0 -224 q122 -13 403 -13 q32 -3 32 -40 q-2 -33 -40 -35 q-385 2 -497 30 q-89 22 -149 59 q-35 21 -64 54 ZM147 752 l354 0 q-15 16 -30 33 q-7 14 -7 19 q0 36 40 36 q8 0 19 -11 q28 -27 52 -61 q7 -11 8 -16 l297 0 q43 0 65 -31 q19 -23 19 -72 q0 -45 -5 -105 q-9 -32 -44 -32 q-39 0 -39 40 q8 73 8 92 q0 36 -29 36 l-672 0 q-31 0 -31 -31 l0 -80 q0 -36 -40 -36 q-36 0 -36 36 l0 111 q0 72 71 72 Z" /><glyph glyph-name="" unicode="&#x5ea6;" d="M907 777 q36 0 36 -32 q0 -36 -36 -36 l-707 0 q-29 0 -29 -29 l0 -315 q0 -160 -16 -263 q-13 -99 -31 -161 q-11 -25 -33 -25 q-38 2 -40 36 q0 9 8 39 q7 23 12 52 q9 46 15 95 q13 106 13 227 l0 347 q0 65 69 65 l336 0 q-7 7 -12 12 q-9 14 -9 19 q0 32 36 32 q9 0 21 -11 q25 -22 48 -48 q1 -3 1 -4 l318 0 ZM368 689 q40 0 40 -32 l0 -76 l319 0 l0 76 q0 32 37 32 q40 0 40 -32 l0 -76 l111 0 q32 0 32 -33 q0 -36 -32 -36 l-111 0 l0 -88 q0 -63 -73 -63 l-332 0 q-67 0 -67 63 l0 88 l-105 0 q-31 0 -31 36 q0 33 31 33 l105 0 l0 76 q0 32 36 32 ZM727 512 l-319 0 l0 -63 q0 -25 16 -25 l284 0 q19 0 19 25 l0 63 ZM267 288 l541 0 q72 0 72 -55 q0 -17 -30 -48 q-65 -66 -147 -117 q-22 -14 -47 -28 q19 -6 38 -12 q102 -30 205 -44 q37 -6 37 -36 q0 -40 -40 -40 q-135 22 -245 60 q-44 15 -82 32 q-15 -7 -32 -13 q-125 -46 -234 -68 q-45 -11 -59 -11 q-44 0 -44 40 q0 27 31 33 q115 19 181 39 q42 11 77 23 q-34 23 -62 47 q-63 53 -101 131 l-59 0 q-31 0 -31 35 q0 32 31 32 ZM400 221 q44 -65 103 -107 q35 -21 70 -39 q15 6 27 12 q80 39 149 100 q19 17 19 21 q0 13 -12 13 l-356 0 Z" /><glyph glyph-name="" unicode="&#x961f;" d="M212 812 l131 0 q52 0 52 -48 q0 -13 -11 -38 l-83 -192 q-5 -14 -5 -30 q0 -15 13 -32 q51 -69 69 -110 q13 -42 13 -85 q0 -69 -38 -117 q-44 -55 -126 -55 q-32 0 -80 9 l0 -181 q0 -36 -35 -36 q-36 0 -36 36 l0 816 q0 63 67 63 l69 0 ZM147 188 q4 0 7 -1 q49 -10 65 -10 q47 0 74 32 q26 31 26 72 q0 28 -11 62 q-13 41 -74 118 q-11 15 -11 32 q0 20 6 37 l86 203 q0 12 -16 12 l-131 0 q-21 0 -21 -21 l0 -536 ZM632 825 q39 0 40 -36 q0 -189 -20 -339 q0 -1 0 -1 q2 -5 3 -8 q19 -91 53 -171 q36 -80 92 -145 q42 -55 151 -141 q18 -10 21 -32 q-4 -35 -36 -40 q-14 0 -33 13 q-121 101 -169 164 q-54 64 -88 151 q-13 31 -23 66 q-10 -35 -21 -68 q-38 -110 -95 -181 q-63 -79 -143 -145 q-14 -3 -36 -4 q-30 8 -36 36 q2 32 32 40 q71 60 123 127 q50 66 75 125 q37 91 55 211 q22 140 22 342 q2 33 33 36 Z" /><glyph glyph-name="" unicode="&#x5bf9;" d="M108 737 l291 0 q53 0 53 -53 q0 -32 -19 -166 q-27 -172 -67 -271 q52 -79 109 -175 l0 -28 q-4 -24 -36 -27 q-16 0 -27 19 q-41 74 -81 136 q-31 -60 -72 -108 q-58 -80 -162 -149 q-6 -7 -10 -7 q-42 3 -44 40 q2 20 20 36 q92 62 143 128 q50 63 79 133 q-99 145 -194 236 q-7 15 -7 23 q2 34 32 36 q16 0 31 -15 q75 -72 166 -202 q29 86 46 196 q17 101 17 146 l-268 0 q-35 2 -36 36 q1 33 36 36 ZM959 676 q32 0 32 -32 q0 -35 -32 -35 l-79 0 l0 -588 q0 -109 -120 -109 q-76 0 -201 40 q-28 10 -28 36 q1 35 28 37 q12 0 35 -5 q132 -36 174 -36 q40 0 40 48 l0 577 l-289 0 q-32 0 -32 35 q0 32 32 32 l289 0 l0 128 q0 33 36 33 q36 0 36 -33 l0 -128 l79 0 ZM571 508 q16 0 28 -15 q65 -111 109 -249 q4 -14 4 -28 q0 -31 -44 -31 q-19 0 -28 27 q-45 154 -96 244 q-8 15 -8 25 q0 27 35 27 Z" /><glyph glyph-name="" unicode="&#x591a;" d="M549 305 q-35 -25 -76 -47 q-94 -51 -248 -93 q-17 -5 -29 -5 q-36 0 -36 40 q0 16 19 29 q175 45 262 95 q70 36 143 104 q12 17 27 17 q40 0 40 -36 q0 -12 -8 -25 q-9 -9 -16 -16 l244 0 q72 0 72 -59 q0 -53 -34 -112 q-47 -81 -138 -133 q-102 -63 -237 -96 q-165 -42 -391 -52 q-52 0 -52 40 q0 35 37 36 q180 5 287 22 q92 14 166 38 q-34 35 -58 57 q-27 23 -59 47 q-12 14 -12 29 q0 31 31 31 q10 0 25 -8 q34 -26 62 -52 q42 -35 77 -79 q108 46 167 118 q49 53 49 93 q0 17 -15 17 l-299 0 ZM404 698 q-25 -20 -53 -35 q-76 -45 -200 -82 q-14 -4 -23 -4 q-37 0 -37 40 q0 15 21 27 q137 39 204 82 q55 31 111 91 q13 16 29 16 q40 0 40 -37 q0 -11 -9 -24 q-6 -6 -11 -12 l343 0 q48 0 48 -44 q0 -39 -68 -100 q-86 -85 -226 -153 q-127 -64 -303 -102 q-117 -29 -194 -29 q-40 0 -40 40 q0 32 32 37 q133 9 199 21 q86 20 161 47 q-31 34 -51 53 q-21 19 -45 39 q-13 13 -13 27 q0 32 32 32 q10 0 25 -7 q27 -22 50 -42 q35 -29 66 -67 q6 -7 8 -9 q21 8 41 18 q87 45 164 105 q63 46 63 58 q0 13 -16 13 l-340 0 q-4 0 -8 1 Z" /><glyph glyph-name="" unicode="&#x989d;" d="M632 649 l36 0 q18 40 38 96 l-143 0 q-32 0 -32 36 q0 31 32 31 l373 0 q32 0 32 -31 q0 -36 -32 -36 l-157 0 q-18 -54 -38 -96 l139 0 q71 0 71 -72 l0 -457 q0 -32 -36 -32 q-35 0 -35 32 l0 428 q0 36 -36 36 l-176 0 q-36 0 -36 -36 l0 -432 q0 -32 -36 -32 q-37 0 -37 32 l0 461 q0 72 73 72 ZM752 529 q33 -2 35 -36 l0 -180 q0 -93 -18 -164 q-25 -89 -84 -150 q-43 -43 -97 -78 q-18 -13 -36 -13 q-32 6 -37 36 q1 20 12 33 q54 33 84 61 q55 47 81 118 q24 80 24 157 l0 180 q3 34 36 36 ZM804 120 q21 0 32 -15 q64 -53 128 -153 l0 -15 q0 -33 -36 -33 q-22 0 -32 25 q-60 92 -125 143 l0 21 q5 23 33 27 ZM112 749 l136 0 q-6 10 -12 19 q-9 15 -9 21 q0 40 40 40 q11 0 25 -12 q14 -22 27 -49 q8 -12 8 -19 l125 0 q38 0 59 -28 q16 -21 16 -64 q0 -30 -8 -69 q-8 -27 -40 -27 l-3 0 q7 -14 7 -32 q0 -18 -15 -46 q-28 -50 -70 -93 q-17 -18 -33 -31 q11 -6 22 -11 q47 -24 128 -48 q21 -12 21 -27 q0 -40 -40 -40 q-9 0 -32 6 q-72 24 -123 52 q-20 10 -39 22 q-5 -3 -9 -6 q-78 -52 -182 -85 q-18 -6 -24 -6 q-40 0 -40 40 q0 18 25 28 q98 31 149 59 q12 7 23 13 q-11 9 -20 17 q-36 37 -63 100 q-3 -4 -6 -7 q-20 -23 -47 -42 q-12 -8 -24 -8 q-13 0 -24 11 q-9 12 -9 26 q0 13 12 24 q23 17 40 36 q21 25 35 52 q15 27 26 63 q7 25 36 25 q12 0 21 -9 q10 -8 10 -23 q0 -8 -4 -21 q-2 -7 -4 -12 l197 0 q16 0 24 -3 q-1 6 -1 11 q13 45 13 57 q0 31 -29 31 l-275 0 q-32 0 -32 -31 l0 -72 q0 -33 -36 -33 q-33 0 -33 33 l0 108 q0 60 61 60 ZM212 521 q2 -6 3 -9 q30 -60 71 -99 q10 -9 19 -16 q10 8 19 15 q38 36 58 69 q9 15 9 19 q0 21 -15 21 l-164 0 ZM171 229 l241 0 q67 0 67 -65 l0 -176 q0 -67 -67 -67 l-241 0 q-68 0 -68 67 l0 176 q0 65 68 65 ZM384 -12 q24 0 24 29 l0 120 q0 23 -24 23 l-184 0 q-25 0 -25 -23 l0 -120 q0 -29 25 -29 l184 0 Z" /><glyph glyph-name="" unicode="&#x53cd;" d="M231 504 l0 -44 q0 -205 -44 -348 q-42 -125 -88 -183 q-14 -16 -36 -17 q-34 2 -35 32 q0 7 13 31 q54 75 82 180 q41 130 41 305 l0 268 q0 65 63 65 q457 0 676 36 q35 -2 36 -36 q0 -28 -28 -37 q-176 -32 -644 -32 q-36 0 -36 -35 l0 -116 l600 0 q57 0 57 -61 q0 -32 -26 -89 q-46 -96 -116 -178 q-56 -63 -112 -111 q58 -37 136 -70 q74 -38 198 -76 q27 -10 27 -36 q0 -40 -40 -40 q-8 0 -26 5 q-149 54 -237 101 q-65 32 -119 67 q-128 -99 -300 -163 q-27 -10 -37 -10 q-40 0 -40 40 q0 20 23 32 q179 71 271 135 q11 7 20 13 q-76 59 -138 155 q-66 100 -104 217 l-37 0 ZM342 504 q49 -121 104 -197 q51 -72 125 -127 q61 48 106 100 q69 82 104 158 q19 35 19 47 q0 19 -17 19 l-441 0 Z" /><glyph glyph-name="" unicode="&#x65b9;" d="M939 724 q37 0 37 -35 q0 -36 -37 -36 l-527 0 q0 -77 -8 -149 l383 0 q72 0 72 -84 q0 -168 -14 -307 q-16 -123 -63 -161 q-51 -40 -146 -40 q-104 0 -228 36 q-28 14 -28 36 q0 44 40 44 q137 -40 212 -40 q70 0 99 34 q31 33 41 125 q11 102 11 246 q0 40 -35 40 l-353 0 q-11 -69 -28 -133 q-66 -211 -239 -375 q-14 -17 -33 -17 q-40 0 -40 40 q0 5 8 25 q167 154 230 351 q43 154 43 329 l-252 0 q-37 0 -37 36 q0 35 37 35 l406 0 q-22 34 -47 65 q-8 14 -8 19 q0 36 40 36 q9 0 21 -11 q35 -42 67 -96 q4 -8 6 -13 l370 0 Z" /><glyph glyph-name="" unicode="&#x80aa;" d="M139 812 l172 0 q65 0 65 -63 l0 -772 q0 -73 -80 -73 q-43 0 -84 8 q-29 10 -29 40 q0 36 32 36 l60 -7 q28 0 28 40 l0 200 l-157 0 q-2 -75 -10 -140 q-8 -77 -24 -144 q-10 -33 -44 -33 q-40 0 -40 37 q0 1 3 14 q21 73 30 142 q15 82 15 180 l0 472 q0 63 63 63 ZM147 288 l156 0 l0 205 l-156 0 l0 -205 ZM147 561 l156 0 l0 151 q0 29 -19 29 l-124 0 q-13 0 -13 -29 l0 -151 ZM955 716 q36 0 36 -36 q0 -36 -36 -36 l-356 0 l0 -163 l285 0 q71 0 71 -84 q0 -161 -10 -293 q-10 -118 -42 -154 q-35 -38 -99 -38 q-66 0 -145 21 q-27 13 -27 36 q0 44 40 44 q83 -25 128 -25 q37 0 52 32 q16 31 21 117 q7 97 7 231 q0 41 -36 41 l-245 0 l0 -65 q0 -130 -37 -243 q-31 -98 -87 -172 q-14 -21 -32 -21 q-42 3 -44 40 q1 11 13 25 q70 100 96 206 q19 83 19 165 l0 300 l-96 0 q-36 0 -36 36 q0 36 36 36 l237 0 q-26 34 -53 65 q-8 14 -8 19 q0 37 40 37 q9 0 21 -12 q38 -40 71 -92 q6 -12 7 -17 l209 0 Z" /><glyph glyph-name="" unicode="&#x5e9f;" d="M928 756 q31 0 31 -32 q0 -31 -31 -31 l-724 0 q-33 0 -33 -36 l0 -285 q0 -163 -18 -270 q-15 -101 -37 -165 q-11 -21 -32 -21 q-35 2 -37 32 q0 9 10 40 q6 24 14 53 q10 48 17 98 q15 109 15 233 l0 317 q0 67 68 67 l336 0 q-10 13 -20 25 q-8 14 -8 19 q0 37 40 37 q9 0 21 -12 q25 -25 48 -57 q4 -7 6 -12 l334 0 ZM515 668 q37 0 37 -32 q-7 -79 -20 -147 l388 0 q35 0 35 -36 q0 -37 -35 -37 l-403 0 q-11 -45 -23 -84 l350 0 q52 0 52 -59 q0 -21 -20 -55 q-36 -59 -90 -109 q-32 -30 -64 -53 q31 -13 65 -25 q55 -21 145 -43 q27 -10 27 -36 q0 -40 -39 -40 q-7 0 -21 3 q-111 33 -177 62 q-41 15 -73 33 q-99 -61 -232 -100 q-22 -6 -30 -6 q-40 0 -40 44 q0 20 25 33 q134 37 203 71 q2 1 3 1 q-53 34 -96 89 q-25 30 -44 62 q-74 -141 -182 -244 q-20 -19 -37 -19 q-44 0 -44 40 q0 6 12 19 q151 143 214 294 q24 57 41 122 l-146 0 q-56 0 -56 56 q0 8 31 141 q7 36 36 36 q36 0 36 -36 q-32 -109 -32 -113 q0 -11 29 -11 l119 0 q13 69 20 147 q0 32 36 32 ZM484 265 q32 -58 68 -97 q38 -41 93 -74 q2 -1 4 -2 q38 22 67 45 q52 43 78 83 q14 19 14 24 q0 21 -12 21 l-312 0 ZM712 649 q10 0 23 -9 q38 -25 69 -52 q15 -13 15 -32 q0 -31 -32 -31 q-17 0 -27 8 q-29 25 -65 51 q-23 14 -23 29 q0 36 40 36 Z" /><glyph glyph-name="" unicode="&#x5206;" d="M395 817 q15 0 25 -9 q11 -8 11 -23 q0 -9 -4 -25 q-33 -95 -81 -163 q-48 -73 -114 -135 q-54 -53 -129 -94 q-11 -7 -23 -7 q-15 0 -26 11 q-11 13 -11 29 q0 16 12 27 q71 40 121 87 q62 59 108 125 q45 65 75 153 q8 24 36 24 ZM267 453 l489 0 q71 0 71 -85 q0 -152 -13 -278 q-13 -111 -54 -146 q-44 -36 -128 -36 q-73 0 -161 36 q-28 14 -28 37 q0 44 40 44 q94 -41 145 -41 q57 0 81 30 q25 29 33 110 q10 90 10 216 q0 40 -36 40 l-229 0 q-14 -120 -46 -202 q-39 -100 -114 -160 q-74 -61 -208 -104 q-11 -2 -11 -2 q-40 0 -40 44 q0 23 23 32 q122 35 192 94 q55 47 89 128 q26 63 39 170 l-144 0 q-36 0 -36 36 q0 37 36 37 ZM615 825 q25 0 36 -17 q46 -109 112 -177 q75 -93 209 -175 q23 -18 23 -44 q-5 -30 -31 -36 q-17 0 -32 4 q-49 29 -113 80 q-65 56 -126 128 q-55 72 -97 164 q-16 26 -16 41 q1 31 35 32 Z" /><glyph glyph-name="" unicode="&#x4e30;" d="M880 456 q31 0 31 -32 q0 -36 -31 -36 l-328 0 l0 -155 l387 0 q37 0 37 -36 q0 -37 -37 -37 l-387 0 l0 -216 q0 -40 -40 -40 q-41 0 -41 40 l0 216 l-384 0 q-36 0 -36 37 q0 36 36 36 l384 0 l0 155 l-336 0 q-32 0 -32 36 q0 32 32 32 l336 0 l0 157 l-376 0 q-32 0 -32 36 q0 31 32 31 l376 0 l0 116 q0 41 41 41 q40 0 40 -41 l0 -116 l355 0 q32 0 32 -31 q0 -36 -32 -36 l-355 0 l0 -157 l328 0 Z" /><glyph glyph-name="" unicode="&#x80a4;" d="M156 825 l163 0 q57 0 57 -57 l0 -787 q0 -73 -96 -73 q-31 0 -61 8 q-28 10 -28 40 q0 36 32 36 l48 -8 q32 0 32 16 l0 225 l-133 0 q-2 -77 -10 -143 q-8 -75 -25 -141 q-9 -33 -44 -33 q-40 0 -40 36 q0 2 4 15 q22 71 30 138 q14 80 14 176 l0 495 q0 57 57 57 ZM171 292 l132 0 l0 204 l-132 0 l0 -204 ZM171 565 l132 0 l0 163 q0 28 -11 28 l-117 0 q-4 0 -4 -28 l0 -163 ZM903 680 q36 0 36 -36 q0 -35 -36 -35 l-191 0 l0 -164 q0 -8 1 -17 l207 0 q35 0 35 -35 q0 -40 -35 -40 l-197 0 q1 -9 3 -17 q15 -67 50 -133 q32 -61 85 -123 q35 -43 98 -99 q17 -14 17 -29 q-2 -37 -37 -40 q-14 0 -36 17 q-67 61 -115 125 q-45 62 -70 116 q-31 62 -46 122 q-16 -61 -43 -119 q-25 -57 -68 -119 q-48 -72 -105 -129 q-17 -13 -29 -13 q-38 3 -40 44 q0 13 21 28 q53 51 97 112 q50 65 80 130 q27 60 39 116 q1 7 2 11 l-179 0 q-35 0 -35 40 q0 35 35 35 l188 0 q1 10 1 17 l0 164 l-165 0 q-36 0 -36 35 q0 36 36 36 l165 0 l0 109 q0 36 36 36 q40 0 40 -36 l0 -109 l191 0 Z" /><glyph glyph-name="" unicode="&#x670d;" d="M147 821 l156 0 q65 0 65 -65 l0 -756 q0 -88 -97 -88 q-39 0 -75 13 q-28 9 -28 40 q0 35 32 35 l63 -12 q33 0 33 16 l0 256 l-143 0 q-3 -73 -12 -139 q-10 -96 -29 -180 q-10 -33 -44 -33 q-40 0 -40 36 q0 2 4 20 q24 91 35 176 q17 101 17 225 l0 391 q0 65 63 65 ZM155 328 l141 0 l0 172 l-140 0 l0 -135 q0 -20 -1 -37 ZM156 569 l140 0 l0 159 q0 28 -21 28 l-107 0 q-12 0 -12 -28 l0 -159 ZM708 737 l-172 0 q-28 0 -28 -28 l0 -216 l380 0 q44 0 44 -56 q0 -29 -14 -78 q-25 -85 -63 -158 q-33 -59 -67 -103 q19 -20 36 -34 q65 -55 131 -80 q40 -6 40 -36 q0 -44 -44 -44 q-92 36 -167 97 q-23 20 -43 39 q-64 -73 -145 -123 q-15 -9 -21 -9 q-39 0 -39 44 q0 20 23 32 q89 60 134 113 q-36 48 -62 103 q-45 89 -72 224 l-51 0 l0 -491 q0 -36 -37 -36 q-36 0 -36 36 l0 808 q0 63 69 63 l355 0 q69 0 69 -76 q0 -61 -9 -113 q-8 -45 -34 -60 q-29 -15 -81 -15 q-63 0 -136 12 q-25 13 -25 32 q0 44 37 44 q78 -15 120 -15 q25 0 36 7 q12 7 16 27 q3 22 3 54 q0 36 -32 36 l-115 0 ZM740 157 q28 38 50 80 q35 71 52 135 q10 31 10 40 q0 12 -4 12 l-215 0 q29 -127 69 -207 q19 -32 38 -60 Z" /><glyph glyph-name="" unicode="&#x8be5;" d="M80 573 l107 0 q76 0 76 -77 l0 -420 q0 -11 21 -11 q5 0 21 7 q22 9 47 24 q8 5 16 5 q36 -2 40 -40 q0 -14 -17 -33 q-38 -19 -87 -35 q-23 -8 -45 -9 q-68 0 -68 60 l0 409 q0 47 -48 47 l-63 0 q-37 0 -37 37 q0 36 37 36 ZM147 821 q11 0 24 -13 q45 -47 85 -107 q7 -15 7 -25 q0 -36 -40 -36 q-10 0 -19 9 q-42 58 -88 111 q-8 15 -8 21 q0 40 39 40 ZM932 745 q32 0 32 -33 q0 -36 -32 -36 l-272 0 q0 -3 -1 -4 q-68 -124 -149 -222 q48 3 82 8 q74 10 137 26 q22 44 39 97 q7 19 28 19 q14 0 24 -8 q11 -8 11 -19 q0 -11 -4 -25 q-29 -94 -66 -154 q-37 -60 -82 -104 q-42 -40 -96 -74 q-59 -38 -152 -71 q-20 -8 -28 -8 q-14 0 -25 11 q-10 10 -10 24 q0 25 19 32 q89 32 145 67 q53 32 93 69 q28 28 53 61 q-22 -4 -45 -8 q-50 -9 -112 -14 q-71 -7 -82 -7 q-44 0 -44 40 q0 27 26 32 q78 94 159 232 l-212 0 q-32 0 -32 36 q0 33 32 33 l260 0 q-15 14 -29 27 q-7 15 -7 21 q0 40 40 40 q10 0 23 -12 q26 -22 48 -49 q9 -14 9 -23 l0 -4 l220 0 ZM915 428 q15 0 25 -8 q11 -8 11 -19 q0 -11 -4 -25 q-37 -107 -84 -176 q-26 -38 -55 -69 q34 -21 61 -41 q49 -31 90 -73 q13 -14 13 -21 q0 -36 -33 -36 q-20 0 -36 13 q-50 42 -85 66 q-28 19 -63 39 q-52 -43 -116 -81 q-75 -43 -192 -81 q-20 -8 -27 -8 q-17 0 -29 11 q-11 12 -11 25 q0 28 19 37 q114 35 187 75 q67 37 119 79 q55 47 101 110 q45 64 82 164 q7 19 27 19 Z" /><glyph glyph-name="" unicode="&#x6539;" d="M575 840 q36 0 36 -32 q-3 -43 -6 -80 l327 0 q36 0 36 -35 q0 -36 -36 -36 l-44 0 q-1 -66 -19 -167 q-18 -119 -59 -225 q-31 -66 -66 -117 q39 -46 101 -89 q43 -35 114 -71 q28 -11 28 -40 q0 -44 -40 -44 q-5 0 -16 5 q-91 51 -146 97 q-51 38 -89 81 q-14 -15 -28 -28 q-95 -89 -214 -146 q-20 -9 -30 -9 q-44 0 -44 40 q0 22 19 33 q140 69 222 150 q13 14 24 26 q-31 48 -57 112 q-33 77 -53 162 q-19 -41 -39 -74 q-20 -21 -36 -21 q-44 0 -44 40 q0 7 11 21 q58 93 83 191 q22 91 30 224 q0 32 35 32 ZM566 511 q20 -3 26 -22 q30 -123 64 -202 q17 -38 37 -71 q31 47 53 100 q54 124 68 341 l-217 0 q-7 -52 -16 -94 q-8 -27 -15 -52 ZM116 785 l231 0 q69 0 69 -65 l0 -220 q0 -67 -69 -67 l-168 0 q-27 0 -27 -28 l0 -336 q0 -12 12 -12 q13 0 59 22 q58 26 124 68 q23 13 40 13 q38 -2 40 -40 q0 -13 -15 -32 q-78 -49 -179 -91 q-49 -19 -94 -20 q-59 0 -59 59 l0 397 q0 67 72 67 l167 0 q24 0 24 29 l0 164 q0 23 -24 23 l-203 0 q-36 0 -36 36 q0 33 36 33 Z" /><glyph glyph-name="" unicode="&#x9ad8;" d="M939 772 q33 0 33 -31 q0 -36 -33 -36 l-844 0 q-32 0 -32 36 q0 31 32 31 l402 0 q-10 11 -18 21 q-8 14 -8 19 q0 40 41 40 q10 0 24 -12 q25 -26 48 -59 q3 -4 4 -9 l351 0 ZM227 644 l565 0 q60 0 60 -56 l0 -99 q0 -56 -60 -56 l-565 0 q-59 0 -59 56 l0 99 q0 56 59 56 ZM760 496 q19 0 19 25 l0 35 q0 25 -19 25 l-501 0 q-19 0 -19 -25 l0 -35 q0 -25 19 -25 l501 0 ZM147 365 l737 0 q71 0 71 -73 l0 -292 q0 -96 -107 -96 q-51 0 -121 12 q-24 11 -24 32 q0 40 28 40 q11 0 27 -2 q52 -9 82 -9 q44 0 44 40 l0 248 q0 31 -29 31 l-684 0 q-28 0 -28 -31 l0 -328 q0 -37 -35 -37 q-36 0 -36 37 l0 355 q0 73 75 73 ZM307 237 l409 0 q55 0 55 -52 l0 -113 q0 -51 -55 -51 l-409 0 q-51 0 -51 51 l0 113 q0 52 51 52 ZM680 84 q23 0 23 25 l0 40 q0 23 -23 23 l-337 0 q-19 0 -19 -23 l0 -40 q0 -25 19 -25 l337 0 Z" /><glyph glyph-name="" unicode="&#x683c;" d="M364 628 q35 0 35 -36 q0 -36 -35 -36 l-89 0 l0 -23 l96 -155 q9 -14 9 -25 q0 -36 -37 -36 q-14 0 -22 16 l-46 88 l0 -480 q0 -37 -35 -37 q-36 0 -36 37 l0 473 q-2 -7 -4 -14 q-27 -87 -47 -136 q-26 -69 -45 -100 q-13 -23 -32 -23 q-36 0 -36 36 q0 13 7 27 q70 131 98 217 q22 58 39 135 l-93 0 q-36 0 -36 36 q0 36 36 36 l113 0 l0 168 q0 37 36 37 q35 0 35 -37 l0 -168 l89 0 ZM538 616 q-2 -3 -4 -5 q-24 -31 -59 -55 q-11 -8 -23 -8 q-15 0 -26 13 q-10 12 -10 27 q0 14 11 25 q31 21 53 48 q27 32 46 68 q20 35 33 83 q8 25 37 25 q12 0 21 -8 q11 -9 11 -25 q0 -7 -4 -19 q-2 -9 -6 -17 l234 0 q63 0 63 -59 q0 -24 -19 -65 q-33 -70 -84 -130 q-28 -32 -55 -57 q21 -15 44 -28 q58 -34 158 -68 q21 -13 21 -29 q0 -44 -41 -44 q-9 0 -38 9 q-87 33 -149 72 q-31 17 -58 37 q-5 -3 -10 -7 q-93 -72 -220 -119 q-21 -7 -29 -7 q-40 0 -40 40 q0 16 25 27 q124 48 188 93 q18 11 32 21 q-14 14 -27 29 q-42 48 -75 133 ZM594 703 q-4 -7 -7 -13 q-2 -5 -4 -7 q3 -6 5 -11 q36 -90 87 -145 q11 -14 24 -25 q22 19 39 39 q49 56 72 108 q13 24 13 31 q0 21 -15 21 l-201 0 q-8 0 -13 2 ZM523 265 l332 0 q69 0 69 -65 l0 -212 q0 -67 -69 -67 l-332 0 q-67 0 -67 67 l0 212 q0 65 67 65 ZM823 -12 q29 0 29 33 l0 147 q0 29 -29 29 l-268 0 q-28 0 -28 -29 l0 -147 q0 -33 28 -33 l268 0 Z" /><glyph glyph-name="" unicode="&#x4e2a;" d="M515 829 q22 0 39 -22 q81 -107 177 -184 q70 -56 216 -134 q24 -9 29 -36 q-3 -37 -44 -44 q-5 0 -19 3 q-133 75 -224 150 q-95 80 -163 183 q-6 4 -11 4 q-15 0 -21 -12 q-77 -112 -175 -189 q-71 -58 -220 -136 q-12 -3 -12 -3 q-33 2 -40 40 q3 29 21 40 q134 63 204 118 q104 73 188 188 q18 34 55 34 ZM508 565 q34 -2 36 -36 l0 -581 q-2 -34 -36 -36 q-39 2 -40 36 l0 581 q1 34 40 36 Z" /><glyph glyph-name="" unicode="&#x5404;" d="M269 663 q-21 -24 -43 -43 q-44 -37 -95 -68 q-15 -8 -28 -8 q-14 0 -25 14 q-10 13 -10 30 q0 19 23 33 q50 30 88 62 q34 29 62 66 q24 31 58 88 q9 15 25 15 q15 0 27 -10 q13 -11 13 -25 q0 -20 -9 -32 q-3 -5 -5 -8 l442 0 q71 0 71 -57 q0 -21 -36 -63 q-79 -86 -179 -154 q-22 -15 -47 -30 q67 -27 161 -52 q74 -22 197 -45 q28 -10 28 -36 q0 -40 -40 -40 q-8 0 -27 5 q-149 33 -238 64 q-92 30 -159 62 q-37 -18 -78 -34 q-151 -63 -285 -91 q-55 -14 -73 -14 q-44 0 -44 40 q0 27 33 33 q145 29 227 57 q80 24 144 52 q-46 30 -87 71 q-57 56 -91 118 ZM524 510 q11 5 19 11 q100 55 188 144 q25 26 25 32 q0 8 -17 8 l-414 0 q2 -4 3 -8 q51 -79 110 -129 q38 -32 86 -58 ZM256 292 l536 0 q71 0 71 -67 l0 -233 q0 -67 -71 -67 l-536 0 q-69 0 -69 67 l0 233 q0 67 69 67 ZM760 -4 q27 0 27 29 l0 168 q0 28 -27 28 l-472 0 q-25 0 -25 -28 l0 -168 q0 -29 25 -29 l472 0 Z" /><glyph glyph-name="" unicode="&#x6839;" d="M380 653 q36 0 36 -36 q0 -36 -36 -36 l-109 0 l0 -26 l118 -220 q10 -20 10 -35 q0 -35 -40 -35 q-17 0 -25 22 l-63 149 l0 -499 q0 -37 -35 -37 q-36 0 -36 37 l0 476 q-1 -4 -2 -7 q-27 -90 -48 -142 q-26 -72 -47 -104 q-12 -23 -31 -23 q-36 0 -36 35 q0 14 7 28 q72 136 101 226 q24 66 42 155 l-102 0 q-37 0 -37 36 q0 36 37 36 l116 0 l0 147 q0 37 36 37 q35 0 35 -37 l0 -147 l109 0 ZM800 737 l-264 0 q-28 0 -28 -28 l0 -92 l328 0 l0 92 q0 28 -28 28 l-8 0 ZM508 552 l0 -119 l300 0 q28 0 28 31 l0 88 l-328 0 ZM508 365 l0 -344 q0 -17 23 -17 q9 0 37 11 q36 12 78 31 q14 7 26 7 q37 -2 40 -40 q0 -14 -17 -32 q-54 -29 -123 -52 q-34 -12 -64 -13 q-73 0 -73 68 l0 761 q0 59 65 59 l340 0 q67 0 67 -63 l0 -308 q0 -68 -67 -68 l-174 0 q28 -84 61 -142 q9 -16 18 -30 q75 76 122 139 q14 17 25 17 q40 0 40 -36 q0 -21 -17 -36 q-54 -72 -129 -140 q16 -18 29 -33 q52 -60 136 -116 q25 -15 25 -32 q-3 -45 -44 -48 q-19 0 -44 17 q-98 70 -163 154 q-47 60 -75 126 q-33 70 -51 160 l-91 0 Z" /><glyph glyph-name="" unicode="&#x66f4;" d="M939 804 q33 0 33 -32 q0 -35 -33 -35 l-384 0 l0 -88 l281 0 q63 0 63 -57 l0 -275 q0 -61 -63 -61 l-284 0 q-12 -138 -74 -207 q75 -21 171 -33 q71 -10 298 -16 q35 -1 36 -35 q-1 -44 -44 -44 q-68 2 -173 11 q-109 7 -208 25 q-81 16 -144 36 q-103 -61 -319 -85 q-40 0 -40 36 q0 29 29 37 q146 17 231 51 q-100 46 -168 117 q-8 13 -8 28 q0 35 36 35 q11 0 25 -15 q84 -83 192 -121 q1 -1 1 0 q10 7 18 17 q53 59 64 163 l-296 0 q-59 0 -59 61 l0 275 q0 57 59 57 l300 0 l0 88 l-392 0 q-32 0 -32 35 q0 32 32 32 l852 0 ZM800 325 q23 0 23 28 l0 67 l-268 0 l0 -95 l245 0 ZM479 325 l0 95 l-283 0 l0 -67 q0 -28 19 -28 l264 0 ZM196 489 l283 0 l0 92 l-264 0 q-19 0 -19 -25 l0 -67 ZM555 581 l0 -92 l268 0 l0 67 q0 25 -23 25 l-245 0 Z" /><glyph glyph-name="" unicode="&#x987e;" d="M460 793 q32 0 32 -33 q0 -36 -32 -36 l-245 0 q-32 0 -32 -31 l0 -309 q0 -108 -13 -207 q-9 -72 -33 -151 q-17 -54 -34 -89 q-12 -25 -31 -25 q-35 2 -36 36 q0 6 5 21 q19 46 32 89 q20 63 30 136 q13 85 13 190 l0 340 q0 69 67 69 l277 0 ZM435 600 q1 0 2 -1 q50 -6 50 -62 l0 -245 q0 -80 -88 -80 q-21 0 -56 9 q-19 9 -24 27 q2 32 28 36 l4 0 q19 -7 33 -7 q40 0 40 40 l0 195 q0 25 -25 25 l-75 0 q-32 0 -32 -33 l0 -464 q0 -12 4 -12 q9 0 43 11 q42 12 91 31 q16 6 30 6 q34 -1 36 -36 q0 -11 -17 -27 q-59 -27 -136 -49 q-38 -11 -72 -12 q-44 0 -44 61 l0 516 q0 71 72 71 l136 0 ZM611 649 l40 0 q19 40 38 96 l-145 0 q-32 0 -32 36 q0 31 32 31 l395 0 q33 0 33 -31 q0 -36 -33 -36 l-175 0 q-19 -54 -38 -96 l141 0 q72 0 72 -72 l0 -476 q0 -32 -32 -32 q-31 0 -31 32 l0 447 q0 36 -36 36 l-200 0 q-37 0 -37 -36 l0 -432 q0 -32 -32 -32 q-31 0 -31 32 l0 461 q0 72 71 72 ZM731 533 q34 -2 37 -37 l0 -183 q0 -93 -20 -164 q-26 -89 -89 -150 q-45 -43 -104 -78 q-16 -13 -36 -13 q-31 6 -36 36 q1 20 13 33 q57 33 89 61 q58 47 86 118 q24 80 24 157 l0 183 q3 35 36 37 ZM787 112 q23 0 32 -15 q73 -51 145 -145 l0 -15 q0 -33 -36 -33 q-22 0 -32 25 q-68 87 -140 136 l0 19 q4 25 31 28 Z" /><glyph glyph-name="" unicode="&#x7ba1;" d="M183 840 q13 0 23 -7 q9 -9 9 -25 q0 -7 -3 -19 l263 0 q33 0 33 -33 q0 -32 -33 -32 l-124 0 q5 -21 10 -54 q3 -9 3 -13 q0 -33 -36 -33 q-30 0 -32 33 q-5 39 -11 66 l0 1 l-102 0 q-16 -28 -37 -51 q-18 -21 -43 -37 q-11 -8 -23 -8 q-13 0 -24 11 q-9 12 -9 26 q0 13 12 24 q21 14 35 30 q18 21 32 44 q12 23 21 54 q8 23 36 23 ZM615 840 q13 0 23 -7 q9 -9 9 -25 q0 -7 -4 -19 l293 0 q32 0 32 -33 q0 -32 -32 -32 l-137 0 q3 -21 7 -54 q2 -9 2 -13 q0 -33 -37 -33 q-30 0 -32 33 q-3 39 -7 66 l0 1 l-114 0 q-11 -20 -23 -35 q-13 -19 -32 -32 q-11 -8 -23 -8 q-14 0 -24 11 q-8 10 -8 24 q0 15 11 25 q13 11 24 26 q12 17 21 36 q9 20 16 46 q7 23 35 23 ZM128 588 l340 0 q-10 12 -21 25 q-8 14 -8 19 q0 36 40 36 q9 0 21 -11 q20 -22 40 -48 q7 -13 7 -21 l345 0 q41 0 62 -27 q18 -23 18 -68 q0 -44 -4 -100 q-10 -28 -44 -28 q-36 0 -36 36 q8 69 8 88 q0 36 -33 36 l-711 0 q-24 0 -24 -25 l0 -95 q0 -37 -37 -37 q-36 0 -36 37 l0 111 q0 72 73 72 ZM244 88 l0 -75 q0 -36 27 -36 l512 0 q17 0 17 23 l0 69 q0 19 -17 19 l-539 0 ZM724 -84 l-497 0 q-56 0 -56 53 l0 436 q0 48 56 48 l544 0 q56 0 56 -48 l0 -124 q0 -52 -56 -52 l-527 0 l0 -80 l571 0 q56 0 56 -48 l0 -132 q0 -53 -56 -53 l-91 0 ZM687 393 l-416 0 q-27 0 -27 -32 l0 -73 l495 0 q17 0 17 25 l0 59 q0 21 -17 21 l-52 0 Z" /><glyph glyph-name="" unicode="&#x89c4;" d="M443 453 q36 0 36 -37 q0 -36 -36 -36 l-140 0 l0 -52 q0 -36 -4 -68 q10 0 25 -4 q30 -35 56 -69 q38 -47 72 -111 q12 -13 12 -19 q0 -36 -33 -36 q-20 0 -36 11 q-39 68 -65 106 q-20 28 -43 57 q-14 -55 -39 -108 q-47 -96 -132 -171 q-14 -19 -29 -19 q-42 2 -44 36 q1 10 12 23 q110 101 150 207 q31 83 31 165 l0 52 l-149 0 q-36 0 -36 36 q0 37 36 37 l149 0 l0 156 l-120 0 q-32 0 -32 35 q0 32 32 32 l120 0 l0 117 q0 32 31 32 q36 0 36 -32 l0 -117 l113 0 q31 0 31 -32 q0 -35 -31 -35 l-113 0 l0 -156 l140 0 ZM567 808 l325 0 q55 0 55 -56 l0 -500 q0 -31 -36 -31 q-35 0 -35 31 l0 449 q0 36 -36 36 l-220 0 q-36 0 -36 -36 l0 -445 q0 -31 -36 -31 q-36 0 -36 31 l0 496 q0 56 55 56 ZM764 288 q36 0 36 -32 l0 -243 q0 -29 48 -29 q56 0 58 39 l5 70 q2 30 32 31 q35 -1 37 -36 q0 -127 -32 -145 q-26 -22 -100 -22 q-71 0 -93 17 q-24 16 -24 50 l0 197 q-23 -64 -65 -120 q-54 -77 -153 -140 q-20 -13 -26 -13 q-40 0 -40 40 q0 29 21 36 q96 66 142 133 q46 64 68 144 q17 78 17 159 l0 164 q0 33 36 33 q37 0 37 -33 l0 -164 q0 -72 -11 -137 q4 1 7 1 Z" /><glyph glyph-name="" unicode="&#x679c;" d="M204 812 l607 0 q73 0 73 -63 l0 -281 q0 -63 -73 -63 l-271 0 l0 -92 l396 0 q36 0 36 -36 q0 -37 -36 -37 l-380 0 q77 -62 164 -106 q136 -73 239 -109 q28 -12 28 -41 q0 -13 -9 -26 q-11 -14 -31 -14 q-21 0 -42 10 q-99 45 -189 97 q-91 53 -176 121 l0 -247 q0 -36 -40 -36 q-36 0 -36 36 l0 239 q-63 -55 -127 -96 q-86 -58 -243 -126 q-21 -5 -26 -5 q-36 0 -36 40 q0 26 23 36 q164 63 257 124 q76 47 132 103 l-353 0 q-36 0 -36 37 q0 36 36 36 l373 0 l0 92 l-260 0 q-69 0 -69 63 l0 281 q0 63 69 63 ZM787 468 q21 0 21 25 l0 88 l-268 0 l0 -113 l247 0 ZM464 468 l0 113 l-252 0 l0 -88 q0 -25 15 -25 l237 0 ZM212 644 l252 0 l0 105 l-237 0 q-15 0 -15 -25 l0 -80 ZM540 749 l0 -105 l268 0 l0 80 q0 25 -21 25 l-247 0 Z" /><glyph glyph-name="" unicode="&#x8fc7;" d="M91 516 l128 0 q56 0 56 -52 l0 -352 q0 -45 50 -76 q60 -36 163 -36 l459 0 q36 0 36 -40 q0 -35 -36 -35 l-432 0 q-79 0 -144 17 q-64 16 -110 51 l-13 7 q-7 0 -16 -8 q-47 -41 -105 -65 q-31 -15 -43 -15 q-39 2 -41 36 q0 27 29 36 q68 25 96 45 q32 23 32 83 l0 316 q0 17 -17 17 l-92 0 q-36 0 -36 36 q0 35 36 35 ZM936 672 q36 0 36 -36 q0 -36 -36 -36 l-105 0 l0 -388 q0 -147 -132 -147 q-53 0 -136 32 q-16 19 -19 27 q1 43 36 44 q3 0 10 -1 q56 -28 101 -30 q65 0 65 63 l0 400 l-401 0 q-36 0 -36 36 q0 36 36 36 l401 0 l0 132 q1 35 36 36 q37 -1 39 -36 l0 -132 l105 0 ZM460 529 q10 0 23 -13 q69 -78 128 -180 q9 -13 9 -23 q0 -36 -40 -36 q-13 0 -25 7 q-59 95 -128 184 q-7 15 -7 21 q0 40 40 40 ZM124 796 q10 0 23 -11 q54 -44 101 -101 q8 -14 8 -23 q0 -37 -41 -37 q-9 0 -19 8 q-50 54 -105 105 q-7 14 -7 19 q0 40 40 40 Z" /><glyph glyph-name="" unicode="&#x6d77;" d="M427 848 q14 0 25 -8 q12 -8 12 -23 q0 -10 -4 -24 q-3 -11 -6 -21 l485 0 q33 0 33 -31 q0 -36 -33 -36 l-511 0 q-4 -9 -8 -16 q-25 -47 -58 -85 q-26 -34 -63 -60 q-11 -7 -24 -7 q-14 0 -25 11 q-10 13 -10 29 q0 13 12 23 q32 25 55 54 q29 36 49 78 q21 38 35 93 q8 23 36 23 ZM456 609 l403 0 q56 0 56 -57 q0 -29 -17 -177 l0 -3 l61 0 q36 0 36 -36 q0 -36 -36 -36 l-69 0 q-11 -99 -28 -188 l77 0 q37 0 37 -32 q0 -36 -37 -36 l-89 0 q-17 -93 -37 -114 q-23 -26 -65 -26 q-99 0 -177 21 q-31 9 -31 40 q0 35 35 35 q119 -23 164 -23 q25 0 33 42 q3 12 6 25 l-446 0 q-52 0 -52 44 q0 19 7 36 q39 111 57 176 l-69 0 q-35 0 -35 36 q0 36 35 36 l87 0 q17 74 29 176 q8 61 65 61 ZM792 112 q12 70 22 154 q2 18 4 34 l-402 0 q-21 -88 -48 -176 q0 -12 16 -12 l408 0 ZM432 372 l394 0 q9 78 14 149 q0 19 -25 19 l-323 0 q-30 0 -32 -28 q-11 -69 -28 -140 ZM596 516 q9 0 24 -8 q20 -11 38 -22 q26 -16 50 -37 q12 -14 12 -21 q0 -31 -33 -31 q-18 0 -32 12 q-26 18 -45 29 q-15 9 -35 18 q-12 14 -12 29 q0 31 33 31 ZM555 277 q10 0 25 -8 q19 -16 36 -29 q25 -20 48 -47 q12 -14 12 -21 q0 -31 -33 -31 q-18 0 -32 12 q-25 25 -43 39 q-14 12 -32 24 q-13 15 -13 28 q0 33 32 33 ZM139 812 q11 0 25 -12 q44 -42 84 -95 q8 -14 8 -25 q0 -36 -41 -36 q-9 0 -19 9 q-42 52 -88 99 q-9 15 -9 20 q0 40 40 40 ZM91 552 q11 0 25 -12 q48 -43 92 -99 q7 -15 7 -25 q0 -36 -40 -36 q-9 0 -19 8 q-45 55 -97 105 q-8 14 -8 19 q0 40 40 40 ZM187 300 q36 0 36 -40 q-9 -82 -30 -159 q-22 -81 -58 -157 q-12 -23 -36 -23 q-36 0 -36 31 q0 5 5 17 q44 95 56 142 q20 71 36 166 q4 23 27 23 Z" /><glyph glyph-name="" unicode="&#x597d;" d="M87 672 l70 0 q3 55 3 121 q0 36 36 36 q35 0 35 -36 q0 -66 -3 -121 l140 0 q56 0 56 -67 q0 -118 -24 -220 q-25 -128 -81 -234 q-2 -4 -4 -7 q24 -21 41 -37 q64 -52 64 -82 q-1 -17 -9 -26 q-9 -9 -24 -11 q-25 0 -46 20 q-38 36 -71 68 q-63 -87 -150 -155 q-17 -9 -29 -9 q-40 0 -40 40 q0 12 12 25 q95 74 152 151 q-62 59 -112 102 q-27 27 -27 70 q0 7 7 27 q42 96 56 179 q8 41 14 94 l-66 0 q-36 0 -36 36 q0 36 36 36 ZM222 600 q-5 -49 -13 -88 q-16 -76 -55 -185 q-7 -16 -7 -27 q0 -8 23 -30 q49 -42 88 -75 q50 90 74 209 q19 97 19 173 q0 23 -15 23 l-114 0 ZM932 393 q36 0 36 -36 q0 -36 -36 -36 l-120 0 q3 -4 4 -8 q39 -86 39 -160 q0 -104 -67 -175 q-55 -57 -129 -57 q-49 0 -119 23 q-15 17 -21 33 q0 45 40 48 q4 0 13 -2 q60 -23 87 -23 q50 0 80 41 q36 47 36 112 q0 79 -41 160 q-2 5 -4 8 l-262 0 q-37 0 -37 36 q0 36 37 36 l218 0 q-21 29 -49 57 q-13 18 -13 35 q0 20 12 36 q107 118 167 195 q8 12 8 17 l-319 0 q-35 2 -36 35 q1 34 36 36 l331 0 q76 0 76 -59 q-2 -13 -11 -30 q-54 -79 -171 -207 q-9 -14 -9 -23 q0 -9 10 -21 q32 -37 54 -71 l160 0 Z" /><glyph glyph-name="" unicode="&#x6838;" d="M364 649 q35 0 35 -36 q0 -36 -35 -36 l-97 0 l0 -33 l130 -204 q11 -18 11 -31 q0 -36 -36 -36 q-20 0 -30 20 l-75 137 l0 -493 q0 -37 -36 -37 q-35 0 -35 37 l0 470 q-26 -96 -48 -150 q-25 -75 -45 -108 q-12 -25 -31 -25 q-36 0 -36 36 q0 14 7 29 q70 142 98 235 q23 66 40 153 l-94 0 q-36 0 -36 36 q0 36 36 36 l109 0 l0 155 q0 36 35 36 q36 0 36 -36 l0 -155 l97 0 ZM939 733 q33 0 33 -32 q0 -36 -33 -36 l-273 0 q0 -4 -2 -8 q-58 -119 -126 -211 q42 3 71 7 q66 9 124 23 q23 49 42 116 q8 21 29 21 q13 0 24 -8 q12 -9 12 -21 q0 -10 -4 -23 q-28 -97 -62 -158 q-34 -61 -75 -106 q-39 -41 -89 -76 q-54 -38 -139 -72 q-20 -8 -28 -8 q-14 0 -25 11 q-10 10 -10 25 q0 24 19 31 q82 32 133 68 q48 33 85 70 q21 22 38 48 q-18 -4 -37 -8 q-45 -7 -98 -12 q-63 -6 -73 -6 q-44 0 -44 41 q0 24 22 30 q1 4 3 6 q65 88 132 220 l-164 0 q-33 0 -33 36 q0 32 33 32 l235 0 q-19 18 -39 35 q-9 15 -9 21 q0 40 40 40 q11 0 25 -12 q31 -25 59 -57 q8 -13 8 -23 l0 -4 l196 0 ZM907 433 q15 0 26 -9 q10 -8 10 -19 q0 -11 -4 -25 q-37 -108 -83 -177 q-44 -66 -95 -114 q106 -55 190 -108 q17 -14 17 -33 q0 -36 -36 -36 q-18 0 -29 9 q-87 62 -200 123 q-32 -24 -70 -46 q-74 -43 -190 -82 q-20 -8 -27 -8 q-17 0 -29 11 q-11 12 -11 25 q0 28 19 37 q114 35 186 76 q65 37 117 79 q55 47 100 111 q46 65 82 165 q7 21 27 21 Z" /><glyph glyph-name="" unicode="&#x548c;" d="M468 829 q36 0 36 -44 q0 -30 -48 -36 q-47 -11 -120 -22 l0 -162 l147 0 q36 0 36 -36 q0 -36 -36 -36 l-147 0 l0 -29 l159 -276 q13 -25 13 -43 q0 -36 -40 -36 q-25 0 -37 29 l-95 204 l0 -409 q0 -36 -37 -36 q-36 0 -36 36 l0 392 q-1 -4 -2 -5 q-39 -94 -70 -148 q-38 -75 -67 -107 q-14 -12 -33 -12 q-40 0 -40 35 q0 14 12 28 q100 138 141 228 q32 64 57 149 l-158 0 q-35 0 -35 36 q0 36 35 36 l160 0 l0 154 q-96 -10 -135 -10 q-44 0 -44 40 q0 36 36 36 q91 1 168 10 q96 10 180 34 ZM628 781 l235 0 q73 0 73 -72 l0 -688 q0 -73 -73 -73 l-235 0 q-73 0 -73 73 l0 688 q0 72 73 72 ZM836 21 q27 0 27 28 l0 631 q0 29 -27 29 l-181 0 q-27 0 -27 -29 l0 -631 q0 -28 27 -28 l181 0 Z" /><glyph glyph-name="" unicode="&#x5408;" d="M512 837 q36 0 89 -46 q69 -59 159 -109 q85 -44 223 -86 q21 -11 21 -27 q-3 -46 -45 -48 q-14 0 -31 6 q-146 54 -206 88 q-93 53 -181 126 q-16 15 -29 15 q-11 0 -20 -7 q-96 -87 -206 -143 q-85 -45 -201 -84 q-11 -6 -26 -6 q-34 3 -35 45 q1 20 23 31 q134 41 225 89 q96 49 178 127 q28 29 62 29 ZM792 521 q35 0 35 -36 q0 -36 -35 -36 l-569 0 q-36 0 -36 36 q0 36 36 36 l569 0 ZM223 353 l577 0 q76 0 76 -72 l0 -281 q0 -71 -76 -71 l-577 0 q-71 0 -71 71 l0 281 q0 72 71 72 ZM764 0 q36 0 36 36 l0 208 q0 37 -36 37 l-505 0 q-32 0 -32 -37 l0 -208 q0 -36 32 -36 l505 0 Z" /><glyph glyph-name="" unicode="&#x7ea2;" d="M412 109 q29 -2 31 -33 q0 -22 -23 -36 q-59 -29 -155 -56 q-72 -22 -178 -40 q-34 3 -36 40 q0 35 33 41 q94 12 147 28 q94 23 160 52 q12 4 21 4 ZM391 269 q36 0 36 -36 q0 -23 -24 -33 q-46 -13 -111 -26 q-49 -9 -109 -15 q-69 -6 -80 -6 q-44 0 -44 40 q0 21 17 28 q96 93 176 199 q-7 -2 -14 -3 q-39 -7 -87 -11 q-56 -5 -64 -5 q-40 0 -40 40 q0 17 13 23 q3 6 8 13 q110 130 195 300 q12 27 44 27 q28 -1 29 -36 q0 -3 -6 -22 q-75 -158 -166 -270 q23 2 42 4 q54 7 102 18 q27 40 51 79 q12 28 44 28 q27 -1 28 -36 q0 -5 -8 -27 q-102 -180 -229 -309 q33 3 58 7 q74 10 139 29 ZM915 768 q32 0 32 -31 q0 -36 -32 -36 l-176 0 l0 -688 l197 0 q32 0 32 -32 q0 -37 -32 -37 l-476 0 q-33 0 -33 37 q0 32 33 32 l204 0 l0 688 l-160 0 q-33 0 -33 36 q0 31 33 31 l411 0 Z" /><glyph glyph-name="" unicode="&#x539a;" d="M936 808 q36 0 36 -31 q0 -36 -36 -36 l-724 0 q-25 0 -25 -25 l0 -208 q0 -211 -21 -350 q-18 -130 -42 -214 q-11 -23 -33 -23 q-38 2 -40 35 q0 12 11 53 q8 29 16 68 q11 63 20 127 q18 144 18 304 l0 241 q0 59 63 59 l757 0 ZM315 689 l521 0 q63 0 63 -61 l0 -175 q0 -60 -63 -60 l-521 0 q-63 0 -63 60 l0 175 q0 61 63 61 ZM808 456 q19 0 19 25 l0 27 l-503 0 l0 -27 q0 -25 19 -25 l465 0 ZM324 569 l503 0 l0 31 q0 24 -19 24 l-465 0 q-19 0 -19 -24 l0 -31 ZM939 145 q33 0 33 -33 q0 -32 -33 -32 l-205 0 q5 -18 5 -36 q0 -70 -50 -102 q-41 -26 -122 -26 q-79 0 -159 25 q-31 10 -32 36 q2 42 44 44 q107 -25 147 -25 q47 0 67 11 q25 13 25 37 q0 20 -5 36 l-446 0 q-33 0 -33 32 q0 33 33 33 l406 0 q-3 4 -6 7 q-9 8 -9 16 q0 16 18 26 l122 71 q0 4 -15 4 l-417 0 q-36 0 -36 36 q0 35 36 35 l493 0 q67 0 67 -52 q0 -17 -24 -36 l-144 -87 q-8 -4 -8 -9 q0 -2 5 -7 q2 -2 3 -4 l240 0 Z" /><glyph glyph-name="" unicode="&#x540e;" d="M876 821 q37 -2 39 -40 q0 -28 -31 -36 q-186 -36 -676 -36 q-25 0 -25 -25 l0 -88 l772 0 q36 0 36 -35 q0 -36 -36 -36 l-772 0 l0 -109 q0 -177 -25 -301 q-24 -108 -50 -159 q-15 -14 -36 -15 q-38 1 -40 36 q0 5 8 25 q32 64 47 153 q25 112 25 261 l0 293 q0 72 71 72 q468 0 693 40 ZM340 412 l496 0 q71 0 71 -68 l0 -352 q0 -67 -71 -67 l-496 0 q-69 0 -69 67 l0 352 q0 68 69 68 ZM804 -4 q27 0 27 29 l0 288 q0 27 -27 27 l-432 0 q-25 0 -25 -27 l0 -288 q0 -29 25 -29 l432 0 Z" /><glyph glyph-name="" unicode="&#x5316;" d="M296 833 q16 0 29 -9 q15 -12 15 -28 q0 -9 -4 -24 q-30 -117 -73 -210 l0 -621 q0 -37 -40 -37 q-36 0 -36 37 l0 480 q-31 -52 -67 -96 q-19 -16 -29 -16 q-40 0 -40 35 q0 12 8 21 q67 85 117 189 q55 109 91 254 q6 25 29 25 ZM884 657 q36 0 36 -36 q0 -20 -17 -33 q-124 -114 -319 -211 l0 -320 q0 -31 22 -43 q26 -14 118 -14 q109 0 129 15 q27 16 27 40 l0 94 q1 42 35 44 q38 -3 40 -52 q0 -137 -17 -160 q-10 -29 -53 -45 q-39 -15 -161 -15 q-137 0 -178 27 q-38 25 -38 92 l0 301 q-49 -22 -100 -43 q-36 -14 -49 -14 q-40 0 -40 41 q0 18 21 28 q89 34 168 73 l0 363 q0 36 36 36 q40 0 40 -36 l0 -324 q155 84 275 184 q17 8 25 8 Z" /><glyph glyph-name="" unicode="&#x6d3b;" d="M915 821 q36 0 36 -40 q0 -29 -44 -36 q-91 -7 -239 -12 l0 -172 l271 0 q37 0 37 -36 q0 -36 -37 -36 l-271 0 l0 -168 l195 0 q69 0 69 -69 l0 -256 q0 -67 -69 -67 l-447 0 q-69 0 -69 67 l0 256 q0 69 69 69 l180 0 l0 168 l-264 0 q-36 0 -36 36 q0 36 36 36 l264 0 l0 169 q-157 -6 -220 -6 q-44 0 -44 40 q0 32 36 32 q143 1 265 6 q151 6 282 19 ZM823 0 q36 0 36 36 l0 176 q0 36 -36 36 l-367 0 q-36 0 -36 -36 l0 -176 q0 -36 36 -36 l367 0 ZM168 829 q10 0 23 -12 q56 -42 105 -97 q7 -13 7 -23 q0 -36 -40 -36 q-11 0 -23 7 q-52 50 -109 96 q-7 18 -7 25 q0 40 44 40 ZM91 561 q11 0 25 -13 q59 -45 111 -103 q9 -15 9 -25 q0 -36 -40 -36 q-13 0 -25 9 q-52 56 -112 107 q-8 15 -8 21 q0 40 40 40 ZM215 288 q37 0 37 -40 q-11 -81 -37 -158 q-26 -79 -68 -153 q-13 -25 -35 -25 q-40 0 -40 36 q0 5 8 17 q49 93 62 138 q24 69 41 162 q6 23 32 23 Z" /><glyph glyph-name="" unicode="&#x83b7;" d="M943 752 q31 0 33 -32 q-2 -29 -33 -31 l-195 0 l0 -45 q-3 -33 -36 -35 q-35 2 -36 35 l0 45 l-340 0 l0 -49 q-2 -33 -37 -35 q-34 2 -36 35 l0 49 l-183 0 q-32 2 -33 31 q1 32 33 32 l183 0 l0 48 q2 35 36 37 q35 -2 37 -37 l0 -48 l340 0 l0 48 q1 35 36 37 q33 -2 36 -37 l0 -48 l195 0 ZM943 424 q37 0 37 -36 q0 -35 -37 -35 l-234 0 q2 -57 16 -103 q15 -54 54 -112 q34 -45 87 -87 q37 -28 98 -59 q19 -11 19 -32 q-2 -37 -36 -39 q-13 0 -32 8 q-73 35 -120 78 q-50 43 -79 88 q-32 52 -44 113 q-12 -71 -43 -131 q-33 -56 -81 -101 q-33 -30 -73 -55 q-20 -13 -32 -13 q-34 2 -35 36 q0 23 19 37 q79 46 118 96 q43 55 67 135 q21 60 23 141 l-183 0 q-36 0 -36 35 q0 36 36 36 l184 0 l0 141 q0 35 36 35 q36 0 36 -35 l0 -141 l235 0 ZM355 573 q13 0 23 -8 q9 -9 9 -25 q0 -7 -3 -19 q-27 -52 -66 -87 q-7 -9 -15 -15 q29 -43 46 -93 q35 -106 35 -214 q0 -56 -29 -112 q-24 -48 -64 -69 q-36 -23 -87 -23 q-37 0 -84 8 q-31 12 -33 36 q2 38 33 40 q63 -11 80 -11 q25 0 49 13 q27 15 45 48 q17 31 17 70 q0 55 -6 100 q-26 -22 -49 -38 q-46 -32 -101 -59 q-35 -18 -52 -18 q-40 0 -40 31 q0 24 21 40 q110 48 165 85 q22 15 41 31 q-1 7 -3 12 q-16 43 -38 80 q-11 -7 -22 -13 q-44 -29 -103 -50 q-12 -8 -25 -8 q-14 0 -25 12 q-11 12 -11 27 q0 15 13 24 q55 20 96 43 q18 11 35 23 q-41 47 -90 76 q-18 12 -18 23 q2 34 40 36 q16 0 42 -18 q45 -35 80 -74 q36 31 58 71 q8 25 36 25 ZM823 584 q11 0 25 -11 q29 -27 55 -61 q8 -14 8 -23 q0 -36 -40 -36 q-12 0 -23 7 q-27 34 -56 65 q-9 14 -9 19 q0 40 40 40 Z" /><glyph glyph-name="" unicode="&#x51fb;" d="M152 260 q35 0 35 -35 l0 -200 q0 -21 17 -21 l267 0 l0 349 l-380 0 q-36 0 -36 35 q0 36 36 36 l380 0 l0 189 l-332 0 q-36 0 -36 36 q0 35 36 35 l332 0 l0 109 q0 36 37 36 q40 0 40 -36 l0 -109 l355 0 q36 0 36 -35 q0 -36 -36 -36 l-355 0 l0 -189 l384 0 q36 0 36 -36 q0 -35 -36 -35 l-384 0 l0 -349 l279 0 q17 0 17 21 l0 208 q0 36 36 36 q35 0 35 -36 l0 -237 q0 -59 -60 -59 l-680 0 q-59 0 -59 59 l0 229 q0 35 36 35 Z" /><glyph glyph-name="" unicode="&#x673a;" d="M380 653 q36 0 36 -36 q0 -36 -36 -36 l-92 0 l0 -49 l132 -223 q11 -21 11 -36 q0 -36 -40 -36 q-20 0 -31 25 l-72 151 l0 -472 q0 -37 -36 -37 q-37 0 -37 37 l0 470 q-1 -6 -3 -12 q-27 -96 -47 -150 q-26 -76 -45 -108 q-14 -29 -36 -29 q-41 0 -41 41 q0 14 12 32 q70 142 99 235 q23 69 41 161 l-96 0 q-36 0 -36 36 q0 36 36 36 l116 0 l0 143 q0 37 37 37 q36 0 36 -37 l0 -143 l92 0 ZM611 793 l132 0 q65 0 65 -65 l0 -703 q0 -44 44 -44 q28 0 37 23 q10 17 10 181 q1 40 37 40 q40 0 40 -44 q0 -115 -9 -168 q-8 -49 -30 -76 q-21 -25 -85 -25 q-121 0 -121 84 l0 693 q0 35 -28 35 l-119 0 q-32 0 -32 -35 l0 -265 q0 -118 -22 -228 q-15 -79 -53 -165 q-26 -60 -53 -98 q-14 -25 -37 -25 q-34 3 -36 40 q0 6 8 23 q32 51 53 97 q32 69 49 148 q18 94 18 208 l0 304 q0 65 65 65 l67 0 Z" /><glyph glyph-name="" unicode="&#x79ef;" d="M403 821 q36 0 36 -40 q0 -29 -44 -36 q-38 -9 -96 -17 l0 -163 l117 0 q36 0 36 -36 q0 -36 -36 -36 l-117 0 l0 -29 l123 -193 q9 -18 9 -31 q0 -36 -40 -36 q-17 0 -26 20 l-66 125 l0 -408 q0 -37 -36 -37 q-36 0 -36 37 l0 387 q-1 -3 -2 -6 q-29 -90 -54 -142 q-29 -72 -51 -104 q-14 -23 -36 -23 q-41 0 -41 40 q0 15 12 31 q79 135 112 224 q24 62 45 145 l-125 0 q-36 0 -36 36 q0 36 36 36 l140 0 l0 155 q-79 -8 -111 -8 q-44 0 -44 40 q0 33 36 33 q76 1 143 8 q82 8 152 28 ZM552 793 l315 0 q76 0 76 -77 l0 -311 q0 -77 -76 -77 l-315 0 q-77 0 -77 77 l0 311 q0 77 77 77 ZM844 401 q27 0 27 27 l0 265 q0 27 -27 27 l-269 0 q-27 0 -27 -27 l0 -265 q0 -27 27 -27 l269 0 ZM584 260 q36 0 36 -35 q0 -21 -17 -44 q-72 -163 -139 -256 q-14 -9 -29 -9 q-36 0 -36 32 q0 14 9 29 q87 121 147 263 q10 20 29 20 ZM787 256 q16 0 28 -16 q86 -115 144 -259 q5 -15 5 -29 q0 -31 -44 -31 q-19 0 -28 27 q-62 162 -132 256 q-8 16 -8 25 q0 27 35 27 Z" /><glyph glyph-name="" unicode="&#x808c;" d="M164 825 l168 0 q63 0 63 -65 l0 -783 q0 -73 -92 -73 q-41 0 -80 12 q-27 10 -27 40 q0 36 31 36 l69 -11 q28 0 28 15 l0 225 l-156 0 q-2 -62 -8 -116 q-8 -92 -25 -172 q-9 -33 -44 -33 q-40 0 -40 37 q0 2 4 17 q22 87 30 168 q14 98 14 214 l0 424 q0 65 65 65 ZM170 288 l154 0 l0 205 l-153 0 l0 -157 q0 -24 -1 -48 ZM171 561 l153 0 l0 172 q0 23 -17 23 l-124 0 q-12 0 -12 -23 l0 -172 ZM620 825 l136 0 q71 0 71 -73 l0 -716 q0 -48 36 -48 q22 0 29 25 q7 16 7 184 q1 40 37 40 q40 0 40 -44 q0 -119 -8 -173 q-6 -50 -28 -78 q-17 -26 -77 -26 q-111 0 -111 88 l0 716 q0 32 -28 32 l-132 0 q-21 0 -21 -19 l0 -468 q0 -126 -26 -209 q-22 -77 -53 -127 q-11 -25 -32 -25 q-38 2 -40 37 q0 6 13 30 q9 18 20 41 q14 37 25 74 q22 84 22 179 l0 487 q0 73 71 73 l49 0 Z" /></font>
</defs>
</svg>
