<?xml version="1.0" standalone="no"?><!DOCTYPE svg PUBLIC "-//W3C//DTD SVG 1.1//EN" "http://www.w3.org/Graphics/SVG/1.1/DTD/svg11.dtd" ><svg xmlns="http://www.w3.org/2000/svg"><metadata></metadata><defs><font id="FontForge 2.0 : AlibabaPuHuiTiB : 26-6-2019" horiz-adv-x="984"><font-face font-family="" font-weight="700" font-stretch="normal" units-per-em="1000" panose-1="2 0 8 3 0 0 0 0 0 0" ascent="1141" descent="-322" x-height="0" bbox="-88 -209 977 823" underline-thickness="50" underline-position="-125" unicode-range="U+0027-ff1f" /><missing-glyph horiz-adv-x="575" d="M80 0 l0 742 l415 0 l0 -742 l-415 0 ZM150 66 l276 0 l0 611 l-276 0 l0 -611 Z" /><glyph glyph-name="quotesingle" unicode="&#39;" d="M71 464 l-27 296 l141 0 l-26 -296 l-88 0 Z" /><glyph glyph-name="parenleft" unicode="(" d="M363 -200 l-146 0 q-160 234 -160 475 q0 246 164 485 l147 0 q-157 -252 -157 -480 q0 -236 152 -480 Z" /><glyph glyph-name="parenright" unicode=")" d="M174 -200 l-146 0 q157 252 157 480 q0 236 -152 480 l146 0 q159 -232 159 -475 q0 -246 -164 -485 Z" /><glyph glyph-name="plus" unicode="+" d="M550 360 l0 -119 l-201 0 l0 -201 l-119 0 l0 201 l-201 0 l0 119 l201 0 l0 200 l119 0 l0 -200 l201 0 Z" /><glyph glyph-name="comma" unicode="," d="M146 -136 l-117 0 q35 63 62 149 q27 86 27 147 l140 0 q0 -60 -35.5 -150.5 q-35.5 -90.5 -76.5 -145.5 Z" /><glyph glyph-name="period" unicode="." d="M237.5 10 q-15.5 -16 -72.5 -16 q-57 0 -72.5 16 q-15.5 16 -15.5 73 q0 58 15 73.5 q15 15.5 73 15.5 q57 0 72.5 -15.5 q15.5 -15.5 15.5 -73.5 q0 -57 -15.5 -73 Z" /><glyph glyph-name="zero" unicode="0" d="M399.5 6 q-43.5 -16 -104.5 -16 q-61 0 -105 16 q-44 16 -78.5 55 q-34.5 39 -52 110.5 q-17.5 71.5 -17.5 176.5 q0 104 17.5 175.5 q17.5 71.5 52.5 110 q35 38.5 78.5 54.5 q43.5 16 104.5 16 q61 0 104.5 -16 q43.5 -16 78 -55 q34.5 -39 51.5 -110 q17 -71 17 -175 q0 -105 -17 -176.5 q-17 -71.5 -51.5 -110.5 q-34.5 -39 -78 -55 ZM211 162.5 q24 -47.5 84 -47.5 q60 0 84 47.5 q24 47.5 24 184.5 q0 136 -24 184.5 q-24 48.5 -84 48.5 q-60 0 -84 -48.5 q-24 -48.5 -24 -184.5 q0 -137 24 -184.5 Z" /><glyph glyph-name="one" unicode="1" d="M266 0 l0 563 l-170 -33 l0 122 l208 42 l109 0 l0 -694 l-147 0 Z" /><glyph glyph-name="two" unicode="2" d="M51 0 l0 130 q185 149 252 222.5 q67 73.5 67 132.5 q0 54 -30.5 76.5 q-30.5 22.5 -90.5 22.5 q-74 0 -156 -26 l0 121 q78 25 184 25 q117 0 180 -49.5 q63 -49.5 63 -147.5 q0 -87 -48 -157.5 q-48 -70.5 -195 -186.5 l-44 -35 l0 -8 l303 0 l0 -120 l-485 0 Z" /><glyph glyph-name="three" unicode="3" d="M225 -10 q-95 0 -157 13 l0 124 q80 -17 149 -17 q71 0 110.5 21 q39.5 21 39.5 76 q0 53 -42 74 q-42 21 -128 21 l-53 0 l0 111 l52 0 q78 0 118.5 20.5 q40.5 20.5 40.5 71.5 q0 45 -32 63 q-32 18 -94 18 q-70 0 -135 -20 l0 117 q61 21 153 21 q124 0 188.5 -44 q64.5 -44 64.5 -146 q0 -113 -111 -149 l0 -6 q63 -13 96 -56 q33 -43 33 -108 q0 -105 -73 -155 q-73 -50 -220 -50 Z" /><glyph glyph-name="four" unicode="4" d="M550 271 l0 -123 l-76 0 l0 -148 l-139 0 l0 148 l-309 0 l0 142 l279 404 l169 0 l0 -423 l76 0 ZM149 271 l186 0 l0 273 l-6 0 l-180 -267 l0 -6 Z" /><glyph glyph-name="five" unicode="5" d="M233 -10 q-82 0 -151 13 l0 124 q77 -17 139 -17 q158 0 158 109 q0 59 -36 83 q-36 24 -119 24 q-61 0 -145 -15 l49 383 l358 0 l0 -123 l-242 0 l-22 -143 q34 7 74 7 q234 0 234 -214 q0 -231 -297 -231 Z" /><glyph glyph-name="six" unicode="6" d="M297 -10 q-251 0 -251 276 q0 210 99 324 q99 114 305 114 l-1 -124 q-231 -4 -254 -173 l3 0 q50 41 134 41 q103 0 157.5 -56.5 q54.5 -56.5 54.5 -164.5 q0 -111 -61.5 -174 q-61.5 -63 -185.5 -63 ZM292 104 q57 0 87 30.5 q30 30.5 30 90.5 q0 57 -28 86.5 q-28 29.5 -80 29.5 q-117 0 -117 -109 q0 -128 108 -128 Z" /><glyph glyph-name="colon" unicode=":" d="M274.5 384.5 q-15.5 -15.5 -72.5 -15.5 q-57 0 -72.5 15.5 q-15.5 15.5 -15.5 73.5 q0 58 15.5 73.5 q15.5 15.5 72.5 15.5 q57 0 72.5 -15.5 q15.5 -15.5 15.5 -73.5 q0 -58 -15.5 -73.5 ZM274.5 10 q-15.5 -16 -72.5 -16 q-57 0 -72.5 16 q-15.5 16 -15.5 73 q0 58 15.5 73.5 q15.5 15.5 72.5 15.5 q57 0 72.5 -15.5 q15.5 -15.5 15.5 -73.5 q0 -57 -15.5 -73 Z" /><glyph glyph-name="equal" unicode="=" d="M29 370 l0 119 l521 0 l0 -119 l-521 0 ZM29 112 l0 119 l521 0 l0 -119 l-521 0 Z" /><glyph glyph-name="greater" unicode="&gt;" d="M29 589 l521 -212 l0 -154 l-521 -212 l0 119 l436 170 l-436 170 l0 119 Z" /><glyph glyph-name="question" unicode="?" d="M136 228 l0 45 q0 42 16 71 q16 29 61 68 q32 26 42.5 45 q10.5 19 10.5 51 q0 44 -22 58.5 q-22 14.5 -84 14.5 q-68 0 -122 -17 l0 124 q61 18 151 18 q127 0 179.5 -37.5 q52.5 -37.5 52.5 -139.5 q0 -68 -19 -104.5 q-19 -36.5 -71 -75.5 q-45 -33 -59 -52.5 q-14 -19.5 -14 -45.5 l0 -23 l-122 0 ZM267.5 9 q-15.5 -15 -69.5 -15 q-54 0 -69.5 15 q-15.5 15 -15.5 69 q0 53 15.5 68 q15.5 15 69.5 15 q53 0 69 -15.5 q16 -15.5 16 -67.5 q0 -54 -15.5 -69 Z" /><glyph glyph-name="A" unicode="a" d="M562 0 l-59 172 l-282 0 l-60 -172 l-158 0 l259 694 l204 0 l257 -694 l-161 0 ZM265 298 l194 0 l-90 263 l-12 0 l-92 -263 Z" /><glyph glyph-name="B" unicode="b" d="M77 0 l0 694 l234 0 q147 0 203 -44.5 q56 -44.5 56 -142.5 q0 -57 -23 -92 q-23 -35 -78 -50 l0 -4 q122 -32 122 -161 q0 -101 -57 -150.5 q-57 -49.5 -202 -49.5 l-255 0 ZM229 408 l51 0 q78 0 109 17 q31 17 31 66 q0 51 -30 66.5 q-30 15.5 -110 15.5 l-51 0 l0 -165 ZM229 122 l70 0 q81 0 109.5 17.5 q28.5 17.5 28.5 70.5 q0 50 -29 69 q-29 19 -109 19 l-70 0 l0 -176 Z" /><glyph glyph-name="C" unicode="c" d="M394 -10 q-81 0 -139 15.5 q-58 15.5 -104.5 53.5 q-46.5 38 -69.5 110 q-23 72 -23 178 q0 192 86 274.5 q86 82.5 249 82.5 q96 0 162 -23 l0 -131 q-69 24 -152 24 q-96 0 -138 -50.5 q-42 -50.5 -42 -175.5 q0 -130 41 -178 q41 -48 137 -48 q87 0 162 27 l0 -130 q-70 -29 -169 -29 Z" /><glyph glyph-name="D" unicode="d" d="M77 694 l238 0 q65 0 114 -8 q49 -8 93 -31 q44 -23 71.5 -61 q27.5 -38 43.5 -100 q16 -62 16 -147 q0 -98 -23.5 -167 q-23.5 -69 -69.5 -107.5 q-46 -38.5 -105.5 -55.5 q-59.5 -17 -139.5 -17 l-238 0 l0 694 ZM229 130 l78 0 q100 0 144.5 47 q44.5 47 44.5 170 q0 128 -44.5 173.5 q-44.5 45.5 -144.5 45.5 l-78 0 l0 -436 Z" /><glyph glyph-name="E" unicode="e" d="M229 132 l286 0 l0 -132 l-438 0 l0 694 l424 0 l0 -132 l-272 0 l0 -143 l252 0 l0 -127 l-252 0 l0 -160 Z" /><glyph glyph-name="F" unicode="f" d="M501 562 l-272 0 l0 -161 l252 0 l0 -131 l-252 0 l0 -270 l-152 0 l0 694 l424 0 l0 -132 Z" /><glyph glyph-name="G" unicode="g" d="M400 -10 q-85 0 -144 15 q-59 15 -106 53.5 q-47 38.5 -69.5 110 q-22.5 71.5 -22.5 178.5 q0 193 88.5 275 q88.5 82 258.5 82 q121 0 187 -25 l0 -133 q-77 28 -175 28 q-103 0 -148 -49.5 q-45 -49.5 -45 -177.5 q0 -135 40.5 -182 q40.5 -47 145.5 -47 q46 0 74 6 l0 150 l-118 0 l0 127 l259 0 l0 -380 q-95 -31 -225 -31 Z" /><glyph glyph-name="H" unicode="h" d="M503 694 l151 0 l0 -694 l-151 0 l0 307 l-274 0 l0 -307 l-152 0 l0 694 l152 0 l0 -260 l274 0 l0 260 Z" /><glyph glyph-name="I" unicode="i" d="M77 0 l0 694 l152 0 l0 -694 l-152 0 Z" /><glyph glyph-name="J" unicode="j" d="M-9 -188 q-41 0 -79 5 l0 120 q33 -5 65 -5 q55 0 78 31 q23 31 23 94 l0 637 l151 0 l0 -644 q0 -119 -62 -178.5 q-62 -59.5 -176 -59.5 Z" /><glyph glyph-name="K" unicode="k" d="M391 372 l263 -372 l-184 0 l-204 304 l-37 0 l0 -304 l-152 0 l0 694 l152 0 l0 -267 l37 0 l200 267 l178 0 l-253 -322 Z" /><glyph glyph-name="L" unicode="l" d="M229 132 l276 0 l0 -132 l-428 0 l0 694 l152 0 l0 -562 Z" /><glyph glyph-name="M" unicode="m" d="M77 0 l0 694 l247 0 l115 -391 l6 0 l120 391 l240 0 l0 -694 l-150 0 l0 546 l-6 0 l-134 -415 l-152 0 l-132 415 l-6 0 l0 -546 l-148 0 Z" /><glyph glyph-name="N" unicode="n" d="M77 0 l0 694 l232 0 l218 -496 l6 0 l0 496 l149 0 l0 -694 l-209 0 l-240 528 l-6 0 l0 -528 l-150 0 Z" /><glyph glyph-name="O" unicode="o" d="M373 -10 q-79 0 -134.5 16.5 q-55.5 16.5 -97.5 56 q-42 39.5 -62.5 110 q-20.5 70.5 -20.5 174.5 q0 104 20.5 174.5 q20.5 70.5 62.5 110 q42 39.5 97.5 56 q55.5 16.5 134.5 16.5 q80 0 136 -16 q56 -16 97.5 -56 q41.5 -40 61.5 -110 q20 -70 20 -175 q0 -105 -20 -175 q-20 -70 -61.5 -110 q-41.5 -40 -97.5 -56 q-56 -16 -136 -16 ZM373 117 q94 0 125 49 q31 49 31 181 q0 131 -31.5 182 q-31.5 51 -124.5 51 q-92 0 -123.5 -51 q-31.5 -51 -31.5 -182 q0 -132 31 -181 q31 -49 124 -49 Z" /><glyph glyph-name="P" unicode="p" d="M77 0 l0 694 l237 0 q153 0 213 -54 q60 -54 60 -182 q0 -135 -62.5 -189.5 q-62.5 -54.5 -210.5 -54.5 l-85 0 l0 -214 l-152 0 ZM229 336 l65 0 q78 0 108 25.5 q30 25.5 30 93.5 q0 67 -30.5 93 q-30.5 26 -107.5 26 l-65 0 l0 -238 Z" /><glyph glyph-name="Q" unicode="q" d="M688 347 q0 -152 -43.5 -232.5 q-43.5 -80.5 -131.5 -106.5 l121 -153 l-179 0 l-87 135 q-78 0 -132.5 16.5 q-54.5 16.5 -96 56.5 q-41.5 40 -61.5 110.5 q-20 70.5 -20 173.5 q0 104 20.5 174.5 q20.5 70.5 62.5 110 q42 39.5 97.5 56 q55.5 16.5 134.5 16.5 q80 0 136 -16 q56 -16 97.5 -56 q41.5 -40 61.5 -110 q20 -70 20 -175 ZM218 347 q0 -132 31 -181 q31 -49 124 -49 q94 0 125 49 q31 49 31 181 q0 131 -31.5 182 q-31.5 51 -124.5 51 q-92 0 -123.5 -51 q-31.5 -51 -31.5 -182 Z" /><glyph glyph-name="R" unicode="r" d="M646 0 l-179 0 l-163 253 l-75 0 l0 -253 l-152 0 l0 694 l236 0 q142 0 205 -50.5 q63 -50.5 63 -169.5 q0 -86 -31.5 -135.5 q-31.5 -49.5 -98.5 -69.5 l195 -269 ZM229 366 l61 0 q79 0 109.5 22 q30.5 22 30.5 86 q0 60 -30 80 q-30 20 -110 20 l-61 0 l0 -208 Z" /><glyph glyph-name="S" unicode="s" d="M257 -10 q-112 0 -202 25 l0 133 q75 -28 196 -28 q69 0 95.5 18 q26.5 18 26.5 65 q0 40 -24 59.5 q-24 19.5 -102 38.5 q-112 26 -151.5 67 q-39.5 41 -39.5 133 q0 107 64.5 155 q64.5 48 189.5 48 q107 0 178 -25 l0 -125 q-77 25 -172 25 q-61 0 -86.5 -15.5 q-25.5 -15.5 -25.5 -58.5 q0 -35 21.5 -51 q21.5 -16 96.5 -34 q122 -29 162 -75.5 q40 -46.5 40 -145.5 q0 -105 -63.5 -157 q-63.5 -52 -203.5 -52 Z" /><glyph glyph-name="T" unicode="t" d="M533 694 l0 -133 l-182 0 l0 -561 l-151 0 l0 561 l-182 0 l0 133 l515 0 Z" /><glyph glyph-name="U" unicode="u" d="M364 -10 q-147 0 -218.5 54 q-71.5 54 -71.5 186 l0 464 l152 0 l0 -447 q0 -66 30 -96.5 q30 -30.5 109 -30.5 q80 0 110 32 q30 32 30 95 l0 447 l151 0 l0 -464 q0 -125 -74 -182.5 q-74 -57.5 -218 -57.5 Z" /><glyph glyph-name="V" unicode="v" d="M252 0 l-239 694 l168 0 l167 -532 l6 0 l173 532 l158 0 l-244 -694 l-189 0 Z" /><glyph glyph-name="W" unicode="w" d="M169 0 l-151 694 l159 0 l100 -513 l6 0 l106 446 l176 0 l100 -446 l6 0 l102 513 l157 0 l-159 -694 l-190 0 l-107 440 l-6 0 l-109 -440 l-190 0 Z" /><glyph glyph-name="Y" unicode="y" d="M255 0 l0 275 l-252 419 l178 0 l149 -277 l6 0 l154 277 l171 0 l-253 -416 l0 -278 l-153 0 Z" /><glyph glyph-name="Z" unicode="z" d="M53 0 l0 136 l342 421 l-1 6 l-322 0 l0 131 l510 0 l0 -131 l-346 -425 l0 -6 l372 0 l0 -132 l-555 0 Z" /><glyph glyph-name="underscore" unicode="_" d="M0 -209 l0 96 l500 0 l0 -96 l-500 0 Z" /><glyph glyph-name="a" unicode="a" d="M299 549 q132 0 187.5 -43 q55.5 -43 55.5 -132 l0 -374 l-130 0 l-14 63 q-18 -32 -63 -52.5 q-45 -20.5 -109 -20.5 q-185 0 -185 165 q0 91 55 130.5 q55 39.5 167 39.5 l134 0 l0 14 q0 50 -23 69.5 q-23 19.5 -92 19.5 q-62 0 -115 -10 l0 123 q66 8 132 8 ZM263 101 q49 0 84 17 q35 17 50 46 l0 63 l-112 0 q-56 0 -78.5 -13.5 q-22.5 -13.5 -22.5 -53.5 q0 -32 18.5 -45.5 q18.5 -13.5 60.5 -13.5 Z" /><glyph glyph-name="b" unicode="b" d="M381 550 q64 0 107 -19 q43 -19 66.5 -57.5 q23.5 -38.5 32.5 -86.5 q9 -48 9 -117 q0 -50 -5.5 -89 q-5.5 -39 -20 -76 q-14.5 -37 -38 -61.5 q-23.5 -24.5 -62 -39 q-38.5 -14.5 -89.5 -14.5 q-73 0 -111 22 q-38 22 -55 64 l-10 -76 l-132 0 l0 760 l145 0 l0 -285 q39 75 163 75 ZM335 100 q68 0 90.5 43.5 q22.5 43.5 22.5 126.5 q0 85 -22.5 128.5 q-22.5 43.5 -90.5 43.5 q-71 0 -98 -42.5 q-27 -42.5 -27 -129.5 q0 -84 27.5 -127 q27.5 -43 97.5 -43 Z" /><glyph glyph-name="c" unicode="c" d="M312 -10 q-134 0 -200.5 62 q-66.5 62 -66.5 218 q0 156 66.5 218 q66.5 62 200.5 62 q88 0 139 -17 l0 -122 q-54 20 -120 20 q-74 0 -105.5 -35 q-31.5 -35 -31.5 -126 q0 -91 32 -125.5 q32 -34.5 108 -34.5 q70 0 122 20 l0 -119 q-50 -21 -144 -21 Z" /><glyph glyph-name="d" unicode="d" d="M424 760 l144 0 l0 -760 l-131 0 l-11 75 q-36 -85 -165 -85 q-124 0 -170 69.5 q-46 69.5 -46 210.5 q0 63 9.5 110 q9.5 47 32.5 87.5 q23 40.5 66.5 61.5 q43.5 21 107.5 21 q128 0 163 -79 l0 289 ZM307 100 q71 0 97.5 41.5 q26.5 41.5 26.5 128.5 q0 84 -27 128 q-27 44 -97 44 q-36 0 -60 -13 q-24 -13 -35 -39.5 q-11 -26.5 -14.5 -53 q-3.5 -26.5 -3.5 -66.5 q0 -86 22 -128 q22 -42 91 -42 Z" /><glyph glyph-name="e" unicode="e" d="M543 313 q0 -50 -5 -75 l-348 -22 q4 -58 39 -85 q35 -27 107 -27 q48 0 99.5 11.5 q51.5 11.5 79.5 26.5 l0 -114 q-26 -15 -83 -26.5 q-57 -11.5 -124 -11.5 q-132 0 -197.5 62 q-65.5 62 -65.5 218 q0 157 66 218.5 q66 61.5 201 61.5 q69 0 115.5 -17 q46.5 -17 71 -50 q24.5 -33 34.5 -73.5 q10 -40.5 10 -96.5 ZM190 317 l221 17 q0 51 -20 79 q-20 28 -79 28 q-65 0 -92.5 -29 q-27.5 -29 -29.5 -95 Z" /><glyph glyph-name="f" unicode="f" d="M329 659 q-54 0 -70.5 -23 q-16.5 -23 -16.5 -96 l106 0 l0 -113 l-106 0 l0 -427 l-145 0 l0 427 l-83 0 l0 113 l83 0 l0 5 q0 68 14 112.5 q14 44.5 44 67.5 q30 23 65.5 31 q35.5 8 89.5 8 q29 0 62 -5 l0 -104 q-17 4 -43 4 Z" /><glyph glyph-name="g" unicode="g" d="M427 540 l144 0 l0 -498 q0 -118 -69 -180 q-69 -62 -230 -62 q-82 0 -154 13 l0 115 q63 -16 143 -16 q90 0 128 30 q38 30 38 106 l0 29 q-18 -38 -56 -57.5 q-38 -19.5 -107 -19.5 q-123 0 -171 70 q-48 70 -48 205 q0 275 219 275 q72 0 109.5 -19.5 q37.5 -19.5 53.5 -59.5 l0 69 ZM307 106 q76 0 101.5 40.5 q25.5 40.5 25.5 128.5 q0 86 -25.5 126.5 q-25.5 40.5 -101.5 40.5 q-36 0 -60 -13 q-24 -13 -35 -38.5 q-11 -25.5 -14.5 -51.5 q-3.5 -26 -3.5 -64 q0 -82 22.5 -125.5 q22.5 -43.5 90.5 -43.5 Z" /><glyph glyph-name="h" unicode="h" d="M387 550 q97 0 138 -44 q41 -44 41 -137 l0 -369 l-145 0 l0 331 q0 56 -18.5 78.5 q-18.5 22.5 -69.5 22.5 q-47 0 -75 -17.5 q-28 -17.5 -40 -60.5 l0 -354 l-145 0 l0 760 l145 0 l0 -286 q43 76 169 76 Z" /><glyph glyph-name="i" unicode="i" d="M143 615 q-50 0 -65.5 13.5 q-15.5 13.5 -15.5 63.5 q0 49 15 62 q15 13 66 13 q51 0 66 -12.5 q15 -12.5 15 -62.5 q0 -50 -15 -63.5 q-15 -13.5 -66 -13.5 ZM70 0 l0 540 l145 0 l0 -540 l-145 0 Z" /><glyph glyph-name="l" unicode="l" d="M229 -6 q-88 0 -122.5 33 q-34.5 33 -34.5 107 l0 626 l145 0 l0 -591 q0 -35 10 -47.5 q10 -12.5 35 -12.5 q17 0 29 3 l0 -112 q-29 -6 -62 -6 Z" /><glyph glyph-name="m" unicode="m" d="M693 550 q92 0 136 -46 q44 -46 44 -146 l0 -358 l-145 0 l0 331 q0 55 -18.5 78 q-18.5 23 -63.5 23 q-45 0 -69 -18.5 q-24 -18.5 -34 -60.5 l0 -353 l-145 0 l0 331 q0 55 -18 78 q-18 23 -62 23 q-45 0 -67 -16.5 q-22 -16.5 -33 -56.5 l0 -359 l-145 0 l0 540 l145 0 l0 -61 q43 71 152 71 q118 0 154 -76 q40 76 169 76 Z" /><glyph glyph-name="n" unicode="n" d="M387 550 q97 0 138 -44 q41 -44 41 -137 l0 -369 l-145 0 l0 331 q0 57 -18 79 q-18 22 -70 22 q-94 0 -115 -74 l0 -358 l-145 0 l0 540 l145 0 l0 -65 q43 75 169 75 Z" /><glyph glyph-name="o" unicode="o" d="M310 -10 q-134 0 -199.5 61.5 q-65.5 61.5 -65.5 218.5 q0 157 65.5 218.5 q65.5 61.5 199.5 61.5 q133 0 198.5 -61.5 q65.5 -61.5 65.5 -218.5 q0 -157 -65.5 -218.5 q-65.5 -61.5 -198.5 -61.5 ZM310 100 q67 0 91.5 35.5 q24.5 35.5 24.5 134.5 q0 98 -25 135 q-25 37 -91 37 q-67 0 -91.5 -37 q-24.5 -37 -24.5 -135 q0 -98 25 -134 q25 -36 91 -36 Z" /><glyph glyph-name="p" unicode="p" d="M381 550 q64 0 107 -19 q43 -19 66.5 -57.5 q23.5 -38.5 32.5 -86.5 q9 -48 9 -117 q0 -50 -5.5 -89 q-5.5 -39 -20 -76 q-14.5 -37 -38 -61.5 q-23.5 -24.5 -62 -39 q-38.5 -14.5 -89.5 -14.5 q-128 0 -163 79 l0 -269 l-145 0 l0 740 l145 0 l0 -65 q39 75 163 75 ZM335 100 q68 0 90.5 43.5 q22.5 43.5 22.5 126.5 q0 85 -22.5 128.5 q-22.5 43.5 -90.5 43.5 q-71 0 -98 -42.5 q-27 -42.5 -27 -129.5 q0 -84 27.5 -127 q27.5 -43 97.5 -43 Z" /><glyph glyph-name="r" unicode="r" d="M375 550 l11 0 l-4 -129 l-14 0 q-129 0 -150 -114 l0 -307 l-145 0 l0 540 l145 0 l0 -97 q38 107 157 107 Z" /><glyph glyph-name="s" unicode="s" d="M221 -6 q-97 0 -171 17 l0 121 q81 -25 163 -25 q49 0 69.5 11.5 q20.5 11.5 20.5 42.5 q0 32 -19 45.5 q-19 13.5 -85 29.5 q-86 20 -114.5 51.5 q-28.5 31.5 -28.5 101.5 q0 79 51 120 q51 41 165 41 q101 0 148 -18 l-6 -111 q-72 20 -137 20 q-49 0 -67 -11 q-18 -11 -18 -39 q0 -25 17 -35 q17 -10 83 -26 q88 -22 118.5 -56 q30.5 -34 30.5 -109 q0 -92 -55.5 -131.5 q-55.5 -39.5 -164.5 -39.5 Z" /><glyph glyph-name="t" unicode="t" d="M341 426 l-112 0 l0 -241 q0 -47 12 -62.5 q12 -15.5 50 -15.5 q28 0 43 4 l0 -112 q-35 -5 -70 -5 q-102 0 -141 37 q-39 37 -39 142 l0 253 l-71 0 l0 114 l71 0 l0 128 l145 0 l0 -128 l112 0 l0 -114 Z" /><glyph glyph-name="u" unicode="u" d="M414 540 l144 0 l0 -540 l-131 0 l-11 65 q-45 -75 -166 -75 q-97 0 -139 44.5 q-42 44.5 -42 135.5 l0 370 l145 0 l0 -331 q0 -55 18.5 -78 q18.5 -23 69.5 -23 q89 0 112 75 l0 357 Z" /><glyph glyph-name="v" unicode="v" d="M200 0 l-195 540 l161 0 l121 -389 l6 0 l126 389 l155 0 l-197 -540 l-177 0 Z" /><glyph glyph-name="w" unicode="w" d="M163 0 l-146 540 l154 0 l85 -390 l6 0 l95 390 l164 0 l95 -390 l6 0 l85 390 l152 0 l-148 -540 l-182 0 l-89 369 l-6 0 l-89 -369 l-182 0 Z" /><glyph glyph-name="y" unicode="y" d="M75 -200 l0 125 q66 0 97 18.5 q31 18.5 43 61.5 l-210 535 l161 0 l127 -385 l6 0 l120 385 l156 0 l-181 -490 q-55 -148 -117.5 -199 q-62.5 -51 -201.5 -51 Z" /><glyph glyph-name="z" unicode="z" d="M50 0 l0 123 l256 295 l0 6 l-237 0 l0 116 l417 0 l0 -116 l-262 -299 l0 -6 l283 0 l0 -119 l-457 0 Z" /><glyph glyph-name="braceleft" unicode="{" d="M328 -95 l0 -105 q-115 0 -169.5 46 q-54.5 46 -54.5 145 l0 165 q0 44 -16 58 q-16 14 -55 14 l0 105 q39 0 55 14 q16 14 16 57 l0 165 q0 100 54.5 145.5 q54.5 45.5 169.5 45.5 l0 -105 q-50 0 -64.5 -16.5 q-14.5 -16.5 -14.5 -69.5 l0 -165 q0 -58 -25 -86 q-25 -28 -76 -38 q51 -10 76 -38 q25 -28 25 -86 l0 -165 q0 -54 15 -70 q15 -16 64 -16 Z" /><glyph glyph-name="braceright" unicode="}" d="M22 -200 l0 105 q49 0 63.5 16.5 q14.5 16.5 14.5 69.5 l0 165 q0 57 25 85.5 q25 28.5 76 38.5 q-51 10 -76 38.5 q-25 28.5 -25 85.5 l0 165 q0 54 -15 70 q-15 16 -63 16 l0 105 q115 0 169.5 -46 q54.5 -46 54.5 -145 l0 -165 q0 -44 16 -58 q16 -14 55 -14 l0 -105 q-39 0 -55 -14 q-16 -14 -16 -57 l0 -165 q0 -100 -54.5 -145.5 q-54.5 -45.5 -169.5 -45.5 Z" /><glyph glyph-name="Identity.1128" unicode="&#xff1a;" d="M337.5 384.5 q-15.5 -15.5 -72.5 -15.5 q-57 0 -72.5 15.5 q-15.5 15.5 -15.5 73.5 q0 58 15.5 73.5 q15.5 15.5 72.5 15.5 q57 0 72.5 -15.5 q15.5 -15.5 15.5 -73.5 q0 -58 -15.5 -73.5 ZM337.5 10 q-15.5 -16 -72.5 -16 q-57 0 -72.5 16 q-15.5 16 -15.5 73 q0 58 15.5 73.5 q15.5 15.5 72.5 15.5 q57 0 72.5 -15.5 q15.5 -15.5 15.5 -73.5 q0 -57 -15.5 -73 Z" /><glyph glyph-name="Identity.1130" unicode="&#xff0c;" d="M230 -136 l-117 0 q35 63 62 149 q27 86 27 147 l140 0 q0 -60 -35.5 -150.5 q-35.5 -90.5 -76.5 -145.5 Z" /><glyph glyph-name="Identity.1138" unicode="&#xff1f;" d="M233 228 l0 45 q0 42 16 71 q16 29 61 68 q32 26 42.5 45 q10.5 19 10.5 51 q0 44 -22 58.5 q-22 14.5 -84 14.5 q-68 0 -122 -17 l0 124 q61 18 151 18 q127 0 179.5 -37.5 q52.5 -37.5 52.5 -139.5 q0 -68 -19 -104.5 q-19 -36.5 -71 -75.5 q-45 -33 -59 -52.5 q-14 -19.5 -14 -45.5 l0 -23 l-122 0 ZM364.5 9 q-15.5 -15 -69.5 -15 q-54 0 -69.5 15 q-15.5 15 -15.5 69 q0 53 15.5 68 q15.5 15 69.5 15 q53 0 69 -15.5 q16 -15.5 16 -67.5 q0 -54 -15.5 -69 Z" /><glyph glyph-name="Identity.1183" unicode="&#xff08;" d="M829 -120 l-146 0 q-150 231 -150 445 q0 222 154 455 l147 0 q-147 -241 -147 -450 q0 -212 142 -450 Z" /><glyph glyph-name="Identity.1184" unicode="&#xff09;" d="M301 -120 l-146 0 q142 238 142 450 q0 209 -147 450 l147 0 q154 -233 154 -455 q0 -214 -150 -445 Z" /><glyph glyph-name="quotedblleft" unicode="&#x201c;" d="M619 482 l-131 0 q0 53 27 136.5 q27 83.5 59 141.5 l101 0 q-56 -166 -56 -278 ZM851 482 l-131 0 q0 53 27 136.5 q27 83.5 59 141.5 l102 0 q-22 -57 -38.5 -137.5 q-16.5 -80.5 -18.5 -140.5 Z" /><glyph glyph-name="quotedblright" unicode="&#x201d;" d="M177 482 l-101 0 q22 62 39 141 q17 79 17 137 l131 0 q0 -53 -27 -136.5 q-27 -83.5 -59 -141.5 ZM410 482 l-102 0 q22 62 39 141 q17 79 17 137 l132 0 q0 -53 -27 -136.5 q-27 -83.5 -59 -141.5 Z" /><glyph glyph-name="Identity.1209" unicode="&#x3001;" d="M435 -60 l-112 -68 q-33 57 -90.5 123 q-57.5 66 -105.5 103 l94 62 q54 -35 112.5 -95.5 q58.5 -60.5 101.5 -124.5 Z" /><glyph glyph-name="Identity.1212" unicode="&#x3002;" d="M357 -82.5 q-41 -35.5 -102 -35.5 q-61 0 -102 35 q-41 35 -41 100 q0 65 41 100 q41 35 102 35 q61 0 102 -35 q41 -35 41 -100 q0 -64 -41 -99.5 ZM211.5 -26 q16.5 -15 43.5 -15 q27 0 43.5 15 q16.5 15 16.5 43 q0 28 -16.5 43 q-16.5 15 -43.5 15 q-27 0 -43.5 -15 q-16.5 -15 -16.5 -43 q0 -28 16.5 -43 Z" /><glyph glyph-name="Identity.8050" unicode="&#x4e00;" d="M926 457 l0 -140 l-870 0 l0 140 l870 0 Z" /><glyph glyph-name="Identity.8059" unicode="&#x4e09;" d="M854 739 l0 -130 l-725 0 l0 130 l725 0 ZM811 427 l0 -126 l-639 0 l0 126 l639 0 ZM921 83 l0 -128 l-859 0 l0 128 l859 0 Z" /><glyph glyph-name="Identity.8060" unicode="&#x4e0a;" d="M535 58 l395 0 l0 -124 l-874 0 l0 124 l347 0 l0 738 l132 -5 l0 -251 l330 0 l0 -123 l-330 0 l0 -359 Z" /><glyph glyph-name="Identity.8061" unicode="&#x4e0b;" d="M913 627 l-378 0 l0 -150 l30 47 q25 -14 54 -31 q29 -17 69 -44 q40 -27 59.5 -40.5 q19.5 -13.5 72.5 -50 q53 -36.5 61 -42.5 l-68 -120 q-171 141 -278 207 l0 -489 l-132 0 l0 713 l-332 0 l0 124 l842 0 l0 -124 Z" /><glyph glyph-name="Identity.8064" unicode="&#x4e0e;" d="M892 559 l-560 0 l-8 -103 l536 0 l-25 -378 q-8 -98 -45.5 -132.5 q-37.5 -34.5 -137.5 -42.5 l-109 -9 l-37 123 l109 8 q56 4 73 18.5 q17 14.5 21 70.5 q2 11 8 106 q6 95 7 108 l-541 0 l33 454 l132 -5 l-7 -95 l551 0 l0 -123 ZM682 243 l0 -123 l-630 0 l0 123 l630 0 Z" /><glyph glyph-name="Identity.8069" unicode="&#x4e13;" d="M915 394 l-518 0 q-29 -64 -31 -67 l465 0 l0 -125 q-78 -59 -180 -147 q114 -37 140 -47 l-35 -127 q-123 49 -288.5 103 q-165.5 54 -275.5 82 l37 115 q203 -58 289 -84 q121 96 140 110 l-444 0 l0 107 q16 28 41 80 l-186 0 l0 119 l234 0 q9 23 25 71 l-201 0 l0 120 l239 0 q13 43 28 101 l129 -23 l-20 -78 l353 0 l0 -120 l-389 0 l-24 -71 l472 0 l0 -119 Z" /><glyph glyph-name="Identity.8086" unicode="&#x4e24;" d="M906 657 l-252 0 q-1 -27 -1 -87 l211 0 l0 -536 q0 -62 -29.5 -85.5 q-29.5 -23.5 -104.5 -29.5 l-57 -5 l-36 116 l64 6 q29 3 37 12 q8 9 8 34 l0 69 l-46 -42 q-24 31 -98 125 q-44 -113 -132 -218 l-97 60 q75 88 113 173 l-58 -59 l-48 60 q-40 -98 -120 -198 l-47 34 l0 -169 l-115 0 l0 653 l211 0 q1 27 1 87 l-256 0 l0 114 l852 0 l0 -114 ZM426 570 l109 0 q0 13 0.5 43 q0.5 30 0.5 44 l-108 0 l-2 -87 ZM213 454 l0 -265 q41 59 61 118 q20 59 28 147 l-89 0 ZM416 384 l85 -98 q26 79 32 168 l-110 0 q-1 -24 -7 -70 ZM746 237 l0 217 l-97 0 q-6 -60 -11 -90 q15 -18 54 -63.5 q39 -45.5 54 -63.5 Z" /><glyph glyph-name="Identity.8087" unicode="&#x4e25;" d="M916 761 l0 -111 l-107 0 l82 -58 q-57 -94 -111 -153 l131 0 l0 -109 l-658 0 l0 -81 q0 -114 -25 -187.5 q-25 -73.5 -94 -169.5 l-114 54 q67 82 91 149.5 q24 67.5 24 183.5 l0 160 l99 0 q-23 35 -59 80.5 q-36 45.5 -56 65.5 l78 65 l-109 0 l0 111 l828 0 ZM346 650 l-122 0 q54 -58 116 -147 l-71 -64 l77 0 l0 211 ZM542 650 l-73 0 l0 -211 l73 0 l0 211 ZM742 439 l-70 58 q71 77 117 153 l-121 0 l0 -211 l74 0 Z" /><glyph glyph-name="Identity.8092" unicode="&#x4e2a;" d="M102 303 l-76 126 q135 79 243 182 q108 103 176 212 l94 0 q161 -240 419 -398 l-76 -124 q-126 82 -228 180 q-102 98 -162 186 q-72 -95 -174 -193.5 q-102 -98.5 -216 -170.5 ZM557 480 l0 -567 l-131 0 l0 572 l131 -5 Z" /><glyph glyph-name="Identity.8095" unicode="&#x4e2d;" d="M881 633 l0 -458 l-320 0 l0 -279 l-131 0 l0 279 l-327 0 l0 458 l327 0 l0 163 l131 -5 l0 -158 l320 0 ZM236 301 l194 0 l0 205 l-194 0 l0 -205 ZM749 301 l0 205 l-188 0 l0 -205 l188 0 Z" /><glyph glyph-name="Identity.8098" unicode="&#x4e30;" d="M916 224 l0 -122 l-362 0 l0 -192 l-127 0 l0 192 l-363 0 l0 122 l363 0 l0 109 l-277 0 l0 121 l277 0 l0 103 l-320 0 l0 123 l320 0 l0 115 l127 -5 l0 -110 l320 0 l0 -123 l-320 0 l0 -103 l276 0 l0 -121 l-276 0 l0 -109 l362 0 Z" /><glyph glyph-name="Identity.8108" unicode="&#x4e3a;" d="M530 597 l355 0 q0 -6 -10.5 -242 q-10.5 -236 -15.5 -301 q-6 -72 -47 -101.5 q-41 -29.5 -135 -39.5 l-72 -8 l-43 127 l78 9 q55 6 71.5 19 q16.5 13 20.5 55 q5 42 11.5 192.5 q6.5 150.5 7.5 161.5 l-237 0 q-11 -68 -26 -117 l71 65 q29 -28 78.5 -81.5 q49.5 -53.5 71.5 -81.5 l-90 -93 q-15 26 -60 78.5 q-45 52.5 -79 86.5 q-40 -126 -117 -226 q-77 -100 -213 -205 l-102 105 q156 113 232.5 217 q76.5 104 103.5 252 l-283 0 l0 128 l153 0 q-53 71 -111 122 l87 77 q26 -22 70.5 -68.5 q44.5 -46.5 64.5 -74.5 l-57 -56 l92 0 l15 193 l129 -5 q0 -28 -14 -188 Z" /><glyph glyph-name="Identity.8122" unicode="&#x4e48;" d="M447 800 l118 -74 q-70 -124 -177 -249.5 q-107 -125.5 -212 -212.5 l-105 93 q105 83 209 205.5 q104 122.5 167 237.5 ZM922 -13 l-113 -79 l-42 78 q-63 -3 -475 -29 q-99 -8 -121 -12 l-33 137 q38 10 94 54 q76 63 205 222 q129 159 209 296 l117 -70 q-86 -139 -211 -287.5 q-125 -148.5 -201 -206.5 q53 5 180.5 13.5 q127.5 8.5 159.5 10.5 q-73 116 -111 167 l106 71 q54 -69 125.5 -180 q71.5 -111 110.5 -185 Z" /><glyph glyph-name="Identity.8189" unicode="&#x4e8b;" d="M925 648 l-380 0 l0 -28 l294 0 l0 -199 l-294 -2 l0 -31 l304 0 l0 -118 l76 0 l0 -88 l-76 0 l0 -124 l-304 0 l0 -42 q0 -67 -24 -89.5 q-24 -22.5 -90 -28.5 l-83 -8 l-35 104 l69 7 q32 4 39.5 13 q7.5 9 7.5 44 l-303 0 l0 89 l303 0 l0 35 l-371 0 l0 88 l371 0 l0 33 l-289 0 l0 85 l289 0 l0 30 l-285 -2 l0 204 l285 0 l0 28 l-373 0 l0 96 l373 0 l0 68 l116 -6 l0 -62 l380 0 l0 -96 ZM264 501 l165 0 l0 37 l-165 0 l0 -37 ZM718 538 l-173 0 l0 -37 l173 0 l0 37 ZM736 303 l-191 0 l0 -33 l191 0 l0 33 ZM736 147 l0 35 l-191 0 l0 -35 l191 0 Z" /><glyph glyph-name="Identity.8190" unicode="&#x4e8c;" d="M827 706 l0 -133 l-672 0 l0 133 l672 0 ZM922 104 l0 -134 l-862 0 l0 134 l862 0 Z" /><glyph glyph-name="Identity.8224" unicode="&#x4eae;" d="M900 727 l0 -96 l-817 0 l0 96 l347 0 l-17 70 l134 6 l16 -76 l337 0 ZM182 596 l621 0 l0 -211 l-621 0 l0 211 ZM683 472 l0 36 l-380 0 l0 -36 l380 0 ZM900 173 l-121 0 l0 87 l-572 0 l0 -86 l-120 0 l0 175 l813 0 l0 -176 ZM817 117 l109 -32 q-6 -66 -9 -81 q-11 -55 -32 -73 q-21 -18 -72 -24 q-22 -2 -78.5 -2 q-56.5 0 -78.5 2 q-49 5 -67.5 30 q-18.5 25 -18.5 79 l0 106 l-180 0 l0 -25 q0 -71 -63.5 -124.5 q-63.5 -53.5 -213.5 -91.5 l-66 112 q97 21 143.5 42.5 q46.5 21.5 63 50 q16.5 28.5 16.5 80.5 l0 54 l421 0 l0 -157 q0 -22 6.5 -30.5 q6.5 -8.5 26.5 -10.5 q19 -1 38 0 q17 2 24 3.5 q7 1.5 13 8 q6 6.5 9 19.5 q6 26 9 64 Z" /><glyph glyph-name="Identity.8242" unicode="&#x4ec0;" d="M256 807 l123 -40 q-29 -87 -72 -182 l0 -672 l-128 0 l0 444 q-34 -51 -71 -99 l-88 112 q68 78 133 200.5 q65 122.5 103 236.5 ZM934 490 l0 -130 l-238 0 l0 -450 l-125 0 l0 450 l-233 0 l0 130 l233 0 l0 303 l125 -5 l0 -298 l238 0 Z" /><glyph glyph-name="Identity.8264" unicode="&#x4ed6;" d="M824 165 l118 -38 q-6 -69 -10 -95 q-10 -66 -40.5 -88.5 q-30.5 -22.5 -112.5 -26.5 q-141 -6 -282 0 q-78 2 -111.5 33 q-33.5 31 -33.5 109 l0 307 l-50 -16 l-24 104 l0 -549 l-118 0 l0 454 q-16 -26 -64 -95 l-75 99 q54 68 119.5 197 q65.5 129 96.5 236 l114 -26 q-25 -81 -73 -193 l0 -109 l74 24 l0 200 l117 -5 l0 -158 l78 25 l0 236 l118 -5 l0 -193 l214 69 q-11 -308 -11 -384 q-4 -55 -29 -80.5 q-25 -25.5 -86 -27.5 l-42 -2 l-34 119 l34 2 q22 2 31 11.5 q9 9.5 11 30.5 q1 26 3 68.5 q2 42.5 3.5 69 q1.5 26.5 1.5 32.5 l-96 -31 l0 -370 l-118 0 l0 331 l-78 -25 l0 -309 q0 -41 10 -51.5 q10 -10.5 57 -12.5 q96 -4 193 0 q54 2 67 12 q13 10 21 47 q7 35 7 74 Z" /><glyph glyph-name="Identity.8279" unicode="&#x4ee5;" d="M567 543 l-99 -74 q-22 52 -67 131.5 q-45 79.5 -81 132.5 l97 63 q36 -50 83.5 -129 q47.5 -79 66.5 -124 ZM943 24 l-90 -104 q-55 73 -163 191 q-78 -104 -275 -216 l-86 103 q101 53 166 106 q65 53 104.5 118.5 q39.5 65.5 58 136.5 q18.5 71 28.5 174 q6 65 6 233 l120 -5 q0 -197 -4 -237 q-12 -185 -51 -292 q88 -92 186 -208 ZM438 354 l73 -106 q-21 -17 -127.5 -107.5 q-106.5 -90.5 -155.5 -131.5 q-40 -33 -68 -61 l-79 103 q17 14 21.5 27.5 q4.5 13.5 4.5 35.5 l0 630 l128 -5 l0 -565 q79 68 203 180 Z" /><glyph glyph-name="Identity.8286" unicode="&#x4eec;" d="M355 733 l81 76 q58 -53 122 -142 l-82 -88 q-15 28 -53.5 76.5 q-38.5 48.5 -67.5 77.5 ZM222 802 l112 -32 q-35 -116 -66 -186 l0 -682 l-117 0 l0 454 q-30 -48 -55 -85 l-79 100 q61 83 119.5 204.5 q58.5 121.5 85.5 226.5 ZM573 754 l326 0 l0 -698 q0 -59 -13 -89 q-13 -30 -38 -41 q-25 -11 -79 -17 l-75 -8 l-41 118 l66 7 q35 4 48 16.5 q13 12.5 13 47.5 l0 544 l-207 0 l0 120 ZM336 -92 l0 695 l122 -5 l0 -690 l-122 0 Z" /><glyph glyph-name="Identity.8297" unicode="&#x4ef7;" d="M555 815 l94 0 q45 -111 129 -205 q84 -94 186 -151 l-72 -109 q-108 73 -176.5 147.5 q-68.5 74.5 -110.5 163.5 q-71 -137 -174 -235 l110 -5 l0 -118 q0 -155 -30.5 -236.5 q-30.5 -81.5 -126.5 -179.5 l-97 79 q87 71 111 135.5 q24 64.5 24 199.5 l0 116 q-21 -21 -79 -67 l-73 98 l0 -542 l-117 0 l0 435 q-33 -48 -57 -81 l-80 105 q66 82 129.5 202.5 q63.5 120.5 91.5 235.5 l116 -35 q-33 -108 -83 -218 l0 -96 q208 151 285 361 ZM666 -86 l0 514 l118 -5 l0 -509 l-118 0 Z" /><glyph glyph-name="Identity.8305" unicode="&#x4eff;" d="M925 548 l-363 0 l-3 -98 l300 0 q0 -58 -19 -386 q-3 -45 -11 -71.5 q-8 -26.5 -28.5 -43 q-20.5 -16.5 -47 -23 q-26.5 -6.5 -74.5 -10.5 l-70 -7 l-38 126 l60 6 q50 4 67.5 16 q17.5 12 21.5 47 q2 21 6.5 108.5 q4.5 87.5 4.5 111.5 l-179 0 q-14 -147 -56 -243 q-42 -96 -135 -194 l-81 69 l0 -51 l-122 0 l0 434 q-41 -58 -56 -77 l-78 97 q60 78 115.5 195 q55.5 117 92.5 241 l128 -34 q-3 -9 -13.5 -39.5 q-10.5 -30.5 -16.5 -46.5 l234 0 l-26 111 l133 6 l25 -117 l229 0 l0 -127 ZM435 466 q1 7 3 82 l-113 0 l0 115 q-23 -60 -45 -108 l0 -564 q49 50 77.5 92.5 q28.5 42.5 44.5 101 q16 58.5 22 116.5 q6 58 11 165 Z" /><glyph glyph-name="Identity.8330" unicode="&#x4f18;" d="M825 188 l115 -35 q-8 -93 -12 -117 q-10 -74 -33 -93.5 q-23 -19.5 -100 -25.5 q-41 -5 -81 0 q-61 4 -90 31.5 q-29 27.5 -29 96.5 l0 346 q-16 -150 -68.5 -262 q-52.5 -112 -167.5 -232 l-79 64 l0 -60 l-121 0 l0 453 q-17 -26 -53 -71 l-78 99 q61 74 122 196 q61 122 84 227 l121 -35 q-29 -95 -75 -202 l0 -562 q102 106 143 204.5 q41 98.5 53 254.5 l-162 0 l0 123 l169 0 l0 203 l126 -5 l-4 -198 l151 0 q-73 91 -107 123 l82 73 q85 -74 128 -137 l-55 -59 l99 0 l0 -123 l-302 0 l-2 -24 l118 -5 l0 -358 q0 -25 6.5 -32.5 q6.5 -7.5 30.5 -9.5 q14 -2 27 0 q19 2 25 9 q6 7 9 32 q4 30 10 111 Z" /><glyph glyph-name="Identity.8366" unicode="&#x4f3c;" d="M230 799 l114 -35 q-33 -111 -67 -193 l0 -668 l-116 0 l0 440 q-54 -80 -55 -81 l-89 110 q61 86 121.5 202.5 q60.5 116.5 91.5 224.5 ZM695 589 l-92 -76 q-58 122 -125 223 l94 59 q72 -99 123 -206 ZM956 8 l-90 -84 q-35 65 -128 186 q-72 -108 -232 -220 l-80 101 q95 64 148.5 113 q53.5 49 88.5 114 q35 65 48 138.5 q13 73.5 18 193.5 q4 93 4 220 l116 -5 q0 -102 -5 -217 q-11 -218 -49 -324 q111 -134 161 -216 ZM596 377 l57 -119 q-9 -5 -70 -58 q-61 -53 -101 -91 q-14 -13 -36 -34.5 q-22 -21.5 -28 -27.5 l-84 92 q20 24 20 53 l0 522 l116 -5 l0 -447 q23 20 72 65.5 q49 45.5 54 49.5 Z" /><glyph glyph-name="Identity.8383" unicode="&#x4f4d;" d="M226 809 l126 -30 q-30 -101 -77 -207 l0 -654 l-119 0 l0 443 q-36 -52 -63 -85 l-83 97 q64 90 125 208.5 q61 118.5 91 227.5 ZM326 658 l216 0 l-23 122 l129 6 l22 -128 l228 0 l0 -121 l-572 0 l0 121 ZM730 54 l198 0 l0 -119 l-625 0 l0 119 l300 0 q37 99 76 239.5 q39 140.5 50 228.5 l121 -38 q-16 -94 -50.5 -217.5 q-34.5 -123.5 -69.5 -212.5 ZM585 132 l-114 -40 q-40 169 -109 389 l116 35 q26 -71 58.5 -188 q32.5 -117 48.5 -196 Z" /><glyph glyph-name="Identity.8389" unicode="&#x4f53;" d="M974 165 l-91 -111 q-83 89 -135.5 170 q-52.5 81 -95.5 179 l0 -237 l133 0 l0 -114 l-133 0 l0 -152 l-121 0 l0 152 l-135 0 l0 107 q-42 -53 -79 -92 l-44 50 l0 -208 l-117 0 l0 432 q-35 -50 -55 -74 l-86 98 q144 183 212 428 l121 -27 q-30 -102 -75 -205 l0 -351 q132 134 212 318 l-164 0 l0 123 l210 0 l0 147 l121 -5 l0 -142 l240 0 l0 -123 l-195 0 q95 -194 277 -363 ZM402 166 l129 0 l0 218 q-51 -116 -129 -218 Z" /><glyph glyph-name="Identity.8398" unicode="&#x4f5c;" d="M912 552 l-276 0 l0 -105 l225 0 l0 -126 l-225 0 l0 -103 l247 0 l0 -127 l-247 0 l0 -187 l-127 0 l0 648 l-2 0 q-57 -106 -142 -215 l-77 69 l0 -494 l-128 0 l0 449 q-26 -38 -60 -82 l-87 90 q157 189 227 429 l118 -39 q-30 -85 -70 -171 l0 -144 q133 166 194 362 l122 -35 q-15 -43 -36 -93 l344 0 l0 -126 Z" /><glyph glyph-name="Identity.8402" unicode="&#x4f60;" d="M406 379 l108 -34 q-45 -187 -154 -364 l-90 49 l0 -125 l-121 0 l0 453 q-17 -25 -55 -75 l-80 89 q150 213 205 429 l122 -29 q-33 -111 -71 -197 l0 -507 q90 147 136 311 ZM382 379 l-102 68 q53 74 100 169.5 q47 95.5 70 181.5 l121 -25 q-16 -50 -31 -86 l381 0 l0 -119 l-84 -148 l-112 41 l65 107 l-302 0 q-49 -103 -106 -189 ZM556 61 l0 452 l120 -5 l0 -492 q0 -61 -24 -83 q-24 -22 -90 -31 l-63 -8 l-45 121 l57 7 q26 3 35.5 11.5 q9.5 8.5 9.5 27.5 ZM693 331 l103 51 q40 -75 88.5 -181 q48.5 -106 65.5 -158 l-106 -60 q-62 189 -151 348 Z" /><glyph glyph-name="Identity.8593" unicode="&#x501f;" d="M213 805 l118 -27 q-31 -112 -66 -200 l0 -671 l-115 0 l0 446 q-2 -3 -16.5 -25 q-14.5 -22 -23.5 -34 l-93 82 q65 93 119 209.5 q54 116.5 77 219.5 ZM780 508 l152 0 l0 -111 l-637 0 l0 111 l129 0 l0 75 l-97 0 l0 110 l97 0 l0 101 l119 -5 l0 -96 l114 0 l0 101 l123 -5 l0 -96 l110 0 l0 -110 l-110 0 l0 -75 ZM543 583 l0 -75 l114 0 l0 75 l-114 0 ZM348 -83 l0 438 l514 0 l0 -438 l-514 0 ZM738 247 l-266 0 l0 -57 l266 0 l0 57 ZM472 22 l266 0 l0 62 l-266 0 l0 -62 Z" /><glyph glyph-name="Identity.8622" unicode="&#x503c;" d="M197 808 l125 -27 q-30 -110 -67 -203 l0 -672 l-117 0 l0 430 q-16 -27 -40 -65 l-79 114 q51 76 100.5 193 q49.5 117 77.5 230 ZM864 38 l69 0 l0 -106 l-650 0 l0 106 l63 0 l0 539 l198 0 l0 47 l-214 0 l0 106 l214 0 l0 63 l122 -5 l0 -58 l229 0 l0 -106 l-229 0 l0 -47 l198 0 l0 -539 ZM744 475 l-277 0 l0 -38 l277 0 l0 38 ZM744 304 l0 37 l-277 0 l0 -37 l277 0 ZM744 209 l-277 0 l0 -38 l277 0 l0 38 ZM467 76 l0 -38 l277 0 l0 38 l-277 0 Z" /><glyph glyph-name="Identity.8652" unicode="&#x505a;" d="M795 178 q62 -98 168 -190 l-77 -99 q-103 93 -156 177 q-57 -82 -161 -180 l-68 92 l-223 0 l0 416 l88 0 l0 128 l-100 0 l0 116 l100 0 l0 152 l113 -4 l0 -148 l95 0 l0 -114 q59 130 79 277 l107 -19 q-10 -64 -27 -129 l192 0 l0 -117 l-49 0 q-20 -228 -81 -358 ZM185 795 l114 -31 q-35 -119 -60 -179 l0 -674 l-110 0 l0 455 q-2 -3 -16.5 -26.5 q-14.5 -23.5 -23.5 -35.5 l-79 88 q128 210 175 403 ZM777 536 l-81 0 q-10 -27 -13 -34 q13 -107 49 -199 q31 87 45 233 ZM479 522 l0 -128 l80 0 l-34 41 q19 27 48 87 l-94 0 ZM564 388 l0 -341 q71 69 108 129 q-32 78 -56 190 l-15 -23 l-37 45 ZM460 94 l0 184 l-81 0 l0 -184 l81 0 Z" /><glyph glyph-name="Identity.8663" unicode="&#x5065;" d="M617 459 l0 40 l-129 0 l0 94 l129 0 l0 38 l-107 0 l0 92 l107 0 l0 67 l104 -4 l0 -63 l157 0 l0 -130 l39 0 l0 -94 l-39 0 l0 -131 l-157 0 l0 -38 l154 0 l0 -91 l-154 0 l0 -36 l178 0 l0 -93 l-178 0 l0 -65 l-104 0 l0 65 l-142 0 l0 93 l142 0 l0 36 l-107 0 l0 91 l107 0 l0 38 l-108 0 l0 91 l108 0 ZM624 23 q155 -5 313 3 l-30 -100 q-143 -5 -292 -1 q-163 5 -243 84 q-22 -37 -77 -113 l-69 59 l0 -52 l-101 0 l0 457 q-26 -48 -41 -72 l-71 92 q47 81 92.5 195 q45.5 114 65.5 214 l108 -20 q-24 -104 -53 -187 l0 -591 q50 61 78 110 q-41 77 -69 197 l91 31 q13 -58 32 -108 q18 55 25 146 l-122 0 l0 102 l106 166 l-84 0 l0 103 l197 0 l0 -104 l-105 -165 l106 0 l0 -106 q-24 -175 -59 -256 q73 -80 202 -84 ZM721 631 l0 -38 l55 0 l0 38 l-55 0 ZM776 459 l0 40 l-55 0 l0 -40 l55 0 Z" /><glyph glyph-name="Identity.8922" unicode="&#x5168;" d="M778 379 l-219 0 l0 -100 l250 0 l0 -120 l-250 0 l0 -112 l332 0 l0 -120 l-797 0 l0 120 l333 0 l0 112 l-250 0 l0 120 l250 0 l0 100 l-214 0 l0 57 q-33 -21 -118 -66 l-71 111 q288 128 423 332 l94 0 q128 -191 418 -329 l-66 -110 q-80 41 -115 64 l0 -59 ZM495 681 q-74 -100 -187 -182 l377 0 q-109 78 -190 182 Z" /><glyph glyph-name="Identity.8925" unicode="&#x516b;" d="M532 778 l130 -6 q4 -202 32 -334 q28 -132 85 -231.5 q57 -99.5 165 -211.5 l-105 -90 q-117 134 -178 245.5 q-61 111.5 -92 257.5 q-31 146 -37 370 ZM152 -95 l-111 88 q104 120 156.5 219.5 q52.5 99.5 78 224 q25.5 124.5 33.5 328.5 l131 -8 q-18 -334 -71 -493.5 q-53 -159.5 -217 -358.5 Z" /><glyph glyph-name="Identity.8951" unicode="&#x5185;" d="M554 671 l324 0 l0 -632 q0 -75 -25.5 -100 q-25.5 -25 -110.5 -33 l-78 -8 l-42 123 l75 8 q35 4 45.5 14.5 q10.5 10.5 10.5 42.5 l0 118 l-64 -85 q-63 84 -191 212 q-59 -109 -210 -227 l-55 64 l0 -264 l-124 0 l0 767 l322 0 l0 119 l123 -5 l0 -114 ZM233 548 l0 -316 q103 72 147 145 q44 73 50 171 l-197 0 ZM542 454 q129 -113 211 -207 l0 301 l-200 0 q-2 -52 -11 -94 Z" /><glyph glyph-name="Identity.9016" unicode="&#x51c6;" d="M717 35 l211 0 l0 -114 l-592 0 l0 453 q-7 -9 -20.5 -29 q-13.5 -20 -21.5 -30 l-92 99 q38 45 69 96 l-82 -46 q-19 47 -60 130.5 q-41 83.5 -62 119.5 l106 57 q62 -100 121 -224 q69 124 103 260 l125 -21 q-14 -59 -37 -122 l129 0 l-22 116 l119 6 l20 -122 l170 0 l0 -113 l-184 0 l0 -98 l165 0 l0 -107 l-165 0 l0 -103 l165 0 l0 -111 l-165 0 l0 -97 ZM596 453 l0 98 l-139 0 l0 -98 l139 0 ZM596 243 l0 103 l-139 0 l0 -103 l139 0 ZM173 343 l64 -22 l55 -18 q-67 -242 -121 -367 l-126 42 q76 181 128 365 ZM457 132 l0 -97 l139 0 l0 97 l-139 0 Z" /><glyph glyph-name="Identity.9025" unicode="&#x51cf;" d="M865 150 l88 -36 q-5 -54 -18 -106 q-26 -104 -103 -104 q-39 0 -68 24 q-29 24 -59 94 l-6 15 q-52 -60 -131 -127 l-82 83 l58 44 l-145 0 l0 321 l201 0 l0 -272 q37 37 62 70 q-37 152 -55 412 l-236 0 l0 -291 q0 -222 -81 -386 l-105 42 q86 154 86 344 l0 405 l329 0 l-6 116 l110 -5 l6 -111 l73 0 q-8 10 -17.5 20 q-9.5 10 -19.5 21.5 q-10 11.5 -16 17.5 l65 57 q41 -41 86 -93 l-24 -23 l42 0 l0 -114 l-182 0 q11 -168 26 -270 q34 87 56 206 l96 -23 q-37 -204 -120 -338 q11 -35 28 -77 q16 -36 29 -36 q14 0 22 47 q8 44 11 73 ZM258 504 l-110 -39 q-26 108 -96 262 l102 39 q23 -41 55.5 -122.5 q32.5 -81.5 48.5 -139.5 ZM600 510 l0 -108 l-198 0 l0 108 l198 0 ZM134 388 l112 -22 q-21 -110 -54 -232 q-33 -122 -53 -166 l-116 38 q75 186 111 382 ZM519 136 l0 115 l-41 0 l0 -115 l41 0 Z" /><glyph glyph-name="Identity.9068" unicode="&#x51fa;" d="M754 303 l127 -5 l0 -376 l-774 0 l0 379 l126 -5 l0 -251 l199 0 l0 301 l-291 0 l0 366 l123 -5 l0 -237 l168 0 l0 329 l121 -5 l0 -324 l168 0 l0 242 l123 -5 l0 -361 l-291 0 l0 -301 l201 0 l0 258 Z" /><glyph glyph-name="Identity.9069" unicode="&#x51fb;" d="M926 316 l-374 0 l0 -270 l173 0 l0 212 l123 -4 l0 -329 l-711 0 l0 332 l123 -4 l0 -207 l172 0 l0 270 l-374 0 l0 123 l374 0 l0 114 l-302 0 l0 123 l302 0 l0 123 l120 -6 l0 -117 l303 0 l0 -123 l-303 0 l0 -114 l374 0 l0 -123 Z" /><glyph glyph-name="Identity.9080" unicode="&#x5206;" d="M957 430 l-73 -108 q-48 32 -112 81 q-3 -38 -14 -162.5 q-11 -124.5 -14 -163.5 q-10 -100 -36.5 -128 q-26.5 -28 -110.5 -34 l-83 -6 l-36 122 l71 4 q41 2 52 13.5 q11 11.5 17 52.5 q2 23 10 113 q8 90 10 102 l-207 0 l-3 -31 q-10 -96 -35.5 -159.5 q-25.5 -63.5 -84 -121.5 q-58.5 -58 -164.5 -122 l-88 104 q72 36 116.5 67.5 q44.5 31.5 70.5 68.5 q26 37 37.5 72.5 q11.5 35.5 19.5 91.5 l3 30 l-107 0 l0 82 q-44 -38 -86 -70 l-77 101 q102 73 184 167.5 q82 94.5 128 196.5 l117 -47 q-75 -170 -219 -306 l484 0 q-139 123 -213 319 l113 49 q45 -122 124 -211 q79 -89 206 -167 Z" /><glyph glyph-name="Identity.9081" unicode="&#x5207;" d="M401 743 l504 0 q0 -19 -11.5 -336.5 q-11.5 -317.5 -11.5 -335.5 q-4 -78 -39.5 -111.5 q-35.5 -33.5 -113.5 -42.5 l-87 -10 l-42 130 l78 10 q44 6 60 20 q16 14 18 54 q3 38 9.5 242.5 q6.5 204.5 6.5 247.5 l-141 0 l-4 -124 q-10 -230 -57 -349 q-47 -119 -183 -257 l-107 91 q91 83 129 133 q-23 -14 -80.5 -51 q-57.5 -37 -70.5 -45 q-25 -14 -50 -32 l-74 108 q20 16 25 31.5 q5 15.5 5 40.5 l0 254 l-109 -14 l-12 131 l121 15 l0 250 l124 -5 l0 -229 l139 18 l4 -131 l-143 -19 l0 -249 q4 3 120 79 l26 -114 q34 58 47.5 134 q13.5 76 19.5 220 q0 8 0.5 30.5 q0.5 22.5 1.5 44 q1 21.5 2 39.5 l-104 0 l0 132 Z" /><glyph glyph-name="Identity.9092" unicode="&#x5212;" d="M446 90 q6 26 14 94 l99 -47 q-13 -83 -21 -112 q-18 -68 -47.5 -98 q-29.5 -30 -75.5 -30 q-39 0 -71.5 24.5 q-32.5 24.5 -67.5 87.5 q-16 24 -31 61 q-55 -45 -145 -101 l-73 103 q99 55 179 121 q-24 101 -36 243 l-107 -18 l-16 118 l115 19 l-2 45 l-8 189 l121 -5 q0 -4 1 -35.5 q1 -31.5 3 -73.5 q2 -42 4 -87 q0 -9 1 -12 l120 20 q-43 50 -111 118 l66 67 q41 -33 126 -120 l-48 -59 l96 16 l16 -118 l-258 -44 q8 -98 19 -164 q69 80 113 175 l97 -62 q-81 -153 -179 -251 q18 -51 41 -84 q26 -37 41 -37 q8 0 13 12 q5 12 12 45 ZM769 788 l116 -5 l0 -741 q0 -85 -22 -110.5 q-22 -25.5 -105 -31.5 l-65 -5 l-35 119 l57 4 q37 2 45.5 13 q8.5 11 8.5 58 l0 699 ZM698 697 l0 -568 l-115 0 l0 573 l115 -5 Z" /><glyph glyph-name="Identity.9101" unicode="&#x521b;" d="M300 250 l64 6 q28 3 36 14 q8 11 9 43 l0 77 l-153 0 l0 -324 q0 -19 6 -27.5 q6 -8.5 25 -11.5 q61 -9 131 0 q25 4 33 12.5 q8 8.5 11 30.5 q4 28 6 51 q1 7 1 22 l116 -36 l-3 -30 q-1 -9 -4 -32 q-3 -23 -5 -37 q-8 -47 -30.5 -66 q-22.5 -19 -61.5 -23 q-143 -15 -261 0 q-83 10 -83 121 l0 398 l-39 -30 l-72 94 q85 59 160 147 q75 88 117 169 l108 -52 l-20 -39 q166 -135 210 -179 l-63 -95 l-18 20 l-1 -83 q0 -95 -5 -130 q-6 -61 -32 -87 q-26 -26 -92 -32 l-57 -5 l-33 114 ZM774 795 l116 -4 l0 -733 q0 -88 -22.5 -115.5 q-22.5 -27.5 -107.5 -35.5 l-82 -7 l-42 124 l76 6 q41 4 51.5 17.5 q10.5 13.5 10.5 62.5 l0 685 ZM715 708 l0 -554 l-113 0 l0 559 l113 -5 ZM215 505 l273 0 q-59 57 -153 135 q-53 -70 -120 -135 Z" /><glyph glyph-name="Identity.9117" unicode="&#x522b;" d="M760 782 l116 -5 l0 -745 q0 -69 -30 -97 q-30 -28 -111 -34 l-72 -6 l-37 121 l79 6 q33 2 44 12 q11 10 11 40 l0 708 ZM520 431 l-209 0 q0 -26 -2 -80 l220 0 q0 -32 -4 -150 q-4 -118 -7 -145 q-4 -73 -39 -101.5 q-35 -28.5 -120 -34.5 l-51 -4 l-36 112 l46 4 q55 4 70.5 16 q15.5 12 15.5 56 q0 13 2.5 68 q2.5 55 2.5 64 l-109 0 q-13 -110 -50.5 -179.5 q-37.5 -69.5 -122.5 -163.5 l-98 78 q75 65 109 122 q34 57 46 143 l-109 0 l0 115 l118 0 q0 9 1 26 q1 17 1.5 30 q0.5 13 0.5 24 l-94 0 l0 340 l418 0 l0 -340 ZM694 698 l0 -557 l-115 0 l0 562 l115 -5 ZM220 660 l0 -115 l181 0 l0 115 l-181 0 Z" /><glyph glyph-name="Identity.9122" unicode="&#x5230;" d="M769 781 l119 -5 l0 -748 q0 -70 -29 -95 q-29 -25 -108 -34 l-64 -7 l-39 120 l66 6 q33 3 44 12.5 q11 9.5 11 38.5 l0 712 ZM355 559 l82 58 q84 -104 145 -210 l-87 -70 q-21 39 -26 50 q-36 -3 -162.5 -10 q-126.5 -7 -162.5 -10 l-37 -3 l-27 108 q14 6 25 17 q44 50 105 150 l-131 0 l0 119 l475 0 l0 -119 l-211 0 q-78 -127 -112 -156 q28 2 173 9 q-40 57 -49 67 ZM705 699 l0 -577 l-118 0 l0 582 l118 -5 ZM566 102 l1 -52 l1 -62 q-40 -7 -257.5 -29 q-217.5 -22 -239.5 -25 l-14 121 q11 1 39.5 3.5 q28.5 2.5 76 6 q47.5 3.5 86.5 6.5 l0 100 l-164 0 l0 117 l164 0 l0 78 l120 -3 l0 -75 l162 0 l0 -117 l-162 0 l0 -89 q152 15 187 20 Z" /><glyph glyph-name="Identity.9128" unicode="&#x5236;" d="M398 562 l0 -72 l184 0 l0 -114 l-184 0 l0 -57 l174 0 l0 -265 q0 -52 -20 -73 q-20 -21 -65 -27 l-50 -6 l-34 110 l35 6 q15 2 21 9 q6 7 6 25 l0 107 l-67 0 l0 -313 l-117 0 l0 313 l-74 0 l0 -254 l-107 0 l0 368 l181 0 l0 57 l-223 0 l0 114 l77 0 l-75 26 q58 128 79 243 l111 -18 q-15 -62 -16 -66 l47 0 l0 112 l117 -5 l0 -107 l163 0 l0 -113 l-163 0 ZM787 774 l116 -5 l0 -736 q0 -78 -22.5 -103.5 q-22.5 -25.5 -99.5 -33.5 l-66 -8 l-40 116 l66 8 q28 4 37 16.5 q9 12.5 9 44.5 l0 701 ZM731 691 l0 -578 l-114 0 l0 583 l114 -5 ZM169 490 l112 0 l0 72 l-82 0 q-13 -40 -30 -72 Z" /><glyph glyph-name="Identity.9151" unicode="&#x524d;" d="M700 690 l216 0 l0 -114 l-856 0 l0 114 l206 0 l-32 93 l138 10 l28 -103 l167 0 l35 103 l136 -10 l-38 -93 ZM734 87 l0 454 l120 -5 l0 -505 q0 -75 -26 -103.5 q-26 -28.5 -101 -34.5 l-66 -6 l-41 123 l53 5 q39 4 50 17 q11 13 11 55 ZM118 -102 l0 637 l379 0 l0 -518 q0 -66 -23 -90.5 q-23 -24.5 -89 -30.5 l-61 -5 l-35 111 l50 5 q26 2 33 15 q7 13 7 53 l0 22 l-141 0 l0 -199 l-120 0 ZM661 497 l0 -413 l-112 0 l0 418 l112 -5 ZM379 421 l-141 0 l0 -53 l141 0 l0 53 ZM238 206 l141 0 l0 53 l-141 0 l0 -53 Z" /><glyph glyph-name="Identity.9188" unicode="&#x5272;" d="M179 627 l0 -49 l-107 0 l0 143 l198 0 l-17 70 l123 5 l16 -75 l201 0 l0 -143 l-102 0 l0 49 l-312 0 ZM774 784 l115 -6 l0 -738 q0 -72 -24 -101 q-24 -29 -98 -37 l-62 -6 l-38 115 l58 7 q32 4 40.5 13 q8.5 9 8.5 41 l0 712 ZM727 686 l0 -566 l-102 0 l0 572 l102 -6 ZM391 350 l0 -34 l207 0 l0 -86 l-207 0 l0 -38 l163 0 l0 -263 l-436 0 l0 263 l162 0 l0 38 l-215 0 l0 86 l215 0 l0 34 l-157 0 l0 85 l157 0 l0 35 l-173 0 l0 84 l173 0 l0 49 l111 -6 l0 -43 l175 0 l0 -84 l-175 0 l0 -35 l158 0 l0 -85 l-158 0 ZM441 29 l0 69 l-211 0 l0 -69 l211 0 Z" /><glyph glyph-name="Identity.9229" unicode="&#x529b;" d="M482 634 l397 0 q0 -35 -24 -563 q-6 -85 -44 -117.5 q-38 -32.5 -134 -40.5 l-126 -10 l-42 131 l121 10 q63 6 79 20 q16 14 20 70 q3 42 9 183 q6 141 6 183 l-268 0 q-10 -158 -41.5 -256 q-31.5 -98 -99 -177 q-67.5 -79 -197.5 -172 l-105 97 q91 62 143 107 q52 45 91.5 103.5 q39.5 58.5 56.5 126.5 q17 68 25 171 l-253 0 l0 134 l259 0 q1 28 2.5 88 q1.5 60 3.5 80 l126 -5 q0 -56 -5 -163 Z" /><glyph glyph-name="Identity.9235" unicode="&#x52a1;" d="M631 479 q121 -39 315 -69 l-39 -118 q-256 48 -408 119 q-169 -75 -408 -131 l-45 119 q181 34 328 85 q-50 35 -104 84 q-69 -62 -129 -103 l-71 92 q175 128 256 248 l121 -29 q-25 -36 -33 -47 l424 0 l0 -101 q-114 -95 -207 -149 ZM655 627 l-286 0 q56 -54 129 -93 q92 43 157 93 ZM376 353 l128 -6 q-1 -4 -11 -76 l339 0 q-17 -166 -23 -216 q-12 -91 -38 -116.5 q-26 -25.5 -107 -31.5 l-81 -6 l-40 113 l80 6 q34 2 45.5 15 q11.5 13 17.5 55 q3 19 10 72 l-227 0 q-30 -91 -103 -151 q-73 -60 -223 -126 l-70 104 q114 38 174 77.5 q60 39.5 88 95.5 l-188 0 l0 109 l218 0 q9 44 11 82 Z" /><glyph glyph-name="Identity.9242" unicode="&#x52a8;" d="M690 636 l204 0 l-18 -602 q-4 -62 -30.5 -85.5 q-26.5 -23.5 -89.5 -29.5 l-86 -9 l-37 120 l79 8 q23 3 32.5 14.5 q9.5 11.5 11.5 47.5 q7 120 16 414 l-85 0 q0 -4 -0.5 -13 q-0.5 -9 -0.5 -14 q-1 -28 -2 -101 q-1 -73 -3 -105 q-2 -32 -11.5 -94 q-9.5 -62 -26.5 -103.5 q-17 -41.5 -50 -96.5 q-33 -55 -80 -106 l-108 67 q41 42 70 79 l-60 -31 l-14 40 q-59 -11 -161 -27 q-102 -16 -104 -16 q-6 -2 -16.5 -4 q-10.5 -2 -16.5 -3 l-34 122 q6 3 10.5 5.5 q4.5 2.5 8 5.5 q3.5 3 6 5.5 q2.5 2.5 5 6.5 q2.5 4 3.5 6 q1 2 3.5 6.5 q2.5 4.5 3.5 6.5 q54 93 90 227 l-126 0 l0 123 l409 0 l0 -123 l-158 0 q-43 -141 -96 -251 q98 16 131 24 q-22 63 -48 125 l107 46 q27 -58 95 -232 q11 22 19.5 44 q8.5 22 14 51 q5.5 29 8.5 46.5 q3 17.5 5.5 57 q2.5 39.5 3 55 q0.5 15.5 2 67 q1.5 51.5 1.5 68.5 q0 5 0.5 16.5 q0.5 11.5 0.5 19.5 l-88 0 l0 122 l90 0 l2 157 l120 -6 l0 -43 q0 -22 -2 -108 ZM452 743 l0 -120 l-336 0 l0 120 l336 0 Z" /><glyph glyph-name="Identity.9243" unicode="&#x52a9;" d="M691 641 l207 0 l-3 -120 l-3 -170 q-7 -236 -11 -301 q-4 -61 -30.5 -86.5 q-26.5 -25.5 -87.5 -31.5 l-95 -9 l-34 123 l83 8 q22 2 30.5 15.5 q8.5 13.5 11.5 52.5 q5 71 14 399 l-85 0 q-1 -7 -1 -22 q-2 -57 -3 -78 q-1 -21 -4 -72 q-3 -51 -7.5 -74 q-4.5 -23 -13 -67.5 q-8.5 -44.5 -19.5 -70 q-11 -25.5 -28.5 -64 q-17.5 -38.5 -39.5 -67.5 q-22 -29 -52 -62.5 q-30 -33.5 -66 -65.5 l-79 77 q44 40 77 82 q-308 -60 -392 -71 l-14 130 q17 1 69 8 l0 655 l347 0 l0 -598 q36 7 39 8 l3 -54 q36 70 48 150.5 q12 80.5 16 224.5 q0 4 0.5 14.5 q0.5 10.5 0.5 16.5 l-74 0 l0 120 l77 0 l2 156 l119 -6 l0 -41 q0 -19 -2 -109 ZM344 642 l-114 0 l0 -95 l114 0 l0 95 ZM344 347 l0 88 l-114 0 l0 -88 l114 0 ZM230 235 l0 -114 l114 18 l0 96 l-114 0 Z" /><glyph glyph-name="Identity.9352" unicode="&#x5316;" d="M824 225 l116 -39 q0 -80 -12 -139 q-12 -71 -43.5 -97 q-31.5 -26 -111.5 -32 q-77 -5 -155 0 q-84 6 -115.5 35 q-31.5 29 -31.5 113 l0 135 q-64 -43 -114 -74 l-49 91 l0 -316 l-127 0 l0 445 q-38 -51 -83 -105 l-72 99 q75 89 145.5 218.5 q70.5 129.5 109.5 245.5 l119 -38 q-39 -121 -92 -218 l0 -296 q100 63 163 110 l0 427 l129 -5 l0 -319 q118 104 215 218 l96 -96 q-143 -161 -311 -292 l0 -200 q0 -30 9 -40 q9 -10 38 -13 q54 -5 104 0 q33 2 45 12 q12 10 18 38 q10 58 10 132 Z" /><glyph glyph-name="Identity.9362" unicode="&#x5320;" d="M241 40 l673 0 l0 -123 l-796 0 l0 856 l792 0 l0 -113 l-669 0 l0 -620 ZM737 67 l-124 0 l0 236 l-160 0 q-4 -89 -24 -140 q-20 -51 -78 -120 l-101 73 q57 68 69 111 q12 43 12 168 l0 187 q252 13 468 64 l29 -111 q-203 -47 -374 -59 l0 -58 l458 0 l0 -115 l-175 0 l0 -236 Z" /><glyph glyph-name="Identity.9388" unicode="&#x533a;" d="M772 52 l138 0 l0 -124 l-798 0 l0 832 l780 0 l0 -124 l-157 0 l93 -69 q-90 -128 -169 -214 q132 -131 201 -206 l-88 -95 ZM349 636 l-104 0 l0 -472 q126 83 232 187 q-121 121 -212 196 l84 89 ZM566 444 q82 91 149 192 l-357 0 q97 -87 208 -192 ZM245 155 l0 -103 l515 0 q-50 61 -191 208 q-119 -115 -248 -202 l-76 97 Z" /><glyph glyph-name="Identity.9389" unicode="&#x533b;" d="M828 44 l96 0 l0 -116 l-811 0 l0 836 l790 0 l0 -116 l-458 0 l50 -21 q-6 -19 -18 -44 l368 0 l0 -107 l-211 0 q0 -33 -2 -79 l269 0 l0 -113 l-282 0 l-2 -8 q163 -81 260 -144 l-49 -88 ZM231 648 l0 -604 l70 0 l-48 86 q105 34 161 69.5 q56 35.5 79 84.5 l-239 0 l0 113 l65 0 l-67 48 q89 98 131 203 l-152 0 ZM516 476 l-97 0 q-20 -32 -57 -79 l152 0 l2 79 ZM376 44 l411 0 q-125 79 -218 132 q-57 -73 -193 -132 Z" /><glyph glyph-name="Identity.9401" unicode="&#x5347;" d="M930 464 l0 -125 l-184 0 l0 -419 l-132 0 l0 419 l-216 0 q-6 -157 -56.5 -251.5 q-50.5 -94.5 -180.5 -196.5 l-103 96 q129 93 165.5 158 q36.5 65 40.5 194 l-203 0 l0 125 l204 0 l0 156 l-147 -22 l-24 119 q248 29 448 79 l28 -118 q-74 -19 -170 -35 l0 -179 l214 0 l0 332 l132 -5 l0 -327 l184 0 Z" /><glyph glyph-name="Identity.9415" unicode="&#x5355;" d="M914 169 l0 -115 l-360 0 l0 -146 l-122 0 l0 146 l-363 0 l0 115 l363 0 l0 57 l-288 0 l0 458 l139 0 l-36 103 l137 10 l31 -113 l155 0 l38 112 l134 -10 l-41 -102 l140 0 l0 -458 l-287 0 l0 -57 l360 0 ZM432 574 l-167 0 l0 -68 l167 0 l0 68 ZM719 506 l0 68 l-165 0 l0 -68 l165 0 ZM265 335 l167 0 l0 63 l-167 0 l0 -63 ZM554 335 l165 0 l0 63 l-165 0 l0 -63 Z" /><glyph glyph-name="Identity.9534" unicode="&#x53cc;" d="M461 128 l-97 -83 q-27 55 -60 117 q-71 -116 -185 -249 l-101 91 q136 153 212 292 q-85 145 -152 242 l96 66 q30 -44 115 -181 q37 97 54 201 l-262 0 l0 127 l380 0 l0 -127 q-30 -200 -90 -336 q15 -25 30.5 -53 q15.5 -28 33 -60 q17.5 -32 26.5 -47 ZM750 203 q79 -113 218 -209 l-87 -106 q-120 92 -206 208 q-93 -114 -248 -215 l-95 106 q176 105 273 227 q-81 160 -110 384 l112 20 q24 -173 72 -285 q56 118 85 293 l-279 0 l0 125 l401 0 l0 -125 q-41 -259 -136 -423 Z" /><glyph glyph-name="Identity.9544" unicode="&#x53d6;" d="M537 87 l-67 -11 l0 -175 l-113 0 l0 154 q-162 -28 -304 -57 l-9 121 q6 0 17 2 q11 2 29.5 4.5 q18.5 2.5 32.5 4.5 l0 525 l-44 0 l0 116 l433 0 l0 -116 l-42 0 l0 -465 l61 11 l2 -46 l4 -68 ZM780 194 q60 -84 182 -183 l-79 -102 q-115 97 -172 174 q-62 -85 -158 -175 l-83 93 q110 93 174 186 q-69 131 -104 383 l107 17 q23 -173 66 -275 q48 108 78 294 l-257 0 l0 121 l365 0 l0 -121 q-23 -136 -49.5 -233 q-26.5 -97 -69.5 -179 ZM357 655 l-121 0 l0 -92 l121 0 l0 92 ZM236 451 l0 -89 l121 0 l0 89 l-121 0 ZM236 149 l121 21 l0 80 l-121 0 l0 -101 Z" /><glyph glyph-name="Identity.9546" unicode="&#x53d8;" d="M341 370 l0 226 l-252 0 l0 112 l341 0 l-21 91 l132 6 l21 -97 l334 0 l0 -112 l-252 0 l0 -226 l-117 0 l0 226 l-69 0 l0 -226 l-117 0 ZM662 496 l73 90 q162 -118 203 -153 l-65 -104 q-99 96 -211 167 ZM245 583 l80 -77 q-70 -81 -219 -184 l-68 98 q142 81 207 163 ZM804 344 l0 -104 q-85 -111 -182 -174 q87 -26 315 -65 l-47 -121 q-276 58 -405 113 q-146 -63 -391 -117 l-50 118 q182 30 305 73 q-74 52 -139 129 l69 41 l-136 0 l0 107 l661 0 ZM644 237 l-310 0 q69 -72 147 -115 q101 51 163 115 Z" /><glyph glyph-name="Identity.9557" unicode="&#x53e3;" d="M127 727 l732 0 l0 -775 l-732 0 l0 775 ZM256 85 l474 0 l0 507 l-474 0 l0 -507 Z" /><glyph glyph-name="Identity.9569" unicode="&#x53ef;" d="M925 754 l0 -119 l-110 0 l0 -576 q0 -91 -24.5 -119 q-24.5 -28 -116.5 -36 l-82 -8 l-38 121 l77 7 q42 4 50 15 q8 11 8 58 l0 538 l-628 0 l0 119 l864 0 ZM576 538 l0 -445 l-422 0 l0 445 l422 0 ZM457 214 l0 206 l-184 0 l0 -206 l184 0 Z" /><glyph glyph-name="Identity.9570" unicode="&#x53f0;" d="M567 648 l81 71 q53 -49 135 -133.5 q82 -84.5 131 -143.5 l-82 -84 l-51 60 q-524 -17 -629 -24 q-34 -3 -41 -4 l-32 126 q54 10 80 30 q43 29 121 114.5 q78 85.5 118 150.5 l118 -54 q-54 -72 -114.5 -141 q-60.5 -69 -90.5 -90 q207 6 363 13 q-75 80 -107 109 ZM152 -78 l0 414 l677 0 l0 -414 l-677 0 ZM279 214 l0 -170 l424 0 l0 170 l-424 0 Z" /><glyph glyph-name="Identity.9594" unicode="&#x5408;" d="M447 818 l92 0 q73 -113 176.5 -191.5 q103.5 -78.5 245.5 -144.5 l-68 -117 q-79 39 -170 102 l0 -72 l-468 0 l0 62 q-67 -49 -162 -98 l-67 119 q283 133 421 340 ZM328 512 l336 0 q-105 86 -171 177 q-74 -101 -165 -177 ZM177 -76 l0 398 l631 0 l0 -398 l-631 0 ZM308 210 l0 -168 l372 0 l0 168 l-372 0 Z" /><glyph glyph-name="Identity.9598" unicode="&#x540c;" d="M886 761 l0 -722 q0 -76 -24 -102.5 q-24 -26.5 -90 -32.5 l-86 -9 l-39 113 l67 7 q30 3 39 14 q9 11 9 42 l0 573 l-546 0 l0 -742 l-123 0 l0 859 l793 0 ZM723 574 l0 -110 l-474 0 l0 110 l474 0 ZM687 403 l0 -351 l-403 0 l0 351 l403 0 ZM397 159 l177 0 l0 135 l-177 0 l0 -135 Z" /><glyph glyph-name="Identity.9599" unicode="&#x540d;" d="M869 716 l0 -118 q-138 -152 -337 -262 l327 0 l0 -413 l-634 0 l0 277 q-60 -22 -139 -46 l-58 109 q196 55 361 133 q-60 56 -115 96 q-59 -46 -115 -84 l-77 103 q90 55 181 137.5 q91 82.5 145 155.5 l129 -24 q-4 -6 -20 -29 q-16 -23 -25 -35 l377 0 ZM479 483 l-62 -74 q172 86 286 189 l-314 0 l-24 -24 q67 -49 114 -91 ZM737 37 l0 181 l-390 0 l0 -181 l390 0 Z" /><glyph glyph-name="Identity.9600" unicode="&#x540e;" d="M271 533 l633 0 l0 -114 l-633 0 q-2 -163 -34 -273.5 q-32 -110.5 -112 -236.5 l-109 76 q81 118 109 216.5 q28 98.5 28 279.5 l0 255 q346 5 665 54 l29 -123 q-239 -34 -576 -50 l0 -84 ZM297 -74 l0 396 l543 0 l0 -396 l-543 0 ZM414 209 l0 -166 l304 0 l0 166 l-304 0 Z" /><glyph glyph-name="Identity.9609" unicode="&#x5417;" d="M811 403 l94 0 q0 -9 -8 -169 q-8 -160 -8 -171 q-5 -49 -14 -77.5 q-9 -28.5 -29 -46.5 q-20 -18 -46 -25.5 q-26 -7.5 -72 -11.5 l-83 -8 l-38 117 l81 8 q42 4 57 17 q15 13 21 53 q2 17 7 96.5 q5 79.5 5 96.5 l-355 0 l33 340 l118 -9 l-24 -210 l136 0 l23 240 l-281 0 l0 120 l417 0 l-34 -360 ZM88 26 l0 703 l292 0 l0 -703 l-292 0 ZM204 607 l0 -458 l63 0 l0 458 l-63 0 ZM738 213 l0 -119 l-337 0 l0 119 l337 0 Z" /><glyph glyph-name="Identity.9690" unicode="&#x5468;" d="M135 770 l752 0 l0 -721 q0 -83 -22 -110.5 q-22 -27.5 -105 -35.5 l-76 -7 l-33 105 l70 6 q32 2 39 10.5 q7 8.5 7 41.5 l0 599 l-515 0 l0 -275 q0 -191 -19 -285 q-19 -94 -80 -203 l-115 62 q61 104 79 189.5 q18 85.5 18 282.5 l0 341 ZM278 434 l172 0 l0 57 l-146 0 l0 102 l146 0 l0 53 l113 -3 l0 -50 l145 0 l0 -102 l-145 0 l0 -57 l173 0 l0 -103 l-458 0 l0 103 ZM700 295 l0 -282 l-389 0 l0 282 l389 0 ZM590 122 l0 66 l-169 0 l0 -66 l169 0 Z" /><glyph glyph-name="Identity.9726" unicode="&#x548c;" d="M335 341 l32 33 q89 -83 130 -130 l-80 -91 q-38 54 -82 103 l0 -346 l-118 0 l0 324 q-50 -91 -109 -162 l-81 87 q98 116 175 271 l-128 0 l0 122 l143 0 l0 76 q-66 -12 -122 -20 l-12 118 q183 24 352 68 l23 -116 q-68 -17 -123 -28 l0 -98 l139 0 l0 -122 l-139 0 l0 -89 ZM505 723 l380 0 l0 -770 l-380 0 l0 770 ZM764 83 l0 508 l-140 0 l0 -508 l140 0 Z" /><glyph glyph-name="Identity.9754" unicode="&#x54a8;" d="M937 369 l-51 -115 q-42 11 -57 16 l0 -353 l-676 0 l0 356 l125 0 l-46 96 q144 38 204.5 84.5 q60.5 46.5 69.5 112.5 q2 7 5 47 l-63 0 q-42 -66 -89 -118 l-89 73 q96 102 150 244 l117 -26 l-28 -62 l384 0 l0 -108 l-85 -116 l-107 44 q12 11 35.5 37.5 q23.5 26.5 28.5 31.5 l-129 0 l-3 -49 q-2 -18 -5 -26 q73 -115 309 -169 ZM304 669 l-75 -100 q-68 77 -154 148 l78 86 q85 -68 151 -134 ZM278 533 l48 -37 q-90 -120 -199 -229 l-87 85 q106 102 192 219 l46 -38 ZM325 273 l494 0 q-167 55 -240 156 q-71 -90 -254 -156 ZM701 30 l0 127 l-420 0 l0 -127 l420 0 Z" /><glyph glyph-name="Identity.9779" unicode="&#x54c1;" d="M190 414 l0 361 l598 0 l0 -361 l-598 0 ZM661 658 l-341 0 l0 -126 l341 0 l0 126 ZM462 348 l0 -415 l-369 0 l0 415 l369 0 ZM890 348 l0 -415 l-370 0 l0 415 l370 0 ZM213 49 l131 0 l0 184 l-131 0 l0 -184 ZM642 49 l130 0 l0 184 l-130 0 l0 -184 Z" /><glyph glyph-name="Identity.9820" unicode="&#x54ea;" d="M327 652 l0 117 l296 0 l-4 -704 q0 -51 -12 -77.5 q-12 -26.5 -31.5 -36 q-19.5 -9.5 -58.5 -13.5 l-41 -4 l-33 104 l34 4 q27 3 35 14.5 q8 11.5 8 44.5 l0 104 l-60 0 q-16 -94 -49 -165 q-33 -71 -95 -145 l-85 66 q47 56 70 88 l-222 0 l0 682 l225 0 l0 -677 q43 66 59 151 l-37 0 l0 118 l49 0 q2 62 2 99 l-47 0 l0 117 l47 0 l1 113 l-51 0 ZM925 650 l-64 -232 q45 -74 61 -127.5 q16 -53.5 16 -116.5 q0 -88 -21 -122.5 q-21 -34.5 -76 -38.5 l-45 -4 l-30 111 l25 2 q31 2 40 16.5 q9 14.5 9 55.5 q0 88 -73 199 l66 257 l-78 0 l0 -736 l-97 0 l0 845 l267 0 l0 -109 ZM475 539 l47 0 q0 100 1 113 l-47 0 l-1 -113 ZM213 159 l0 464 l-36 0 l0 -464 l36 0 ZM472 323 l49 0 l0 99 l-46 0 q0 -52 -3 -99 Z" /><glyph glyph-name="Identity.9974" unicode="&#x5584;" d="M767 295 l158 0 l0 -98 l-872 0 l0 98 l155 0 l-12 58 l-118 0 l0 97 l354 0 l0 36 l-298 0 l0 94 l298 0 l0 34 l-332 0 l0 98 l174 0 l-26 73 l139 10 l23 -83 l163 0 l28 81 l136 -10 l-29 -71 l173 0 l0 -98 l-329 0 l0 -34 l296 0 l0 -94 l-296 0 l0 -36 l350 0 l0 -97 l-123 0 l-12 -58 ZM316 353 l14 -58 l102 0 l0 58 l-116 0 ZM658 353 l-106 0 l0 -58 l96 0 l10 58 ZM149 -83 l0 246 l684 0 l0 -246 l-684 0 ZM272 68 l0 -52 l438 0 l0 52 l-438 0 Z" /><glyph glyph-name="Identity.10317" unicode="&#x56db;" d="M101 737 l788 0 l0 -795 l-788 0 l0 795 ZM224 64 l541 0 l0 129 l-92 0 q-75 0 -109 29.5 q-34 29.5 -34 104.5 l0 289 l-85 0 l0 -105 q0 -140 -32.5 -210 q-32.5 -70 -128.5 -155 l-60 55 l0 -137 ZM325 616 l-101 0 l0 -361 q63 54 82 105 q19 51 19 155 l0 101 ZM765 316 l0 300 l-116 0 l0 -242 q0 -37 10 -47.5 q10 -10.5 47 -10.5 l59 0 Z" /><glyph glyph-name="Identity.10324" unicode="&#x56e2;" d="M97 774 l795 0 l0 -857 l-795 0 l0 857 ZM767 26 l0 635 l-542 0 l0 -635 l542 0 ZM295 125 l-67 105 q63 38 131.5 97.5 q68.5 59.5 118.5 119.5 l-223 0 l0 108 l287 0 l0 83 l118 -4 l0 -79 l81 0 l0 -108 l-81 0 l0 -238 q0 -88 -24 -116 q-24 -28 -110 -36 l-72 -6 l-33 109 l66 5 q38 2 46.5 12.5 q8.5 10.5 8.5 54.5 l0 130 q-87 -120 -247 -237 Z" /><glyph glyph-name="Identity.10342" unicode="&#x56f4;" d="M98 771 l794 0 l0 -854 l-794 0 l0 854 ZM773 23 l0 632 l-551 0 l0 -632 l551 0 ZM402 50 l0 179 l-160 0 l0 97 l160 0 l1 41 l-133 0 l0 95 l133 0 l0 40 l-158 0 l0 100 l158 0 l0 44 l116 -4 l0 -40 l222 0 l0 -100 l-222 0 l0 -40 l197 0 l0 -95 l-197 0 l-1 -41 l226 0 q0 -63 -10 -150 q-6 -56 -28 -77 q-22 -21 -79 -25 l-62 -4 l-28 97 l51 3 q24 2 32 5.5 q8 3.5 10 12.5 q2 7 4 41 l-116 0 l0 -179 l-116 0 Z" /><glyph glyph-name="Identity.10394" unicode="&#x5728;" d="M899 579 l-492 0 q-49 -106 -112 -195 l0 -472 l-124 0 l0 321 q-31 -33 -81 -80 l-77 111 q149 131 253 315 l-199 0 l0 121 l258 0 q23 59 39 112 l120 -30 l-27 -82 l442 0 l0 -121 ZM666 72 l244 0 l0 -120 l-592 0 l0 120 l227 0 l0 205 l-197 0 l0 119 l197 0 l0 139 l121 -5 l0 -134 l197 0 l0 -119 l-197 0 l0 -205 Z" /><glyph glyph-name="Identity.10402" unicode="&#x5730;" d="M828 176 l117 -36 q-1 -8 -2.5 -32.5 q-1.5 -24.5 -4 -45 q-2.5 -20.5 -5.5 -36.5 q-12 -64 -42.5 -85.5 q-30.5 -21.5 -107.5 -25.5 q-123 -6 -246 0 q-75 4 -107 33 q-32 29 -32 107 l0 317 l-33 -11 l-18 69 l-71 0 l0 -270 q62 25 81 34 l6 -39 l13 -74 q-155 -68 -301 -119 l-30 112 q44 12 115 41 l0 315 l-87 0 l0 118 l87 0 l0 226 l116 -5 l0 -221 l73 0 l0 -69 l49 17 l0 202 l116 -5 l0 -156 l62 22 l0 233 l112 -5 l0 -189 l192 68 q-12 -327 -12 -386 q-6 -62 -28.5 -81 q-22.5 -19 -90.5 -28 l-32 -4 l-29 93 l0 -162 l-112 0 l0 335 l-62 -21 l0 -318 q0 -39 10 -49.5 q10 -10.5 52 -12.5 q80 -6 161 0 q52 4 64 13 q12 9 18 47 q8 49 9 84 ZM760 496 l-72 -25 l0 -197 l23 3 q27 4 34 13.5 q7 9.5 9 39.5 q6 120 6 166 Z" /><glyph glyph-name="Identity.10484" unicode="&#x5782;" d="M925 294 l-157 0 l0 -83 l117 0 l0 -106 l-336 0 l0 -82 l306 0 l0 -105 l-729 0 l0 105 l308 0 l0 82 l-338 0 l0 106 l117 0 l0 83 l-158 0 l0 112 l158 0 l0 78 l-117 0 l0 107 l338 0 l0 58 q-144 -9 -293 -9 l-11 106 q141 0 350.5 13 q209.5 13 335.5 30 l22 -108 q-98 -14 -289 -26 l0 -64 l336 0 l0 -107 l-117 0 l0 -78 l157 0 l0 -112 ZM331 484 l0 -78 l103 0 l0 78 l-103 0 ZM649 484 l-100 0 l0 -78 l100 0 l0 78 ZM331 211 l103 0 l0 83 l-103 0 l0 -83 ZM649 211 l0 83 l-100 0 l0 -83 l100 0 Z" /><glyph glyph-name="Identity.10493" unicode="&#x578b;" d="M691 246 l-35 112 l63 7 q22 2 31 11 q9 9 9 34 l0 365 l117 -5 l0 -392 q0 -69 -23.5 -94 q-23.5 -25 -92.5 -31 l-69 -7 ZM560 31 l364 0 l0 -114 l-865 0 l0 114 l378 0 l0 76 l-274 0 l0 96 l-94 70 q48 50 70 83.5 q22 33.5 30 72.5 l-93 0 l0 111 l101 0 l0 12 l0 95 l-76 0 l0 112 l460 0 l0 -112 l-74 0 l0 -107 l80 0 l0 -111 l-80 0 l0 -157 l-115 0 l0 157 l-85 0 q-8 -64 -33 -111.5 q-25 -47.5 -75 -100.5 l258 0 l0 44 l123 -5 l0 -39 l263 0 l0 -110 l-263 0 l0 -76 ZM705 719 l0 -329 l-116 0 l0 334 l116 -5 ZM293 551 l0 -11 l79 0 l0 107 l-79 0 l0 -96 Z" /><glyph glyph-name="Identity.10557" unicode="&#x57cb;" d="M346 140 l10 -64 q-11 -4 -79.5 -25 q-68.5 -21 -133 -41 q-64.5 -20 -82.5 -27 l-27 123 q30 8 112 33 l0 304 l-77 0 l0 118 l77 0 l0 223 l116 -5 l0 -218 l79 0 l0 -118 l-79 0 l0 -267 q46 14 76 26 l8 -62 ZM689 36 l252 0 l0 -110 l-629 0 l0 110 l260 0 l0 63 l-183 0 l0 114 l183 0 l0 60 l-206 0 l0 487 l526 0 l0 -487 l-203 0 l0 -60 l204 0 l0 -114 l-204 0 l0 -63 ZM572 648 l-90 0 l0 -76 l90 0 l0 76 ZM775 572 l0 76 l-86 0 l0 -76 l86 0 ZM482 387 l90 0 l0 75 l-90 0 l0 -75 ZM689 387 l86 0 l0 75 l-86 0 l0 -75 Z" /><glyph glyph-name="Identity.10691" unicode="&#x5851;" d="M547 24 l364 0 l0 -103 l-849 0 l0 103 l366 0 l0 65 l-273 0 l0 99 l8 0 l-47 66 q86 42 113 100 l-122 0 l0 206 l103 -4 l0 -101 l37 0 l0 130 l-170 0 l0 101 l82 0 q-21 73 -27 83 l120 4 q9 -18 29 -87 l32 0 q28 73 32 87 l126 -5 q-19 -46 -38 -82 l76 0 l0 -101 l-156 0 l0 -130 l31 0 l0 105 l106 -4 l0 -202 l-147 0 q-23 -92 -135 -166 l220 0 l0 43 l72 -2 l-66 75 q64 49 81.5 86 q17.5 37 17.5 128 l0 241 l343 0 l0 -418 q0 -57 -21 -80 q-21 -23 -73 -27 l-72 -5 l-30 96 l59 4 q18 2 23 7.5 q5 5.5 5 22.5 l0 24 l-141 0 q-22 -82 -108 -155 l29 -1 l0 -39 l279 0 l0 -99 l-279 0 l0 -65 ZM767 658 l-127 0 l0 -43 l127 0 l0 43 ZM639 475 l128 0 l0 46 l-127 0 l0 -2 q0 -29 -1 -44 Z" /><glyph glyph-name="Identity.10870" unicode="&#x5904;" d="M719 46 q103 -1 212 4 l-26 -130 q-104 -6 -212 -4 q-128 2 -222 33 q-94 31 -165 107 q-71 -86 -173 -174 l-97 93 q117 94 192 187 q-41 73 -66 153 q-6 -10 -17 -27.5 q-11 -17.5 -16 -26.5 l-88 81 q52 82 96 200.5 q44 118.5 70 247.5 l118 -22 q-7 -36 -25 -106 l223 0 l0 -131 q-36 -209 -141 -372 q59 -61 140.5 -86.5 q81.5 -25.5 196.5 -26.5 ZM705 449 l0 -370 l-128 0 l0 707 l128 -5 l0 -255 l25 43 q115 -72 210 -149 l-58 -121 q-82 82 -177 150 ZM236 469 q31 -123 69 -198 q68 115 97 260 l-142 0 q-11 -35 -24 -62 Z" /><glyph glyph-name="Identity.10879" unicode="&#x590d;" d="M927 5 l-33 -111 q-214 34 -367 87 q-166 -55 -422 -97 l-42 102 q181 22 313 57 q-54 27 -114 67 q-66 -57 -153 -102 l-64 92 q135 75 218 166 l-97 0 l0 222 l-36 -37 l-87 88 q59 53 116.5 129.5 q57.5 76.5 86.5 139.5 l122 -28 l-24 -45 l542 0 l0 -102 l-604 0 q-5 -9 -16 -23.5 q-11 -14.5 -12 -16.5 l574 0 l0 -327 l-456 0 l32 -14 l-18 -21 l469 0 l0 -88 q-76 -53 -177 -103 q107 -22 249 -35 ZM702 505 l-413 0 l0 -37 l413 0 l0 37 ZM289 389 l0 -39 l413 0 l0 39 l-413 0 ZM676 143 l-295 0 q61 -33 137 -59 q83 27 158 59 Z" /><glyph glyph-name="Identity.10888" unicode="&#x5916;" d="M234 799 l124 -32 q-15 -59 -29 -103 l214 0 l0 -125 q-33 -191 -126 -339 q-93 -148 -272 -308 l-103 97 q160 132 246 251 q-45 37 -111 85 q-25 -42 -54 -81 l-86 100 q137 206 197 455 ZM699 475 l35 51 q118 -76 216 -164 l-70 -112 q-62 70 -181 162 l0 -501 l-121 0 l0 879 l121 -5 l0 -310 ZM422 539 l-139 0 q-30 -71 -45 -101 q57 -37 119 -83 q41 84 65 184 Z" /><glyph glyph-name="Identity.10892" unicode="&#x591a;" d="M573 367 l336 0 l0 -108 q-93 -91 -183 -151 q-90 -60 -239.5 -117 q-149.5 -57 -364.5 -104 l-58 104 q227 47 375 101 l-114 75 q-62 -38 -170 -90 l-66 101 q178 77 322 191 q-117 -45 -283 -82 l-54 105 q161 32 307 83 q-76 48 -102 63 q-74 -43 -120 -65 l-67 97 q220 108 347 242 l105 -53 q-7 -9 -23 -27 l355 0 l0 -109 q-143 -112 -314 -193 l45 -24 l-34 -39 ZM379 604 q65 -33 91 -48 l-60 -71 q163 62 287 138 l-294 0 q-4 -3 -12 -9 q-8 -6 -12 -10 ZM533 173 l-68 -72 q166 64 280 158 l-287 0 q-11 -9 -33 -25 q34 -18 108 -61 Z" /><glyph glyph-name="Identity.10905" unicode="&#x5927;" d="M896 460 l-330 0 q18 -89 56 -162.5 q38 -73.5 91.5 -126.5 q53.5 -53 108 -90.5 q54.5 -37.5 123.5 -71.5 l-80 -118 q-128 74 -220.5 172.5 q-92.5 98.5 -140.5 204.5 q-108 -216 -370 -379 l-89 112 q350 191 381 459 l-333 0 l0 124 l333 0 l0 210 l134 -5 l0 -205 l336 0 l0 -124 Z" /><glyph glyph-name="Identity.10918" unicode="&#x5934;" d="M925 16 l-57 -119 q-141 98 -331 186 q-58 -61 -159 -107.5 q-101 -46.5 -269 -92.5 l-53 127 q189 44 281 86.5 q92 42.5 134 113.5 l-393 0 l0 118 l243 0 q-127 99 -214 150 l69 102 q178 -109 250 -171 l-52 -81 l138 0 q11 62 16 183 q6 94 6 272 l125 -6 q0 -190 -6 -284 q-6 -122 -12 -165 l265 0 l0 -118 l-293 0 q-6 -18 -10 -27 q161 -74 322 -167 ZM486 606 l-66 -109 q-42 34 -119.5 89 q-77.5 55 -123.5 81 l66 101 q164 -96 243 -162 Z" /><glyph glyph-name="Identity.11000" unicode="&#x5986;" d="M936 14 l-75 -114 q-89 78 -184 150 q-82 -75 -251 -159 l-71 119 q141 59 219 119 q-122 91 -174 128 q38 104 73 239 l-99 0 l0 122 l128 0 q20 86 32 179 l129 -25 q-7 -47 -30 -154 l301 0 l0 -122 l-68 0 q-45 -243 -106 -345 q79 -56 176 -137 ZM230 468 l0 324 l118 -5 l0 -881 l-118 0 l0 279 q-60 -55 -146 -120 l-53 136 q120 79 199 148 l0 79 l-96 -45 q-45 160 -85 261 l106 39 q40 -94 75 -215 ZM749 496 l-145 0 q-30 -114 -55 -193 q32 -21 112 -79 q51 81 88 272 Z" /><glyph glyph-name="Identity.11458" unicode="&#x5b50;" d="M921 405 l0 -125 l-359 0 l0 -237 q0 -77 -28.5 -103.5 q-28.5 -26.5 -111.5 -32.5 l-102 -8 l-38 125 l101 8 q33 2 41 11 q8 9 8 44 l0 193 l-369 0 l0 125 l369 0 l0 78 l229 149 l-515 0 l0 123 l728 0 l0 -124 l-312 -204 l0 -22 l359 0 Z" /><glyph glyph-name="Identity.11518" unicode="&#x5b8c;" d="M202 594 l0 -99 l-120 0 l0 215 l346 0 l-17 83 l139 6 l17 -89 l331 0 l0 -214 l-119 0 l0 98 l-577 0 ZM771 405 l-562 0 l0 114 l562 0 l0 -114 ZM814 142 l115 -28 q-10 -89 -10 -92 q-10 -66 -43.5 -89 q-33.5 -23 -114.5 -25 q-47 -2 -95 0 q-75 2 -106.5 32 q-31.5 30 -31.5 104 l0 169 l-107 0 q-6 -128 -75 -207 q-69 -79 -224 -134 l-69 113 q132 41 179.5 89.5 q47.5 48.5 56.5 138.5 l-203 0 l0 116 l812 0 l0 -116 l-247 0 l0 -143 q0 -28 10.5 -37.5 q10.5 -9.5 38.5 -11.5 q26 -2 50 0 q31 2 41 10.5 q10 8.5 16 40.5 q7 35 7 70 Z" /><glyph glyph-name="Identity.11532" unicode="&#x5b9a;" d="M214 606 l0 -76 l-122 0 l0 189 l343 0 l-15 82 l129 5 l17 -87 l329 0 l0 -189 l-119 0 l0 76 l-562 0 ZM570 171 l0 -129 q190 -8 366 4 l-34 -119 q-151 -9 -353 -4 q-192 5 -297 130 q-43 -81 -122 -165 l-100 81 q85 89 121.5 165.5 q36.5 76.5 48.5 201.5 l125 -11 q-7 -80 -26 -151 q58 -87 147 -114 l0 330 l-321 0 l0 114 l740 0 l0 -114 l-295 0 l0 -105 l268 0 l0 -114 l-268 0 Z" /><glyph glyph-name="Identity.11567" unicode="&#x5bbd;" d="M211 611 l0 -52 l-124 0 l0 166 l340 0 l-14 69 l142 6 l14 -75 l329 0 l0 -166 l-124 0 l0 52 l-563 0 ZM680 392 l-119 0 l0 37 l-137 0 l0 -37 l-119 0 l0 37 l-204 0 l0 110 l204 0 l0 50 l119 -4 l0 -46 l137 0 l0 50 l119 -4 l0 -46 l207 0 l0 -110 l-207 0 l0 -37 ZM813 108 l115 -38 l-7 -46 q-12 -69 -41.5 -91 q-29.5 -22 -107.5 -24 q-88 -1 -176 0 q-74 2 -102.5 25.5 q-28.5 23.5 -28.5 93.5 q-94 -89 -347 -154 l-68 118 q200 42 281.5 87.5 q81.5 45.5 87.5 117.5 q2 12 4 50 l126 -4 q-2 -30 -4 -45 q-3 -23 -4 -27 l49 -2 l0 -110 q0 -24 8.5 -29.5 q8.5 -5.5 42.5 -7.5 q42 -1 85 0 q43 2 55.5 9 q12.5 7 16.5 32 q5 26 6 38 l-120 0 l0 166 l-390 0 l0 -164 l-130 0 l0 274 l649 0 l0 -269 Z" /><glyph glyph-name="Identity.11576" unicode="&#x5bc6;" d="M401 191 q-45 2 -70.5 12 q-25.5 10 -39.5 33 q-96 -35 -203 -65 l-53 103 q133 34 240 75 l0 132 q-53 -89 -126 -171 l-83 81 q64 61 110 135 l-86 0 l0 197 l333 0 l-16 79 l132 6 l16 -85 l342 0 l0 -196 l-123 0 l0 84 l-285 0 q36 -26 78 -68 l-59 -83 q108 68 179 142 l73 -82 q-137 -135 -318 -221 q70 -3 139 0 q36 2 45.5 10.5 q9.5 8.5 17.5 45.5 q4 16 6 40 l113 -33 q-1 -29 -10 -72 q-12 -61 -38 -79 q-26 -18 -96 -20 q-110 -3 -218 0 ZM275 552 l117 -4 l0 -151 q62 30 110 59 q-50 56 -124 108 l38 47 l-204 0 l0 -69 l63 -44 l0 54 ZM723 430 l73 74 q89 -85 140 -145 l-72 -84 q-21 28 -65.5 76.5 q-44.5 48.5 -75.5 78.5 ZM715 24 l0 141 l121 -4 l0 -251 l-689 0 l0 249 l121 -4 l0 -131 l167 0 l0 160 l118 -4 l0 -156 l162 0 Z" /><glyph glyph-name="Identity.11627" unicode="&#x5bf9;" d="M926 624 l0 -124 l-94 0 l0 -453 q0 -78 -33.5 -107.5 q-33.5 -29.5 -122.5 -37.5 l-72 -7 l-42 127 l85 7 q39 2 48 10.5 q9 8.5 9 43.5 l0 417 l-230 0 l0 124 l230 0 l0 170 l128 -5 l0 -165 l94 0 ZM450 713 l0 -125 q-29 -163 -87 -292 q90 -124 140 -205 l-98 -88 q-62 102 -106 168 q-66 -115 -179 -244 l-94 85 q125 140 197 273 q-95 133 -151 203 l93 67 q70 -84 114 -145 q33 89 48 179 l-244 0 l0 124 l367 0 ZM687 247 l-96 -74 q-85 155 -145 228 l91 59 q33 -39 81 -106.5 q48 -67.5 69 -106.5 Z" /><glyph glyph-name="Identity.11638" unicode="&#x5c04;" d="M369 780 l-20 -68 l139 0 l0 -689 q0 -65 -21 -89.5 q-21 -24.5 -79 -30.5 l-63 -7 l-34 107 l53 7 q26 4 33 13 q7 9 7 36 l0 117 l-2 0 q-94 -138 -280 -256 l-77 91 q143 77 223 165 l-182 0 l0 101 l54 0 l0 435 l103 0 l21 79 l125 -11 ZM927 607 l0 -114 l-83 0 l0 -448 q0 -76 -22.5 -104.5 q-22.5 -28.5 -92.5 -34.5 l-82 -7 l-34 113 l70 8 q30 4 38 14.5 q8 10.5 8 45.5 l0 413 l-216 0 l0 114 l216 0 l0 179 l115 -5 l0 -174 l83 0 ZM384 565 l0 46 l-158 0 l0 -46 l158 0 ZM384 421 l0 46 l-158 0 l0 -46 l158 0 ZM719 231 l-93 -67 q-19 46 -58.5 117.5 q-39.5 71.5 -65.5 110.5 l88 59 q23 -31 65.5 -103.5 q42.5 -72.5 63.5 -116.5 ZM226 323 l0 -46 l158 0 l0 46 l-158 0 Z" /><glyph glyph-name="Identity.11640" unicode="&#x5c06;" d="M942 325 l0 -112 l-98 0 l0 -174 q0 -79 -22.5 -103.5 q-22.5 -24.5 -105.5 -32.5 l-81 -9 l-35 114 l75 8 q34 4 41 11.5 q7 7.5 7 34.5 l0 151 l-192 0 q67 -67 101 -106 l-83 -94 q-48 73 -139 164 l37 36 l-77 0 l0 112 l40 0 l-36 84 q101 31 168 59 q-37 33 -81 65 q-24 -18 -58 -41 l-55 76 l0 -668 l-117 0 l0 309 q-53 -47 -141 -114 l-62 115 q80 53 203 151 l0 60 l-91 -46 q-30 134 -88 270 l105 41 q32 -71 74 -210 l0 311 l117 -5 l0 -189 q67 45 127 105 q60 60 100 121 l114 -44 q-22 -33 -40 -55 l276 0 l0 -117 q-73 -89 -174 -152.5 q-101 -63.5 -269 -125.5 l241 0 l0 103 l121 -5 l0 -98 l98 0 ZM549 609 q49 -35 80 -62 l-46 -62 q114 51 209 135 l-232 0 l-11 -11 Z" /><glyph glyph-name="Identity.11649" unicode="&#x5c0f;" d="M568 777 l1 -703 q0 -51 -4 -78 q-4 -27 -20 -48.5 q-16 -21.5 -44.5 -30 q-28.5 -8.5 -80.5 -13.5 l-91 -9 l-41 136 l79 8 q44 4 54.5 19 q10.5 15 10.5 71 l0 653 l136 -5 ZM615 569 l126 46 q6 -12 17 -35 q121 -252 176 -405 q12 -35 24 -71 l-131 -59 q-90 273 -212 524 ZM215 597 l133 -33 q-43 -149 -86 -263.5 q-43 -114.5 -107 -241.5 l-128 55 q120 223 188 483 Z" /><glyph glyph-name="Identity.11651" unicode="&#x5c11;" d="M553 787 l0 -569 l-132 0 l0 574 l132 -5 ZM608 614 l89 76 q50 -54 130 -149.5 q80 -95.5 118 -149.5 l-92 -91 q-42 62 -121 163.5 q-79 101.5 -124 150.5 ZM159 227 l-111 71 q56 81 113.5 185.5 q57.5 104.5 92.5 191.5 l114 -49 q-94 -223 -209 -399 ZM99 -118 l-53 122 q277 79 424.5 161 q147.5 82 262.5 224 l88 -91 q-138 -158 -295 -247 q-157 -89 -427 -169 Z" /><glyph glyph-name="Identity.11696" unicode="&#x5c3e;" d="M253 516 l0 -88 q0 -175 -25 -290.5 q-25 -115.5 -83 -233.5 l-128 36 q65 131 89 233 q24 102 24 287 l0 308 l751 0 l0 -252 l-628 0 ZM756 654 l-503 0 l0 -41 l503 0 l0 41 ZM793 55 q1 6 4 36 l111 -34 q-1 -22 -9 -52 q-16 -59 -39 -76 q-23 -17 -90 -19 q-102 -3 -204 0 q-67 2 -94.5 28 q-27.5 26 -27.5 97 l0 47 l-200 -10 l-6 101 l206 12 l0 35 l-174 -11 l-6 101 l180 11 l0 32 q-89 -10 -170 -15 l-11 97 q120 6 282.5 24.5 q162.5 18.5 268.5 37.5 l17 -97 q-74 -12 -266 -35 l0 -37 l266 16 l4 -100 l-270 -17 l0 -35 l353 21 l5 -106 l-358 -18 l0 -22 q0 -28 6.5 -35 q6.5 -7 34.5 -9 q68 -3 137 0 q32 2 39 6 q7 4 11 26 Z" /><glyph glyph-name="Identity.11697" unicode="&#x5c3f;" d="M507 368 l0 -108 q-26 -89 -80 -166 q-54 -77 -150 -163 l-77 78 q-19 -44 -61 -119 l-124 55 q69 119 95.5 214 q26.5 95 26.5 260 l0 340 l735 0 l0 -301 l-608 0 l0 -12 q0 -150 -13 -245 q-13 -95 -44 -175 q76 69 115.5 119 q39.5 50 66.5 111 l-111 0 l0 112 l229 0 ZM748 645 l-484 0 l0 -74 l484 0 l0 74 ZM736 209 q83 -99 216 -173 l-69 -105 q-161 100 -250 240 l0 -166 q0 -59 -27 -84 q-27 -25 -91 -29 l-84 -6 l-31 117 l77 6 q23 2 29.5 11 q6.5 9 6.5 36 l0 393 l120 -4 l0 -60 q14 -37 35 -77 q91 60 153 112 l72 -93 q-54 -46 -157 -118 Z" /><glyph glyph-name="Identity.12119" unicode="&#x5de5;" d="M560 79 l361 0 l0 -128 l-858 0 l0 128 l361 0 l0 530 l-285 0 l0 134 l709 0 l0 -134 l-288 0 l0 -530 Z" /><glyph glyph-name="Identity.12262" unicode="&#x5e74;" d="M917 237 l0 -121 l-332 0 l0 -201 l-122 0 l0 201 l-424 0 l0 121 l130 0 l0 238 q-21 -25 -59 -67 l-77 107 q133 125 208 308 l122 -35 q-7 -17 -23 -51 l530 0 l0 -120 l-285 0 l0 -119 l261 0 l0 -117 l-261 0 l0 -144 l332 0 ZM463 617 l-190 0 q-35 -56 -85 -119 l275 0 l0 119 ZM288 237 l175 0 l0 144 l-175 0 l0 -144 Z" /><glyph glyph-name="Identity.12264" unicode="&#x5e76;" d="M925 345 l0 -121 l-195 0 l0 -313 l-128 0 l0 313 l-207 0 q-12 -122 -57.5 -198.5 q-45.5 -76.5 -147.5 -151.5 l-94 102 q92 67 127.5 117.5 q35.5 50.5 45.5 130.5 l-213 0 l0 121 l219 0 l0 25 l0 160 l-163 0 l0 121 l161 0 l-42 127 l144 10 l35 -137 l180 0 l41 133 l143 -10 l-44 -123 l145 0 l0 -121 l-145 0 l0 -185 l195 0 ZM402 345 l200 0 l0 185 l-200 0 l0 -146 l0 -39 Z" /><glyph glyph-name="Identity.12312" unicode="&#x5ea6;" d="M928 9 l-39 -113 q-227 41 -342 89 q-130 -57 -332 -100 l-41 96 q-19 -46 -46 -91 l-110 62 q61 110 80 195 q19 85 19 263 l0 309 l341 0 l-16 78 l134 5 l15 -83 l322 0 l0 -109 l-677 0 l0 -62 l114 0 l0 54 l118 -5 l0 -49 l180 0 l0 54 l120 -5 l0 -49 l142 0 l0 -104 l-142 0 l0 -135 l-418 0 l0 135 l-114 0 l0 -70 q0 -238 -53 -371 q136 22 233 52 q-47 31 -103 76 l56 50 l-111 0 l0 96 l576 0 l0 -97 q-72 -76 -157 -128 q101 -26 251 -43 ZM648 444 l-180 0 l0 -38 l180 0 l0 38 ZM668 181 l-251 0 q62 -49 123 -79 q71 33 128 79 Z" /><glyph glyph-name="Identity.12357" unicode="&#x5ed3;" d="M221 625 l0 -225 q0 -198 -18 -290 q-18 -92 -73 -199 l-117 47 q59 108 81 192 q22 84 22 237 l0 344 l347 0 l-15 68 l127 8 l14 -76 l318 0 l0 -106 l-686 0 ZM602 552 l0 -79 l-358 0 l0 79 l130 0 l-11 55 l107 6 l10 -61 l122 0 ZM917 475 l-69 -168 q46 -61 63 -104.5 q17 -43.5 17 -88.5 q0 -66 -23 -93.5 q-23 -27.5 -72 -29.5 l-61 -4 l-29 100 l31 2 q27 3 39 12 q12 9 12 37 q0 54 -84 150 l71 187 l-87 0 l0 -572 l-101 0 l0 672 l293 0 l0 -100 ZM585 283 l-325 0 l0 161 l325 0 l0 -161 ZM356 379 l0 -31 l132 0 l0 31 l-132 0 ZM602 97 l5 -45 q-12 -2 -56 -5 q-44 -3 -70 -5 l0 -42 q0 -52 -21 -71 q-21 -19 -72 -23 l-56 -5 l-27 91 l49 4 q16 2 22 9 q6 7 6 26 l0 3 l-153 -12 l-10 76 q10 1 34 3.5 q24 2.5 62 5.5 q38 3 67 6 l0 35 l72 29 l-194 0 l0 77 l326 0 l0 -83 l-102 -51 l115 8 l3 -31 Z" /><glyph glyph-name="Identity.12402" unicode="&#x5f00;" d="M931 406 l0 -123 l-198 0 l0 -372 l-126 0 l0 372 l-222 0 q-10 -136 -55.5 -220.5 q-45.5 -84.5 -159.5 -188.5 l-98 94 q101 81 140 147 q39 66 47 168 l-209 0 l0 123 l213 0 l0 225 l-160 0 l0 122 l773 0 l0 -122 l-143 0 l0 -225 l198 0 ZM389 406 l218 0 l0 225 l-218 0 l0 -219 l0 -6 Z" /><glyph glyph-name="Identity.12417" unicode="&#x5f0f;" d="M827 171 l101 -45 q-7 -45 -28 -113 q-22 -73 -50.5 -96.5 q-28.5 -23.5 -74.5 -23.5 q-44 0 -80.5 28.5 q-36.5 28.5 -71.5 98.5 q-81 159 -102 510 l-453 0 l0 123 l449 0 l-6 145 l127 -5 q0 -18 2 -140 l94 0 q-46 42 -75 67 l76 81 q97 -80 132 -112 l-32 -36 l69 0 l0 -123 l-259 0 q23 -349 101 -471 q14 -20 30 -20 q18 0 31 42 q13 39 20 90 ZM544 141 l1 -68 l1 -57 q-27 -6 -235.5 -33.5 q-208.5 -27.5 -245.5 -30.5 l-16 124 q27 0 192 23 l0 207 l-142 0 l0 121 l409 0 l0 -121 l-138 0 l0 -190 q128 16 174 25 Z" /><glyph glyph-name="Identity.12441" unicode="&#x5f27;" d="M666 638 l0 -145 q0 -166 -11 -254 l67 25 q51 -163 80 -303 l-86 -36 l-13 65 q-79 -18 -153 -42 q-17 -5 -26 -8 l-34 113 q28 10 36 41 q36 104 36 352 l0 178 l-43 -4 l0 -208 q0 -162 -22.5 -279 q-22.5 -117 -76.5 -225 l-103 58 q-12 -24 -37.5 -34 q-25.5 -10 -76.5 -13 l-73 -5 l-32 116 l76 4 q33 2 42 11.5 q9 9.5 9 37.5 q0 22 2 71.5 q2 49.5 2 64.5 l-164 0 l21 323 l154 0 l0 92 l-165 0 l0 121 l275 0 l0 -326 l-164 0 l-10 -96 l162 0 q0 -13 -3 -141 q-3 -128 -3 -146 q-2 -48 -12 -75 q60 115 78.5 200 q18.5 85 18.5 245 l0 314 q239 14 431 67 l29 -116 q-12 -4 -66 -16 q10 -399 157 -682 l-102 -72 q-75 158 -112.5 332 q-37.5 174 -43.5 402 q-8 -1 -22 -3 q-14 -2 -22 -4 ZM618 84 l60 17 q-10 42 -28 105 q-12 -73 -32 -122 Z" /><glyph glyph-name="Identity.12459" unicode="&#x5f39;" d="M936 168 l0 -115 l-245 0 l0 -152 l-112 0 l0 152 l-217 0 l0 115 l217 0 l0 51 l-194 0 l0 456 l95 0 l-27 100 l123 10 l22 -110 l70 0 l29 111 l123 -10 l-32 -101 l98 0 l0 -456 l-195 0 l0 -51 l245 0 ZM91 638 l0 115 l258 0 l0 -330 l-153 0 l-7 -90 l157 0 q0 -18 -5 -146.5 q-5 -128.5 -5 -145.5 q-4 -74 -32.5 -97.5 q-28.5 -23.5 -110.5 -33.5 l-55 -7 l-38 114 l66 7 q33 2 45 13 q12 11 14 39 q0 10 4.5 71 q4.5 61 4.5 73 l-161 0 l23 319 l149 0 l0 99 l-154 0 ZM579 500 l0 62 l-90 0 l0 -62 l90 0 ZM691 562 l0 -62 l86 0 l0 62 l-86 0 ZM489 330 l90 0 l0 63 l-90 0 l0 -63 ZM691 330 l86 0 l0 63 l-86 0 l0 -63 Z" /><glyph glyph-name="Identity.12500" unicode="&#x5f62;" d="M594 474 l-68 102 q63 37 138 100.5 q75 63.5 126 123.5 l83 -83 q-109 -129 -279 -243 ZM559 315 l-77 0 l0 -395 l-112 0 l0 395 l-97 0 q-6 -144 -32 -222.5 q-26 -78.5 -100 -189.5 l-112 57 q73 96 99 163 q26 67 32 192 l-95 0 l0 118 l97 0 l0 204 l-66 0 l0 118 l458 0 l0 -118 l-72 0 l0 -204 l106 0 l0 -99 q118 84 220 205 l86 -87 q-132 -146 -301 -262 l-70 103 q24 14 36 22 ZM274 433 l96 0 l0 204 l-96 0 l0 -204 ZM853 292 l82 -86 q-156 -186 -370 -309 l-73 105 q210 111 361 290 Z" /><glyph glyph-name="Identity.12538" unicode="&#x5f88;" d="M249 803 l98 -69 q-39 -61 -104 -135 q-65 -74 -128 -127 l-69 102 q55 51 115 117.5 q60 66.5 88 111.5 ZM753 131 q66 -59 197 -113 l-67 -102 q-142 65 -228 155.5 q-86 90.5 -133 231.5 l-43 0 l0 -253 q24 9 78 31.5 q54 22.5 65 26.5 l17 -121 q-7 -3 -35 -14 q-28 -11 -65.5 -26 q-37.5 -15 -61.5 -24 q-53 -21 -92 -40 l-53 116 q22 6 27.5 15 q5.5 9 5.5 34 l0 718 l497 0 l0 -463 l-25 0 l56 -75 q-51 -40 -140 -97 ZM749 657 l-270 0 l0 -69 l270 0 l0 69 ZM260 574 l98 -61 q-29 -54 -90 -136 l0 -473 l-118 0 l0 333 q-45 -47 -66 -67 l-63 112 q59 52 132 140 q73 88 107 152 ZM479 479 l0 -69 l270 0 l0 69 l-270 0 ZM808 303 l-170 0 q21 -57 45 -91 q54 34 125 91 Z" /><glyph glyph-name="Identity.12597" unicode="&#x5fc3;" d="M361 737 l105 72 q47 -54 108 -136.5 q61 -82.5 97 -147.5 l-107 -84 q-40 74 -99 159.5 q-59 85.5 -104 136.5 ZM415 594 l-1 -502 q0 -43 28 -47 q82 -8 150 1 q18 2 25.5 13.5 q7.5 11.5 11.5 35.5 q2 14 5 40.5 q3 26.5 4 31.5 l3 40 l132 -38 q-1 -5 -4.5 -42 q-3.5 -37 -8.5 -67 q-13 -77 -31.5 -107.5 q-18.5 -30.5 -64.5 -36.5 q-58 -8 -153 -7.5 q-95 0.5 -142 7.5 q-88 14 -88 132 l0 552 l134 -6 ZM700 487 l114 52 q26 -53 74.5 -176 q48.5 -123 71.5 -201 l-122 -56 q-22 79 -66 199 q-44 120 -72 182 ZM123 506 l136 -29 q-41 -245 -94 -402 l-139 45 q35 83 62.5 198.5 q27.5 115.5 34.5 187.5 Z" /><glyph glyph-name="Identity.12659" unicode="&#x6001;" d="M100 260 l-70 123 q147 44 228.5 94 q81.5 50 118.5 112 l-286 0 l0 117 l326 0 q8 51 10 95 l127 -7 q-1 -22 -10 -88 l349 0 l0 -117 l-299 0 q113 -134 355 -199 l-50 -128 q-271 83 -409 269 q-18 -30 -36 -53 q62 -52 97 -87 l-67 -91 q-52 52 -112 100 q-100 -76 -272 -140 ZM432 241 l83 66 q21 -22 56.5 -70 q35.5 -48 55.5 -80 l-87 -75 q-62 103 -108 159 ZM693 225 l92 64 q90 -117 162 -250 l-102 -74 q-70 148 -152 260 ZM620 64 q7 42 8 71 l110 -39 q-9 -74 -11 -84 q-12 -62 -38 -79 q-26 -17 -106 -21 q-95 -5 -190 0 q-68 2 -96 29 q-28 27 -28 91 l0 247 l121 -5 l0 -200 q0 -30 8 -39.5 q8 -9.5 33 -11.5 q67 -5 135 0 q33 2 41.5 8 q8.5 6 12.5 33 ZM137 -46 l-104 58 q73 128 116 258 l109 -41 q-39 -122 -121 -275 Z" /><glyph glyph-name="Identity.12697" unicode="&#x6027;" d="M714 56 l213 0 l0 -124 l-573 0 l0 124 l238 0 l0 172 l-186 0 l0 124 l186 0 l0 144 l-87 0 q-18 -64 -45 -141 l-112 35 q26 66 47 146 l-49 -51 q-13 23 -55 77 l0 -656 l-114 0 l0 688 q-22 -168 -56 -330 l-103 23 q46 200 61 353 l98 -13 l0 171 l114 -5 l0 -162 l41 37 q33 -33 74 -90 q19 68 31 162 l114 -14 q-9 -67 -17 -102 l58 0 l0 172 l122 -5 l0 -167 l185 0 l0 -128 l-185 0 l0 -144 l163 0 l0 -124 l-163 0 l0 -172 Z" /><glyph glyph-name="Identity.12756" unicode="&#x6062;" d="M798 220 l-53 33 q54 -155 208 -258 l-68 -100 q-140 104 -208 254 q-59 -138 -227 -258 l-71 98 q97 61 149.5 124 q52.5 63 74.5 149 l-65 -37 q-18 58 -40 111 q-43 -161 -157 -343 l-63 42 l0 -133 l-110 0 l0 693 q-21 -181 -52 -322 l-93 16 q46 195 57 353 l88 -9 l0 168 l110 -5 l0 -177 l33 23 q44 -54 91 -137 l-74 -63 q-17 35 -50 88 l0 -416 q68 111 103 219 q35 108 49 259 l-70 0 l0 112 l76 0 q2 82 2 98 l110 -5 q0 -3 -1 -36.5 q-1 -33.5 -3 -56.5 l363 0 l0 -112 l-370 0 q-5 -79 -14 -134 l22 10 q35 -57 69 -146 q5 52 5 96 l0 145 l103 -5 l0 -141 q0 -24 -2 -64 q1 -5 3.5 -20 q2.5 -15 4.5 -22 q54 99 87 183 l94 -43 q-55 -127 -111 -231 Z" /><glyph glyph-name="Identity.12882" unicode="&#x60e0;" d="M929 189 l-76 -65 q43 -61 78 -129 l-102 -63 q-19 48 -51 101.5 q-32 53.5 -57 83.5 l83 51 q-10 16 -17 24 q-74 -4 -265 -12 q47 -44 81 -84 l-74 -68 q-20 26 -53 61.5 q-33 35.5 -50 50.5 l39 38 q-55 -2 -154 -4.5 q-99 -2.5 -136 -4.5 l83 -44 q-47 -108 -118 -204 l-101 64 q66 79 114 183 l-64 -2 l-2 97 q129 0 349 4 l0 50 l-297 0 l0 300 l297 0 l0 34 l-348 0 l0 91 l348 0 l0 61 l111 -5 l0 -56 l349 0 l0 -91 l-349 0 l0 -34 l293 0 l0 -300 l-13 0 l102 -128 ZM436 534 l-178 0 l0 -33 l178 0 l0 33 ZM722 534 l-175 0 l0 -33 l175 0 l0 33 ZM258 396 l178 0 l0 35 l-178 0 l0 -35 ZM722 431 l-175 0 l0 -35 l175 0 l0 35 ZM547 269 l179 6 l-13 17 l36 25 l-202 0 l0 -48 ZM622 46 q3 15 7 51 l105 -30 q0 -31 -6 -64 q-10 -53 -38.5 -70.5 q-28.5 -17.5 -107.5 -21.5 q-94 -4 -188 0 q-70 3 -99.5 26.5 q-29.5 23.5 -29.5 75.5 l0 140 l125 -5 l0 -96 q0 -26 8 -33 q8 -7 35 -8 q57 -5 133 0 q31 2 41.5 8.5 q10.5 6.5 14.5 26.5 Z" /><glyph glyph-name="Identity.12929" unicode="&#x610f;" d="M914 589 l0 -89 l-845 0 l0 89 l210 0 q-14 42 -21 59 l-132 0 l0 93 l303 0 l-13 61 l132 7 l11 -68 l302 0 l0 -93 l-134 0 l-26 -59 l213 0 ZM603 648 l-220 0 q2 -5 22 -59 l172 0 l26 59 ZM815 468 l0 -303 l-281 0 q45 -48 74 -85 l-78 -72 q-61 83 -109 127 l36 30 l-294 0 l0 303 l652 0 ZM695 354 l0 33 l-409 0 l0 -33 l409 0 ZM695 245 l0 31 l-409 0 l0 -31 l409 0 ZM733 106 l92 63 q29 -32 69 -84 q40 -52 56 -83 l-86 -75 q-67 109 -131 179 ZM141 -77 l-100 62 q58 78 106 177 l103 -47 q-48 -104 -109 -192 ZM624 38 q2 10 4.5 32 q2.5 22 3.5 29 l108 -37 q-7 -60 -13 -82 q-16 -66 -88 -71 q-147 -9 -293 0 q-38 2 -60.5 23.5 q-22.5 21.5 -22.5 59.5 l0 154 l123 -5 l0 -104 q0 -30 30 -34 q85 -10 164 0 q22 2 31 9.5 q9 7.5 13 25.5 Z" /><glyph glyph-name="Identity.13186" unicode="&#x6210;" d="M846 162 l103 -47 q-2 -9 -9.5 -45.5 q-7.5 -36.5 -12.5 -56.5 q-11 -40 -25.5 -65 q-14.5 -25 -33.5 -35.5 q-19 -10.5 -34 -13.5 q-15 -3 -39 -3 q-44 0 -79.5 29.5 q-35.5 29.5 -77.5 98.5 q-6 8 -11 20 q-60 -62 -140 -122 l-73 87 q-30 -16 -85 -22 l-53 -6 l-40 121 l53 6 q36 4 49 13.5 q13 9.5 15 35.5 q11 103 11 173 l-117 0 q-4 -138 -29.5 -234.5 q-25.5 -96.5 -83.5 -198.5 l-115 57 q65 105 89.5 190.5 q24.5 85.5 24.5 242.5 l0 282 l367 0 q-10 102 -10 128 l117 -3 l9 -125 l108 0 l-72 71 l73 73 q66 -60 116 -115 l-27 -29 l81 0 l0 -123 l-269 0 q18 -169 40 -268 q56 88 101 232 l103 -42 q-70 -202 -161 -326 q18 -43 40 -77 q25 -35 46 -35 q9 0 16.5 10 q7.5 10 17.5 42 q4 16 17 80 ZM450 46 q80 62 128 116 q-47 153 -69 384 l-261 0 l0 -95 l237 0 q0 -30 -6.5 -162.5 q-6.5 -132.5 -9.5 -164.5 q-5 -51 -19 -78 Z" /><glyph glyph-name="Identity.13187" unicode="&#x6211;" d="M827 147 l102 -57 q-16 -67 -31 -105 q-21 -53 -51.5 -74 q-30.5 -21 -75.5 -21 q-42 0 -75 26 q-33 26 -66 83 q-10 17 -31 65 q-96 -66 -188 -114 l-58 112 l0 -31 q0 -68 -25 -93.5 q-25 -25.5 -89 -29.5 l-78 -6 l-36 117 l71 6 q23 2 30 14.5 q7 12.5 7 42.5 l0 101 q-139 -29 -157 -35 l-19 125 q50 7 176 32 l0 116 l-165 0 l0 117 l165 0 l0 83 q-84 -10 -134 -14 l-9 114 q186 15 360 59 l19 -116 q-54 -14 -116 -24 l0 -102 l161 0 l-3 58 q-6 118 -9 196 l118 -5 q0 -46 8 -187 l4 -62 l275 0 l0 -117 l-104 0 l85 -55 q-85 -127 -192 -223 q15 -45 37 -84 q18 -32 38 -32 q22 0 37 50 q15 50 19 70 ZM877 624 l-84 -84 q-70 92 -152 160 l76 79 q89 -70 160 -155 ZM353 208 l0 -141 q121 56 209 119 q-21 91 -38 235 l-171 0 l0 -90 q89 18 130 28 l8 -64 l7 -57 q-66 -13 -145 -30 ZM788 421 l-146 0 q13 -106 22 -152 q75 73 124 152 Z" /><glyph glyph-name="Identity.13245" unicode="&#x624b;" d="M919 289 l0 -125 l-353 0 l0 -102 q0 -93 -26 -124.5 q-26 -31.5 -103 -37.5 l-85 -8 l-42 124 l73 8 q33 4 42 17.5 q9 13.5 9 66.5 l0 56 l-368 0 l0 125 l368 0 l0 99 l-293 0 l0 125 l293 0 l0 104 q-172 -10 -308 -12 l-9 119 q151 0 365.5 16.5 q214.5 16.5 356.5 42.5 l15 -125 q-119 -19 -288 -32 l0 -113 l279 0 l0 -125 l-279 0 l0 -99 l353 0 Z" /><glyph glyph-name="Identity.13247" unicode="&#x624d;" d="M903 634 l0 -128 l-203 0 l0 -446 q0 -87 -34 -117 q-34 -30 -135 -38 l-93 -7 l-40 133 l101 8 q47 4 56.5 13.5 q9.5 9.5 9.5 51.5 l0 294 q-156 -223 -458 -407 l-72 118 q304 171 456 397 l-392 0 l0 128 l466 0 l0 161 l135 -5 l0 -156 l203 0 Z" /><glyph glyph-name="Identity.13253" unicode="&#x6253;" d="M429 373 l7 -65 q-62 -22 -115 -39 l0 -245 q0 -72 -26.5 -93 q-26.5 -21 -109.5 -30 l-63 -7 l-37 125 l62 7 q33 4 39.5 10 q6.5 6 6.5 32 l0 160 l-124 -38 l-26 124 q43 9 150 40 l0 159 l-115 0 l0 123 l115 0 l0 160 l128 -5 l0 -155 l108 0 l0 -123 l-108 0 l0 -120 q38 11 102 34 l6 -54 ZM929 745 l0 -125 l-154 0 l0 -578 q0 -74 -32 -100 q-32 -26 -120 -35 l-66 -6 l-38 124 l72 7 q37 4 47 11 q10 7 10 33 l0 544 l-205 0 l0 125 l486 0 Z" /><glyph glyph-name="Identity.13433" unicode="&#x6307;" d="M371 378 l11 -64 q-56 -21 -92 -33 l0 -266 q0 -62 -25 -85 q-25 -23 -87 -27 l-80 -6 l-33 114 l67 6 q21 2 27.5 8.5 q6.5 6.5 6.5 26.5 l0 188 l-105 -34 l-24 123 l129 41 l0 151 l-93 0 l0 119 l93 0 l0 147 l124 -5 l0 -142 l82 0 l0 -119 l-82 0 l0 -109 q51 17 72 25 l9 -59 ZM814 610 l114 -36 q0 -30 -8 -68 q-12 -60 -36.5 -77.5 q-24.5 -17.5 -92.5 -19.5 q-135 -3 -269 0 q-71 2 -98.5 29 q-27.5 27 -27.5 101 l0 244 l113 -5 l0 -103 q171 40 331 94 l32 -114 q-155 -45 -363 -93 l0 -2 q0 -25 7.5 -33 q7.5 -8 31.5 -9 q101 -3 200 0 q36 0 47 7 q11 7 15 32 q4 25 4 53 ZM396 -90 l0 462 l479 0 l0 -462 l-479 0 ZM759 265 l-252 0 l0 -72 l252 0 l0 72 ZM507 17 l252 0 l0 70 l-252 0 l0 -70 Z" /><glyph glyph-name="Identity.13536" unicode="&#x636e;" d="M934 309 l-198 0 l0 -75 l153 0 l0 -318 l-410 0 l0 318 l145 0 l0 75 l-143 0 q-8 -134 -33.5 -224.5 q-25.5 -90.5 -81.5 -182.5 l-96 58 q-8 -27 -27.5 -40 q-19.5 -13 -59.5 -18 l-75 -8 l-32 111 l53 7 q21 3 27.5 12 q6.5 9 6.5 34 l0 188 l-100 -42 l-26 124 q55 19 126 47 l0 139 l-90 0 l0 119 l90 0 l0 153 l114 -5 l0 -148 l68 0 l0 -119 l-68 0 l0 -95 q55 23 58 25 l6 -51 l13 -70 l-77 -30 l0 -256 q0 -37 -2 -46 q55 97 75 196.5 q20 99.5 20 277.5 l0 293 l530 0 l0 -282 l-164 0 l0 -60 l198 0 l0 -107 ZM786 651 l-302 0 l0 -69 l302 0 l0 69 ZM484 416 l140 0 l0 60 l-140 0 l0 -25 l0 -35 ZM778 20 l0 107 l-189 0 l0 -107 l189 0 Z" /><glyph glyph-name="Identity.13594" unicode="&#x63a8;" d="M747 31 l186 0 l0 -112 l-552 0 l0 469 l-14 -21 l-64 121 q9 13 25 39 l-42 0 l0 -124 q5 2 14 4.5 q9 2.5 15.5 5 q6.5 2.5 12.5 4.5 l8 -61 l8 -60 l-58 -18 l0 -241 q0 -67 -22.5 -94 q-22.5 -27 -87.5 -35 l-65 -8 l-36 117 l59 8 q34 4 34 48 l0 169 q-19 -7 -57 -18.5 q-38 -11.5 -53 -17.5 l-26 123 q18 5 63.5 17.5 q45.5 12.5 72.5 20.5 l0 160 l-93 0 l0 123 l93 0 l0 140 l118 -5 l0 -135 l70 0 l0 -76 q55 104 83 232 l113 -23 q-15 -63 -36 -119 l129 0 l-24 111 l115 6 l24 -117 l149 0 l0 -113 l-162 0 l0 -99 l146 0 l0 -107 l-146 0 l0 -101 l146 0 l0 -111 l-146 0 l0 -102 ZM622 452 l0 99 l-119 0 l0 -99 l119 0 ZM622 244 l0 101 l-119 0 l0 -101 l119 0 ZM503 133 l0 -102 l119 0 l0 102 l-119 0 Z" /><glyph glyph-name="Identity.13634" unicode="&#x63d0;" d="M689 93 l0 -67 q132 -5 249 5 l-27 -115 q-115 -10 -236 -4 q-87 4 -142 29.5 q-55 25.5 -95 86.5 q-36 -71 -103 -140 l-72 59 q-9 -22 -30.5 -31.5 q-21.5 -9.5 -69.5 -15.5 l-63 -8 l-36 118 l52 7 q20 2 28.5 10 q8.5 8 8.5 25 l0 202 q-98 -36 -106 -40 l-13 126 l119 42 l0 133 l-90 0 l0 119 l90 0 l0 151 l118 -5 l0 -146 l79 0 l0 -119 l-79 0 l0 -89 q14 6 36.5 14.5 q22.5 8.5 28.5 11.5 l1 -54 l2 -36 l566 0 l0 -105 l-216 0 l0 -58 l176 0 l0 -106 l-176 0 ZM854 767 l0 -368 l-474 0 l0 368 l474 0 ZM733 671 l-232 0 l0 -39 l232 0 l0 39 ZM501 497 l232 0 l0 38 l-232 0 l0 -38 ZM480 148 q38 -77 90 -101 l0 210 l-240 0 l0 65 l-59 -23 l0 -291 l0 -14 q55 58 79 111.5 q24 53.5 34 139.5 l112 -9 q-10 -66 -16 -88 Z" /><glyph glyph-name="Identity.13879" unicode="&#x64c5;" d="M291 382 l12 -63 q-6 -2 -28.5 -10.5 q-22.5 -8.5 -36.5 -14.5 l0 -273 q0 -65 -18 -88 q-18 -23 -72 -29 l-63 -8 l-34 110 l58 8 q17 2 23 9 q6 7 6 25 l0 207 l-82 -33 l-25 119 q40 13 107 38 l0 142 l-67 0 l0 116 l67 0 l0 164 l100 -5 l0 -159 l58 0 l0 -116 l-58 0 l0 -103 l42 18 l11 -54 ZM914 734 l0 -86 l-611 0 l0 86 l242 0 l-14 60 l118 6 l14 -66 l251 0 ZM884 621 l0 -311 l-573 0 l0 311 l573 0 ZM785 371 l0 187 l-374 0 l0 -187 l374 0 ZM749 534 l0 -138 l-303 0 l0 138 l303 0 ZM663 450 l0 31 l-131 0 l0 -31 l131 0 ZM857 37 l-517 0 l0 246 l517 0 l0 -246 ZM758 221 l-320 0 l0 -29 l320 0 l0 29 ZM438 107 l320 0 l0 28 l-320 0 l0 -28 ZM260 4 l670 0 l0 -82 l-670 0 l0 82 Z" /><glyph glyph-name="Identity.13887" unicode="&#x64cd;" d="M314 376 l9 -58 q-2 -1 -27.5 -9.5 q-25.5 -8.5 -41.5 -15.5 l0 -273 q0 -65 -22.5 -86 q-22.5 -21 -88.5 -27 l-53 -6 l-34 117 l55 6 q21 2 26.5 8 q5.5 6 5.5 29 l0 191 l-88 -33 l-25 119 q36 12 113 40 l0 142 l-72 0 l0 121 l72 0 l0 148 l111 -5 l0 -143 l79 0 l0 -121 l-79 0 l0 -101 l52 20 l8 -63 ZM831 778 l0 -230 l-441 0 l0 230 l441 0 ZM726 640 l0 40 l-233 0 l0 -40 l233 0 ZM592 510 l0 -224 l-256 0 l0 224 l256 0 ZM625 286 l0 224 l258 0 l0 -224 l-258 0 ZM501 370 l0 56 l-73 0 l0 -56 l73 0 ZM714 426 l0 -56 l77 0 l0 56 l-77 0 ZM940 28 l-48 -103 q-143 63 -230 133 l0 -154 l-104 0 l0 155 q-99 -87 -233 -148 l-56 107 q129 45 226 116 l-170 0 l0 102 l233 0 l0 38 l104 -4 l0 -34 l235 0 l0 -102 l-175 0 q88 -63 218 -106 Z" /><glyph glyph-name="Identity.13995" unicode="&#x6539;" d="M750 167 q81 -88 210 -169 l-77 -114 q-128 90 -209 184 q-87 -94 -233 -187 l-76 114 q156 89 235 173 q-57 92 -90 205 q-7 -12 -23 -34 l-64 74 l0 -94 l-201 0 l0 -219 q69 35 199 94 l20 -123 q-2 -1 -51 -24 q-49 -23 -106.5 -50.5 q-57.5 -27.5 -91.5 -46.5 q-31 -17 -51 -30 l-63 109 q19 24 19 56 l0 360 l203 0 l0 169 l-212 0 l0 128 l335 0 l0 -292 q48 74 88 174 q40 100 54 181 l123 -28 q-22 -77 -34 -111 l272 0 l0 -127 l-58 0 q-30 -231 -118 -372 ZM603 539 l-9 -19 q22 -142 81 -248 q55 98 76 267 l-148 0 Z" /><glyph glyph-name="Identity.14000" unicode="&#x653e;" d="M749 180 q79 -101 205 -186 l-86 -100 q-110 85 -188 185 q-74 -89 -203 -186 l-62 69 q-23 -28 -100 -34 l-56 -5 l-34 124 l58 4 q28 2 38 12.5 q10 10.5 12 35.5 q3 21 7 115 q4 94 4 120 l-89 0 q-8 -157 -33.5 -242.5 q-25.5 -85.5 -94.5 -194.5 l-107 71 q71 105 94.5 200 q23.5 95 27.5 295 q0 21 2 85 l-70 0 l0 127 l157 0 l-27 112 l125 8 l25 -120 l141 0 l0 -115 q63 134 87 239 l119 -22 q-17 -63 -35 -116 l255 0 l0 -130 l-66 0 q-29 -217 -106 -351 ZM259 458 l180 0 q22 32 50 90 l-227 0 l-3 -90 ZM741 531 l-130 0 q0 -1 -0.5 -1 q-0.5 0 -0.5 -1 q17 -133 69 -238 q45 97 62 240 ZM439 19 q110 80 173 161 q-54 89 -84 207 q-8 -14 -29 -42 l-43 54 q-2 -43 -4.5 -123 q-2.5 -80 -5 -141.5 q-2.5 -61.5 -3.5 -75.5 q-2 -33 -4 -40 Z" /><glyph glyph-name="Identity.14017" unicode="&#x654f;" d="M785 172 q65 -98 176 -180 l-72 -103 q-101 85 -168 180 q-63 -86 -171 -178 l-71 98 q-8 -47 -32.5 -62 q-24.5 -15 -86.5 -22 l-67 -6 l-33 105 l75 7 q23 2 33 11 q10 9 11 29 l-295 0 l19 208 l-57 0 l0 107 l67 0 l12 121 l-79 73 q98 127 140 239 l124 -23 q-3 -6 -9.5 -22.5 q-6.5 -16.5 -10.5 -24.5 l251 0 l0 -112 l-310 0 q-4 -8 -13.5 -21.5 q-9.5 -13.5 -12.5 -19.5 l303 0 q0 -30 -3 -66 q86 136 117 285 l113 -12 q-11 -53 -32 -121 l220 0 l0 -121 l-46 0 q-23 -231 -92 -369 ZM719 297 q37 97 54 244 l-112 0 q15 -136 58 -244 ZM231 472 l-11 -106 l86 0 q-48 53 -59 64 l43 42 l-59 0 ZM326 366 l69 0 l6 106 l-86 0 q39 -39 55 -60 l-44 -46 ZM480 -8 q111 82 178 183 q-54 104 -79 240 q-16 -24 -25 -36 l-52 66 q-3 -66 -4 -79 l58 0 l0 -107 l-63 0 l-4 -103 l45 0 l0 -105 l-50 0 q-1 -8 -1 -16 q0 -4 -3 -43 ZM209 259 l-10 -103 l92 0 q-31 36 -56 58 l41 45 l-67 0 ZM316 156 l68 0 q2 69 5 103 l-90 0 q40 -38 56 -60 l-39 -43 Z" /><glyph glyph-name="Identity.14054" unicode="&#x6574;" d="M103 277 l-58 82 q85 36 151 89 l-102 0 l0 187 l152 0 l0 29 l-165 0 l0 85 l165 0 l0 49 l106 -4 l0 -45 l164 0 l0 -85 l-164 0 l0 -29 l155 0 l0 -24 q73 88 107 198 l106 -23 q-16 -42 -25 -63 l223 0 l0 -95 l-51 0 q-28 -102 -80 -170 q56 -37 151 -75 l-52 -100 q-107 48 -173 100 q-65 -53 -166 -102 l-48 77 l-40 -58 q-16 10 -53 36 q-37 26 -54 37 l0 -72 l-106 0 l0 74 q-66 -58 -143 -98 ZM762 628 l-116 0 l0 -1 q-1 -1 -1 -2 q22 -55 63 -100 q35 45 54 103 ZM190 564 l0 -44 l56 0 l0 44 l-56 0 ZM409 564 l-57 0 l0 -44 l57 0 l0 44 ZM547 497 l-40 57 l0 -106 l-107 0 q13 -8 100 -62 q79 30 135 71 q-33 38 -53 79 l-35 -39 ZM352 448 l0 -59 l41 59 l-41 0 ZM558 48 l0 -37 l356 0 l0 -96 l-848 0 l0 96 l125 0 l0 139 l118 -4 l0 -135 l126 0 l0 170 l-300 0 l0 96 l711 0 l0 -96 l-288 0 l0 -40 l249 0 l0 -93 l-249 0 Z" /><glyph glyph-name="Identity.14111" unicode="&#x65ad;" d="M931 484 l0 -122 l-79 0 l0 -453 l-108 0 l0 453 l-64 0 q-2 -175 -26 -271 q-24 -96 -86 -202 l-106 51 l5 8 l-378 0 l0 804 l115 -5 l0 -51 l56 25 q30 -55 58 -123 l0 184 l108 -5 l0 -184 q38 78 57 131 l85 -34 l0 25 q179 25 300 71 l35 -120 q-96 -40 -223 -60 l0 -122 l251 0 ZM487 65 l0 -85 q49 85 65 170 q16 85 16 250 l0 283 q-35 -97 -78 -175 l-64 27 l0 -50 l110 0 l0 -120 l-110 0 l0 -58 l30 25 q47 -47 104 -121 l-71 -79 q-32 52 -63 90 l0 -157 l61 0 ZM318 543 l-64 -36 q-25 63 -50 117 l0 -139 l114 0 l0 58 ZM204 365 l0 -135 q58 60 96 135 l-96 0 ZM204 186 l0 -121 l114 0 l0 152 q-28 -45 -64 -96 l-50 65 Z" /><glyph glyph-name="Identity.14162" unicode="&#x65e0;" d="M806 182 l122 -34 q0 -45 -11 -109 q-12 -69 -43.5 -93.5 q-31.5 -24.5 -113.5 -28.5 q-74 -4 -147 0 q-75 4 -107.5 33.5 q-32.5 29.5 -32.5 104.5 l0 206 q-41 -111 -124 -201 q-83 -90 -222 -179 l-92 117 q142 81 219.5 166.5 q77.5 85.5 109.5 198.5 l-272 0 l0 121 l296 0 q3 21 5 67 q1 10 3 84 l-248 0 l0 119 l685 0 l0 -119 l-305 0 q0 -15 -0.5 -37 q-0.5 -22 -1 -36 q-0.5 -14 -0.5 -20 l-4 -58 l375 0 l0 -121 l-394 0 q-4 -21 -10 -40 l108 -4 l0 -229 q0 -28 11.5 -39.5 q11.5 -11.5 40.5 -14.5 q40 -4 78 0 q38 4 49.5 13.5 q11.5 9.5 17.5 42.5 q8 53 8 90 Z" /><glyph glyph-name="Identity.14184" unicode="&#x65f6;" d="M934 626 l0 -132 l-98 0 l0 -448 q0 -80 -32 -107.5 q-32 -27.5 -120 -36.5 l-85 -8 l-39 129 l84 8 q40 4 50 12 q10 8 10 42 l0 409 l-251 0 l0 132 l251 0 l0 166 l132 -5 l0 -161 l98 0 ZM91 -28 l0 770 l337 0 l0 -770 l-337 0 ZM313 610 l-105 0 l0 -190 l105 0 l0 190 ZM679 235 l-103 -67 q-38 94 -129 245 l102 57 q102 -162 130 -235 ZM208 100 l105 0 l0 197 l-105 0 l0 -197 Z" /><glyph glyph-name="Identity.14208" unicode="&#x660e;" d="M483 764 l405 0 l0 -731 q0 -73 -26.5 -97.5 q-26.5 -24.5 -102.5 -33.5 l-69 -8 l-37 119 l77 8 q28 3 36.5 10 q8.5 7 8.5 32 l0 114 l-189 0 q-17 -89 -58.5 -158 q-41.5 -69 -116.5 -144 l-98 90 q59 55 73 71 l-292 0 l0 709 l330 0 l0 -662 q38 58 48.5 126 q10.5 68 10.5 221 l0 334 ZM775 643 l-174 0 l0 -120 l174 0 l0 120 ZM315 623 l-111 0 l0 -170 l111 0 l0 170 ZM599 294 l176 0 l0 113 l-174 0 l0 -37 q0 -28 -2 -76 ZM204 157 l111 0 l0 175 l-111 0 l0 -175 Z" /><glyph glyph-name="Identity.14241" unicode="&#x662f;" d="M800 770 l0 -378 l-641 0 l0 378 l641 0 ZM674 670 l-386 0 l0 -39 l386 0 l0 39 ZM288 492 l386 0 l0 39 l-386 0 l0 -39 ZM557 88 l0 -69 q196 -6 377 4 l-26 -107 q-175 -10 -359 -4 q-119 4 -189 27.5 q-70 23.5 -122 85.5 q-46 -75 -125 -143 l-102 78 q79 66 123.5 131.5 q44.5 65.5 61.5 153.5 l-131 0 l0 106 l827 0 l0 -106 l-335 0 l0 -55 l267 0 l0 -102 l-267 0 ZM291 136 q50 -77 138 -102 l0 211 l-223 0 l110 -21 q-13 -60 -25 -88 Z" /><glyph glyph-name="Identity.14438" unicode="&#x66f4;" d="M930 30 l-33 -123 q-180 19 -285 39 q-105 20 -181 52 q-92 -68 -328 -121 l-50 111 q185 42 259 78 q-56 40 -126 107 l35 34 l-78 0 l0 404 l288 0 l0 47 l-337 0 l0 110 l801 0 l0 -110 l-339 0 l0 -47 l289 0 l0 -404 l-294 0 q-9 -67 -37 -119 q140 -48 416 -58 ZM431 507 l-166 0 l0 -47 l166 0 l0 47 ZM725 507 l-169 0 l0 -47 l169 0 l0 47 ZM265 357 l0 -46 l166 0 l0 46 l-166 0 ZM556 311 l169 0 l0 46 l-169 0 l0 -46 ZM424 207 l-105 0 q48 -42 83 -64 q15 28 22 64 Z" /><glyph glyph-name="Identity.14459" unicode="&#x6709;" d="M916 594 l-488 0 q-18 -34 -36 -62 l436 0 l0 -498 q0 -77 -28 -104 q-28 -27 -108 -33 l-68 -6 l-42 117 l74 7 q31 2 40.5 14.5 q9.5 12.5 9.5 51.5 l-373 0 l0 -182 l-120 0 l0 411 q-58 -54 -109 -94 l-76 109 q154 112 255 269 l-196 0 l0 118 l261 0 q20 41 38 94 l130 -22 l-30 -72 l430 0 l0 -118 ZM706 358 l0 64 l-373 0 l0 -64 l373 0 ZM333 253 l0 -66 l373 0 l0 66 l-373 0 Z" /><glyph glyph-name="Identity.14463" unicode="&#x670d;" d="M793 112 q57 -52 156 -112 l-69 -99 q-95 66 -153 126 q-55 -63 -130 -119 l-40 46 l0 -48 l-107 0 l0 861 l427 0 q0 -53 -6 -151 q-4 -75 -30 -105 q-26 -30 -88 -36 l-64 -6 l-38 104 l57 5 q30 3 39 18 q9 15 9 55 l-199 0 l0 -202 l334 0 l0 -106 q-33 -130 -98 -231 ZM111 384 l0 382 l310 0 l0 -726 q0 -75 -20 -101.5 q-20 -26.5 -78 -32.5 l-56 -6 l-33 107 l42 6 q23 2 30 12.5 q7 10.5 7 48.5 l0 124 l-97 0 q-20 -180 -82 -306 l-106 54 q48 83 65.5 167 q17.5 84 17.5 271 ZM313 651 l-92 0 l0 -118 l92 0 l0 118 ZM221 306 l92 0 l0 119 l-92 0 l0 -91 l0 -28 ZM557 343 l0 -317 q57 39 101 84 q-51 72 -92 183 l89 44 q30 -86 67 -142 q38 60 65 148 l-230 0 Z" /><glyph glyph-name="Identity.14481" unicode="&#x671f;" d="M522 135 l-113 0 q28 -24 86 -82 l-74 -81 q-31 41 -106 116 l47 47 l-136 0 l64 -51 q-28 -44 -75.5 -99.5 q-47.5 -55.5 -86.5 -88.5 l-81 85 q74 58 149 154 l-151 0 l0 105 l90 0 l0 362 l-53 0 l0 104 l53 0 l0 83 l108 -6 l0 -77 l124 0 l0 83 l109 -6 l0 -77 l51 0 l0 -104 l-51 0 l0 -362 l46 0 l0 -105 ZM561 764 l329 0 l0 -725 q0 -71 -24.5 -97.5 q-24.5 -26.5 -84.5 -32.5 l-51 -5 l-34 107 l43 4 q27 2 36.5 17.5 q9.5 15.5 9.5 57.5 l0 91 l-123 0 q-8 -88 -32 -150.5 q-24 -62.5 -76 -142.5 l-106 57 q75 99 94 183.5 q19 84.5 19 295.5 l0 340 ZM785 637 l-117 0 l0 -114 l117 0 l0 114 ZM367 602 l-124 0 l0 -53 l124 0 l0 53 ZM243 447 l0 -53 l124 0 l0 53 l-124 0 ZM667 295 l118 0 l0 117 l-117 0 l0 -47 q0 -47 -1 -70 ZM243 292 l0 -52 l124 0 l0 52 l-124 0 Z" /><glyph glyph-name="Identity.14497" unicode="&#x672f;" d="M892 497 l-304 0 q64 -123 151 -214.5 q87 -91.5 220 -174.5 l-86 -125 q-219 170 -320 360 l0 -437 l-128 0 l0 423 q-48 -85 -130.5 -177 q-82.5 -92 -166.5 -165 l-101 109 q118 86 215 190.5 q97 104.5 146 210.5 l-289 0 l0 125 l326 0 l0 178 l128 -6 l0 -172 l145 0 q-35 34 -98 89 l73 84 q66 -54 128 -116 l-43 -57 l134 0 l0 -125 Z" /><glyph glyph-name="Identity.14508" unicode="&#x673a;" d="M838 173 l110 -33 q-9 -108 -11 -119 q-10 -65 -31.5 -84.5 q-21.5 -19.5 -85.5 -23.5 q-28 -1 -56 0 q-55 2 -77 26.5 q-22 24.5 -22 88.5 l0 601 l-112 0 l0 -231 q0 -207 -25 -302 q-25 -95 -114 -196 l-109 70 q73 79 97.5 140.5 q24.5 61.5 28.5 178.5 l-55 -60 q-29 44 -71 98 l0 -421 l-119 0 l0 364 q-41 -80 -90 -149 l-74 84 q106 147 161 305 l-113 0 l0 121 l116 0 l0 163 l119 -5 l0 -158 l106 0 l0 -121 l-106 0 l0 -96 l32 31 q55 -53 95 -104 l0 58 l0 357 l353 0 l0 -693 q0 -27 11 -27 l16 0 q14 0 18 36 q3 23 8 101 Z" /><glyph glyph-name="Identity.14577" unicode="&#x677f;" d="M759 130 q65 -65 185 -131 l-69 -109 q-119 77 -191 149 q-76 -76 -194 -146 l-55 88 q-19 -40 -43 -80 l-100 61 l0 -60 l-109 0 l0 386 q-33 -84 -74 -148 l-85 86 q91 132 149 295 l-88 0 l0 117 l98 0 l0 158 l109 -6 l0 -152 l90 0 l0 -117 l-90 0 l0 -75 l30 26 q48 -52 89 -110 q3 48 3 103 l0 263 q208 12 454 61 l26 -119 q-166 -33 -369 -54 l0 -75 l354 0 l0 -117 q-49 -188 -120 -294 ZM689 222 q41 70 71 202 l-235 0 q0 -8 -0.5 -22 q-0.5 -14 -0.5 -22 l95 31 q30 -122 70 -189 ZM292 364 l0 -392 q55 84 83 171 q28 87 36 211 l-63 -73 q-21 39 -56 83 ZM448 9 q101 56 164 117 q-60 94 -90 222 q-10 -194 -74 -339 Z" /><glyph glyph-name="Identity.14763" unicode="&#x6839;" d="M763 137 q69 -66 177 -112 l-72 -99 q-128 71 -204 161 q-76 90 -121 221 l-38 0 l0 -252 l131 56 l23 -115 q-83 -31 -167 -67 q-58 -26 -77 -37 l-55 108 q18 7 25 17 q7 10 7 33 l0 266 l-62 -74 q-28 43 -53 73 l0 -412 l-113 0 l0 357 q-36 -77 -80 -145 l-66 104 q83 122 140 293 l-92 0 l0 117 l98 0 l0 164 l113 -5 l0 -159 l90 0 l0 -117 l-90 0 l0 -104 l22 24 q55 -50 93 -99 l0 436 l467 0 l0 -462 l-21 0 l56 -73 q-38 -31 -131 -98 ZM746 663 l-241 0 l0 -69 l241 0 l0 69 ZM505 487 l0 -71 l241 0 l0 71 l-241 0 ZM816 308 l-164 0 q20 -52 48 -94 q59 41 116 94 Z" /><glyph glyph-name="Identity.14766" unicode="&#x683c;" d="M948 351 l-46 -110 q-4 1 -23 8 q-19 7 -29 11 l0 -335 l-434 0 l0 326 l-57 -20 l-54 103 l8 3 q-6 9 -35 45 l0 -474 l-113 0 l0 382 q-31 -67 -69 -133 l-84 74 q93 136 148 286 l-93 0 l0 119 l98 0 l0 164 l113 -4 l0 -160 l85 0 l0 -82 q45 52 85.5 127.5 q40.5 75.5 57.5 132.5 l118 -36 q-7 -17 -23 -51 l276 0 l0 -109 q-62 -104 -148 -183 q94 -54 219 -84 ZM738 618 l-195 0 l-4 -6 q44 -63 93 -107 q54 46 106 113 ZM393 402 l-54 -57 q118 40 203 95 q-36 34 -69 75 q-23 -31 -65 -73 l-78 75 l-52 0 l0 -55 l30 32 q49 -50 85 -92 ZM482 278 l321 0 q-91 38 -165 86 q-66 -46 -156 -86 ZM735 36 l0 131 l-205 0 l0 -131 l205 0 Z" /><glyph glyph-name="Identity.15507" unicode="&#x6b21;" d="M383 351 l-104 72 q122 168 181 375 l123 -28 q-17 -54 -36 -105 l361 0 l0 -120 q-55 -111 -108 -193 l-108 52 q43 57 86 138 l-284 0 q-48 -99 -111 -191 ZM321 538 l-110 -73 q-71 150 -133 244 l105 60 q54 -73 138 -231 ZM639 367 q44 -227 308 -367 l-82 -112 q-194 120 -276 289 q-82 -167 -297 -294 l-78 111 q172 96 239 191 q67 95 65 239 l-1 89 l125 -5 l-1 -95 q0 -16 -2 -46 ZM254 342 l61 -17 q-50 -179 -135 -396 l-125 52 q88 200 137 380 l62 -19 Z" /><glyph glyph-name="Identity.15573" unicode="&#x6b63;" d="M590 71 l341 0 l0 -132 l-875 0 l0 132 l138 0 l0 444 l128 -5 l0 -439 l139 0 l0 541 l-342 0 l0 132 l760 0 l0 -132 l-289 0 l0 -183 l266 0 l0 -132 l-266 0 l0 -226 Z" /><glyph glyph-name="Identity.15575" unicode="&#x6b65;" d="M917 350 l-342 0 l0 -180 q101 66 188 178 l99 -93 q-139 -157 -299 -237.5 q-160 -80.5 -443 -134.5 l-45 124 q276 48 422 120 l-53 0 l0 223 l-122 0 l66 -71 q-90 -96 -238 -208 l-67 108 q121 85 198 171 l-216 0 l0 130 l134 0 l0 240 l130 -5 l0 -235 l109 0 l0 311 l129 -5 l0 -93 l277 0 l0 -123 l-277 0 l0 -90 l350 0 l0 -130 Z" /><glyph glyph-name="Identity.15686" unicode="&#x6bd4;" d="M811 217 l118 -36 q0 -25 -12 -121 q-10 -74 -41.5 -103 q-31.5 -29 -111.5 -33 q-72 -3 -143 0 q-69 2 -100 33 q-31 31 -31 108 l0 721 l127 -6 l0 -317 q137 102 217 198 l84 -101 q-58 -62 -143.5 -130.5 q-85.5 -68.5 -157.5 -113.5 l0 -209 q0 -36 8 -45.5 q8 -9.5 43 -11.5 q36 -2 75 0 q37 2 45.5 10 q8.5 8 14.5 46 q8 62 8 111 ZM257 398 l0 -307 q25 10 97 39 q72 29 102 40 l10 -134 q-178 -71 -229 -95 q-45 -20 -76 -36 l-53 128 q16 8 19.5 17.5 q3.5 9.5 3.5 33.5 l0 692 l126 -6 l0 -244 l201 0 l0 -128 l-201 0 Z" /><glyph glyph-name="Identity.15917" unicode="&#x6cbb;" d="M799 409 l-418 -21 q-37 -2 -46 -4 l-32 117 q9 3 16 6 q7 3 12 7.5 q5 4.5 8 7 q3 2.5 8 8 q5 5.5 7 7.5 q28 31 80.5 114.5 q52.5 83.5 83.5 150.5 l118 -39 q-94 -181 -156 -248 q22 1 74 3 q52 2 99 4 q47 2 82 4 q-40 70 -79 120 l100 59 q96 -131 172 -277 l-104 -69 q-16 35 -25 50 ZM349 652 l-66 -106 q-30 29 -89 73.5 q-59 44.5 -97 66.5 l68 101 q36 -20 93.5 -62.5 q57.5 -42.5 90.5 -72.5 ZM297 429 l-66 -112 q-99 89 -187 144 l69 104 q107 -67 184 -136 ZM344 -82 l0 411 l515 0 l0 -411 l-515 0 ZM194 287 l63 -26 l52 -22 q-104 -286 -129 -336 l-120 49 q20 39 68.5 161.5 q48.5 122.5 65.5 173.5 ZM466 211 l0 -173 l271 0 l0 173 l-271 0 Z" /><glyph glyph-name="Identity.15943" unicode="&#x6cd5;" d="M928 275 l-317 0 q-34 -63 -75 -127 q-41 -64 -64 -87 q38 2 130 8.5 q92 6.5 109 7.5 q-68 111 -73 118 l95 53 q42 -56 99 -143.5 q57 -87.5 87 -141.5 l-105 -77 q-6 12 -40 76 q-109 -3 -397 -29 q-28 -2 -44 -5 l-38 119 q30 14 48 33 q34 34 127 195 l-168 0 l0 124 l232 0 l0 137 l-171 0 l0 125 l171 0 l0 133 l131 -4 l0 -129 l209 0 l0 -125 l-209 0 l0 -137 l263 0 l0 -124 ZM342 655 l-63 -105 q-31 28 -87.5 70.5 q-56.5 42.5 -91.5 64.5 l68 98 q105 -68 174 -128 ZM295 425 l-64 -108 q-80 75 -193 152 l69 97 q114 -75 188 -141 ZM257 259 l54 -19 q-67 -215 -131 -337 l-123 44 q84 163 134 337 l66 -25 Z" /><glyph glyph-name="Identity.15955" unicode="&#x6ce1;" d="M844 116 l95 -36 q-6 -54 -15 -88 q-12 -41 -47.5 -61 q-35.5 -20 -108.5 -23 q-146 -6 -292 0 q-75 2 -110 31 q-35 29 -35 105 l0 386 l-73 66 q122 144 173 303 l122 -23 q-16 -43 -29 -70 l348 0 q-5 -187 -5 -481 q-2 -77 -23 -109 ZM331 653 l-72 -104 q-77 73 -170 140 l68 101 q96 -72 174 -137 ZM745 29 q37 2 52 9 q15 7 20 27 q5 18 6 30 q-18 -12 -45 -14 l-93 -6 l-33 96 l65 8 q18 2 24.5 14.5 q6.5 12.5 8.5 48.5 q0 13 1 99.5 q1 86.5 2.5 167 q1.5 80.5 1.5 78.5 l-291 0 q-24 -43 -40 -65 l262 0 l0 -343 l-245 0 l0 -84 q0 -38 12.5 -51 q12.5 -13 55.5 -15 q118 -6 236 0 ZM288 425 l-69 -111 q-137 116 -180 148 l70 103 q86 -62 179 -140 ZM441 298 l133 0 l0 103 l-133 0 l0 -103 ZM183 290 l56 -22 l62 -22 q-99 -277 -127 -333 l-120 44 q99 238 129 333 Z" /><glyph glyph-name="Identity.15962" unicode="&#x6ce8;" d="M326 663 l-61 -110 q-59 59 -175 132 l66 102 q94 -59 170 -124 ZM664 51 l267 0 l0 -121 l-657 0 l0 121 l265 0 l0 194 l-199 0 l0 123 l199 0 l0 163 l-207 0 l0 123 l214 0 l-24 124 l134 6 l23 -130 l215 0 l0 -123 l-230 0 l0 -163 l199 0 l0 -123 l-199 0 l0 -194 ZM288 429 l-61 -114 q-35 34 -92.5 77 q-57.5 43 -97.5 68 l69 103 q96 -61 182 -134 ZM251 256 l57 -23 q-90 -225 -138 -329 l-119 49 q17 25 74.5 160 q57.5 135 67.5 169 l58 -26 Z" /><glyph glyph-name="Identity.16045" unicode="&#x6d3b;" d="M325 652 l-66 -105 q-97 83 -178 135 l68 101 q100 -68 176 -131 ZM928 400 l-261 0 l0 -102 l201 0 l0 -383 l-525 0 l0 383 l198 0 l0 102 l-231 0 l0 125 l231 0 l0 99 q-55 -4 -192 -11 l-7 120 q276 5 507 45 l22 -119 q-70 -11 -204 -25 l0 -109 l261 0 l0 -125 ZM290 422 l-66 -110 q-103 92 -192 148 l71 103 q124 -87 187 -141 ZM185 280 l54 -20 l65 -21 q-51 -180 -122 -327 l-120 43 q24 53 64.5 160 q40.5 107 58.5 165 ZM742 36 l0 139 l-276 0 l0 -139 l276 0 Z" /><glyph glyph-name="Identity.16871" unicode="&#x7075;" d="M546 271 l0 -2 q43 -194 393 -272 l-37 -115 q-158 41 -257 94.5 q-99 53.5 -151 132.5 q-95 -129 -405 -226 l-56 114 q209 49 306 120.5 q97 71.5 97 166.5 l0 56 l-231 0 q100 -79 155 -138 l-77 -97 q-84 95 -164 158 l65 77 l-46 0 l0 109 l577 0 l0 49 l-542 0 l0 102 l542 0 l0 49 l-567 0 l0 111 l684 0 l0 -420 l-37 0 l72 -75 q-77 -85 -172 -160 l-79 87 q60 50 158 148 l-228 0 l0 -69 Z" /><glyph glyph-name="Identity.16939" unicode="&#x70b9;" d="M834 537 l0 -358 l-684 0 l0 358 l250 0 l0 256 l131 -5 l0 -69 l349 0 l0 -123 l-349 0 l0 -59 l303 0 ZM709 296 l0 117 l-434 0 l0 -117 l434 0 ZM711 126 l108 51 q19 -34 60.5 -107.5 q41.5 -73.5 56.5 -99.5 l-106 -68 q-16 31 -60 112.5 q-44 81.5 -59 111.5 ZM150 -109 l-112 63 q74 104 113 220 l111 -46 q-37 -102 -112 -237 ZM507 122 l111 34 q44 -100 72 -192 l-114 -41 q-30 105 -69 199 ZM307 123 l117 23 q31 -135 45 -202 l-123 -28 q-9 74 -39 207 Z" /><glyph glyph-name="Identity.16991" unicode="&#x70ed;" d="M923 233 q-33 -89 -96 -93 q51 -77 97 -175 l-107 -68 q-35 99 -113 218 l69 42 q-40 29 -60 111 q-1 5 -2 13 q-1 8 -2.5 20.5 q-1.5 12.5 -2.5 20.5 l-39 -76 q-18 12 -57 35.5 q-39 23.5 -48 29.5 q-42 -85 -145 -175 l4 1 q24 -84 42 -206 l-116 -26 q-7 103 -38 211 l98 18 l-89 86 q110 78 144 149 q-50 29 -76 41 l4 8 q-15 -3 -79 -21 l0 -121 q0 -69 -23.5 -97.5 q-23.5 -28.5 -86.5 -34.5 l-10 -1 l77 -25 q-31 -103 -98 -227 l-113 53 q61 94 93 196 l-29 -3 l-34 116 l75 8 q23 2 29.5 10 q6.5 8 6.5 32 l0 63 q-86 -24 -144 -43 l-10 123 q7 2 61.5 15.5 q54.5 13.5 92.5 23.5 l0 75 l-116 0 l0 115 l116 0 l0 111 l113 -5 l0 -106 l89 0 l0 -115 l-89 0 l0 -46 q10 3 35.5 9.5 q25.5 6.5 34.5 9.5 l3 -48 l7 -65 l46 91 l55 -26 q3 26 5 80 l-72 0 l0 117 l73 0 l0 102 l110 -5 l0 -97 l200 0 l0 -176 q0 -123 4 -175 q1 -23 7 -37.5 q6 -14.5 12 -14.5 q8 0 12 6 q4 6 9 26 q4 13 12 54 l82 -40 q-6 -42 -23 -92 ZM597 430 q16 -8 105 -57 q-3 43 -3 128 l0 64 l-91 0 q-2 -81 -11 -135 ZM514 121 l106 35 q54 -126 72 -202 l-112 -37 q-22 110 -66 204 Z" /><glyph glyph-name="Identity.17064" unicode="&#x7136;" d="M856 135 l-30 22 q45 -69 102 -189 l-109 -64 q-46 120 -99 216 l96 44 q-107 87 -158 180 q-57 -111 -212 -214 l-82 98 q108 64 156.5 117.5 q48.5 53.5 64.5 126.5 l-89 0 l0 70 q-43 -120 -108 -210 q-65 -90 -184 -186 l62 -23 q-36 -105 -102 -233 l-111 57 q58 83 96 183 l-66 86 q151 102 213.5 178 q62.5 76 111.5 210 l-126 0 l-8 -14 q74 -41 94 -57 l-55 -84 q-26 20 -90 59 l-30 -42 q68 -48 84 -62 l-58 -80 q-12 10 -88 66 l-28 -30 l-54 106 q132 146 196 331 l115 -18 q-16 -44 -23 -61 l180 0 l0 -110 l-8 -25 l85 0 l0 206 l115 -5 l0 -69 l65 61 q20 -20 66.5 -70.5 q46.5 -50.5 51.5 -55.5 l-67 -67 l81 0 l0 -111 l-189 0 q25 -73 75.5 -126 q50.5 -53 146.5 -108 l-83 -103 ZM709 592 l0 -9 l105 0 q-90 105 -105 120 l0 -111 ZM516 125 l104 27 q28 -61 67 -185 l-111 -33 q-22 102 -60 191 ZM313 128 l108 16 q28 -90 43 -191 l-116 -26 q-8 101 -35 201 Z" /><glyph glyph-name="Identity.17387" unicode="&#x7279;" d="M700 503 l224 0 l0 -121 l-554 -1 l10 -57 l11 -66 q-1 0 -12.5 -4 q-11.5 -4 -26 -9 q-14.5 -5 -30.5 -10 l0 -334 l-118 0 l0 292 q-30 -10 -63.5 -22.5 q-33.5 -12.5 -55.5 -21 q-22 -8.5 -28 -10.5 l-31 131 q52 12 178 56 l0 173 l-51 0 q-14 -103 -25 -151 l-101 23 q36 145 50 341 l100 -10 q-7 -70 -10 -92 l37 0 l0 176 l118 -5 l0 -171 l77 0 l0 -108 l184 0 l0 71 l-162 0 l0 119 l162 0 l0 99 l117 -5 l0 -94 l172 0 l0 -119 l-172 0 l0 -70 ZM322 499 l0 -132 q35 12 47 17 l0 115 l-47 0 ZM812 360 l0 -48 l89 0 l0 -118 l-89 0 l0 -159 q0 -73 -26.5 -97.5 q-26.5 -24.5 -107.5 -32.5 l-71 -7 l-33 114 l70 7 q31 3 40.5 14 q9.5 11 9.5 43 l0 118 l-162 0 q61 -65 80 -90 l-81 -92 q-50 72 -120 142 l41 40 l-51 0 l0 118 l293 0 l0 53 l118 -5 Z" /><glyph glyph-name="Identity.17448" unicode="&#x72b6;" d="M912 432 l-232 0 q22 -130 92 -236.5 q70 -106.5 187 -203.5 l-95 -100 q-155 136 -233 318 q-68 -187 -218 -322 l-51 64 l0 -49 l-122 0 l0 290 q-92 -78 -160 -125 l-58 126 q66 41 218 164 l0 58 l-75 -42 q-52 148 -113 264 l101 48 q34 -61 87 -189 l0 294 l122 -5 l0 -763 q102 100 147.5 192 q45.5 92 55.5 217 l-177 0 l0 123 l180 0 l0 238 l115 -5 l0 -233 l120 0 q-66 96 -115 151 l83 75 q22 -22 60.5 -70 q38.5 -48 60.5 -80 l-74 -76 l94 0 l0 -123 Z" /><glyph glyph-name="Identity.17709" unicode="&#x73bb;" d="M947 1 l-66 -114 q-140 68 -216 125 q-82 -69 -198 -130 l-51 84 q-14 -29 -46 -79 l-96 68 q39 53 61 102 q-2 -1 -269 -66 l-19 120 q37 8 108 24 l0 196 l-75 0 l0 121 l75 0 l0 156 l-83 0 l0 119 l285 0 l0 -119 l-86 0 l0 -156 l78 0 l0 -121 l-78 0 l0 -168 l63 17 l4 -46 l6 -53 q23 60 30.5 133 q7.5 73 7.5 201 l0 279 l210 0 l0 101 l116 -5 l0 -96 l208 0 l0 -116 l-50 -104 l-103 34 l41 67 l-96 0 l0 -132 l160 0 l0 -115 q-51 -141 -120 -230 q64 -44 199 -97 ZM592 575 l-96 0 l0 -132 l96 0 l0 132 ZM668 170 q46 56 85 155 l-257 0 l-2 -46 l92 44 q36 -97 82 -153 ZM432 -2 q88 42 153 91 q-53 66 -92 169 q-7 -146 -61 -260 Z" /><glyph glyph-name="Identity.17727" unicode="&#x73cd;" d="M372 400 l-57 107 q181 129 264 304 l87 0 q80 -174 288 -310 l-65 -111 q-181 136 -265 276 q-92 -145 -252 -266 ZM365 87 l7 -45 q-43 -18 -311 -79 l-22 116 q88 18 125 27 l0 213 l-86 0 l0 118 l86 0 l0 169 l-95 0 l0 122 l300 0 l0 -122 l-91 0 l0 -169 l73 0 l0 -118 l-73 0 l0 -185 q14 4 33.5 9.5 q19.5 5.5 29.5 8 q10 2.5 15 4.5 l9 -69 ZM657 563 l65 -87 q-131 -133 -306 -218 l-54 105 q174 85 295 200 ZM742 419 l67 -83 q-145 -156 -385 -255 l-51 106 q206 81 369 232 ZM379 -121 l-59 119 q325 87 513 278 l75 -89 q-193 -198 -529 -308 Z" /><glyph glyph-name="Identity.17784" unicode="&#x7406;" d="M692 39 l237 0 l0 -114 l-585 0 l0 101 q-169 -33 -283 -64 l-18 118 q20 3 123 24 l0 219 l-88 0 l0 116 l88 0 l0 176 l-95 0 l0 116 l293 0 l0 -116 l-84 0 l0 -176 l78 0 l0 -116 l-78 0 l0 -193 q76 17 87 21 l6 -64 l3 -48 l203 0 l0 62 l-189 0 l0 112 l189 0 l0 62 l-193 0 l0 486 l498 0 l0 -486 l-192 0 l0 -62 l192 0 l0 -112 l-192 0 l0 -62 ZM579 647 l-78 0 l0 -75 l78 0 l0 75 ZM772 572 l0 75 l-80 0 l0 -75 l80 0 ZM501 387 l78 0 l0 75 l-78 0 l0 -75 ZM692 387 l80 0 l0 75 l-80 0 l0 -75 Z" /><glyph glyph-name="Identity.17812" unicode="&#x7422;" d="M977 62 l-89 -85 q-125 134 -181 365 l-3 -2 q27 -102 27 -242 q0 -107 -26 -147.5 q-26 -40.5 -103 -46.5 l-91 -7 l-35 112 l80 6 q33 2 47 21.5 q14 19.5 14 75.5 q0 21 -2 63 q-102 -106 -255 -196 l-47 89 l-253 -67 l-18 122 q43 7 113 25 l0 190 l-79 0 l0 119 l79 0 l0 158 l-87 0 l0 120 l284 0 l0 -120 l-85 0 l0 -158 l71 0 l0 -119 l-71 0 l0 -163 l83 22 l7 -54 l3 -29 q125 72 237 191 q-9 35 -12 43 q-15 -15 -49 -43 l20 -40 l-88 -53 l-14 33 q-44 -30 -80 -51 l-44 105 q49 24 78 41 l-24 48 l86 43 l20 -36 q35 28 58 51 q-14 30 -22 45 q-52 -35 -138 -81 l-47 105 q108 46 213 129 l-172 0 l0 113 l512 0 l0 -113 l-187 0 q-48 -50 -91 -87 q32 -59 52 -106 q84 61 160 137 l78 -88 q-62 -56 -113 -94 q50 -211 184 -344 Z" /><glyph glyph-name="Identity.18065" unicode="&#x751f;" d="M577 57 l346 0 l0 -124 l-844 0 l0 124 l368 0 l0 177 l-275 0 l0 122 l275 0 l0 147 l-193 0 q-42 -85 -103 -179 l-110 67 q135 184 182 371 l117 -32 q-15 -54 -33 -102 l140 0 l0 165 l130 -5 l0 -160 l300 0 l0 -125 l-300 0 l0 -147 l268 0 l0 -122 l-268 0 l0 -177 Z" /><glyph glyph-name="Identity.18074" unicode="&#x7528;" d="M134 758 l735 0 l0 -711 q0 -91 -24 -117.5 q-24 -26.5 -115 -34.5 l-59 -6 l-42 124 l58 4 q39 2 48 15.5 q9 13.5 9 64.5 l0 66 l-186 0 l0 -236 l-124 0 l0 236 l-180 0 q-17 -133 -98 -272 l-123 58 q35 59 49.5 88 q14.5 29 29 75.5 q14.5 46.5 18.5 99.5 q4 53 4 139 l0 407 ZM434 634 l-173 0 l0 -115 l173 0 l0 115 ZM744 519 l0 115 l-186 0 l0 -115 l186 0 ZM261 288 l173 0 l0 107 l-173 0 l0 -88 l0 -19 ZM558 288 l186 0 l0 107 l-186 0 l0 -107 Z" /><glyph glyph-name="Identity.18422" unicode="&#x7684;" d="M656 670 l250 0 l-8 -258 q-12 -333 -15 -389 q-4 -61 -31 -83.5 q-27 -22.5 -90 -28.5 l-107 -10 l-39 131 l103 10 q24 2 32.5 13.5 q8.5 11.5 10.5 48.5 q5 83 14 442 l-170 0 q-26 -59 -61 -119 l-79 41 l0 -535 l-373 -1 l0 738 l94 0 l42 135 l129 -13 l-41 -122 l149 0 l0 -126 q75 153 107 269 l125 -16 q-20 -66 -42 -127 ZM349 372 l0 176 l-137 0 l0 -176 l137 0 ZM740 259 l-94 -83 q-50 93 -133 201 l91 74 q4 -5 24 -31 q20 -26 30 -39 q10 -13 26.5 -36.5 q16.5 -23.5 30 -44 q13.5 -20.5 25.5 -41.5 ZM212 58 l137 0 l0 190 l-137 0 l0 -190 Z" /><glyph glyph-name="Identity.18464" unicode="&#x76ae;" d="M945 14 l-52 -124 q-243 74 -354 136 q-122 -78 -308 -143 l-55 101 q-30 -56 -49 -88 l-108 59 q72 126 95.5 214 q23.5 88 23.5 263 l0 272 l318 0 l0 92 l128 -5 l0 -87 l311 0 l0 -116 l-67 -116 l-111 39 l48 74 l-181 0 l0 -131 l248 0 l0 -115 q-73 -136 -186 -234 q101 -46 299 -91 ZM456 585 l-193 0 l0 -131 l193 0 l0 131 ZM188 9 q137 40 241 93 q-81 70 -143 181 l82 52 l-106 0 q-4 -105 -21 -177.5 q-17 -72.5 -53 -148.5 ZM540 170 q87 65 151 165 l-289 0 q61 -103 138 -165 Z" /><glyph glyph-name="Identity.18528" unicode="&#x76ee;" d="M150 764 l685 0 l0 -847 l-685 0 l0 847 ZM705 639 l-425 0 l0 -123 l425 0 l0 123 ZM705 397 l-425 0 l0 -118 l425 0 l0 118 ZM280 41 l425 0 l0 117 l-425 0 l0 -117 Z" /><glyph glyph-name="Identity.18538" unicode="&#x76f8;" d="M445 758 l446 0 l0 -834 l-446 0 l0 366 l-65 -74 q-21 33 -62 92 l0 -398 l-116 0 l0 372 q-49 -111 -97 -177 l-81 82 q126 171 177 328 l-128 0 l0 117 l129 0 l0 160 l116 -5 l0 -155 l99 0 l0 -117 l-99 0 l0 -120 l33 30 q47 -50 94 -117 l0 450 ZM768 635 l-203 0 l0 -114 l203 0 l0 114 ZM565 403 l0 -114 l203 0 l0 114 l-203 0 ZM565 44 l203 0 l0 129 l-203 0 l0 -129 Z" /><glyph glyph-name="Identity.18577" unicode="&#x771f;" d="M929 158 l0 -89 l-244 0 q143 -56 211 -90 l-39 -106 q-148 72 -294 130 l32 66 l-209 0 l32 -57 q-133 -75 -305 -143 l-48 110 q119 35 220 90 l-233 0 l0 89 l125 0 l0 443 l254 0 l0 35 l-339 0 l0 96 l339 0 l0 61 l122 -5 l0 -56 l337 0 l0 -96 l-337 0 l0 -35 l252 0 l0 -443 l124 0 ZM684 519 l-386 0 l0 -34 l386 0 l0 34 ZM684 375 l0 34 l-386 0 l0 -34 l386 0 ZM684 301 l-386 0 l0 -34 l386 0 l0 34 ZM298 193 l0 -35 l386 0 l0 35 l-386 0 Z" /><glyph glyph-name="Identity.18593" unicode="&#x772f;" d="M908 337 l-178 0 q87 -134 232 -248 l-74 -119 q-100 93 -181 215 l0 -277 l-115 0 l0 271 q-53 -97 -149 -194 l-61 75 l0 -97 l-296 0 l0 786 l296 0 l0 -649 q120 112 182 237 l-162 0 l0 126 l190 0 l0 326 l115 -5 l0 -321 l201 0 l0 -126 ZM788 738 l99 -29 q-31 -124 -73 -233 l-96 38 q46 126 70 224 ZM582 520 l-100 -45 q-38 138 -75 221 l96 40 q47 -111 79 -216 ZM272 628 l-75 0 l0 -105 l75 0 l0 105 ZM272 408 l-75 0 l0 -107 l75 0 l0 107 ZM197 82 l75 0 l0 105 l-75 0 l0 -105 Z" /><glyph glyph-name="Identity.18602" unicode="&#x7738;" d="M524 484 q-15 -1 -37 -2.5 q-22 -1.5 -37.5 -2.5 q-15.5 -1 -25.5 -2 l-30 110 q12 2 21 7.5 q9 5.5 18 14.5 q9 9 10 10 q17 17 63.5 81.5 q46.5 64.5 74.5 113.5 l110 -49 q-27 -45 -66 -95.5 q-39 -50.5 -61 -72.5 l159 10 q-27 40 -47 64 l94 69 q27 -33 90.5 -123.5 q63.5 -90.5 69.5 -98.5 l-96 -83 q-11 20 -39 62 q-33 -1 -132.5 -6 q-99.5 -5 -138.5 -7 ZM82 -43 l0 790 l286 0 l0 -790 l-286 0 ZM266 626 l-84 0 l0 -104 l84 0 l0 104 ZM933 183 l0 -115 l-209 0 l0 -161 l-115 0 l0 161 l-218 0 l0 115 l218 0 l0 90 l-99 0 q-23 -48 -36 -68 l-103 40 q67 108 93 218 l102 -25 q-2 -10 -7 -27.5 q-5 -17.5 -6 -20.5 l56 0 l0 79 l115 -5 l0 -74 l164 0 l0 -117 l-164 0 l0 -90 l209 0 ZM182 297 l84 0 l0 110 l-84 0 l0 -110 ZM182 78 l84 0 l0 105 l-84 0 l0 -105 Z" /><glyph glyph-name="Identity.18606" unicode="&#x773c;" d="M782 132 q66 -66 175 -114 l-81 -99 q-124 69 -196.5 157 q-72.5 88 -111.5 227 l-23 0 l0 -250 l101 42 l23 -114 q-3 -1 -153 -64 q-43 -19 -67 -33 l-50 112 q19 8 23.5 17 q4.5 9 4.5 34 l0 719 l446 0 l0 -463 l-35 0 l66 -80 q-47 -40 -122 -91 ZM87 -37 l0 802 l296 0 l0 -802 l-296 0 ZM757 657 l-212 0 l0 -69 l212 0 l0 69 ZM279 654 l-88 0 l0 -129 l88 0 l0 129 ZM545 479 l0 -69 l212 0 l0 69 l-212 0 ZM191 301 l88 0 l0 117 l-88 0 l0 -117 ZM834 303 l-156 0 q21 -53 40 -87 q68 48 116 87 ZM191 73 l88 0 l0 122 l-88 0 l0 -122 Z" /><glyph glyph-name="Identity.18610" unicode="&#x7740;" d="M921 368 l-530 0 l-21 -33 l454 0 l0 -421 l-616 0 l0 237 q-62 -55 -115 -94 l-71 105 q144 94 227 206 l-196 0 l0 92 l254 0 l16 33 l-189 0 l0 91 l222 0 q5 13 10 34 l-271 0 l0 97 l187 0 l-28 85 l131 10 l24 -95 l164 0 l30 95 l128 -10 l-32 -85 l184 0 l0 -97 l-393 0 l-8 -34 l360 0 l0 -91 l-390 0 q-4 -11 -14 -33 l483 0 l0 -92 ZM703 218 l0 33 l-374 0 l0 -33 l374 0 ZM329 141 l0 -32 l374 0 l0 32 l-374 0 ZM329 2 l374 0 l0 30 l-374 0 l0 -30 Z" /><glyph glyph-name="Identity.18627" unicode="&#x7751;" d="M425 417 l-49 61 l0 -520 l-285 0 l0 795 l285 0 l0 -226 q77 62 129.5 129.5 q52.5 67.5 92.5 160.5 l85 0 q76 -173 283 -330 l-72 -93 q-55 43 -95 81 l0 -88 l-321 0 l0 78 q-5 -6 -53 -48 ZM642 667 q-48 -87 -120 -160 l244 0 q-82 83 -124 160 ZM268 635 l-68 0 l0 -112 l68 0 l0 112 ZM268 410 l-68 0 l0 -113 l68 0 l0 113 ZM777 372 l99 -36 q-60 -187 -95 -287 l125 0 l0 -119 l-510 0 l0 119 l276 0 q21 62 28 80 l-83 -24 q-30 152 -58 239 l96 33 q12 -36 55 -217 q31 89 67 212 ZM571 99 l-100 -28 q-39 179 -66 266 l96 31 q12 -39 37.5 -141.5 q25.5 -102.5 32.5 -127.5 ZM200 74 l68 0 l0 111 l-68 0 l0 -111 Z" /><glyph glyph-name="Identity.18637" unicode="&#x775b;" d="M698 484 l231 0 l0 -87 l-541 0 l0 87 l199 0 l0 32 l-171 0 l0 86 l171 0 l0 32 l-192 0 l0 87 l192 0 l0 68 l111 -5 l0 -63 l198 0 l0 -87 l-198 0 l0 -32 l176 0 l0 -86 l-176 0 l0 -32 ZM91 -44 l0 785 l273 0 l0 -785 l-273 0 ZM261 625 l-65 0 l0 -109 l65 0 l0 109 ZM196 291 l65 0 l0 111 l-65 0 l0 -111 ZM409 -95 l0 460 l460 0 l0 -358 q0 -54 -20 -76 q-20 -22 -73 -27 l-66 -7 l-32 97 l48 6 q23 3 28.5 9 q5.5 6 5.5 27 l0 5 l-239 0 l0 -136 l-112 0 ZM760 279 l-239 0 l0 -32 l239 0 l0 32 ZM196 69 l65 0 l0 110 l-65 0 l0 -110 ZM521 131 l239 0 l0 31 l-239 0 l0 -31 Z" /><glyph glyph-name="Identity.18653" unicode="&#x776b;" d="M718 22 q127 -5 225 4 l-27 -101 q-90 -9 -211 -4 q-81 2 -138.5 22 q-57.5 20 -98.5 69 q-34 -69 -100 -133 l-82 79 q5 6 15 14.5 q10 8.5 16 14.5 l-224 0 l0 765 l266 0 l0 -715 q49 73 56 175 l102 -14 q-3 -33 -9 -64 q29 -57 72 -83 l0 172 l-180 0 l0 96 l180 0 l0 38 l-197 0 l0 98 l197 0 l0 40 l-175 0 l0 95 l175 0 l0 36 l-196 0 l0 100 l196 0 l0 68 l105 -4 l0 -64 l212 0 l0 -100 l-212 0 l0 -36 l186 0 l0 -135 l59 0 l0 -98 l-59 0 l0 -134 l-185 0 l0 -39 l199 0 l0 -96 l-199 0 l0 -64 q22 -2 32 -2 ZM256 642 l-61 0 l0 -112 l61 0 l0 112 ZM685 495 l0 -40 l86 0 l0 40 l-86 0 ZM256 423 l-61 0 l0 -109 l61 0 l0 109 ZM686 357 l0 -38 l85 0 l0 38 l-85 0 ZM195 96 l61 0 l0 112 l-61 0 l0 -112 Z" /><glyph glyph-name="Identity.18822" unicode="&#x7814;" d="M936 400 l0 -117 l-115 0 l0 -380 l-114 0 l0 380 l-107 0 q-4 -143 -29 -218 q-25 -75 -105 -177 l-97 75 l19 22 l-265 0 l0 253 q-12 -17 -36 -47 l-73 101 q55 71 101 164.5 q46 93.5 70 180.5 l-111 0 l0 118 l337 0 l0 -118 l-112 0 q-17 -80 -47 -155 l144 0 l0 -488 q56 67 73 123.5 q17 56.5 19 165.5 l-72 0 l0 117 l72 0 l0 236 l-53 0 l0 118 l473 0 l0 -118 l-87 0 l0 -236 l115 0 ZM601 400 l106 0 l0 236 l-106 0 l0 -236 ZM280 101 l0 263 l-44 0 l0 -263 l44 0 Z" /><glyph glyph-name="Identity.19149" unicode="&#x795b;" d="M941 274 l-290 0 q-78 -156 -126 -213 q31 2 105.5 9 q74.5 7 104.5 9 q-45 93 -68 131 l105 50 q105 -177 152 -293 l-109 -72 q-16 42 -26 65 q-27 -2 -356 -32 q-7 -2 -20 -3.5 q-13 -1.5 -21 -2.5 l-34 124 q24 12 45 33 q14 16 48.5 75.5 q34.5 59.5 63.5 119.5 l-133 0 l-51 -73 q-17 23 -45 54 l0 -351 l-119 0 l0 344 q-42 -44 -90 -87 l-57 108 q130 116 222 263 l-166 0 l0 123 l102 0 l-27 126 l120 6 l25 -132 l79 0 l0 -126 q-34 -64 -83 -132 q16 -14 48.5 -45 q32.5 -31 37.5 -35 l0 78 l191 0 l0 137 l-162 0 l0 121 l162 0 l0 137 l126 -5 l0 -132 l189 0 l0 -121 l-189 0 l0 -137 l246 0 l0 -121 Z" /><glyph glyph-name="Identity.19152" unicode="&#x795e;" d="M898 678 l0 -585 l-203 0 l0 -184 l-118 0 l0 184 l-200 0 l0 191 l-39 -69 q-15 20 -55 58 l0 -362 l-115 0 l0 325 q-37 -45 -74 -82 l-76 97 q129 132 196 269 l-132 0 l0 123 l98 0 l-29 135 l118 6 l27 -141 l48 0 l0 -122 l-57 -111 q68 -52 90 -71 l0 339 l200 0 l0 117 l118 -5 l0 -112 l203 0 ZM577 565 l-89 0 l0 -120 l89 0 l0 120 ZM787 565 l-92 0 l0 -120 l92 0 l0 120 ZM488 208 l89 0 l0 123 l-89 0 l0 -123 ZM695 208 l92 0 l0 123 l-92 0 l0 -123 Z" /><glyph glyph-name="Identity.19298" unicode="&#x79f0;" d="M329 197 l-45 70 l0 -364 l-112 0 l0 327 q-40 -85 -86 -152 l-64 90 q89 125 147 264 l-100 0 l0 114 l103 0 l0 81 l-91 -13 l-10 113 q168 22 298 54 l16 -113 q-36 -10 -101 -22 l0 -100 l83 0 l0 -43 q72 128 114 295 l115 -19 q-8 -29 -26 -87 l344 0 l0 -119 q-36 -79 -78 -147 l-106 41 q32 49 57 106 l-261 0 q-34 -82 -76 -159 l-83 44 l0 -26 l-83 0 l0 -74 l30 22 q25 -27 86 -109 l-71 -74 ZM573 60 l0 455 l119 -5 l0 -495 q0 -61 -26.5 -84.5 q-26.5 -23.5 -92.5 -29.5 l-61 -6 l-38 119 l54 6 q29 3 37 10 q8 7 8 30 ZM706 333 l94 49 q38 -70 85.5 -170 q47.5 -100 68.5 -157 l-99 -63 q-72 208 -149 341 ZM446 379 l99 -33 q-70 -212 -148 -350 l-108 44 q44 64 89 160 q45 96 68 179 Z" /><glyph glyph-name="Identity.19325" unicode="&#x7a0b;" d="M423 243 l-84 -85 l-54 87 l0 -336 l-106 0 l0 311 q-37 -82 -78 -147 l-78 83 q87 133 144 270 l-94 0 l0 120 l106 0 l0 81 q-20 -4 -54 -10 q-34 -6 -40 -7 l-11 118 q185 29 289 62 l26 -115 q-25 -8 -104 -26 l0 -103 l97 0 l0 -120 l-97 0 l0 -69 l26 22 q22 -26 112 -136 ZM872 764 l0 -308 l-463 0 l0 308 l463 0 ZM753 562 l0 94 l-229 0 l0 -94 l229 0 ZM701 49 l224 0 l0 -121 l-576 0 l0 121 l235 0 l0 65 l-167 0 l0 112 l167 0 l0 68 l-182 0 l0 114 l486 0 l0 -114 l-187 0 l0 -68 l163 0 l0 -112 l-163 0 l0 -65 Z" /><glyph glyph-name="Identity.19365" unicode="&#x7a33;" d="M385 261 l-79 -66 q-18 38 -36 68 l0 -352 l-104 0 l0 295 q-36 -73 -72 -131 l-81 84 q89 122 139 267 l-86 0 l0 115 l100 0 l0 88 l-86 -14 l-12 114 q134 14 288 57 l18 -116 q-72 -16 -104 -22 l0 -107 l96 0 l0 -115 l-96 0 l0 -55 l40 25 q7 -11 34.5 -55.5 q27.5 -44.5 40.5 -66.5 l0 27 l383 0 l0 36 l-372 0 l0 98 l372 0 l0 36 l-353 0 l0 35 l-78 76 q101 95 174 238 l105 -35 q-8 -17 -26 -49 l230 0 l0 -94 l-63 -69 l117 0 l0 -373 l-223 0 q40 -67 53 -99 l-75 -52 q-10 27 -32.5 69 q-22.5 42 -34.5 59 l43 23 l-220 0 l0 61 ZM687 636 l-160 0 q-21 -29 -49 -63 l149 0 l60 63 ZM774 150 l88 41 q57 -98 94 -200 l-90 -51 q-39 117 -92 210 ZM379 -73 l-96 38 q36 79 66 207 l92 -24 q-19 -114 -62 -221 ZM701 37 q5 19 6 43 l93 -29 q-1 -20 -6 -47 q-10 -57 -33 -74 q-23 -17 -93 -21 q-52 -3 -105 0 q-63 4 -87.5 26.5 q-24.5 22.5 -24.5 84.5 l0 151 l102 -6 l0 -120 q0 -22 7 -28.5 q7 -6.5 29 -8.5 q36 -3 72 0 q22 2 29 7 q7 5 11 22 Z" /><glyph glyph-name="Identity.19654" unicode="&#x7b54;" d="M248 621 l-6 0 q-55 -90 -102 -142 l-105 67 q50 56 100 133.5 q50 77.5 74 136.5 l124 -23 q-14 -33 -28 -60 l188 0 l0 -76 q37 65 71 159 l125 -19 q-19 -51 -25 -64 l245 0 l0 -112 l-141 0 l49 -72 l-103 -56 q-66 117 -74 128 l-27 0 q-16 -32 -38 -65 l-117 43 l14 22 l-100 0 l38 -64 l-101 -49 q-40 82 -61 113 ZM436 563 l99 0 q137 -131 404 -211 l-49 -112 q-101 36 -185 79 l0 -59 l-440 0 l0 57 q-85 -42 -183 -77 l-51 109 q258 80 405 214 ZM354 364 l266 0 q-84 48 -132 93 q-45 -42 -134 -93 ZM166 -83 l0 296 l641 0 l0 -296 l-641 0 ZM292 107 l0 -84 l389 0 l0 84 l-389 0 Z" /><glyph glyph-name="Identity.19731" unicode="&#x7ba1;" d="M921 735 l0 -106 l-147 0 l29 -50 l-103 -38 q-17 36 -46 88 l-42 0 q-14 -25 -37 -59 l-32 14 l10 -48 l348 0 l0 -147 l-96 0 l0 -205 l-512 0 l0 -42 l535 0 l0 -225 l-663 0 l0 472 l-82 0 l0 147 l24 0 l-69 49 q123 129 164 222 l123 -18 q-9 -21 -28 -54 l209 0 l0 -63 q20 34 59 133 l123 -14 l-23 -56 l256 0 ZM434 536 l-11 47 l111 5 l-65 28 l10 13 l-98 0 l25 -55 l-106 -34 q-19 50 -37 89 l-36 0 q-22 -30 -74 -93 l281 0 ZM770 406 l0 36 l-557 0 l0 -36 l557 0 ZM678 271 l0 45 l-385 0 l0 -45 l385 0 ZM699 51 l-406 0 l0 -43 l406 0 l0 43 Z" /><glyph glyph-name="Identity.19978" unicode="&#x7c98;" d="M922 531 l-219 0 l0 -152 l188 0 l0 -459 l-468 0 l0 237 l-45 -54 l-65 77 l0 -269 l-114 0 l0 263 q-52 -81 -109 -144 l-77 91 q94 114 160 236 l-111 0 l0 120 l137 0 l0 41 l-81 -28 q-6 21 -66 200 l88 34 q4 -10 59 -173 l0 236 l114 -5 l0 -213 q6 13 59 155 l89 -33 q-8 -24 -78 -201 l-70 27 l0 -40 l124 0 l0 -98 l144 0 l0 409 l122 -5 l0 -133 l219 0 l0 -119 ZM313 299 l25 25 q34 -34 85 -92 l0 125 l-110 0 l0 -58 ZM771 39 l0 217 l-229 0 l0 -217 l229 0 Z" /><glyph glyph-name="Identity.20016" unicode="&#x7cbe;" d="M697 485 l229 0 l0 -87 l-530 0 l0 87 l191 0 l0 31 l-154 0 l0 85 l154 0 l0 31 l-159 0 l0 90 l159 0 l0 68 l110 -6 l0 -62 l192 0 l0 -90 l-192 0 l0 -31 l170 0 l0 -85 l-170 0 l0 -31 ZM417 205 l0 162 l447 0 l0 -356 q0 -58 -22 -80 q-22 -22 -83 -28 l-53 -6 l-36 98 l51 6 q25 3 30 10 q5 7 5 30 l-233 0 l0 -136 l-106 0 l0 262 l-66 -58 q-24 38 -61 88 l0 -296 l-108 0 l0 267 q-36 -65 -81 -122 l-86 84 q105 118 150 238 l-101 0 l0 114 l118 0 l0 45 l-79 -27 q-34 120 -60 189 l88 34 q40 -125 51 -160 l0 223 l108 -6 l0 -200 q25 72 48 143 l87 -27 q-38 -123 -68 -198 l-67 27 l0 -43 l88 0 l0 -114 l-88 0 l0 -70 l32 29 q49 -60 95 -122 ZM756 279 l-233 0 l0 -31 l233 0 l0 31 ZM523 162 l0 -31 l233 0 l0 31 l-233 0 Z" /><glyph glyph-name="Identity.20077" unicode="&#x7cfb;" d="M778 217 l-211 -9 l0 -176 q0 -74 -25 -99 q-25 -25 -101 -31 l-74 -6 l-36 119 l59 6 q32 3 42 11.5 q10 8.5 10 29.5 l0 139 l-145 -8 l70 -89 q-136 -113 -257 -183 l-70 99 q146 87 242 172 l-69 -4 q-46 -2 -71 -5 l-22 127 q38 3 96 15 q65 18 176 88 q-25 -1 -74 -2 q-49 -1 -69 -3 q-16 -1 -48 -2.5 q-32 -1.5 -44 -3.5 l-23 111 q54 8 80 22 q43 21 134 98 q-128 -7 -220 -9 l-12 116 q168 3 384 15 q216 12 349 29 l19 -116 q-68 -7 -172 -15 l78 -94 q-80 -74 -175 -142 q-95 -68 -163 -101 q34 1 115.5 5 q81.5 4 126.5 6 q-32 35 -54 54 l90 76 q101 -97 204 -216 l-83 -92 q-34 43 -57 68 ZM369 518 q26 2 88.5 4 q62.5 2 89.5 3 q75 59 147 128 q-128 -9 -224 -14 l22 -26 q-74 -68 -123 -95 ZM609 95 l65 103 q116 -66 268 -168 l-59 -113 q-112 84 -274 178 Z" /><glyph glyph-name="Identity.20500" unicode="&#x7ea2;" d="M142 425 q-8 -1 -30.5 -3 q-22.5 -2 -31.5 -4 l-24 115 q18 8 39 29 q16 16 64.5 97 q48.5 81 81.5 153 l107 -59 q-30 -60 -72.5 -126 q-42.5 -66 -62.5 -86 l86 6 q43 70 56 90 l98 -65 q-81 -153 -180 -267 q19 4 69.5 12 q50.5 8 69.5 12 l2 -123 q-201 -26 -242 -32 l-66 -11 l-26 119 q28 9 39.5 16 q11.5 7 20.5 19 q12 12 83 114 q-14 -1 -42 -2.5 q-28 -1.5 -39 -3.5 ZM722 62 l211 0 l0 -124 l-534 0 l0 82 q-279 -58 -327 -72 l-18 126 q38 6 182 37 q144 31 174 40 l2 -41 l4 -48 l175 0 l0 542 l-158 0 l0 128 l460 0 l0 -128 l-171 0 l0 -542 Z" /><glyph glyph-name="Identity.20502" unicode="&#x7ea4;" d="M140 421 l-55 -8 l-26 117 q23 14 37 28 q19 19 67 97.5 q48 78.5 79 148.5 l107 -58 q-65 -128 -128 -202 l81 2 q36 56 58 98 l102 -68 q-34 -59 -89.5 -138.5 q-55.5 -79.5 -96.5 -128.5 q16 3 60.5 9.5 q44.5 6.5 61.5 10.5 l5 -123 q-99 -12 -243 -36 q-23 -3 -52 -10 l-26 127 q36 9 61 37 q37 41 80 104 q-13 -1 -42 -3 q-29 -2 -41 -4 ZM936 406 l0 -121 l-198 0 l0 -370 l-129 0 l0 370 l-191 0 l0 121 l191 0 l0 203 l-149 -18 l-14 121 q272 29 430 70 l21 -125 q-19 -4 -44.5 -8.5 q-25.5 -4.5 -59 -10.5 q-33.5 -6 -55.5 -10 l0 -222 l198 0 ZM439 136 l4 -66 l4 -65 q-24 -3 -188 -31.5 q-164 -28.5 -192 -34.5 l-18 128 q32 3 194 31.5 q162 28.5 196 37.5 Z" /><glyph glyph-name="Identity.20504" unicode="&#x7ea6;" d="M629 666 l265 0 q0 -14 -9.5 -303.5 q-9.5 -289.5 -9.5 -315.5 q-4 -72 -37 -100.5 q-33 -28.5 -119 -34.5 l-88 -7 l-37 125 l80 7 q45 4 59 17 q14 13 18 50 q3 22 8.5 208.5 q5.5 186.5 5.5 226.5 l-181 0 q-33 -78 -65 -128 l-108 50 q78 124 138 345 l111 -30 q-14 -56 -31 -110 ZM109 413 q-16 0 -27 -4 l-26 116 q18 7 36 26 q17 15 65.5 96.5 q48.5 81.5 83.5 156.5 l106 -55 q-30 -59 -71.5 -123 q-41.5 -64 -66.5 -94 q62 2 90 5 q39 59 61 105 l91 -57 q-40 -73 -99 -163 q-59 -90 -89 -128 l150 24 l2 -119 q-9 -2 -60 -9 q-51 -7 -116.5 -16 q-65.5 -9 -94.5 -13 l-39 -8 l-26 121 q17 3 29.5 10 q12.5 7 19 12.5 q6.5 5.5 18.5 19.5 q30 36 78 106 q-91 -6 -115 -9 ZM714 253 l-95 -80 q-62 114 -134 206 l92 65 q67 -82 137 -191 ZM453 122 l3 -57 l5 -69 q-33 -9 -193.5 -37.5 q-160.5 -28.5 -196.5 -31.5 l-17 123 q67 6 399 72 Z" /><glyph glyph-name="Identity.20529" unicode="&#x7ebf;" d="M845 167 l99 -48 q-8 -41 -25 -97 q-21 -71 -53 -100 q-32 -29 -85 -29 q-42 0 -76.5 25.5 q-34.5 25.5 -74.5 92.5 l-12 21 q-74 -44 -158 -80 l-54 111 q105 40 166 77 q-24 76 -41 165 l-114 -15 l-11 116 l107 14 l-8 65 l-66 -8 l-8 97 q-116 -222 -167 -277 q20 3 67.5 14.5 q47.5 11.5 64.5 13.5 l1 -110 q-114 -27 -220 -48 q-14 -3 -32 -8 q-18 -5 -20 -6 l-31 123 q27 8 39 16 q12 8 24 25 q25 30 74 111 q-87 -7 -91 -8 l-40 -6 l-27 114 q26 14 38 24 q18 16 61.5 95 q43.5 79 71.5 156 l106 -50 q-109 -196 -131 -218 q42 2 73 2 l57 116 l97 -50 l-8 -16 l56 7 q-3 32 -6 108 q-3 76 -4 90 l116 -3 q1 -11 2.5 -35 q1.5 -24 3.5 -68 q2 -44 4 -77 l104 13 q-38 61 -85 117 l79 60 q49 -54 95 -123 l-62 -50 l129 16 l10 -111 l-261 -32 q1 -11 3 -32.5 q2 -21.5 4 -32.5 l267 34 l9 -114 l-104 -14 l71 -79 q-67 -89 -154 -160 q3 -5 8 -15 q5 -10 9 -15 q25 -43 51 -43 q17 0 24 10.5 q7 10.5 19 48.5 q9 27 19 80 ZM796 340 l-152 -20 q16 -75 28 -112 q63 52 124 132 ZM90 -47 l-27 113 q43 6 151 33 q108 27 170 48 l12 -110 q-39 -15 -153.5 -46.5 q-114.5 -31.5 -152.5 -37.5 Z" /><glyph glyph-name="Identity.20536" unicode="&#x7ec6;" d="M384 746 l509 0 l0 -809 l-509 0 l0 608 q-43 -80 -94.5 -164 q-51.5 -84 -65.5 -96 q14 3 59 10 q45 7 62 11 l1 -116 q-30 0 -219 -34 l-28 -6 l-28 119 q17 7 27 16 q10 9 28 35 q26 36 62 95 q-13 -1 -46 -3 q-33 -2 -45 -4 l-21 -3 l-29 112 q11 7 36 32 q16 16 55.5 95 q39.5 79 66.5 151 l102 -43 q-28 -63 -67.5 -136.5 q-39.5 -73.5 -56.5 -92.5 l68 4 q11 20 27.5 54 q16.5 34 22.5 45 l83 -43 l0 163 ZM586 618 l-92 0 l0 -214 l92 0 l0 214 ZM785 404 l0 214 l-90 0 l0 -214 l90 0 ZM494 277 l0 -212 l92 0 l0 212 l-92 0 ZM695 65 l90 0 l0 212 l-90 0 l0 -212 ZM356 121 l2 -59 l2 -64 q-11 0 -80 -12.5 q-69 -12.5 -141.5 -27 q-72.5 -14.5 -79.5 -15.5 l-13 123 q26 3 157 26 q131 23 153 29 Z" /><glyph glyph-name="Identity.20561" unicode="&#x7edf;" d="M840 148 l100 -34 q-5 -77 -10 -103 q-10 -57 -36 -80 q-26 -23 -91 -23 l-57 0 q-60 0 -86.5 25.5 q-26.5 25.5 -26.5 94.5 l0 289 l-54 -3 q0 -8 -0.5 -23 q-0.5 -15 -0.5 -21 q-3 -77 -11.5 -127.5 q-8.5 -50.5 -30 -100.5 q-21.5 -50 -61.5 -89.5 q-40 -39.5 -103 -79.5 l-73 95 q37 22 63 42 q-42 -8 -161.5 -35.5 q-119.5 -27.5 -137.5 -31.5 l-21 128 q47 6 159 29.5 q112 23.5 162 38.5 l6 -65 l6 -53 q50 43 65.5 94.5 q15.5 51.5 22.5 165.5 q0 3 0.5 11.5 q0.5 8.5 0.5 14.5 q-75 -7 -81 -8 l-33 109 q9 3 16.5 8 q7.5 5 14 10.5 q6.5 5.5 9.5 7.5 q31 27 113 150 l-111 0 l12 -6 q-35 -76 -86.5 -166 q-51.5 -90 -74.5 -117 q16 3 59 9.5 q43 6.5 59 10.5 l1 -119 q-1 0 -85.5 -14.5 q-84.5 -14.5 -124.5 -19.5 q-24 -4 -56 -10 l-29 115 q38 22 49 40 q7 12 30.5 50.5 q23.5 38.5 37.5 62.5 q-17 -2 -58 -5 q-31 -3 -52 -8 l-26 117 q18 6 29 22 q19 26 58.5 104 q39.5 78 64.5 146 l113 -33 q-27 -63 -67 -136.5 q-40 -73.5 -60 -95.5 q10 2 32.5 3 q22.5 1 34.5 2 q4 6 49 94 l70 -36 l0 106 l191 0 l-22 96 l122 6 l21 -102 l220 0 l0 -116 l-267 0 q-87 -137 -119 -162 l204 8 q-24 36 -56 76 l88 60 q81 -90 167 -227 l-89 -77 q-16 28 -39 63 q-26 -2 -49 -2 l0 -274 q0 -21 4 -25.5 q4 -4.5 21 -4.5 l21 0 q22 0 29.5 6 q7.5 6 12.5 29 q7 37 8 94 Z" /><glyph glyph-name="Identity.20582" unicode="&#x7ef4;" d="M122 421 q-3 -1 -20.5 -3.5 q-17.5 -2.5 -25.5 -4.5 l-32 119 q25 9 40 33 q34 48 116 243 l109 -43 q-60 -140 -119 -226 q44 3 50 4 q14 26 34.5 67.5 q20.5 41.5 23.5 46.5 l94 -47 q-39 -80 -92.5 -175.5 q-53.5 -95.5 -81.5 -132.5 l126 24 l1 -118 q-71 -15 -183 -35 q-13 -2 -34.5 -6.5 q-21.5 -4.5 -26.5 -5.5 l-32 128 q18 7 26.5 13.5 q8.5 6.5 21.5 24.5 q32 49 61 101 q-8 -1 -28 -3 q-20 -2 -28 -4 ZM767 39 l167 0 l0 -112 l-510 0 l0 447 l-30 -46 l-68 114 q112 153 158 356 l114 -16 q-14 -55 -36 -118 l114 0 l-24 103 l115 6 l23 -109 l130 0 l0 -113 l-153 0 l0 -99 l136 0 l0 -107 l-136 0 l0 -95 l136 0 l0 -111 l-136 0 l0 -100 ZM655 452 l0 99 l-120 0 l0 -99 l120 0 ZM655 250 l0 95 l-120 0 l0 -95 l120 0 ZM373 140 l5 -61 l4 -56 q-43 -7 -163.5 -31 q-120.5 -24 -154.5 -33 l-19 116 q29 3 159 29 q130 26 169 36 ZM535 139 l0 -100 l120 0 l0 100 l-120 0 Z" /><glyph glyph-name="Identity.20590" unicode="&#x7efc;" d="M180 415 l-51 -4 q-50 -7 -57 -9 l-28 125 q15 6 35 32 q52 66 116 234 l112 -35 q-24 -57 -63.5 -128 q-39.5 -71 -56.5 -94 q48 3 67 5 q42 78 49 93 l74 -40 l0 108 l207 0 l-22 90 l125 6 l21 -96 l201 0 l0 -212 l-71 0 l0 -86 l-388 0 l0 86 l-73 0 l0 55 q-106 -208 -144 -249 l114 24 l1 -124 q-2 0 -188 -32 q-12 -2 -68 -14 l-26 129 q36 11 51 36 q16 23 63 100 ZM798 586 l-308 0 l0 -70 l308 0 l0 70 ZM924 219 l-216 0 l0 -205 q0 -63 -26.5 -85.5 q-26.5 -22.5 -98.5 -28.5 l-54 -5 l-35 119 l49 5 q32 2 40.5 10.5 q8.5 8.5 8.5 37.5 l0 152 l-191 0 l0 113 l523 0 l0 -113 ZM464 212 l100 -50 q-57 -132 -133 -236 l-100 57 q10 13 11 14 q-37 -5 -159 -30 q-122 -25 -124 -25 l-15 124 q59 6 305 59 l3 -37 l6 -70 q65 95 106 194 ZM729 146 l93 63 q4 -7 60 -91.5 q56 -84.5 73 -117.5 l-95 -79 q-57 116 -131 225 Z" /><glyph glyph-name="Identity.20623" unicode="&#x7f1d;" d="M572 601 q-5 -5 -20.5 -21 q-15.5 -16 -24.5 -25 l-55 80 q86 85 132 173 l94 -21 l-20 -38 l206 0 l0 -90 q-41 -60 -95 -103 q65 -26 146 -39 l-33 -95 q-127 33 -202 75 q-68 -40 -194 -79 l-34 91 q81 20 143 48 q-21 17 -43 44 ZM107 416 l-30 -3 l-31 109 q20 10 33 33 q14 18 45.5 91 q31.5 73 57.5 149 l103 -35 q-51 -137 -113 -231 l56 3 q26 54 37 79 l88 -38 q-34 -80 -79 -168.5 q-45 -88.5 -65 -113.5 q14 3 52.5 9.5 q38.5 6.5 53.5 10.5 l1 -114 l-166 -28 q-25 -7 -54 -12 l-30 117 q16 6 23.5 14 q7.5 8 20.5 28 q16 22 60 105 l-63 -5 ZM477 583 l-89 -39 q-55 152 -71 194 l89 35 q58 -149 71 -190 ZM701 601 q38 25 78 61 l-143 0 q32 -38 65 -61 ZM676 22 q125 -4 267 2 l-25 -112 q-125 -8 -250 -3 q-109 4 -159 21.5 q-50 17.5 -97 72.5 q-30 -40 -92 -102 l-67 82 q27 23 54 48 q-216 -51 -241 -62 l-22 110 q13 2 73 18 q60 16 125.5 34 q65.5 18 75.5 20 l8 -53 l6 -40 q20 21 36 45 l0 266 l-56 0 l0 112 l157 0 l0 -378 q26 -44 70 -61.5 q44 -17.5 137 -19.5 ZM747 43 l-99 0 l0 59 l-154 0 l0 85 l154 0 l0 31 l-128 0 l0 81 l128 0 l0 31 l-138 0 l0 88 l138 0 l0 39 l99 -5 l0 -34 l138 0 l0 -88 l-138 0 l0 -31 l127 0 l0 -81 l-127 0 l0 -31 l165 0 l0 -85 l-165 0 l0 -59 Z" /><glyph glyph-name="Identity.20736" unicode="&#x7f8e;" d="M903 399 l0 -107 l-835 0 l0 107 l356 0 l0 46 l-288 0 l0 101 l288 0 l0 47 l-319 0 l0 103 l171 0 l-32 92 l139 10 l28 -102 l160 0 l35 102 l135 -10 l-37 -92 l163 0 l0 -103 l-316 0 l0 -47 l286 0 l0 -101 l-286 0 l0 -46 l352 0 ZM877 129 l-290 0 q104 -85 350 -123 l-52 -125 q-272 52 -396 183 q-104 -121 -400 -185 l-52 124 q255 39 342 126 l-284 0 l0 105 l325 0 q0 8 0.5 24.5 q0.5 16.5 1.5 22.5 l129 -2 q-1 -5 -1.5 -21 q-0.5 -16 -0.5 -24 l328 0 l0 -105 Z" /><glyph glyph-name="Identity.20810" unicode="&#x7fd8;" d="M69 320 l-36 102 q69 21 135 55 q-12 28 -26 88 l-81 -16 l-20 109 l79 15 l-17 111 l105 4 q7 -49 15 -96 l171 33 l18 -105 l-58 -12 l56 -73 q-46 -53 -104 -97 q20 -25 39 -25 q17 0 26 21 q4 10 10 42 l77 -42 q-8 -36 -19 -60 q-13 -34 -34 -48.5 q-21 -14.5 -61 -14.5 q-77 0 -129 71 q-52 -27 -146 -62 ZM856 114 l86 -27 q-1 -18 -7 -69 q-6 -49 -37 -71.5 q-31 -22.5 -105 -26.5 q-208 -12 -416 0 q-64 4 -89.5 27.5 q-25.5 23.5 -25.5 84.5 l0 169 l-35 0 q-4 -113 -35 -182.5 q-31 -69.5 -104 -130.5 l-77 79 q60 52 85.5 100 q25.5 48 27.5 134 l-69 0 l0 107 l362 0 l0 -107 l-46 0 l0 -134 q0 -29 8.5 -38 q8.5 -9 37.5 -11 q175 -12 354 0 q32 2 45.5 11.5 q13.5 9.5 18.5 32.5 q0 1 1.5 8.5 q1.5 7.5 1.5 11.5 q-20 -21 -85 -29 l-42 -6 l-31 102 l42 4 q27 3 35.5 10.5 q8.5 7.5 8.5 30.5 l0 103 l-90 -71 l-34 80 l0 -148 q0 -60 -21 -80 q-21 -20 -82 -26 l-43 -6 l-30 103 l49 5 q18 2 24.5 11 q6.5 9 6.5 30 l0 80 q-62 -46 -77 -58 l-45 97 q12 5 122 81 l0 59 l-64 -24 q-46 145 -56 169 l78 28 q21 -55 42 -125 l0 153 l-117 0 l0 111 l213 0 l0 -169 l75 30 q8 -22 27 -81 q19 -59 22 -67 l0 176 l-101 0 l0 111 l195 0 l0 -613 q0 -26 -4 -39 ZM348 607 l-103 -21 q5 -23 15 -55 q43 31 88 76 ZM642 587 l0 -250 q24 14 124 86 l0 31 l-70 -31 q-24 86 -54 164 Z" /><glyph glyph-name="Identity.20934" unicode="&#x8054;" d="M904 266 l-194 0 q30 -88 89.5 -157.5 q59.5 -69.5 141.5 -107.5 l-70 -106 q-139 89 -208 216 q-60 -122 -202 -219 l-71 101 l0 -90 l-111 0 l0 140 q-45 -8 -95 -16.5 q-50 -8.5 -88.5 -14.5 q-38.5 -6 -46.5 -7 l-8 116 l54 6 l0 516 l-31 0 l0 115 l364 0 l0 -115 l-38 0 l0 -468 l54 12 l2 -108 q-19 -6 -56 -13 l0 -69 q92 52 138.5 116.5 q46.5 64.5 59.5 152.5 l-169 0 l0 122 l175 0 l0 115 l-153 0 l0 121 l71 0 l-39 138 l128 8 l30 -146 l60 0 l40 146 l126 -8 l-43 -138 l72 0 l0 -121 l-174 0 l0 -115 l192 0 l0 -122 ZM279 643 l-80 0 l0 -93 l80 0 l0 93 ZM199 442 l0 -90 l80 0 l0 90 l-80 0 ZM199 245 l0 -104 l80 13 l0 91 l-80 0 Z" /><glyph glyph-name="Identity.20990" unicode="&#x808c;" d="M840 197 l110 -31 q0 -31 -10 -148 q-6 -59 -32.5 -82.5 q-26.5 -23.5 -84.5 -23.5 l-36 0 q-55 0 -79.5 24.5 q-24.5 24.5 -24.5 85.5 l0 608 l-103 0 l0 -230 q0 -13 0 -37 q0 -93 -1 -133 q-1 -40 -5 -95.5 q-4 -55.5 -14.5 -86.5 q-10.5 -31 -28.5 -68.5 q-18 -37.5 -47 -78.5 l-92 48 q-19 -35 -97 -42 l-43 -4 l-36 113 l38 3 q13 2 20 4.5 q7 2.5 13 10.5 q6 8 6 21 l0 141 l-81 0 q-9 -97 -29.5 -163.5 q-20.5 -66.5 -59.5 -139.5 l-104 53 q35 64 50.5 102.5 q15.5 38.5 27 121 q11.5 82.5 11.5 212.5 l0 378 l295 0 l0 -750 q0 -13 -1 -18 q12 17 20.5 32.5 q8.5 15.5 15.5 35.5 q7 20 11.5 32 q4.5 12 7.5 38.5 q3 26.5 4.5 38.5 q1.5 12 2 47.5 q0.5 35.5 0.5 50.5 q0 15 0 63.5 q0 48.5 0 70.5 l0 350 l331 0 l0 -688 q0 -17 2 -21.5 q2 -4.5 9 -4.5 l6 0 q16 0 21 31 q7 49 7 129 ZM293 641 l-76 0 l0 -109 l76 0 l0 109 ZM217 310 l76 0 l0 108 l-76 0 l0 -86 l0 -22 Z" /><glyph glyph-name="Identity.21014" unicode="&#x80a4;" d="M909 296 l-197 0 q26 -98 84.5 -170 q58.5 -72 158.5 -132 l-83 -100 q-162 121 -224 254 q-66 -142 -222 -261 l-38 50 q-20 -25 -92 -33 l-39 -4 l-36 113 l38 5 q26 2 31 7.5 q5 5.5 5 29.5 l0 142 l-80 0 q-12 -178 -78 -306 l-100 57 q30 59 43 99.5 q13 40.5 20.5 118.5 q7.5 78 7.5 216 l0 390 l298 0 l0 -739 q142 112 171 263 l-148 0 l0 123 l157 0 l0 113 l-147 0 l0 125 l146 0 l0 139 l122 -6 q0 -65 -1 -133 l172 0 l0 -125 l-173 0 q0 -89 -1 -113 l205 0 l0 -123 ZM295 650 l-76 0 l0 -112 l76 0 l0 112 ZM219 312 l76 0 l0 113 l-76 0 l0 -93 l0 -20 Z" /><glyph glyph-name="Identity.21020" unicode="&#x80aa;" d="M919 564 l-291 0 q0 -49 -2 -103 l249 0 l-19 -410 q-2 -41 -9 -64.5 q-7 -23.5 -25 -38 q-18 -14.5 -41.5 -20 q-23.5 -5.5 -67.5 -10.5 l-55 -6 l-38 123 l56 6 q41 4 53.5 13 q12.5 9 14.5 38 q9 111 9 245 l-131 0 q-10 -153 -40 -241.5 q-30 -88.5 -102 -189.5 l-73 57 q-9 -29 -32.5 -41.5 q-23.5 -12.5 -72.5 -18.5 l-48 -5 l-36 124 l38 5 q28 3 35 9 q7 6 7 29 l0 125 l-81 0 q-8 -85 -28.5 -151 q-20.5 -66 -62.5 -146 l-103 57 q36 57 53 99.5 q17 42.5 27 121 q10 78.5 10 207.5 l0 381 l299 0 l0 -747 q59 84 77 171 q18 87 27 289 q0 2 1.5 36 q1.5 34 1.5 56 l-87 0 l0 127 l178 0 l-23 99 l130 6 l22 -105 l180 0 l0 -127 ZM298 635 l-76 0 l0 -109 l76 0 l0 109 ZM222 308 l76 0 l0 102 l-76 0 l0 -82 l0 -20 Z" /><glyph glyph-name="Identity.21041" unicode="&#x80bf;" d="M902 642 l0 -475 l-185 0 l0 -257 l-117 0 l0 257 l-176 0 l0 475 l176 0 l0 153 l117 -5 l0 -148 l185 0 ZM102 411 l0 352 l291 0 l0 -753 q0 -56 -20.5 -77 q-20.5 -21 -82.5 -27 l-45 -5 l-36 123 l45 6 q24 3 30.5 10 q6.5 7 6.5 29 l0 128 l-83 0 q-9 -139 -91 -305 l-102 62 q51 103 69 188.5 q18 85.5 18 268.5 ZM291 646 l-82 0 l0 -115 l82 0 l0 115 ZM533 283 l67 0 l0 242 l-67 0 l0 -242 ZM783 283 l0 242 l-66 0 l0 -242 l66 0 ZM209 315 l82 0 l0 103 l-82 0 l0 -103 Z" /><glyph glyph-name="Identity.21108" unicode="&#x8102;" d="M816 622 l116 -39 q-1 -6 -4.5 -32 q-3.5 -26 -5.5 -39 q-14 -60 -38.5 -79 q-24.5 -19 -88.5 -21 q-121 -4 -242 0 q-72 2 -98.5 29 q-26.5 27 -26.5 102 l0 241 l119 -5 l0 -99 q190 53 293 98 l36 -116 q-141 -52 -329 -99 l0 -4 q0 -25 6.5 -33.5 q6.5 -8.5 27.5 -10.5 q84 -4 169 0 q35 2 46.5 10.5 q11.5 8.5 14.5 36.5 q3 19 5 60 ZM99 400 l0 369 l289 0 l0 -761 q0 -57 -19.5 -77 q-19.5 -20 -80.5 -26 l-55 -5 l-30 120 l43 4 q24 2 31 8.5 q7 6.5 7 26.5 l0 138 l-81 0 q-10 -166 -82 -300 l-104 49 q48 93 65 177.5 q17 84.5 17 276.5 ZM284 646 l-79 0 l0 -111 l79 0 l0 111 ZM205 316 l79 0 l0 102 l-79 0 l0 -102 ZM436 -90 l0 464 l445 0 l0 -464 l-445 0 ZM761 266 l-207 0 l0 -70 l207 0 l0 70 ZM554 17 l207 0 l0 73 l-207 0 l0 -73 Z" /><glyph glyph-name="Identity.21162" unicode="&#x8138;" d="M422 413 l-42 64 l0 -467 q0 -51 -24 -72 q-24 -21 -82 -27 l-44 -5 l-37 121 l47 4 q22 2 29 8.5 q7 6.5 7 26.5 l0 138 l-77 0 q-8 -99 -24.5 -161.5 q-16.5 -62.5 -52.5 -146.5 l-100 55 q46 102 63 180 q17 78 17 249 l0 391 l278 0 l0 -242 q76 62 126 129.5 q50 67.5 89 158.5 l87 0 q79 -179 280 -333 l-68 -96 q-47 38 -89 77 l0 -76 l-331 0 l0 68 q-20 -19 -52 -44 ZM639 663 q-48 -86 -113 -155 l235 0 q-84 87 -122 155 ZM276 646 l-72 0 l0 -110 l72 0 l0 110 ZM204 318 l72 0 l0 107 l-72 0 l0 -45 l0 -62 ZM769 379 l101 -34 q-16 -59 -91 -296 l124 0 l0 -119 l-499 0 l0 119 l268 0 q6 15 15 45.5 q9 30.5 14 43.5 l-98 -34 q-26 139 -60 254 l98 28 q47 -166 62 -241 q39 128 66 234 ZM566 110 l-100 -40 q-25 118 -70 276 l95 29 q35 -112 75 -265 Z" /><glyph glyph-name="Identity.21229" unicode="&#x817b;" d="M878 139 l90 -44 q-4 -45 -19 -105 q-15 -63 -40 -86 q-25 -23 -61 -23 q-29 0 -57 32 q-28 32 -46 88 q-51 170 -60 497 q0 51 -3 95 l-318 0 l0 95 l316 0 q-2 86 -2 105 l101 -5 q0 -20 2 -100 l56 0 q-19 29 -48 62 l61 46 q32 -35 72 -88 l-26 -20 l28 0 l0 -95 l-141 0 q1 -21 2 -62 q1 -41 3 -59 q14 -255 44 -389 q11 -44 17 -44 q16 0 22 41 q2 8 4 29.5 q2 21.5 3 29.5 ZM669 76 l-70 0 q17 -14 37 -29.5 q20 -15.5 41.5 -32 q21.5 -16.5 29.5 -22.5 l-50 -84 q-80 72 -126 111 q-40 -61 -162 -118 l-31 57 q-8 -24 -27 -33.5 q-19 -9.5 -60 -15.5 l-40 -5 l-30 97 l32 5 q22 4 27.5 9 q5.5 5 5.5 24 l0 161 l-48 0 q-12 -150 -79 -307 l-95 48 q49 105 64.5 188.5 q15.5 83.5 15.5 290.5 l0 338 l240 0 l0 -750 l0 -15 q88 38 115.5 77 q27.5 39 27.5 107 l0 66 l78 -5 l0 -77 q0 -31 -3 -56 q11 -10 28 -22 l0 179 l-128 0 l0 -186 l-85 0 l0 268 l292 0 l0 -268 ZM246 646 l-45 0 l0 -123 l45 0 l0 123 ZM397 560 l254 0 l0 -81 l-254 0 l0 81 ZM370 372 l0 79 l305 0 l0 -79 l-305 0 ZM201 304 l45 0 l0 116 l-45 0 l0 -116 Z" /><glyph glyph-name="Identity.21340" unicode="&#x81ea;" d="M522 701 l322 0 l0 -776 l-703 0 l0 776 l231 0 l29 93 l150 -5 l-29 -88 ZM720 578 l-454 0 l0 -93 l454 0 l0 93 ZM720 365 l-454 0 l0 -96 l454 0 l0 96 ZM266 46 l454 0 l0 102 l-454 0 l0 -102 Z" /><glyph glyph-name="Identity.21349" unicode="&#x81f3;" d="M185 501 q51 36 153 138 l-239 0 l0 118 l787 0 l0 -118 l-210 0 q127 -121 210 -229 l-97 -94 q-12 18 -52 69 q-281 -10 -525 -23 q-45 -2 -59 -4 l-30 112 q21 5 62 31 ZM323 482 l324 11 q-56 64 -80 85 l80 61 l-153 0 q-110 -119 -171 -157 ZM560 40 l364 0 l0 -116 l-864 0 l0 116 l372 0 l0 107 l-284 0 l0 115 l284 0 l0 92 l128 -5 l0 -87 l277 0 l0 -115 l-277 0 l0 -107 Z" /><glyph glyph-name="Identity.21350" unicode="&#x81f4;" d="M745 164 q75 -90 202 -175 l-77 -109 q-122 93 -194 182 q-67 -84 -201 -186 l-76 100 l-355 -41 l-7 119 q13 0 177 16 l0 101 l-135 0 l0 117 l135 0 l0 79 l119 -5 l0 -74 l135 0 l0 -117 l-135 0 l0 -89 l131 15 l0 -71 q88 68 141 135 q-55 92 -85 207 l-19 -27 l-31 46 l-86 -35 l-11 31 q-187 -13 -245 -18 q-30 -2 -37 -4 l-26 110 q18 10 26 19 q26 32 84 142 l-109 0 l0 116 l416 0 l0 -116 l-181 0 q-55 -105 -95 -150 q19 2 62 4 q43 2 63 3 q-28 68 -33 81 l94 38 q30 -65 59 -133 q88 141 122 322 l111 -21 q-10 -54 -31 -121 l254 0 l0 -117 l-58 0 q-29 -238 -104 -374 ZM609 538 l-12 -28 q19 -135 75 -239 q45 99 66 267 l-129 0 Z" /><glyph glyph-name="Identity.21476" unicode="&#x8272;" d="M814 177 l118 -37 q-1 -10 -4.5 -50 q-3.5 -40 -5.5 -50 q-12 -73 -44 -96.5 q-32 -23.5 -122 -27.5 q-225 -9 -450 0 q-85 2 -122 38 q-37 36 -37 122 l0 350 q-6 -6 -18 -16 q-12 -10 -18 -15 l-83 103 q213 163 296 320 l128 -33 q-4 -6 -14.5 -24 q-10.5 -18 -17.5 -28 l334 0 l0 -103 q-27 -31 -86 -92 l175 0 l0 -345 l-572 0 l0 -89 q0 -45 13.5 -58.5 q13.5 -13.5 63.5 -15.5 q192 -7 382 0 q46 2 58 11 q12 9 18 45 q6 40 8 91 ZM591 622 l-252 0 q-36 -44 -75 -84 l241 0 q39 32 86 84 ZM271 305 l161 0 l0 121 l-161 0 l0 -121 ZM720 305 l0 121 l-168 0 l0 -121 l168 0 Z" /><glyph glyph-name="Identity.21535" unicode="&#x82ad;" d="M288 557 l0 54 l-223 0 l0 120 l223 0 l0 68 l123 -5 l0 -63 l159 0 l0 68 l123 -5 l0 -63 l224 0 l0 -120 l-224 0 l0 -54 l-123 0 l0 54 l-159 0 l0 -54 l-123 0 ZM811 157 l123 -42 q-1 -4 -4.5 -32 q-3.5 -28 -6.5 -43 q-16 -75 -48 -99.5 q-32 -24.5 -115 -26.5 q-234 -9 -471 0 q-82 2 -115.5 34 q-33.5 32 -33.5 114 l0 470 l699 0 l0 -329 l-576 0 l0 -109 q0 -39 12.5 -51 q12.5 -12 57.5 -14 q199 -7 401 0 q41 2 52.5 12 q11.5 10 17.5 48 q5 30 7 68 ZM428 426 l-165 0 l0 -113 l165 0 l0 113 ZM713 313 l0 113 l-164 0 l0 -113 l164 0 Z" /><glyph glyph-name="Identity.21621" unicode="&#x8303;" d="M298 545 l0 63 l-234 0 l0 113 l234 0 l0 78 l120 -4 l0 -74 l155 0 l0 78 l123 -4 l0 -74 l228 0 l0 -113 l-228 0 l0 -61 l-123 0 l0 61 l-155 0 l0 -63 l-120 0 ZM130 479 l56 89 q71 -37 165 -107 l-52 -101 q-3 2 -71 51.5 q-68 49.5 -98 67.5 ZM819 172 l113 -38 q-10 -93 -12 -102 q-12 -66 -48 -90.5 q-36 -24.5 -128 -28.5 q-118 -6 -237 0 q-79 4 -112.5 33 q-33.5 29 -33.5 107 l0 467 l483 0 l-9 -244 q-4 -75 -35.5 -102.5 q-31.5 -27.5 -116.5 -33.5 l-77 -6 l-37 110 l75 7 q45 4 56.5 12.5 q11.5 8.5 13.5 45.5 l6 103 l-236 0 l0 -330 q0 -36 11.5 -45.5 q11.5 -9.5 53.5 -13.5 q92 -8 185 0 q46 4 57.5 12 q11.5 8 17.5 45 q1 7 10 92 ZM310 306 l-55 -104 q-88 74 -188 129 l53 88 q55 -26 190 -113 ZM221 198 l55 -28 l45 -24 q-85 -171 -133 -244 l-108 62 q78 109 141 234 Z" /><glyph glyph-name="Identity.21801" unicode="&#x83b7;" d="M293 578 l0 38 l-214 0 l0 112 l214 0 l0 68 l124 -5 l0 -63 l159 0 l0 68 l123 -5 l0 -63 l209 0 l0 -112 l-209 0 l0 -38 l-123 0 l0 38 l-159 0 l0 -38 l-124 0 ZM904 294 l-222 0 q55 -184 265 -296 l-71 -113 q-157 92 -245 248 q-55 -136 -212 -247 l-54 64 q-19 -20 -50.5 -30.5 q-31.5 -10.5 -87.5 -17.5 l-44 -6 l-36 109 l50 6 q54 6 69.5 20.5 q15.5 14.5 15.5 66.5 q0 53 -4 90 q-90 -90 -186 -150 l-51 100 q128 80 210 166 q-8 23 -17 39 q-44 -31 -125 -77 l-42 102 q59 35 108 67 q-42 49 -78 83 l85 68 q56 -55 83 -87 q67 55 83 71 l72 -77 q-46 -43 -93 -81 q39 -66 54.5 -142 q15.5 -76 15.5 -184 q0 -21 -2 -51 q73 60 108 120.5 q35 60.5 44 138.5 l-164 0 l0 112 l169 0 l1 151 l115 -5 l0 -146 l121 0 q-50 81 -84 120 l81 62 q43 -51 93 -128 l-56 -54 l81 0 l0 -112 Z" /><glyph glyph-name="Identity.22962" unicode="&#x8840;" d="M855 54 l72 0 l0 -119 l-882 0 l0 119 l75 0 l0 623 l268 0 l30 118 l143 -4 l-29 -114 l323 0 l0 -623 ZM239 556 l0 -502 l88 0 l0 502 l-88 0 ZM529 556 l-84 0 l0 -502 l84 0 l0 502 ZM734 54 l0 502 l-90 0 l0 -502 l90 0 Z" /><glyph glyph-name="Identity.22974" unicode="&#x884c;" d="M120 468 l-76 108 q55 39 125 106.5 q70 67.5 114 123.5 l93 -83 q-46 -60 -118.5 -132 q-72.5 -72 -137.5 -123 ZM877 759 l0 -121 l-448 0 l0 121 l448 0 ZM282 557 l94 -72 q-34 -51 -82 -112 l0 -467 l-125 0 l0 327 q-39 -41 -75 -72 l-65 111 q70 62 141 140.5 q71 78.5 112 144.5 ZM917 473 l0 -121 l-128 0 l0 -311 q0 -82 -28 -107 q-28 -25 -124 -33 l-81 -7 l-37 126 l88 7 q33 2 42 10.5 q9 8.5 9 39.5 l0 275 l-276 0 l0 121 l535 0 Z" /><glyph glyph-name="Identity.23283" unicode="&#x8981;" d="M908 180 l-162 0 q-45 -73 -95 -114 q131 -39 236 -73 l-44 -110 q-158 57 -317 106 q-141 -64 -433 -106 l-36 118 q185 20 289 43 l-192 57 q26 27 63 79 l-154 0 l0 103 l219 0 q16 29 30 57 l-206 0 l0 261 l219 0 l0 54 l-240 0 l0 111 l801 0 l0 -111 l-239 0 l0 -54 l219 0 l0 -261 l-477 0 l65 -15 l-22 -42 l476 0 l0 -103 ZM438 655 l0 -54 l95 0 l0 54 l-95 0 ZM226 498 l0 -55 l99 0 l0 55 l-99 0 ZM438 443 l95 0 l0 55 l-95 0 l0 -55 ZM746 498 l-99 0 l0 -55 l99 0 l0 55 ZM370 180 l-21 -30 q66 -16 169 -46 q54 32 86 76 l-234 0 Z" /><glyph glyph-name="Identity.23350" unicode="&#x89c4;" d="M416 98 l-83 -84 q-28 52 -74 121 q-33 -115 -134 -244 l-97 87 q68 85 99.5 155 q31.5 70 43.5 169 l-105 0 l0 127 l112 0 l0 44 l0 57 l-95 0 l0 125 l95 0 l0 137 l117 -5 l0 -132 l91 0 l0 -125 l-91 0 l0 -57 l0 -44 l94 0 l0 -127 l-100 0 q-2 -14 -2 -20 q8 -11 39 -52.5 q31 -41.5 53.5 -74 q22.5 -32.5 36.5 -57.5 ZM528 651 l0 -455 l-112 0 l0 577 l451 0 l0 -576 l-110 0 l0 454 l-229 0 ZM830 178 l105 -42 q-7 -73 -11 -108 q-10 -68 -33.5 -91.5 q-23.5 -23.5 -87.5 -25.5 q-45 -2 -86 0 q-56 2 -80 27 q-24 25 -24 90 l0 65 q-70 -118 -211 -215 l-76 99 q151 102 198.5 189.5 q47.5 87.5 53.5 257.5 q4 39 4 192 l115 -4 q0 -16 -1.5 -101 q-1.5 -85 -1.5 -102 q-2 -77 -15 -143 l46 -2 l0 -194 q0 -25 8.5 -33.5 q8.5 -8.5 32.5 -8.5 l10 0 q26 0 33.5 8 q7.5 8 11.5 34 q9 42 9 108 Z" /><glyph glyph-name="Identity.23364" unicode="&#x89d2;" d="M692 567 l170 0 l0 -542 q0 -66 -27 -92 q-27 -26 -93 -32 l-75 -8 l-38 121 l62 6 q31 3 40 10 q9 7 9 29 l0 36 l-178 0 l0 -181 l-121 0 l0 181 l-193 0 q-24 -98 -110 -214 l-109 70 q71 85 93 151 q22 66 22 190 l0 155 l-25 -20 l-79 103 q175 118 274 288 l127 -31 q-19 -36 -28 -49 l349 0 l0 -104 q-22 -20 -70 -67 ZM594 626 l-264 0 q-28 -33 -54 -59 l255 0 q1 1 63 59 ZM441 386 l0 68 l-176 0 l0 -68 l176 0 ZM740 386 l0 68 l-178 0 l0 -68 l178 0 ZM264 209 l177 0 l0 64 l-176 0 l0 -14 q0 -34 -1 -50 ZM562 209 l178 0 l0 64 l-178 0 l0 -64 Z" /><glyph glyph-name="Identity.23381" unicode="&#x89e3;" d="M931 184 l0 -110 l-155 0 l0 -167 l-108 0 l0 167 l-155 0 l0 110 l155 0 l0 74 l-62 0 q-11 -38 -27 -73 l-91 32 l0 -221 q0 -53 -15 -69.5 q-15 -16.5 -64 -22.5 l-43 -5 l-28 91 l0 -39 l-92 0 l0 173 l-51 0 q-13 -113 -74 -230 l-100 48 q48 96 63.5 162 q15.5 66 15.5 206 l0 159 l-81 61 q128 141 191 276 l110 -20 l-25 -56 l169 0 l0 -96 l-54 -67 l78 0 l0 -62 q46 37 62 65.5 q16 28.5 30 82.5 l-71 0 l0 107 l395 0 q-12 -187 -14 -203 q-4 -61 -27.5 -81.5 q-23.5 -20.5 -90.5 -26.5 l-52 -4 l-33 105 l42 4 q31 4 40 10.5 q9 6.5 11 29.5 q5 35 7 59 l-93 0 q-2 -21 -5 -32 q-20 -102 -121 -191 l73 -19 l-8 -42 l35 0 l0 60 l108 -5 l0 -55 l122 0 l0 -111 l-122 0 l0 -74 l155 0 ZM329 627 l-88 0 q-30 -49 -39 -60 l81 0 l46 60 ZM202 463 l0 -65 l44 0 l0 65 l-44 0 ZM338 463 l0 -65 l48 0 l0 65 l-48 0 ZM488 461 l0 -224 q28 65 57 174 q-1 -2 -8 -7 l-49 57 ZM202 229 l44 0 l0 62 l-44 0 l0 -27 l0 -35 ZM386 291 l-48 0 l0 -62 l48 0 l0 62 ZM338 0 l23 4 q17 3 21 8 q4 5 4 20 l0 92 l-48 0 l0 -124 Z" /><glyph glyph-name="Identity.23827" unicode="&#x8ba1;" d="M361 623 l-95 -89 q-61 94 -156 189 l87 79 q88 -75 164 -179 ZM930 498 l0 -128 l-232 0 l0 -466 l-127 0 l0 466 l-213 0 l0 128 l213 0 l0 304 l127 -4 l0 -300 l232 0 ZM288 507 l0 -380 q101 70 135 99 l34 -130 q-2 -1 -45 -31 q-43 -30 -88.5 -63.5 q-45.5 -33.5 -64.5 -51.5 q-18 -16 -33 -33 l-77 97 q17 20 17 64 l0 303 l-99 0 l0 126 l221 0 Z" /><glyph glyph-name="Identity.23835" unicode="&#x8ba9;" d="M342 617 l-90 -83 q-71 105 -143 183 l90 77 q51 -55 143 -177 ZM654 53 l280 0 l0 -119 l-613 0 l0 78 l-48 -42 q-20 -17 -57 -54 l-74 93 q11 11 14.5 24 q3.5 13 3.5 41 l0 302 l-96 0 l0 123 l216 0 l0 -368 q48 36 84 72 l48 -116 q-7 -4 -43 -34 l163 0 l0 740 l122 -5 l0 -246 l229 0 l0 -123 l-229 0 l0 -366 Z" /><glyph glyph-name="Identity.23856" unicode="&#x8bbe;" d="M351 619 l-94 -88 q-72 115 -151 194 l92 80 q37 -33 84 -90.5 q47 -57.5 69 -95.5 ZM946 0 l-63 -123 q-157 65 -257 134 q-96 -67 -252 -129 l-66 109 q122 41 222 100 q-59 61 -115 169 l81 45 l-120 0 l0 114 l28 0 l-78 78 q17 11 30.5 21 q13.5 10 24 20 q10.5 10 18 17 q7.5 7 12.5 17.5 q5 10.5 8 16 q3 5.5 5.5 16.5 q2.5 11 3.5 15.5 q1 4.5 2.5 18 q1.5 13.5 2.5 17.5 l0 113 l379 0 l0 -172 q0 -15 4 -20 q4 -5 18 -7 q12 -2 39 -2 q27 0 42 2 l-14 -120 q-73 -5 -126 0 q-83 7 -83 99 l0 107 l-137 0 q-2 -91 -34 -142 q-32 -51 -95 -95 l438 0 l-1 -114 l-1 0 q-52 -128 -138 -214 q89 -51 222 -91 ZM368 193 l51 -102 q-21 -21 -82 -72.5 q-61 -51.5 -79 -68.5 q-24 -18 -42 -36 l-73 95 q20 22 20 66 l0 304 l-86 0 l0 117 l210 0 l0 -371 q62 49 81 68 ZM731 305 l-212 0 q41 -83 107 -143 q70 63 105 143 Z" /><glyph glyph-name="Identity.23892" unicode="&#x8be2;" d="M528 712 l363 0 q0 -27 -4 -330.5 q-4 -303.5 -4 -326.5 q0 -83 -34 -115.5 q-34 -32.5 -123 -38.5 l-86 -6 l-36 113 l84 6 q44 2 58 21 q14 19 16 69 q0 20 3.5 244.5 q3.5 224.5 3.5 242.5 l-303 0 q-24 -40 -37 -59 l281 0 l0 -482 l-359 0 l0 377 q-1 -1 -2 -2 q-1 -1 -2 -3 l-90 78 q55 61 104.5 144.5 q49.5 83.5 77.5 161.5 l116 -32 q-25 -58 -27 -62 ZM297 632 l-83 -90 q-60 91 -132 169 l84 77 q78 -85 131 -156 ZM253 495 l0 -375 l52 52 l39 -121 q-3 -3 -50 -46.5 q-47 -43.5 -66 -65.5 q-16 -18 -24 -30 l-79 91 q14 14 18 28.5 q4 14.5 5 42.5 l0 304 l-84 0 l0 120 l189 0 ZM599 418 l-136 0 l0 -75 l136 0 l0 75 ZM463 159 l136 0 l0 77 l-136 0 l0 -77 Z" /><glyph glyph-name="Identity.23925" unicode="&#x8c03;" d="M306 625 l-95 -82 q-75 126 -125 182 l93 66 q75 -87 127 -166 ZM326 762 l568 0 l0 -732 q0 -71 -24.5 -96 q-24.5 -25 -97.5 -31 l-65 -6 l-36 101 l62 6 q30 3 39 11 q9 8 9 32 l0 602 l-347 0 l0 -278 q0 -195 -14.5 -292 q-14.5 -97 -62.5 -188 l-112 58 q42 79 58 140 q-63 -68 -83 -93 q-1 -2 -11 -13.5 q-10 -11.5 -14 -17.5 l-74 84 q15 22 15 67 l0 277 l-75 0 l0 123 l189 0 l0 -334 q5 5 15 16.5 q10 11.5 13 14.5 l37 -60 q11 78 11 263 l0 346 ZM456 430 l95 0 l0 54 l-90 0 l0 99 l90 0 l0 59 l104 -4 l0 -55 l94 0 l0 -99 l-94 0 l0 -54 l104 0 l0 -103 l-303 0 l0 103 ZM739 293 l0 -268 l-275 0 l0 268 l275 0 ZM638 115 l0 80 l-76 0 l0 -80 l76 0 Z" /><glyph glyph-name="Identity.23962" unicode="&#x8c28;" d="M311 622 l-95 -81 q-17 28 -59.5 83 q-42.5 55 -72.5 90 l93 77 q55 -63 134 -169 ZM658 17 l274 0 l0 -90 l-648 0 l0 90 l267 0 l0 31 l-195 0 l0 85 l195 0 l0 30 l-214 0 l0 85 l214 0 l0 31 l-222 0 l0 207 l222 0 l0 31 l-151 0 l0 117 l-87 0 l0 95 l87 0 l0 58 l112 -4 l0 -54 l180 0 l0 59 l112 -4 l0 -55 l113 0 l0 -95 l-113 0 l0 -117 l-146 0 l0 -31 l223 0 l0 -207 l-223 0 l0 -31 l220 0 l0 -85 l-220 0 l0 -30 l203 0 l0 -85 l-203 0 l0 -31 ZM512 634 l0 -31 l180 0 l0 31 l-180 0 ZM312 195 l31 -118 q-86 -80 -113 -109 q-8 -8 -29 -36 l-77 89 q20 22 20 65 l0 301 l-83 0 l0 119 l195 0 l0 -362 l56 51 ZM442 365 l109 0 l0 34 l-109 0 l0 -34 ZM768 399 l-110 0 l0 -34 l110 0 l0 34 Z" /><glyph glyph-name="Identity.24218" unicode="&#x8d28;" d="M260 633 l0 -200 q0 -194 -27 -304 q-27 -110 -98 -231 l-113 63 q74 125 97 209.5 q23 84.5 23 255.5 l0 319 q316 5 716 47 l23 -117 q-285 -32 -621 -42 ZM914 472 l-274 0 l0 -54 l214 0 l0 -316 l-118 0 l0 203 l-316 0 l0 -205 l-116 0 l0 318 l216 0 l0 54 l-247 0 l0 109 l247 0 l0 60 l120 -5 l0 -55 l274 0 l0 -109 ZM926 3 l-47 -113 q-91 55 -307 148 q-41 -46 -113.5 -80 q-72.5 -34 -194.5 -68 l-43 113 q121 32 180 59 q59 27 85 64 q26 37 33 101 q1 8 2 18.5 q1 10.5 1.5 22 q0.5 11.5 0.5 15.5 l117 -5 q0 -3 -1 -20 q-1 -17 -3 -36 q-3 -46 -12 -83 q199 -83 302 -136 Z" /><glyph glyph-name="Identity.24231" unicode="&#x8d35;" d="M543 463 l366 0 l0 -98 l-846 0 l0 98 l365 0 l0 35 l-283 0 l0 238 l283 0 l0 60 l115 -5 l0 -55 l286 0 l0 -238 l-286 0 l0 -35 ZM259 592 l169 0 l0 46 l-169 0 l0 -46 ZM715 638 l-172 0 l0 -46 l172 0 l0 46 ZM806 74 l-115 0 l0 156 l-409 0 l0 -158 l-115 0 l0 260 l639 0 l0 -258 ZM549 162 q-2 -22 -8 -38 q166 -53 360 -131 l-43 -113 q-245 112 -373 160 q-100 -94 -373 -159 l-45 121 q109 21 181.5 43 q72.5 22 108 44.5 q35.5 22.5 49 41.5 q13.5 19 15.5 43 l3 35 l129 -5 q-3 -36 -4 -42 Z" /><glyph glyph-name="Identity.24800" unicode="&#x8f6e;" d="M777 91 q8 48 10 80 l120 -42 q-6 -67 -14 -110 q-12 -61 -44.5 -82 q-32.5 -21 -108.5 -25 q-60 -3 -120 0 q-83 4 -111.5 31 q-28.5 27 -28.5 113 l0 363 q-5 -4 -20 -18 q-15 -14 -24 -21 l-17 21 l0 -122 l-80 0 l0 -62 l90 15 l7 -63 l9 -66 q-39 -5 -106 -17 l0 -185 l-114 0 l0 166 q-23 -4 -60 -10 q-37 -6 -61 -10 q-24 -4 -39 -7 l-19 133 q35 3 179 26 l0 80 l-164 0 l0 128 q32 57 71 166 l-57 0 l0 122 l95 0 q16 54 28 115 l110 -23 q-10 -46 -24 -92 l145 0 l0 -122 l-183 0 q-4 -13 -10 -28 l103 -5 l0 -136 l77 0 l-62 76 q71 55 137 145.5 q66 90.5 107 187.5 l100 0 q34 -92 109 -183 q75 -91 156 -151 l-78 -110 q-179 154 -233 270 q-43 -88 -122 -171 l76 -3 l0 -126 q100 61 158 111 l61 -114 q-65 -49 -219 -137 l0 -118 q0 -28 9 -36 q9 -8 43 -12 q24 -3 50 0 q43 6 53 14.5 q10 8.5 16 43.5 ZM180 404 l45 0 l0 110 q-30 -78 -45 -110 Z" /><glyph glyph-name="Identity.24813" unicode="&#x8f7b;" d="M438 165 l6 -72 q-8 -1 -43 -5.5 q-35 -4.5 -59 -8.5 l0 -171 l-117 0 l0 155 q-44 -6 -103 -14 q-59 -8 -66 -9 l-13 123 l182 23 l0 95 l-162 0 l0 121 q24 43 66 168 l-61 0 l0 121 l97 0 q19 71 28 111 l109 -21 q-3 -12 -10 -42.5 q-7 -30.5 -11 -47.5 l150 0 l0 -121 l-183 0 q-34 -117 -60 -168 l52 0 l0 139 l102 -4 l0 -135 l73 0 l0 -121 l-73 0 l0 -80 l92 13 l4 -49 ZM721 190 l0 -138 l207 0 l0 -121 l-521 0 l0 121 l195 0 l0 138 l-149 0 l0 123 l19 0 l-64 107 q191 95 301 213 l-252 0 l0 121 l414 0 l0 -116 q-45 -56 -101 -111 q141 -82 171 -105 l-54 -115 q-79 60 -212 136 q-93 -75 -194 -130 l387 0 l0 -123 l-147 0 Z" /><glyph glyph-name="Identity.24889" unicode="&#x8fc7;" d="M673 255 l0 273 l-321 0 l0 123 l321 0 l0 141 l124 -5 l0 -136 l110 0 l0 -123 l-110 0 l0 -305 q0 -32 -2 -53 q-2 -21 -10.5 -37 q-8.5 -16 -17 -25 q-8.5 -9 -29.5 -16 q-21 -7 -40.5 -10 q-19.5 -3 -56.5 -8 l-65 -8 l-38 120 l73 7 q44 4 53 13.5 q9 9.5 9 48.5 ZM328 620 l-91 -87 q-63 92 -141 178 l91 77 q35 -33 76.5 -83 q41.5 -50 64.5 -85 ZM371 446 l88 69 q94 -111 148 -195 l-94 -84 q-22 42 -68.5 110.5 q-46.5 68.5 -73.5 99.5 ZM595 35 q154 -4 347 9 l-27 -124 q-140 -5 -301 -5 q-19 1 -66 2.5 q-47 1.5 -61 2.5 q-14 1 -49 4 q-35 3 -49 7 q-14 4 -41 11.5 q-27 7.5 -44 18.5 q-17 11 -39.5 26 q-22.5 15 -45.5 36 q-49 -63 -106 -120 l-80 101 q11 11 63 60 q52 49 71 72 l0 236 l-91 0 l0 120 l214 0 l0 -380 q64 -50 122 -62 q58 -12 183 -15 Z" /><glyph glyph-name="Identity.24898" unicode="&#x8fd0;" d="M325 623 l-90 -89 q-65 95 -146 184 l91 77 q89 -86 145 -172 ZM862 756 l0 -112 l-485 0 l0 112 l485 0 ZM912 422 l-288 0 q-78 -156 -110 -188 q102 6 209 16 q-38 78 -54 103 l107 46 q72 -124 134 -279 l-109 -56 q-16 45 -29 74 q-62 -6 -329 -27 l-66 -9 l-33 111 q35 20 57 49 q51 72 91 160 l-168 0 l0 115 l588 0 l0 -115 ZM595 32 q154 -4 347 9 l-27 -121 q-140 -5 -301 -5 q-21 1 -59.5 2 q-38.5 1 -54.5 2 q-16 1 -46 3 q-30 2 -44 5 q-14 3 -38.5 8.5 q-24.5 5.5 -39.5 12.5 q-15 7 -35.5 17.5 q-20.5 10.5 -39 25 q-18.5 14.5 -38.5 32.5 q-30 -36 -101 -113 l-86 96 q101 91 132 129 l0 244 l-98 0 l0 116 l214 0 l0 -381 q64 -50 129 -65 q65 -15 186 -17 Z" /><glyph glyph-name="Identity.24909" unicode="&#x8fdb;" d="M322 623 l-87 -91 q-65 95 -146 184 l91 77 q35 -33 76.5 -83 q41.5 -50 65.5 -87 ZM595 29 q154 -4 347 9 l-27 -121 q-231 -8 -301 -5 q-15 0 -42 1 q-141 3 -208 20 q-67 17 -145 87 q-35 -45 -99 -109 l-81 87 q78 75 125 132 l0 239 l-88 0 l0 118 l208 0 l0 -382 q63 -48 143 -65 l-91 69 q41 52 58 82 q17 30 25 71 l-107 0 l0 121 l115 0 l0 32 l0 113 l-86 0 l0 119 l86 0 l0 134 l117 -5 l0 -129 l127 0 l0 135 l121 -5 l0 -130 l102 0 l0 -119 l-102 0 l0 -145 l128 0 l0 -121 l-128 0 l0 -205 l-121 0 l0 205 l-133 0 q-8 -73 -29 -119 q-21 -46 -70 -105 q45 -7 156 -9 ZM544 424 l0 -41 l127 0 l0 145 l-127 0 l0 -104 Z" /><glyph glyph-name="Identity.24912" unicode="&#x8fde;" d="M339 342 l0 113 q37 48 82 138 l-89 0 l0 114 l140 0 q12 26 37 97 l123 -14 q-5 -17 -31 -83 l294 0 l0 -114 l-342 0 q-48 -99 -76 -137 l90 0 l0 106 l122 -3 l0 -103 l180 0 l0 -114 l-180 0 l0 -81 l223 0 l0 -116 l-223 0 l0 -88 l-122 0 l0 88 l-261 0 l0 116 l261 0 l0 81 l-228 0 ZM317 606 l-97 -85 q-50 89 -131 196 l97 71 q51 -58 131 -182 ZM590 30 q154 -4 347 9 l-27 -122 q-231 -8 -301 -5 q-11 0 -53.5 1 q-42.5 1 -50.5 1.5 q-8 0.5 -42 2 q-34 1.5 -42 4 q-8 2.5 -35 6 q-27 3.5 -37 9 q-10 5.5 -31.5 13 q-21.5 7.5 -35.5 18 q-14 10.5 -32 23.5 q-18 13 -36 29 q-35 -45 -99 -109 l-83 89 q86 83 125 130 l0 239 l-86 0 l0 120 l208 0 l0 -384 q34 -26 64 -41 q30 -15 75 -22 q45 -7 72 -8 q27 -1 100 -3 Z" /><glyph glyph-name="Identity.24948" unicode="&#x9002;" d="M321 615 l-93 -89 q-56 79 -144 181 l87 85 q73 -73 150 -177 ZM547 575 l0 73 q-28 -2 -197 -11 l-9 106 q270 8 514 41 l15 -105 q-41 -6 -199 -20 l0 -84 l233 0 l0 -116 l-233 0 l0 -65 l190 0 l0 -315 l-504 0 l0 315 l190 0 l0 65 l-234 0 l0 116 l234 0 ZM501 39 q221 -9 442 6 l-27 -119 q-208 -16 -431 -5 q-106 4 -161 23 q-55 19 -104 77 q-58 -65 -112 -109 l-74 99 q82 73 124 119 l0 228 l-94 0 l0 119 l212 0 l0 -347 q34 -51 82.5 -69 q48.5 -18 142.5 -22 ZM739 195 l0 85 l-261 0 l0 -85 l261 0 Z" /><glyph glyph-name="Identity.24972" unicode="&#x901a;" d="M297 595 l-106 -61 q-57 114 -111 187 l98 61 q22 -28 59 -86 q37 -58 60 -101 ZM476 17 q236 -17 471 9 l-25 -103 q-221 -27 -452 -10 q-106 7 -163 27.5 q-57 20.5 -103 79.5 q-71 -85 -102 -112 l-75 101 q67 55 118 113 l0 244 l-81 0 l0 119 l195 0 l0 -362 q29 -49 66 -72 l0 515 l174 0 l-86 59 l34 43 l-111 0 l0 100 l521 0 l0 -101 q-66 -45 -155 -101 l175 0 l0 -407 q0 -57 -23 -81 q-23 -24 -78 -30 l-52 -5 l-35 96 l48 6 q21 3 27 10.5 q6 7.5 6 28.5 l-117 0 l0 -116 l-107 0 l0 116 l-113 0 l0 -136 l-102 0 q46 -25 145 -31 ZM682 668 l-173 0 l86 -56 q65 44 87 56 ZM546 465 l-113 0 l0 -44 l113 0 l0 44 ZM770 421 l0 44 l-117 0 l0 -44 l117 0 ZM433 281 l113 0 l0 42 l-113 0 l0 -42 ZM653 323 l0 -42 l117 0 l0 42 l-117 0 Z" /><glyph glyph-name="Identity.24978" unicode="&#x9020;" d="M377 513 l-77 44 q64 100 100 225 l105 -30 q-5 -20 -20 -63 l81 0 l0 105 l115 -4 l0 -101 l197 0 l0 -106 l-197 0 l0 -70 l229 0 l0 -105 l-600 0 l0 105 l67 0 ZM309 608 l-97 -86 q-43 59 -138 176 l93 82 q51 -59 142 -172 ZM566 583 l-122 0 l-35 -70 l157 0 l0 70 ZM591 30 q176 -11 346 9 l-27 -122 q-60 -6 -157.5 -7.5 q-97.5 -1.5 -142.5 2.5 q-41 4 -101 7.5 q-60 3.5 -88 6.5 q-28 3 -67.5 12.5 q-39.5 9.5 -71.5 28.5 q-32 19 -67 51 q-42 -54 -100 -112 l-80 90 q93 93 125 132 l0 239 l-88 0 l0 119 l204 0 l0 -383 q20 -15 38 -26 q18 -11 41 -18.5 q23 -7.5 37.5 -11.5 q14.5 -4 44 -7 q29.5 -3 43.5 -4 q14 -1 54 -3 q40 -2 57 -3 ZM856 72 l-499 0 l0 296 l499 0 l0 -296 ZM474 263 l0 -84 l264 0 l0 84 l-264 0 Z" /><glyph glyph-name="Identity.25073" unicode="&#x907f;" d="M690 291 l0 76 l-93 0 l0 108 l53 0 l-13 126 l-31 0 l0 109 l95 0 l-16 81 l107 6 l15 -87 l92 0 l0 -109 l-42 0 l-14 -126 l77 0 l0 -108 l-125 0 l0 -76 l109 0 l0 -111 l-109 0 l0 -129 l-105 0 l0 129 l-86 0 l0 111 l86 0 ZM284 607 l-99 -77 q-56 98 -121 174 l95 72 q75 -80 125 -169 ZM581 25 q153 -4 346 9 l-24 -110 q-181 -11 -303 -5 q-165 4 -214 13 q-96 18 -183 91 q-56 -72 -99 -115 l-79 84 q93 93 125 132 l0 243 l-88 0 l0 123 l199 0 l0 -245 q63 119 63 270 l0 247 l264 0 l0 -315 l-169 0 q-1 -10 -3 -30.5 q-2 -20.5 -4 -30.5 l174 0 l0 -315 l-228 0 l0 135 q-17 -35 -38 -67 l-59 42 l0 -82 q34 -26 65.5 -41 q31.5 -15 78.5 -22 q47 -7 74.5 -8 q27.5 -1 101.5 -3 ZM493 652 l-70 0 l0 -96 l70 0 l0 96 ZM721 601 l11 -126 l29 0 l11 126 l-51 0 ZM444 293 l0 -125 l55 0 l0 125 l-55 0 Z" /><glyph glyph-name="Identity.25178" unicode="&#x90e8;" d="M481 608 l-27 -132 l93 0 l0 -120 l-495 0 l0 120 l119 0 l-25 132 l-59 0 l0 110 l163 0 l-16 77 l122 6 l15 -83 l165 0 l0 -110 l-55 0 ZM924 632 l-75 -216 q48 -69 66.5 -121 q18.5 -52 18.5 -113 q0 -90 -28 -126.5 q-28 -36.5 -81 -40.5 l-69 -7 l-36 114 l45 6 q35 5 46.5 22 q11.5 17 11.5 60 q0 88 -81 183 l73 242 l-117 0 l0 -732 l-109 0 l0 850 l335 0 l0 -121 ZM254 608 l23 -132 l70 0 l27 132 l-120 0 ZM103 -54 l0 358 l418 0 l0 -358 l-418 0 ZM222 187 l0 -123 l182 0 l0 123 l-182 0 Z" /><glyph glyph-name="Identity.25199" unicode="&#x90fd;" d="M839 414 q54 -78 74 -130.5 q20 -52.5 20 -112.5 q0 -89 -28.5 -123 q-28.5 -34 -99.5 -43 l-51 -6 l-40 117 l57 9 q28 4 37 16 q9 12 9 46 q0 87 -98 203 q9 25 29 76.5 q20 51.5 35.5 95.5 q15.5 44 24.5 86 l-118 0 l0 -741 l-115 0 l0 772 q-45 -98 -90 -165 l72 0 l0 -107 l-156 0 q-24 -27 -53 -53 l169 0 l0 -420 l-363 0 l0 273 q-35 -23 -75 -47 l-59 100 q130 69 225 147 l-171 0 l0 107 l159 0 l0 79 l-117 0 l0 105 l117 0 l0 96 l111 -5 l0 -91 l92 0 l0 -58 q24 43 44 98 l95 -42 l0 65 l338 0 l0 -121 q-23 -103 -74 -226 ZM344 514 l8 0 q34 40 57 79 l-65 0 l0 -79 ZM413 192 l0 60 l-153 0 l0 -60 l153 0 ZM260 35 l153 0 l0 58 l-153 0 l0 -58 Z" /><glyph glyph-name="Identity.25322" unicode="&#x9178;" d="M865 326 l0 -90 q-48 -107 -90 -161 q70 -49 173 -83 l-50 -102 q-119 53 -197 111 q-63 -53 -180 -110 l-56 95 l0 -50 l-381 0 l0 644 l99 0 l0 76 l-125 0 l0 105 l421 0 l0 -105 l-107 0 l0 -76 l93 0 l0 -182 q58 37 122 102 q-9 -1 -24.5 -2 q-15.5 -1 -22.5 -3 q-26 -2 -37 -5 l-22 116 q25 5 40 23 q80 106 114 176 l104 -32 q-56 -98 -113 -163 l131 9 q-22 32 -44 57 l81 65 q61 -80 143 -195 l-79 -68 l-29 42 q-47 -3 -54 -4 q59 -41 180 -143 l-62 -73 q-4 4 -13 12 q-9 8 -15 14 ZM264 656 l0 -76 l25 0 l0 76 l-25 0 ZM773 516 l-160 -13 l53 -54 q-30 -33 -53 -54 l70 -24 l-12 -31 l178 0 q-80 68 -132 103 l56 73 ZM196 476 l-29 0 l0 -153 q29 51 29 140 l0 13 ZM264 476 l0 -37 q0 -75 -9.5 -114.5 q-9.5 -39.5 -40.5 -90.5 l-47 22 l0 -51 l216 0 l0 51 l-24 0 q-39 0 -54.5 19.5 q-15.5 19.5 -15.5 64.5 l0 136 l-25 0 ZM383 348 l0 128 l-26 0 l0 -98 q2 -17 8 -23.5 q6 -6.5 18 -6.5 ZM509 304 l-44 62 l0 -175 q62 71 110 168 q-24 -22 -66 -55 ZM759 236 l-122 0 q24 -51 60 -93 q25 30 62 93 ZM465 160 l0 -165 q97 41 156 81 q-33 36 -58 79 q-38 -42 -46 -51 l-52 56 ZM167 41 l216 0 l0 61 l-216 0 l0 -61 Z" /><glyph glyph-name="Identity.25401" unicode="&#x91c7;" d="M946 53 l-67 -113 q-188 85 -327 219 l0 -247 l-121 0 l0 243 q-135 -135 -332 -220 l-58 116 q202 79 329 198 l-284 0 l0 118 l345 0 l0 72 l60 -2 q-61 114 -101 169 l53 33 q-101 -7 -194 -12 l112 -160 l-106 -74 q-29 54 -120 181 l75 51 l-87 -3 l-15 117 q170 2 382 17 q212 15 354 35 l18 -116 q-68 -8 -110 -11 l104 -62 q-53 -89 -148 -216 l-102 72 q38 42 79.5 101 q41.5 59 63.5 104 q-34 -3 -73 -6.5 q-39 -3.5 -87.5 -7.5 q-48.5 -4 -77.5 -6 q61 -98 87 -142 l-103 -64 l57 -2 l0 -68 l343 0 l0 -118 l-286 0 q136 -124 337 -196 Z" /><glyph glyph-name="Identity.25407" unicode="&#x91cd;" d="M933 538 l-382 0 l0 -34 l290 0 l0 -330 l-290 0 l0 -34 l298 0 l0 -89 l-298 0 l0 -35 l359 0 l0 -95 l-835 0 l0 95 l360 0 l0 35 l-297 0 l0 89 l297 0 l0 34 l-289 0 l0 330 l289 0 l0 34 l-382 0 l0 92 l382 0 l0 35 q-177 -7 -292 -8 l-6 106 q364 6 696 29 l12 -106 q-139 -9 -294 -16 l0 -40 l382 0 l0 -92 ZM435 416 l-170 0 l0 -35 l170 0 l0 35 ZM720 416 l-169 0 l0 -35 l169 0 l0 35 ZM265 261 l170 0 l0 34 l-170 0 l0 -34 ZM551 261 l169 0 l0 34 l-169 0 l0 -34 Z" /><glyph glyph-name="Identity.26106" unicode="&#x9488;" d="M304 210 l0 -125 q7 4 55.5 30.5 q48.5 26.5 67.5 35.5 l23 -125 q-12 -5 -66.5 -32 q-54.5 -27 -92.5 -49 q-42 -21 -83 -47 l-63 109 q22 11 28 23.5 q6 12.5 6 38.5 l0 141 l-115 0 l0 118 l115 0 l0 79 l-63 0 l0 27 l-21 -27 l-76 98 q101 122 161 308 l119 -23 q-10 -35 -34 -92 l184 0 l0 -116 l-240 0 q-7 -15 -36 -63 l240 0 l0 -112 l-109 0 l0 -79 l133 0 l0 -118 l-133 0 ZM930 491 l0 -128 l-194 0 l0 -451 l-124 0 l0 451 l-178 0 l0 128 l178 0 l0 302 l124 -4 l0 -298 l194 0 Z" /><glyph glyph-name="Identity.26147" unicode="&#x94b1;" d="M842 164 l96 -57 q-10 -52 -25 -92 q-27 -68 -59.5 -94 q-32.5 -26 -76.5 -26 q-44 0 -78.5 25 q-34.5 25 -78.5 94 q-1 2 -7 12 q-6 10 -9 16 q-78 -47 -163 -82 l-44 111 q88 36 165 80 q-21 66 -36 157 l-117 -16 l-9 111 l110 15 l-8 73 l-88 -10 l-9 104 l-202 0 l-36 -61 l215 0 l0 -113 l-98 0 l0 -80 l112 0 l0 -113 l-112 0 l0 -123 q16 9 49 28 q33 19 43 24 l16 -125 q-60 -25 -152 -81 q-8 -4 -24 -14 q-16 -10 -19 -12 l-55 103 q18 10 22.5 21 q4.5 11 4.5 33 l0 146 l-108 0 l0 113 l108 0 l0 80 l-58 0 l0 34 l-21 -26 l-69 87 q47 64 92 146.5 q45 82.5 70 154.5 l108 -22 q-21 -58 -33 -88 l154 0 l0 -107 l81 9 q-12 142 -12 196 l112 -2 q1 -10 3.5 -71 q2.5 -61 6.5 -110 l126 16 q-45 53 -99 100 l69 69 q73 -61 113 -111 l-52 -55 l125 15 l9 -109 l-282 -33 l8 -72 l283 38 l10 -108 l-99 -14 l65 -68 q-89 -105 -177 -172 q3 -5 9 -16.5 q6 -11.5 10 -17.5 q31 -48 56 -48 q13 0 22 11.5 q9 11.5 21 45.5 q10 28 22 81 ZM797 346 l-160 -22 q10 -57 24 -107 q74 56 136 129 Z" /><glyph glyph-name="Identity.26272" unicode="&#x952e;" d="M654 29 q133 -6 277 2 l-18 -97 q-135 -9 -269 -3 q-146 7 -221 92 q-26 -48 -73 -113 l-82 72 q28 31 57 71 q-92 -67 -119 -91 l-47 -43 l-58 92 q17 14 21.5 24 q4.5 10 4.5 32 l0 159 l-70 0 l0 105 l70 0 l0 85 l-30 0 l0 74 l-4 -6 l-78 68 q79 111 127 254 l99 -21 q-21 -58 -33 -88 l108 0 l0 -105 l-159 0 q-11 -20 -41 -71 l170 0 l0 -105 l-60 0 l0 -85 l67 0 l0 -105 l-67 0 l0 -127 q25 21 65 56 l36 -99 q21 34 35 62 q-34 75 -54 172 l83 21 q11 -52 16 -66 q15 65 18 134 l-115 0 l0 100 l103 164 l-76 0 l0 101 l182 0 l0 -102 l-101 -163 l103 0 l0 -103 q-25 -176 -56 -259 q62 -82 189 -88 ZM639 463 l0 43 l-113 0 l0 89 l113 0 l0 43 l-89 0 l0 89 l89 0 l0 68 l94 -4 l0 -64 l146 0 l0 -132 l35 0 l0 -89 l-35 0 l0 -133 l-146 0 l0 -40 l143 0 l0 -89 l-143 0 l0 -39 l166 0 l0 -89 l-166 0 l0 -65 l-94 0 l0 65 l-122 0 l0 89 l122 0 l0 39 l-92 0 l0 89 l92 0 l0 40 l-90 0 l0 90 l90 0 ZM733 638 l0 -43 l56 0 l0 43 l-56 0 ZM789 463 l0 43 l-56 0 l0 -43 l56 0 Z" /><glyph glyph-name="Identity.26300" unicode="&#x954a;" d="M298 145 l25 -118 q-102 -69 -123 -85 l-35 -29 l-61 97 q17 12 21.5 22 q4.5 10 4.5 32 l0 156 l-73 0 l0 110 l73 0 l0 78 l-34 0 l0 43 l-89 60 q92 158 134 293 l101 -27 q-10 -34 -29 -84 l115 0 l0 -109 l-162 0 q-22 -45 -32 -65 l180 0 l0 -111 l-78 0 l0 -78 l79 0 l0 -110 l-79 0 l0 -124 l62 49 ZM335 392 l64 3 l0 277 l-54 0 l0 91 l560 0 l0 -91 l-64 0 l0 -259 l81 3 l0 -80 l-81 -4 l0 -38 l-107 0 l0 34 l-397 -18 l-2 82 ZM734 672 l-228 0 l0 -31 l228 0 l0 31 ZM506 554 l0 -31 l228 0 l0 31 l-228 0 ZM506 442 l0 -43 l228 9 l0 34 l-228 0 ZM947 -22 l-42 -92 q-97 38 -159 90 q-64 -50 -154 -96 l-52 90 l-8 -9 q-18 14 -47 40 q-50 -56 -141 -116 l-61 87 q75 39 127 90 l-81 64 l47 59 l-37 0 l0 87 l254 0 l0 -89 q-23 -64 -52 -109 l52 -41 l-50 -60 q80 32 137 72 q-36 50 -63 115 l62 25 l-64 0 l0 87 l285 0 l0 -89 q-30 -78 -86 -143 q40 -28 133 -62 ZM500 185 l-108 0 l76 -56 q18 26 32 56 ZM802 185 l-97 0 q18 -47 43 -82 q34 37 54 82 Z" /><glyph glyph-name="Identity.26353" unicode="&#x957f;" d="M914 324 l-357 0 q53 -101 143 -166 q90 -65 244 -121 l-73 -120 q-168 76 -276.5 171 q-108.5 95 -180.5 236 l-92 0 l0 -258 q35 11 100 35 q65 24 78 28 l4 -136 q-17 -5 -238 -93 l-42 -21 l-64 133 q22 9 28.5 19.5 q6.5 10.5 6.5 30.5 l0 262 l-131 0 l0 125 l131 0 l0 342 l127 -4 l0 -338 l58 0 l-45 119 q189 65 431 220 l62 -121 q-248 -149 -445 -218 l531 0 l0 -125 Z" /><glyph glyph-name="Identity.26458" unicode="&#x95e8;" d="M129 733 l84 81 q35 -25 81.5 -72 q46.5 -47 69.5 -82 l-95 -94 q-21 33 -65.5 86 q-44.5 53 -74.5 81 ZM757 112 l0 521 l-378 0 l0 121 l505 0 l0 -695 q0 -92 -25.5 -120.5 q-25.5 -28.5 -117.5 -36.5 l-77 -7 l-40 128 l71 6 q44 4 53 16.5 q9 12.5 9 66.5 ZM225 616 l0 -715 l-125 0 l0 720 l125 -5 Z" /><glyph glyph-name="Identity.26464" unicode="&#x95ee;" d="M122 731 l86 78 q100 -100 134 -156 l-91 -87 q-52 84 -129 165 ZM895 752 l0 -701 q0 -83 -31.5 -111.5 q-31.5 -28.5 -120.5 -37.5 l-67 -6 l-39 122 l67 6 q41 4 52.5 15 q11.5 11 11.5 45 l0 540 l-406 0 l0 128 l533 0 ZM217 592 l0 -692 l-128 0 l0 696 l128 -4 ZM693 528 l0 -425 l-403 0 l0 425 l403 0 ZM412 221 l158 0 l0 193 l-158 0 l0 -193 Z" /><glyph glyph-name="Identity.26470" unicode="&#x95f4;" d="M127 728 l83 81 q108 -102 140 -150 l-88 -91 q-52 79 -135 160 ZM360 755 l536 0 l0 -700 q0 -92 -24.5 -120 q-24.5 -28 -113.5 -36 l-83 -8 l-37 119 l69 7 q41 4 50.5 14.5 q9.5 10.5 9.5 51.5 l0 550 l-407 0 l0 122 ZM93 -99 l0 715 l125 -5 l0 -710 l-125 0 ZM699 560 l0 -519 l-410 0 l0 519 l410 0 ZM577 441 l-167 0 l0 -80 l167 0 l0 80 ZM410 162 l167 0 l0 80 l-167 0 l0 -80 Z" /><glyph glyph-name="Identity.26513" unicode="&#x961f;" d="M951 -12 l-90 -104 q-158 164 -224 351 q-57 -195 -227 -361 l-89 96 q140 130 189.5 279.5 q49.5 149.5 47.5 419.5 l0 118 l121 -3 l0 -139 q0 -67 -1 -100 q15 -185 77.5 -308 q62.5 -123 195.5 -249 ZM451 241 q0 -88 -28.5 -117 q-28.5 -29 -120.5 -44 l-38 -6 l-42 117 l47 7 q40 6 51.5 17 q11.5 11 11.5 43 q0 81 -92 178 q48 105 81 203 l-108 0 l0 -738 l-116 0 l0 860 l348 0 l0 -122 q-40 -107 -79 -183 q85 -109 85 -215 Z" /><glyph glyph-name="Identity.26695" unicode="&#x96d5;" d="M817 24 l115 0 l0 -107 l-386 0 l0 451 q-4 -5 -8.5 -15.5 q-4.5 -10.5 -8.5 -15.5 l-23 28 l0 -345 q0 -59 -21 -81 q-21 -22 -79 -28 l-39 -4 l-33 97 l42 5 q24 3 32 11.5 q8 8.5 8 32.5 l0 599 l-224 0 l0 -281 q0 -188 -13 -277.5 q-13 -89.5 -51 -190.5 l-103 41 q40 107 53.5 187 q13.5 80 13.5 265 l0 367 l414 0 l0 -246 q56 137 74 274 l104 -14 q-12 -72 -26 -123 l79 0 l-25 114 l98 6 l23 -120 l81 0 l0 -109 l-97 0 l0 -101 l84 0 l0 -107 l-84 0 l0 -101 l84 0 l0 -107 l-84 0 l0 -105 ZM209 435 l51 0 l0 54 l-45 0 l0 98 l45 0 l0 59 l88 -5 l0 -54 l46 0 l0 -98 l-46 0 l0 -54 l50 0 l0 -100 l-189 0 l0 100 ZM719 444 l0 101 l-80 0 l0 -101 l80 0 ZM719 236 l0 101 l-80 0 l0 -101 l80 0 ZM391 299 l0 -261 l-176 0 l0 261 l176 0 ZM322 131 l0 70 l-41 0 l0 -70 l41 0 ZM639 129 l0 -105 l80 0 l0 105 l-80 0 Z" /><glyph glyph-name="Identity.26827" unicode="&#x9759;" d="M937 386 l0 -102 l-57 0 l0 -182 l-168 0 l0 -74 q0 -63 -21 -88.5 q-21 -25.5 -68 -29.5 l-71 -7 l-34 105 l54 6 q23 3 29 10 q6 7 6 29 l0 49 l-142 0 l0 101 l142 0 l0 81 l-157 0 l0 102 l157 0 l0 78 l-117 0 l0 64 l-54 49 q92 118 135 222 l108 -15 q-3 -7 -9 -22.5 q-6 -15.5 -10 -23.5 l177 0 l0 -93 l-57 -78 l100 0 l0 -181 l57 0 ZM458 486 l0 -86 l-412 0 l0 86 l156 0 l0 34 l-108 0 l0 85 l108 0 l0 33 l-129 0 l0 89 l129 0 l0 68 l111 -5 l0 -63 l134 0 l0 -89 l-134 0 l0 -33 l113 0 l0 -85 l-113 0 l0 -34 l145 0 ZM709 635 l-104 0 q-24 -37 -47 -68 l99 0 l52 68 ZM712 464 l0 -78 l66 0 l0 78 l-66 0 ZM92 -93 l0 462 l334 0 l0 -364 q0 -50 -18.5 -70 q-18.5 -20 -63.5 -26 l-54 -7 l-34 97 l44 6 q18 2 23 7.5 q5 5.5 5 20.5 l0 23 l-137 0 l0 -149 l-99 0 ZM328 285 l-137 0 l0 -32 l137 0 l0 32 ZM778 203 l0 81 l-66 0 l0 -81 l66 0 ZM191 140 l137 0 l0 32 l-137 0 l0 -32 Z" /><glyph glyph-name="Identity.26836" unicode="&#x9762;" d="M910 658 l-370 0 l-27 -73 l359 0 l0 -658 l-768 0 l0 658 l275 0 q3 9 12 34.5 q9 25.5 14 38.5 l-340 0 l0 113 l845 0 l0 -113 ZM219 473 l0 -434 l83 0 l0 434 l-83 0 ZM561 401 l0 72 l-147 0 l0 -72 l147 0 ZM757 39 l0 434 l-83 0 l0 -434 l83 0 ZM561 228 l0 64 l-147 0 l0 -64 l147 0 ZM414 121 l0 -82 l147 0 l0 82 l-147 0 Z" /><glyph glyph-name="Identity.26971" unicode="&#x97e9;" d="M328 200 l0 -44 l139 0 l0 -113 l-139 0 l0 -132 l-115 0 l0 132 l-164 0 l0 113 l164 0 l0 44 l-123 0 l0 369 l123 0 l0 40 l-135 0 l0 108 l135 0 l0 78 l115 -6 l0 -72 l133 0 l0 -108 l-133 0 l0 -40 l122 0 l0 -369 l-122 0 ZM695 325 l211 0 q0 -24 -4 -110 q-4 -86 -6 -109 q-4 -67 -26 -90 q-22 -23 -85 -29 l-43 -4 l-32 113 l38 5 q19 2 28.5 7.5 q9.5 5.5 11 10 q1.5 4.5 3.5 17.5 q2 19 5 77 l-101 0 l0 -304 l-118 0 l0 304 l-105 0 l0 112 l105 0 l0 74 l-85 0 l0 109 l85 0 l0 74 l-95 0 l0 114 l95 0 l0 98 l118 -6 l0 -92 l203 0 l0 -114 l-203 0 l0 -74 l172 0 l0 -109 l-172 0 l0 -74 ZM350 467 l-160 0 l0 -34 l160 0 l0 34 ZM190 335 l0 -35 l160 0 l0 35 l-160 0 Z" /><glyph glyph-name="Identity.27115" unicode="&#x9879;" d="M497 458 l0 -322 l-116 0 l0 431 l169 0 l17 77 l-179 0 l0 116 l525 0 l0 -116 l-217 0 q-7 -43 -16 -77 l196 0 l0 -432 l-115 0 l0 323 l-264 0 ZM365 165 l9 -70 q-35 -8 -160 -38 q-125 -30 -152 -38 l-23 128 q3 1 20.5 4.5 q17.5 3.5 43 9 q25.5 5.5 50.5 12.5 l0 445 l-80 0 l0 121 l291 0 l0 -121 l-90 0 l0 -416 l83 21 l8 -58 ZM935 4 l-68 -107 q-101 86 -232 181 q-70 -101 -275 -188 l-68 111 q76 27 125 52 q49 25 80.5 48.5 q31.5 23.5 47 55 q15.5 31.5 20.5 63 q5 31.5 5 81.5 l0 129 l117 -6 l0 -148 q0 -59 -10 -100 q179 -110 258 -172 Z" /><glyph glyph-name="Identity.27126" unicode="&#x9884;" d="M594 586 l15 67 l-160 0 l0 113 l462 0 l0 -113 l-187 0 q-10 -52 -15 -67 l180 0 l0 -465 l-111 0 l0 353 l-223 0 l0 -353 l-104 0 l0 465 l143 0 ZM388 215 l-90 31 q22 56 31 97 l-44 0 l0 -314 q0 -78 -20.5 -101 q-20.5 -23 -100.5 -31 l-48 -4 l-39 116 l50 3 q33 2 41.5 13 q8.5 11 8.5 55 l0 263 l-124 0 l0 116 l148 0 q-55 60 -112 102 l63 73 q40 -33 64 -55 q55 63 74 73 l-207 0 l0 110 l334 0 l0 -121 q-22 -10 -124 -136 l24 -27 l-20 -19 l136 0 l0 -113 q-17 -74 -45 -131 ZM711 163 q162 -108 238 -172 l-66 -111 q-90 90 -215 181 q-66 -101 -241 -183 l-74 109 q83 33 133 63 q50 30 76.5 65.5 q26.5 35.5 35 71.5 q8.5 36 8.5 92 l0 166 l116 -4 l0 -173 q0 -53 -11 -105 Z" /><glyph glyph-name="Identity.27146" unicode="&#x9898;" d="M453 767 l0 -360 l-356 0 l0 360 l356 0 ZM505 585 l116 0 q0 1 16 67 l-147 0 l0 103 l418 0 l0 -103 l-160 0 q-4 -11 -9.5 -34 q-5.5 -23 -8.5 -33 l148 0 l0 -375 l-104 0 l0 273 l-164 0 l0 -274 l-105 0 l0 376 ZM341 674 l-134 0 l0 -41 l134 0 l0 41 ZM207 501 l134 0 l0 41 l-134 0 l0 -41 ZM905 105 l-44 -66 q13 1 39 2 q26 1 39 3 l-28 -122 q-266 -19 -512 -7 q-88 4 -141 26 q-53 22 -91 80 q-16 -39 -59 -116 l-95 53 q47 73 69.5 134.5 q22.5 61.5 30.5 156.5 l100 -12 q-5 -58 -11 -89 q26 -54 49 -73 l0 191 l-187 0 l0 103 l414 0 l0 -103 l-120 0 l0 -55 l115 0 l0 -96 q58 27 92.5 50.5 q34.5 23.5 51.5 51.5 q17 28 22 55 q5 27 5 71 l0 110 l97 -4 l0 -129 q0 -50 -7 -82 q109 -76 171 -133 ZM559 33 q135 -2 254 4 q-77 70 -118 103 q-40 -59 -136 -107 ZM358 110 l0 -71 q26 -2 42 -2 l90 -3 l-41 71 q2 1 6 2 q4 1 6 3 l-103 0 Z" /><glyph glyph-name="Identity.27151" unicode="&#x989d;" d="M157 637 l0 -71 l-95 0 l0 171 l155 0 l-16 65 l108 6 l15 -71 l151 0 l0 -154 l-96 0 l0 54 l-222 0 ZM600 488 l0 -353 l-97 0 l0 456 l123 0 q4 14 9 41 q5 27 6 32 l-138 0 l0 107 l406 0 l0 -107 l-156 0 l-15 -73 l150 0 l0 -457 l-97 0 l0 354 l-191 0 ZM734 178 q148 -115 215 -179 l-69 -94 q-93 103 -178 176 q-50 -93 -203 -182 l-61 93 l0 -54 l-327 0 l0 250 l-45 -20 l-40 97 q101 40 180 89 q-11 7 -31 18.5 q-20 11.5 -28 17.5 q-5 -6 -11.5 -12.5 q-6.5 -6.5 -15 -14.5 q-8.5 -8 -12.5 -12 l-64 82 q44 38 89 94.5 q45 56.5 68 101.5 l95 -35 q-3 -6 -9.5 -18 q-6.5 -12 -9.5 -18 l178 0 l0 -99 q-38 -60 -81 -100 l120 -71 l-39 -98 q-10 8 -17 12 l0 -203 q68 36 108.5 67.5 q40.5 31.5 62.5 69.5 q22 38 29 76.5 q7 38.5 7 99.5 l0 140 l98 -5 l0 -151 q0 -73 -9 -118 ZM215 467 l-9 -11 q7 -4 34.5 -20 q27.5 -16 45.5 -26 q39 31 62 57 l-133 0 ZM396 230 l-98 65 q-42 -31 -105 -65 l203 0 ZM342 37 l0 98 l-135 0 l0 -98 l135 0 Z" /><glyph glyph-name="Identity.27200" unicode="&#x98ce;" d="M858 186 l91 -52 q-9 -67 -26 -133 q-15 -56 -46 -86 q-31 -30 -63 -30 q-69 0 -97 95 q-11 37 -21 93 l-91 -83 q-48 84 -127 213 q-98 -139 -182 -223 l-80 78 q-34 -94 -71 -159 l-112 58 q61 107 84.5 195.5 q23.5 88.5 23.5 194.5 l0 426 l664 0 l0 -417 q0 -165 3 -211 q5 -94 19 -94 q15 0 24 62 q2 12 4 37.5 q2 25.5 3 35.5 ZM552 319 q62 -93 141 -222 q-10 69 -10 197 l0 357 l-421 0 l0 -108 l83 60 q46 -54 134 -179 q58 104 97 203 l105 -57 q-59 -133 -129 -251 ZM225 87 q100 100 184 224 q-109 164 -147 212 l0 -184 q0 -133 -37 -252 Z" /><glyph glyph-name="Identity.27722" unicode="&#x9ad8;" d="M563 731 l354 0 l0 -96 l-848 0 l0 96 l361 0 l-15 66 l132 6 l16 -72 ZM194 596 l599 0 l0 -215 l-599 0 l0 215 ZM670 469 l0 37 l-354 0 l0 -37 l354 0 ZM111 -99 l0 446 l769 0 l0 -308 q0 -78 -21 -106.5 q-21 -28.5 -75 -34.5 l-81 -8 l-35 107 l57 5 q21 2 26.5 13.5 q5.5 11.5 5.5 53.5 l0 188 l-524 0 l0 -356 l-122 0 ZM695 224 l0 -222 l-403 0 l0 222 l403 0 ZM577 94 l0 37 l-167 0 l0 -37 l167 0 Z" /><glyph glyph-name="Identity.27831" unicode="&#x9b45;" d="M842 104 l99 -33 q-9 -66 -10 -73 q-12 -53 -42 -70.5 q-30 -17.5 -107 -21.5 q-198 -11 -397 0 q-74 4 -101.5 33 q-27.5 29 -27.5 105 l0 63 q-51 -99 -149 -206 l-78 82 q80 77 125.5 147 q45.5 70 63.5 151 l-137 0 l0 438 l117 0 l21 71 l112 -5 l-20 -66 l165 0 l0 -438 l-160 0 q-2 -15 -5 -22 l37 -2 l0 -123 q17 11 21 22 q6 15 21 62 q15 47 21 63 l67 -26 q-7 -16 -20 -52 q-13 -36 -25 -58 q6 1 17 2 q11 1 17 3 q-8 14 -16 33 l51 26 q41 -63 66 -137 l-57 -35 q-6 21 -14 40 l-85 -16 q-9 -2 -24.5 -6.5 q-15.5 -4.5 -18.5 -5.5 l-21 73 l0 -46 q0 -39 10.5 -52 q10.5 -13 48.5 -15 q178 -11 356 0 q43 2 56 10.5 q13 8.5 17 32.5 q4 25 6 52 ZM549 144 l-55 93 q66 58 120 145 l-118 0 l0 107 l134 0 l0 85 l-115 0 l0 109 l115 0 l0 107 l104 -5 l0 -102 l128 0 l0 -109 l-128 0 l0 -85 l158 0 l0 -107 l-139 0 q79 -103 181 -164 l-64 -89 q-76 58 -136 134 l0 -224 l-104 0 l0 208 q-33 -51 -81 -103 ZM231 612 l-54 0 l0 -60 l54 0 l0 60 ZM381 552 l0 60 l-51 0 l0 -60 l51 0 ZM177 388 l54 0 l0 26 l0 33 l-54 0 l0 -59 ZM328 388 l53 0 l0 59 l-51 0 q0 -21 -2 -59 Z" /><glyph glyph-name="Identity.27846" unicode="&#x9b54;" d="M843 52 l88 -30 q-6 -42 -10 -62 q-8 -32 -31 -44 q-23 -12 -81 -16 q-98 -8 -193 0 q-60 4 -83.5 22.5 q-23.5 18.5 -23.5 66.5 l0 21 q-82 -65 -273 -124 l-39 96 q187 48 258 116 l-191 0 l0 252 l199 0 l14 47 l87 -2 l-28 41 l-24 -37 q-34 26 -60 41 l0 -62 l-97 0 l0 59 q-37 -37 -89 -67 l-40 68 l0 -35 q0 -172 -23.5 -279.5 q-23.5 -107.5 -83.5 -229.5 l-103 54 q55 114 77.5 204.5 q22.5 90.5 22.5 246.5 l0 347 l337 0 l-15 59 l132 6 l14 -65 l315 0 l0 -99 l-673 0 l0 -193 q52 24 90 56 l-64 0 l0 84 l103 0 l0 44 l97 -5 l0 -39 l96 0 l0 -84 l-68 0 q49 -25 72 -42 q32 18 64 42 l-45 0 l0 84 l80 0 l0 44 l97 -5 l0 -39 l136 0 l0 -84 l-87 0 q51 -35 123 -63 l-46 -84 q-71 36 -126 85 l0 -70 l-97 0 l0 62 q-29 -25 -70 -52 l-12 -38 l275 0 l0 -252 l-109 0 l13 -8 q-10 -15 -52 -48 q51 3 56 4 q-2 3 -12 16 l49 28 q19 -27 47 -77 q2 7 4 20 q2 13 3 19 ZM452 510 l0 -33 l20 33 l-20 0 ZM506 280 l-138 0 l0 -25 l138 0 l0 25 ZM741 255 l0 25 l-135 0 l0 -25 l135 0 ZM368 193 l0 -26 l132 0 q3 8 5 26 l-137 0 ZM603 167 l138 0 l0 26 l-135 0 l-3 -26 ZM780 -29 q29 3 39 8 q10 5 15 24 q0 2 1 3 l-43 -22 q-2 2 -4 5.5 q-2 3.5 -3 5.5 q-49 0 -128 -7 q-9 -1 -33 -4 l-14 58 q14 4 25 15 q19 19 34 41 l-86 0 q-1 -3 -11 -20 l35 -1 l0 -57 q0 -23 7 -35 q7 -12 28 -14 q69 -7 138 0 Z" /><glyph glyph-name="Identity.28845" unicode="&#x9f3b;" d="M816 742 l0 -324 l-659 0 l0 324 l233 0 l27 51 l137 -4 l-22 -47 l284 0 ZM704 675 l-434 0 l0 -26 l434 0 l0 26 ZM704 591 l-434 0 l0 -28 l434 0 l0 28 ZM270 480 l434 0 l0 25 l-434 0 l0 -25 ZM850 390 l0 -235 l-726 0 l0 235 l726 0 ZM432 330 l-195 0 l0 -27 l195 0 l0 27 ZM737 303 l0 27 l-194 0 l0 -27 l194 0 ZM237 245 l0 -26 l195 0 l0 26 l-195 0 ZM543 219 l194 0 l0 26 l-194 0 l0 -26 ZM917 128 l0 -88 l-199 0 l0 -129 l-126 0 l0 129 l-211 0 q-34 -123 -228 -157 l-49 95 q65 13 95 26 q30 13 45 36 l-188 0 l0 88 l861 0 Z" /></font>
</defs>
</svg>
